<?xml version="1.0" encoding="utf-8" standalone="no"?>
<!DOCTYPE svg PUBLIC "-//W3C//DTD SVG 1.1//EN"
  "http://www.w3.org/Graphics/SVG/1.1/DTD/svg11.dtd">
<svg xmlns:xlink="http://www.w3.org/1999/xlink" width="1440pt" height="1440pt" viewBox="0 0 1440 1440" xmlns="http://www.w3.org/2000/svg" version="1.1">
 <metadata>
  <rdf:RDF xmlns:dc="http://purl.org/dc/elements/1.1/" xmlns:cc="http://creativecommons.org/ns#" xmlns:rdf="http://www.w3.org/1999/02/22-rdf-syntax-ns#">
   <cc:Work>
    <dc:type rdf:resource="http://purl.org/dc/dcmitype/StillImage"/>
    <dc:date>2023-08-28T09:55:37.340758</dc:date>
    <dc:format>image/svg+xml</dc:format>
    <dc:creator>
     <cc:Agent>
      <dc:title>Matplotlib v3.7.1, https://matplotlib.org/</dc:title>
     </cc:Agent>
    </dc:creator>
   </cc:Work>
  </rdf:RDF>
 </metadata>
 <defs>
  <style type="text/css">*{stroke-linejoin: round; stroke-linecap: butt}</style>
 </defs>
 <g id="figure_1">
  <g id="patch_1">
   <path d="M 0 1440 
L 1440 1440 
L 1440 0 
L 0 0 
L 0 1440 
z
" style="fill: none"/>
  </g>
  <g id="axes_1">
   <g id="patch_2">
    <path d="M 180 1281.6 
L 1296 1281.6 
L 1296 172.8 
L 180 172.8 
L 180 1281.6 
z
" style="fill: none"/>
   </g>
   <g id="matplotlib.axis_1">
    <g id="xtick_1">
     <g id="line2d_1">
      <defs>
       <path id="m08a47e7256" d="M 0 0 
L 0 3.5 
" style="stroke: #000000; stroke-width: 0.8"/>
      </defs>
      <g>
       <use xlink:href="#m08a47e7256" x="180" y="1281.6" style="stroke: #000000; stroke-width: 0.8"/>
      </g>
     </g>
     <g id="text_1">
      <!-- 0.0 -->
      <g transform="translate(156.145312 1311.395313) scale(0.3 -0.3)">
       <defs>
        <path id="DejaVuSans-30" d="M 2034 4250 
Q 1547 4250 1301 3770 
Q 1056 3291 1056 2328 
Q 1056 1369 1301 889 
Q 1547 409 2034 409 
Q 2525 409 2770 889 
Q 3016 1369 3016 2328 
Q 3016 3291 2770 3770 
Q 2525 4250 2034 4250 
z
M 2034 4750 
Q 2819 4750 3233 4129 
Q 3647 3509 3647 2328 
Q 3647 1150 3233 529 
Q 2819 -91 2034 -91 
Q 1250 -91 836 529 
Q 422 1150 422 2328 
Q 422 3509 836 4129 
Q 1250 4750 2034 4750 
z
" transform="scale(0.015625)"/>
        <path id="DejaVuSans-2e" d="M 684 794 
L 1344 794 
L 1344 0 
L 684 0 
L 684 794 
z
" transform="scale(0.015625)"/>
       </defs>
       <use xlink:href="#DejaVuSans-30"/>
       <use xlink:href="#DejaVuSans-2e" x="63.623047"/>
       <use xlink:href="#DejaVuSans-30" x="95.410156"/>
      </g>
     </g>
    </g>
    <g id="xtick_2">
     <g id="line2d_2">
      <g>
       <use xlink:href="#m08a47e7256" x="403.2" y="1281.6" style="stroke: #000000; stroke-width: 0.8"/>
      </g>
     </g>
     <g id="text_2">
      <!-- 0.2 -->
      <g transform="translate(379.345313 1311.395313) scale(0.3 -0.3)">
       <defs>
        <path id="DejaVuSans-32" d="M 1228 531 
L 3431 531 
L 3431 0 
L 469 0 
L 469 531 
Q 828 903 1448 1529 
Q 2069 2156 2228 2338 
Q 2531 2678 2651 2914 
Q 2772 3150 2772 3378 
Q 2772 3750 2511 3984 
Q 2250 4219 1831 4219 
Q 1534 4219 1204 4116 
Q 875 4013 500 3803 
L 500 4441 
Q 881 4594 1212 4672 
Q 1544 4750 1819 4750 
Q 2544 4750 2975 4387 
Q 3406 4025 3406 3419 
Q 3406 3131 3298 2873 
Q 3191 2616 2906 2266 
Q 2828 2175 2409 1742 
Q 1991 1309 1228 531 
z
" transform="scale(0.015625)"/>
       </defs>
       <use xlink:href="#DejaVuSans-30"/>
       <use xlink:href="#DejaVuSans-2e" x="63.623047"/>
       <use xlink:href="#DejaVuSans-32" x="95.410156"/>
      </g>
     </g>
    </g>
    <g id="xtick_3">
     <g id="line2d_3">
      <g>
       <use xlink:href="#m08a47e7256" x="626.4" y="1281.6" style="stroke: #000000; stroke-width: 0.8"/>
      </g>
     </g>
     <g id="text_3">
      <!-- 0.4 -->
      <g transform="translate(602.545313 1311.395313) scale(0.3 -0.3)">
       <defs>
        <path id="DejaVuSans-34" d="M 2419 4116 
L 825 1625 
L 2419 1625 
L 2419 4116 
z
M 2253 4666 
L 3047 4666 
L 3047 1625 
L 3713 1625 
L 3713 1100 
L 3047 1100 
L 3047 0 
L 2419 0 
L 2419 1100 
L 313 1100 
L 313 1709 
L 2253 4666 
z
" transform="scale(0.015625)"/>
       </defs>
       <use xlink:href="#DejaVuSans-30"/>
       <use xlink:href="#DejaVuSans-2e" x="63.623047"/>
       <use xlink:href="#DejaVuSans-34" x="95.410156"/>
      </g>
     </g>
    </g>
    <g id="xtick_4">
     <g id="line2d_4">
      <g>
       <use xlink:href="#m08a47e7256" x="849.6" y="1281.6" style="stroke: #000000; stroke-width: 0.8"/>
      </g>
     </g>
     <g id="text_4">
      <!-- 0.6 -->
      <g transform="translate(825.745313 1311.395313) scale(0.3 -0.3)">
       <defs>
        <path id="DejaVuSans-36" d="M 2113 2584 
Q 1688 2584 1439 2293 
Q 1191 2003 1191 1497 
Q 1191 994 1439 701 
Q 1688 409 2113 409 
Q 2538 409 2786 701 
Q 3034 994 3034 1497 
Q 3034 2003 2786 2293 
Q 2538 2584 2113 2584 
z
M 3366 4563 
L 3366 3988 
Q 3128 4100 2886 4159 
Q 2644 4219 2406 4219 
Q 1781 4219 1451 3797 
Q 1122 3375 1075 2522 
Q 1259 2794 1537 2939 
Q 1816 3084 2150 3084 
Q 2853 3084 3261 2657 
Q 3669 2231 3669 1497 
Q 3669 778 3244 343 
Q 2819 -91 2113 -91 
Q 1303 -91 875 529 
Q 447 1150 447 2328 
Q 447 3434 972 4092 
Q 1497 4750 2381 4750 
Q 2619 4750 2861 4703 
Q 3103 4656 3366 4563 
z
" transform="scale(0.015625)"/>
       </defs>
       <use xlink:href="#DejaVuSans-30"/>
       <use xlink:href="#DejaVuSans-2e" x="63.623047"/>
       <use xlink:href="#DejaVuSans-36" x="95.410156"/>
      </g>
     </g>
    </g>
    <g id="xtick_5">
     <g id="line2d_5">
      <g>
       <use xlink:href="#m08a47e7256" x="1072.8" y="1281.6" style="stroke: #000000; stroke-width: 0.8"/>
      </g>
     </g>
     <g id="text_5">
      <!-- 0.8 -->
      <g transform="translate(1048.945313 1311.395313) scale(0.3 -0.3)">
       <defs>
        <path id="DejaVuSans-38" d="M 2034 2216 
Q 1584 2216 1326 1975 
Q 1069 1734 1069 1313 
Q 1069 891 1326 650 
Q 1584 409 2034 409 
Q 2484 409 2743 651 
Q 3003 894 3003 1313 
Q 3003 1734 2745 1975 
Q 2488 2216 2034 2216 
z
M 1403 2484 
Q 997 2584 770 2862 
Q 544 3141 544 3541 
Q 544 4100 942 4425 
Q 1341 4750 2034 4750 
Q 2731 4750 3128 4425 
Q 3525 4100 3525 3541 
Q 3525 3141 3298 2862 
Q 3072 2584 2669 2484 
Q 3125 2378 3379 2068 
Q 3634 1759 3634 1313 
Q 3634 634 3220 271 
Q 2806 -91 2034 -91 
Q 1263 -91 848 271 
Q 434 634 434 1313 
Q 434 1759 690 2068 
Q 947 2378 1403 2484 
z
M 1172 3481 
Q 1172 3119 1398 2916 
Q 1625 2713 2034 2713 
Q 2441 2713 2670 2916 
Q 2900 3119 2900 3481 
Q 2900 3844 2670 4047 
Q 2441 4250 2034 4250 
Q 1625 4250 1398 4047 
Q 1172 3844 1172 3481 
z
" transform="scale(0.015625)"/>
       </defs>
       <use xlink:href="#DejaVuSans-30"/>
       <use xlink:href="#DejaVuSans-2e" x="63.623047"/>
       <use xlink:href="#DejaVuSans-38" x="95.410156"/>
      </g>
     </g>
    </g>
    <g id="xtick_6">
     <g id="line2d_6">
      <g>
       <use xlink:href="#m08a47e7256" x="1296" y="1281.6" style="stroke: #000000; stroke-width: 0.8"/>
      </g>
     </g>
     <g id="text_6">
      <!-- 1.0 -->
      <g transform="translate(1272.145313 1311.395313) scale(0.3 -0.3)">
       <defs>
        <path id="DejaVuSans-31" d="M 794 531 
L 1825 531 
L 1825 4091 
L 703 3866 
L 703 4441 
L 1819 4666 
L 2450 4666 
L 2450 531 
L 3481 531 
L 3481 0 
L 794 0 
L 794 531 
z
" transform="scale(0.015625)"/>
       </defs>
       <use xlink:href="#DejaVuSans-31"/>
       <use xlink:href="#DejaVuSans-2e" x="63.623047"/>
       <use xlink:href="#DejaVuSans-30" x="95.410156"/>
      </g>
     </g>
    </g>
    <g id="text_7">
     <!-- Cumulative proportion of population -->
     <g transform="translate(325.71875 1352.028125) scale(0.4 -0.4)">
      <defs>
       <path id="DejaVuSans-Bold-43" d="M 4288 256 
Q 3956 84 3597 -3 
Q 3238 -91 2847 -91 
Q 1681 -91 1000 561 
Q 319 1213 319 2328 
Q 319 3447 1000 4098 
Q 1681 4750 2847 4750 
Q 3238 4750 3597 4662 
Q 3956 4575 4288 4403 
L 4288 3438 
Q 3953 3666 3628 3772 
Q 3303 3878 2944 3878 
Q 2300 3878 1931 3465 
Q 1563 3053 1563 2328 
Q 1563 1606 1931 1193 
Q 2300 781 2944 781 
Q 3303 781 3628 887 
Q 3953 994 4288 1222 
L 4288 256 
z
" transform="scale(0.015625)"/>
       <path id="DejaVuSans-Bold-75" d="M 500 1363 
L 500 3500 
L 1625 3500 
L 1625 3150 
Q 1625 2866 1622 2436 
Q 1619 2006 1619 1863 
Q 1619 1441 1641 1255 
Q 1663 1069 1716 984 
Q 1784 875 1895 815 
Q 2006 756 2150 756 
Q 2500 756 2700 1025 
Q 2900 1294 2900 1772 
L 2900 3500 
L 4019 3500 
L 4019 0 
L 2900 0 
L 2900 506 
Q 2647 200 2364 54 
Q 2081 -91 1741 -91 
Q 1134 -91 817 281 
Q 500 653 500 1363 
z
" transform="scale(0.015625)"/>
       <path id="DejaVuSans-Bold-6d" d="M 3781 2919 
Q 3994 3244 4286 3414 
Q 4578 3584 4928 3584 
Q 5531 3584 5847 3212 
Q 6163 2841 6163 2131 
L 6163 0 
L 5038 0 
L 5038 1825 
Q 5041 1866 5042 1909 
Q 5044 1953 5044 2034 
Q 5044 2406 4934 2573 
Q 4825 2741 4581 2741 
Q 4263 2741 4089 2478 
Q 3916 2216 3909 1719 
L 3909 0 
L 2784 0 
L 2784 1825 
Q 2784 2406 2684 2573 
Q 2584 2741 2328 2741 
Q 2006 2741 1831 2477 
Q 1656 2213 1656 1722 
L 1656 0 
L 531 0 
L 531 3500 
L 1656 3500 
L 1656 2988 
Q 1863 3284 2130 3434 
Q 2397 3584 2719 3584 
Q 3081 3584 3359 3409 
Q 3638 3234 3781 2919 
z
" transform="scale(0.015625)"/>
       <path id="DejaVuSans-Bold-6c" d="M 538 4863 
L 1656 4863 
L 1656 0 
L 538 0 
L 538 4863 
z
" transform="scale(0.015625)"/>
       <path id="DejaVuSans-Bold-61" d="M 2106 1575 
Q 1756 1575 1579 1456 
Q 1403 1338 1403 1106 
Q 1403 894 1545 773 
Q 1688 653 1941 653 
Q 2256 653 2472 879 
Q 2688 1106 2688 1447 
L 2688 1575 
L 2106 1575 
z
M 3816 1997 
L 3816 0 
L 2688 0 
L 2688 519 
Q 2463 200 2181 54 
Q 1900 -91 1497 -91 
Q 953 -91 614 226 
Q 275 544 275 1050 
Q 275 1666 698 1953 
Q 1122 2241 2028 2241 
L 2688 2241 
L 2688 2328 
Q 2688 2594 2478 2717 
Q 2269 2841 1825 2841 
Q 1466 2841 1156 2769 
Q 847 2697 581 2553 
L 581 3406 
Q 941 3494 1303 3539 
Q 1666 3584 2028 3584 
Q 2975 3584 3395 3211 
Q 3816 2838 3816 1997 
z
" transform="scale(0.015625)"/>
       <path id="DejaVuSans-Bold-74" d="M 1759 4494 
L 1759 3500 
L 2913 3500 
L 2913 2700 
L 1759 2700 
L 1759 1216 
Q 1759 972 1856 886 
Q 1953 800 2241 800 
L 2816 800 
L 2816 0 
L 1856 0 
Q 1194 0 917 276 
Q 641 553 641 1216 
L 641 2700 
L 84 2700 
L 84 3500 
L 641 3500 
L 641 4494 
L 1759 4494 
z
" transform="scale(0.015625)"/>
       <path id="DejaVuSans-Bold-69" d="M 538 3500 
L 1656 3500 
L 1656 0 
L 538 0 
L 538 3500 
z
M 538 4863 
L 1656 4863 
L 1656 3950 
L 538 3950 
L 538 4863 
z
" transform="scale(0.015625)"/>
       <path id="DejaVuSans-Bold-76" d="M 97 3500 
L 1216 3500 
L 2088 1081 
L 2956 3500 
L 4078 3500 
L 2700 0 
L 1472 0 
L 97 3500 
z
" transform="scale(0.015625)"/>
       <path id="DejaVuSans-Bold-65" d="M 4031 1759 
L 4031 1441 
L 1416 1441 
Q 1456 1047 1700 850 
Q 1944 653 2381 653 
Q 2734 653 3104 758 
Q 3475 863 3866 1075 
L 3866 213 
Q 3469 63 3072 -14 
Q 2675 -91 2278 -91 
Q 1328 -91 801 392 
Q 275 875 275 1747 
Q 275 2603 792 3093 
Q 1309 3584 2216 3584 
Q 3041 3584 3536 3087 
Q 4031 2591 4031 1759 
z
M 2881 2131 
Q 2881 2450 2695 2645 
Q 2509 2841 2209 2841 
Q 1884 2841 1681 2658 
Q 1478 2475 1428 2131 
L 2881 2131 
z
" transform="scale(0.015625)"/>
       <path id="DejaVuSans-Bold-20" transform="scale(0.015625)"/>
       <path id="DejaVuSans-Bold-70" d="M 1656 506 
L 1656 -1331 
L 538 -1331 
L 538 3500 
L 1656 3500 
L 1656 2988 
Q 1888 3294 2169 3439 
Q 2450 3584 2816 3584 
Q 3463 3584 3878 3070 
Q 4294 2556 4294 1747 
Q 4294 938 3878 423 
Q 3463 -91 2816 -91 
Q 2450 -91 2169 54 
Q 1888 200 1656 506 
z
M 2400 2772 
Q 2041 2772 1848 2508 
Q 1656 2244 1656 1747 
Q 1656 1250 1848 986 
Q 2041 722 2400 722 
Q 2759 722 2948 984 
Q 3138 1247 3138 1747 
Q 3138 2247 2948 2509 
Q 2759 2772 2400 2772 
z
" transform="scale(0.015625)"/>
       <path id="DejaVuSans-Bold-72" d="M 3138 2547 
Q 2991 2616 2845 2648 
Q 2700 2681 2553 2681 
Q 2122 2681 1889 2404 
Q 1656 2128 1656 1613 
L 1656 0 
L 538 0 
L 538 3500 
L 1656 3500 
L 1656 2925 
Q 1872 3269 2151 3426 
Q 2431 3584 2822 3584 
Q 2878 3584 2943 3579 
Q 3009 3575 3134 3559 
L 3138 2547 
z
" transform="scale(0.015625)"/>
       <path id="DejaVuSans-Bold-6f" d="M 2203 2784 
Q 1831 2784 1636 2517 
Q 1441 2250 1441 1747 
Q 1441 1244 1636 976 
Q 1831 709 2203 709 
Q 2569 709 2762 976 
Q 2956 1244 2956 1747 
Q 2956 2250 2762 2517 
Q 2569 2784 2203 2784 
z
M 2203 3584 
Q 3106 3584 3614 3096 
Q 4122 2609 4122 1747 
Q 4122 884 3614 396 
Q 3106 -91 2203 -91 
Q 1297 -91 786 396 
Q 275 884 275 1747 
Q 275 2609 786 3096 
Q 1297 3584 2203 3584 
z
" transform="scale(0.015625)"/>
       <path id="DejaVuSans-Bold-6e" d="M 4056 2131 
L 4056 0 
L 2931 0 
L 2931 347 
L 2931 1631 
Q 2931 2084 2911 2256 
Q 2891 2428 2841 2509 
Q 2775 2619 2662 2680 
Q 2550 2741 2406 2741 
Q 2056 2741 1856 2470 
Q 1656 2200 1656 1722 
L 1656 0 
L 538 0 
L 538 3500 
L 1656 3500 
L 1656 2988 
Q 1909 3294 2193 3439 
Q 2478 3584 2822 3584 
Q 3428 3584 3742 3212 
Q 4056 2841 4056 2131 
z
" transform="scale(0.015625)"/>
       <path id="DejaVuSans-Bold-66" d="M 2841 4863 
L 2841 4128 
L 2222 4128 
Q 1984 4128 1890 4042 
Q 1797 3956 1797 3744 
L 1797 3500 
L 2753 3500 
L 2753 2700 
L 1797 2700 
L 1797 0 
L 678 0 
L 678 2700 
L 122 2700 
L 122 3500 
L 678 3500 
L 678 3744 
Q 678 4316 997 4589 
Q 1316 4863 1984 4863 
L 2841 4863 
z
" transform="scale(0.015625)"/>
      </defs>
      <use xlink:href="#DejaVuSans-Bold-43"/>
      <use xlink:href="#DejaVuSans-Bold-75" x="73.388672"/>
      <use xlink:href="#DejaVuSans-Bold-6d" x="144.580078"/>
      <use xlink:href="#DejaVuSans-Bold-75" x="248.779297"/>
      <use xlink:href="#DejaVuSans-Bold-6c" x="319.970703"/>
      <use xlink:href="#DejaVuSans-Bold-61" x="354.248047"/>
      <use xlink:href="#DejaVuSans-Bold-74" x="421.728516"/>
      <use xlink:href="#DejaVuSans-Bold-69" x="469.53125"/>
      <use xlink:href="#DejaVuSans-Bold-76" x="503.808594"/>
      <use xlink:href="#DejaVuSans-Bold-65" x="568.994141"/>
      <use xlink:href="#DejaVuSans-Bold-20" x="636.816406"/>
      <use xlink:href="#DejaVuSans-Bold-70" x="671.630859"/>
      <use xlink:href="#DejaVuSans-Bold-72" x="743.212891"/>
      <use xlink:href="#DejaVuSans-Bold-6f" x="792.529297"/>
      <use xlink:href="#DejaVuSans-Bold-70" x="861.230469"/>
      <use xlink:href="#DejaVuSans-Bold-6f" x="932.8125"/>
      <use xlink:href="#DejaVuSans-Bold-72" x="1001.513672"/>
      <use xlink:href="#DejaVuSans-Bold-74" x="1050.830078"/>
      <use xlink:href="#DejaVuSans-Bold-69" x="1098.632812"/>
      <use xlink:href="#DejaVuSans-Bold-6f" x="1132.910156"/>
      <use xlink:href="#DejaVuSans-Bold-6e" x="1201.611328"/>
      <use xlink:href="#DejaVuSans-Bold-20" x="1272.802734"/>
      <use xlink:href="#DejaVuSans-Bold-6f" x="1307.617188"/>
      <use xlink:href="#DejaVuSans-Bold-66" x="1376.318359"/>
      <use xlink:href="#DejaVuSans-Bold-20" x="1419.824219"/>
      <use xlink:href="#DejaVuSans-Bold-70" x="1454.638672"/>
      <use xlink:href="#DejaVuSans-Bold-6f" x="1526.220703"/>
      <use xlink:href="#DejaVuSans-Bold-70" x="1594.921875"/>
      <use xlink:href="#DejaVuSans-Bold-75" x="1666.503906"/>
      <use xlink:href="#DejaVuSans-Bold-6c" x="1737.695312"/>
      <use xlink:href="#DejaVuSans-Bold-61" x="1771.972656"/>
      <use xlink:href="#DejaVuSans-Bold-74" x="1839.453125"/>
      <use xlink:href="#DejaVuSans-Bold-69" x="1887.255859"/>
      <use xlink:href="#DejaVuSans-Bold-6f" x="1921.533203"/>
      <use xlink:href="#DejaVuSans-Bold-6e" x="1990.234375"/>
     </g>
    </g>
   </g>
   <g id="matplotlib.axis_2">
    <g id="ytick_1">
     <g id="line2d_7">
      <defs>
       <path id="m23449348b0" d="M 0 0 
L 3.5 0 
" style="stroke: #000000; stroke-width: 0.8"/>
      </defs>
      <g>
       <use xlink:href="#m23449348b0" x="1296" y="1281.6" style="stroke: #000000; stroke-width: 0.8"/>
      </g>
     </g>
     <g id="text_8">
      <!-- 0.0 -->
      <g transform="translate(1303 1292.997656) scale(0.3 -0.3)">
       <use xlink:href="#DejaVuSans-30"/>
       <use xlink:href="#DejaVuSans-2e" x="63.623047"/>
       <use xlink:href="#DejaVuSans-30" x="95.410156"/>
      </g>
     </g>
    </g>
    <g id="ytick_2">
     <g id="line2d_8">
      <g>
       <use xlink:href="#m23449348b0" x="1296" y="1059.84" style="stroke: #000000; stroke-width: 0.8"/>
      </g>
     </g>
     <g id="text_9">
      <!-- 0.2 -->
      <g transform="translate(1303 1071.237656) scale(0.3 -0.3)">
       <use xlink:href="#DejaVuSans-30"/>
       <use xlink:href="#DejaVuSans-2e" x="63.623047"/>
       <use xlink:href="#DejaVuSans-32" x="95.410156"/>
      </g>
     </g>
    </g>
    <g id="ytick_3">
     <g id="line2d_9">
      <g>
       <use xlink:href="#m23449348b0" x="1296" y="838.08" style="stroke: #000000; stroke-width: 0.8"/>
      </g>
     </g>
     <g id="text_10">
      <!-- 0.4 -->
      <g transform="translate(1303 849.477656) scale(0.3 -0.3)">
       <use xlink:href="#DejaVuSans-30"/>
       <use xlink:href="#DejaVuSans-2e" x="63.623047"/>
       <use xlink:href="#DejaVuSans-34" x="95.410156"/>
      </g>
     </g>
    </g>
    <g id="ytick_4">
     <g id="line2d_10">
      <g>
       <use xlink:href="#m23449348b0" x="1296" y="616.32" style="stroke: #000000; stroke-width: 0.8"/>
      </g>
     </g>
     <g id="text_11">
      <!-- 0.6 -->
      <g transform="translate(1303 627.717656) scale(0.3 -0.3)">
       <use xlink:href="#DejaVuSans-30"/>
       <use xlink:href="#DejaVuSans-2e" x="63.623047"/>
       <use xlink:href="#DejaVuSans-36" x="95.410156"/>
      </g>
     </g>
    </g>
    <g id="ytick_5">
     <g id="line2d_11">
      <g>
       <use xlink:href="#m23449348b0" x="1296" y="394.56" style="stroke: #000000; stroke-width: 0.8"/>
      </g>
     </g>
     <g id="text_12">
      <!-- 0.8 -->
      <g transform="translate(1303 405.957656) scale(0.3 -0.3)">
       <use xlink:href="#DejaVuSans-30"/>
       <use xlink:href="#DejaVuSans-2e" x="63.623047"/>
       <use xlink:href="#DejaVuSans-38" x="95.410156"/>
      </g>
     </g>
    </g>
    <g id="ytick_6">
     <g id="line2d_12">
      <g>
       <use xlink:href="#m23449348b0" x="1296" y="172.8" style="stroke: #000000; stroke-width: 0.8"/>
      </g>
     </g>
     <g id="text_13">
      <!-- 1.0 -->
      <g transform="translate(1303 184.197656) scale(0.3 -0.3)">
       <use xlink:href="#DejaVuSans-31"/>
       <use xlink:href="#DejaVuSans-2e" x="63.623047"/>
       <use xlink:href="#DejaVuSans-30" x="95.410156"/>
      </g>
     </g>
    </g>
    <g id="text_14">
     <!-- Cumulative proportion of jobs -->
     <g transform="translate(1385.103125 1064.940625) rotate(-90) scale(0.4 -0.4)">
      <defs>
       <path id="DejaVuSans-Bold-6a" d="M 538 3500 
L 1656 3500 
L 1656 63 
Q 1656 -641 1318 -1011 
Q 981 -1381 341 -1381 
L -213 -1381 
L -213 -647 
L -19 -647 
Q 300 -647 419 -503 
Q 538 -359 538 63 
L 538 3500 
z
M 538 4863 
L 1656 4863 
L 1656 3950 
L 538 3950 
L 538 4863 
z
" transform="scale(0.015625)"/>
       <path id="DejaVuSans-Bold-62" d="M 2400 722 
Q 2759 722 2948 984 
Q 3138 1247 3138 1747 
Q 3138 2247 2948 2509 
Q 2759 2772 2400 2772 
Q 2041 2772 1848 2508 
Q 1656 2244 1656 1747 
Q 1656 1250 1848 986 
Q 2041 722 2400 722 
z
M 1656 2988 
Q 1888 3294 2169 3439 
Q 2450 3584 2816 3584 
Q 3463 3584 3878 3070 
Q 4294 2556 4294 1747 
Q 4294 938 3878 423 
Q 3463 -91 2816 -91 
Q 2450 -91 2169 54 
Q 1888 200 1656 506 
L 1656 0 
L 538 0 
L 538 4863 
L 1656 4863 
L 1656 2988 
z
" transform="scale(0.015625)"/>
       <path id="DejaVuSans-Bold-73" d="M 3272 3391 
L 3272 2541 
Q 2913 2691 2578 2766 
Q 2244 2841 1947 2841 
Q 1628 2841 1473 2761 
Q 1319 2681 1319 2516 
Q 1319 2381 1436 2309 
Q 1553 2238 1856 2203 
L 2053 2175 
Q 2913 2066 3209 1816 
Q 3506 1566 3506 1031 
Q 3506 472 3093 190 
Q 2681 -91 1863 -91 
Q 1516 -91 1145 -36 
Q 775 19 384 128 
L 384 978 
Q 719 816 1070 734 
Q 1422 653 1784 653 
Q 2113 653 2278 743 
Q 2444 834 2444 1013 
Q 2444 1163 2330 1236 
Q 2216 1309 1875 1350 
L 1678 1375 
Q 931 1469 631 1722 
Q 331 1975 331 2491 
Q 331 3047 712 3315 
Q 1094 3584 1881 3584 
Q 2191 3584 2531 3537 
Q 2872 3491 3272 3391 
z
" transform="scale(0.015625)"/>
      </defs>
      <use xlink:href="#DejaVuSans-Bold-43"/>
      <use xlink:href="#DejaVuSans-Bold-75" x="73.388672"/>
      <use xlink:href="#DejaVuSans-Bold-6d" x="144.580078"/>
      <use xlink:href="#DejaVuSans-Bold-75" x="248.779297"/>
      <use xlink:href="#DejaVuSans-Bold-6c" x="319.970703"/>
      <use xlink:href="#DejaVuSans-Bold-61" x="354.248047"/>
      <use xlink:href="#DejaVuSans-Bold-74" x="421.728516"/>
      <use xlink:href="#DejaVuSans-Bold-69" x="469.53125"/>
      <use xlink:href="#DejaVuSans-Bold-76" x="503.808594"/>
      <use xlink:href="#DejaVuSans-Bold-65" x="568.994141"/>
      <use xlink:href="#DejaVuSans-Bold-20" x="636.816406"/>
      <use xlink:href="#DejaVuSans-Bold-70" x="671.630859"/>
      <use xlink:href="#DejaVuSans-Bold-72" x="743.212891"/>
      <use xlink:href="#DejaVuSans-Bold-6f" x="792.529297"/>
      <use xlink:href="#DejaVuSans-Bold-70" x="861.230469"/>
      <use xlink:href="#DejaVuSans-Bold-6f" x="932.8125"/>
      <use xlink:href="#DejaVuSans-Bold-72" x="1001.513672"/>
      <use xlink:href="#DejaVuSans-Bold-74" x="1050.830078"/>
      <use xlink:href="#DejaVuSans-Bold-69" x="1098.632812"/>
      <use xlink:href="#DejaVuSans-Bold-6f" x="1132.910156"/>
      <use xlink:href="#DejaVuSans-Bold-6e" x="1201.611328"/>
      <use xlink:href="#DejaVuSans-Bold-20" x="1272.802734"/>
      <use xlink:href="#DejaVuSans-Bold-6f" x="1307.617188"/>
      <use xlink:href="#DejaVuSans-Bold-66" x="1376.318359"/>
      <use xlink:href="#DejaVuSans-Bold-20" x="1419.824219"/>
      <use xlink:href="#DejaVuSans-Bold-6a" x="1454.638672"/>
      <use xlink:href="#DejaVuSans-Bold-6f" x="1488.916016"/>
      <use xlink:href="#DejaVuSans-Bold-62" x="1557.617188"/>
      <use xlink:href="#DejaVuSans-Bold-73" x="1629.199219"/>
     </g>
    </g>
   </g>
   <g id="line2d_13">
    <path d="M 180.000607 1281.6 
L 308.613823 1281.489011 
L 317.128843 1281.219024 
L 317.442996 1281.21027 
L 321.305655 1281.096294 
L 325.012924 1281.032542 
L 331.819974 1280.918953 
L 332.600984 1280.828607 
L 336.82083 1280.714658 
L 337.079572 1280.689785 
L 339.368166 1280.601318 
L 343.726766 1280.487984 
L 343.728429 1280.48443 
L 348.595883 1280.372269 
L 351.580203 1280.05316 
L 351.787886 1280.018305 
L 355.327576 1279.903939 
L 357.916407 1279.715369 
L 358.095536 1279.651588 
L 360.310578 1279.535755 
L 361.053948 1279.448581 
L 362.886457 1279.335692 
L 363.811099 1279.244408 
L 364.481422 1279.131884 
L 364.844822 1279.033809 
L 366.642333 1278.920257 
L 376.963254 1278.279294 
L 377.703666 1278.102028 
L 379.272427 1277.988662 
L 380.856682 1277.701867 
L 381.069634 1277.586553 
L 383.336921 1277.47356 
L 390.60156 1277.038861 
L 395.811912 1276.925804 
L 398.747013 1276.752466 
L 401.320726 1276.640802 
L 401.988773 1276.430815 
L 403.982786 1276.317625 
L 404.13805 1276.296118 
L 406.835952 1275.922934 
L 407.584408 1275.742098 
L 409.45063 1275.628635 
L 411.383822 1275.374836 
L 412.844293 1275.262342 
L 412.985835 1275.237988 
L 415.132491 1275.01996 
L 416.853297 1274.905448 
L 416.961249 1274.885584 
L 418.555616 1274.667075 
L 421.98922 1274.552527 
L 428.878767 1273.586816 
L 428.905032 1273.571661 
L 429.367391 1273.458687 
L 429.392248 1273.435266 
L 429.939748 1273.321286 
L 430.263921 1272.994499 
L 431.130997 1272.881429 
L 434.450009 1272.148409 
L 436.975362 1272.033286 
L 437.535232 1271.909467 
L 438.879038 1271.68582 
L 440.073955 1271.574006 
L 441.257326 1271.258894 
L 443.200899 1271.141595 
L 443.479041 1271.057356 
L 444.358484 1270.81536 
L 444.418986 1270.786259 
L 445.373342 1270.672627 
L 445.504281 1270.591523 
L 446.557097 1270.177919 
L 446.759936 1269.937706 
L 446.938455 1269.823562 
L 446.991032 1269.767342 
L 447.605941 1269.651881 
L 447.635654 1269.63438 
L 448.092896 1269.520623 
L 448.741099 1269.238855 
L 449.806946 1269.124763 
L 449.964115 1269.052767 
L 450.641114 1268.938628 
L 454.17584 1268.154686 
L 454.183153 1268.147581 
L 455.070073 1268.034501 
L 455.41519 1267.781835 
L 455.561287 1267.574942 
L 455.561289 1267.573111 
L 456.346232 1267.456761 
L 456.441224 1267.387241 
L 456.912668 1267.272626 
L 457.451291 1266.985132 
L 458.567221 1266.869467 
L 460.089895 1266.403017 
L 461.304872 1266.289299 
L 462.065255 1265.822733 
L 463.429395 1265.707677 
L 463.783427 1265.593689 
L 464.676362 1265.479701 
L 467.225278 1265.020021 
L 467.2635 1264.976808 
L 467.55072 1264.86363 
L 467.966441 1264.548792 
L 468.741319 1264.434098 
L 468.924071 1264.334024 
L 469.446196 1264.221174 
L 470.201639 1263.893269 
L 471.426583 1263.779865 
L 471.944683 1263.439478 
L 472.29316 1263.326016 
L 472.592218 1263.216818 
L 473.537939 1263.102896 
L 473.985376 1262.92019 
L 474.9593 1262.610666 
L 475.003342 1262.563378 
L 476.921131 1262.441341 
L 477.844765 1262.245059 
L 481.573898 1261.587487 
L 482.178337 1261.467917 
L 487.949448 1260.64435 
L 488.35567 1260.52375 
L 488.405343 1260.489618 
L 491.707311 1260.373283 
L 496.420765 1260.067569 
L 498.055301 1259.885053 
L 498.7974 1259.80064 
L 502.361305 1259.688424 
L 502.59347 1259.290822 
L 502.732534 1259.177894 
L 502.860401 1259.04118 
L 504.500075 1258.927553 
L 505.72546 1258.639859 
L 506.196005 1258.48755 
L 507.178754 1258.373923 
L 507.263527 1258.327989 
L 509.004396 1258.211693 
L 509.766032 1257.932908 
L 510.439069 1257.818969 
L 510.883783 1257.571699 
L 511.919639 1257.456712 
L 513.141864 1257.047487 
L 513.969904 1256.932316 
L 514.258181 1256.8441 
L 515.524382 1256.730143 
L 515.92923 1255.976804 
L 516.394653 1255.864268 
L 516.718371 1255.589789 
L 516.817093 1255.45804 
L 517.079309 1255.345504 
L 517.363382 1255.158672 
L 517.704551 1255.045045 
L 518.129008 1254.338339 
L 520.560077 1254.177001 
L 521.43551 1254.048989 
L 523.73703 1253.934891 
L 527.685567 1253.475716 
L 531.268446 1253.364121 
L 531.719627 1252.995724 
L 532.107088 1252.599419 
L 532.395849 1252.485488 
L 532.556731 1252.323135 
L 532.901247 1252.209204 
L 533.523363 1251.73354 
L 534.39018 1251.619302 
L 534.603214 1251.47645 
L 534.660194 1251.442165 
L 535.144951 1251.327883 
L 535.957144 1250.859328 
L 537.367985 1250.743378 
L 539.415391 1249.683867 
L 539.438856 1249.642571 
L 539.670158 1249.527532 
L 540.088895 1249.037878 
L 541.167603 1248.919782 
L 541.374535 1248.739668 
L 541.873424 1248.624513 
L 542.34935 1248.293811 
L 542.506171 1248.131413 
L 543.70779 1248.008679 
L 546.528857 1247.216549 
L 549.263497 1247.102446 
L 549.746385 1246.721004 
L 550.234253 1246.474719 
L 550.461492 1246.291507 
L 551.892223 1246.176554 
L 552.158636 1245.961151 
L 552.690745 1245.845865 
L 553.609494 1245.345279 
L 554.804913 1245.231339 
L 555.141738 1244.804635 
L 555.542498 1244.387208 
L 557.804707 1244.258627 
L 558.335657 1244.047899 
L 558.440729 1243.997576 
L 559.546147 1243.739671 
L 559.799621 1243.64217 
L 560.890647 1243.528943 
L 561.073711 1243.415716 
L 562.288246 1243.301482 
L 562.967501 1242.872193 
L 564.140017 1242.423825 
L 568.296927 1242.298428 
L 569.794151 1242.015125 
L 576.664002 1241.209781 
L 576.764841 1241.089851 
L 577.174145 1240.976583 
L 577.496065 1240.723397 
L 577.763131 1240.406915 
L 578.246656 1240.290267 
L 578.39508 1240.052071 
L 578.659379 1239.938151 
L 578.98226 1239.624008 
L 579.181572 1239.340934 
L 580.284337 1239.223313 
L 580.520883 1238.984503 
L 580.62712 1238.894516 
L 581.6083 1238.306143 
L 581.632336 1238.278455 
L 582.622273 1238.157116 
L 582.860181 1237.914315 
L 583.297027 1237.612549 
L 583.5609 1237.383623 
L 583.764585 1237.241411 
L 583.776904 1237.206726 
L 586.04287 1237.083659 
L 586.374045 1236.882432 
L 588.338116 1236.070274 
L 589.121933 1235.956086 
L 589.613684 1235.741984 
L 590.504247 1235.627796 
L 590.9358 1235.485061 
L 591.823352 1235.142497 
L 592.20021 1235.006899 
L 594.396165 1234.892613 
L 594.67508 1234.760444 
L 595.737699 1234.392514 
L 596.362215 1234.246056 
L 597.469021 1234.131748 
L 597.763046 1233.992435 
L 597.975672 1233.913848 
L 600.090321 1233.801211 
L 600.237885 1233.541455 
L 600.725693 1232.813408 
L 600.738301 1232.769506 
L 601.9662 1232.630434 
L 602.27485 1232.388876 
L 602.386751 1232.308356 
L 603.867124 1231.7374 
L 603.924883 1231.656881 
L 604.504536 1231.541636 
L 604.699217 1231.039803 
L 604.935359 1230.923708 
L 605.076315 1230.624106 
L 605.142464 1230.485541 
L 605.930691 1230.363371 
L 606.147076 1230.09495 
L 606.530112 1229.669311 
L 606.823863 1229.554274 
L 606.971491 1229.282018 
L 609.659922 1229.127586 
L 609.776611 1229.073525 
L 611.356032 1228.679655 
L 612.705809 1228.56381 
L 613.571276 1228.266477 
L 613.908947 1228.096572 
L 615.386923 1227.980835 
L 615.599608 1227.688407 
L 615.708219 1227.572237 
L 616.438338 1226.971357 
L 616.475364 1226.883228 
L 618.801073 1226.733655 
L 619.643847 1226.437691 
L 619.744776 1226.380931 
L 621.189466 1226.032262 
L 621.504769 1225.902524 
L 622.719801 1225.789004 
L 623.058356 1225.626832 
L 624.854926 1225.509135 
L 625.279978 1225.228989 
L 626.068905 1224.758018 
L 626.626111 1224.644336 
L 626.918884 1224.372309 
L 627.644528 1224.25734 
L 627.760998 1224.084114 
L 627.883749 1223.93151 
L 628.258328 1223.816026 
L 629.015369 1223.086001 
L 631.235369 1222.960502 
L 631.845517 1222.696212 
L 633.292827 1222.192802 
L 634.309928 1222.079535 
L 634.796943 1221.781684 
L 638.355082 1221.651237 
L 638.938757 1221.461816 
L 639.29476 1221.37342 
L 639.853301 1221.226092 
L 641.355133 1220.948275 
L 641.896204 1220.796738 
L 643.575138 1220.683085 
L 643.988062 1220.489455 
L 646.347075 1220.370512 
L 646.654278 1220.170464 
L 646.957822 1219.970415 
L 647.74698 1219.617138 
L 647.77776 1219.587344 
L 648.498629 1219.472423 
L 648.852122 1219.161709 
L 649.640308 1219.046403 
L 649.8353 1218.717124 
L 650.156942 1218.601431 
L 650.822055 1217.804931 
L 652.109818 1217.682388 
L 652.357891 1217.435932 
L 652.467968 1217.344651 
L 652.782921 1217.130142 
L 653.141548 1216.810661 
L 653.478529 1216.381644 
L 654.433948 1216.260481 
L 654.746178 1215.671727 
L 654.761764 1215.643691 
L 655.127162 1215.526875 
L 655.324665 1215.241843 
L 655.478043 1214.961484 
L 656.454177 1214.839893 
L 657.373569 1213.520618 
L 658.4795 1213.402564 
L 658.588394 1213.260159 
L 658.940195 1213.008576 
L 659.615745 1212.894652 
L 660.17897 1212.638323 
L 660.719017 1212.329778 
L 660.980526 1212.139905 
L 661.118807 1212.035474 
L 664.645221 1211.911904 
L 665.249592 1211.702725 
L 665.45304 1211.621905 
L 668.475424 1210.704367 
L 668.663504 1210.585515 
L 668.684175 1210.571252 
L 671.785229 1210.447456 
L 673.092086 1209.41375 
L 673.343166 1209.108878 
L 674.904881 1208.979552 
L 675.428972 1208.624283 
L 675.452036 1208.60988 
L 676.280827 1208.494658 
L 677.005108 1208.201801 
L 677.598661 1207.908944 
L 677.820241 1207.764916 
L 678.09251 1207.625689 
L 679.719062 1207.508692 
L 679.837607 1207.169773 
L 680.004592 1206.840679 
L 680.171476 1206.727706 
L 680.33124 1206.113724 
L 683.630846 1205.872793 
L 684.399584 1205.592461 
L 685.910094 1205.479345 
L 687.316113 1205.194095 
L 689.015821 1204.564578 
L 690.929157 1204.450601 
L 691.600135 1203.681622 
L 691.959818 1203.388915 
L 692.201439 1203.041634 
L 693.25188 1202.927133 
L 693.568342 1202.518519 
L 694.027022 1202.403907 
L 694.737672 1201.855767 
L 694.921809 1201.641493 
L 695.069949 1201.487017 
L 696.574256 1201.366935 
L 696.760602 1201.141697 
L 696.777252 1201.111666 
L 697.230715 1200.996544 
L 697.556375 1200.756291 
L 697.766561 1200.526048 
L 698.165572 1199.990483 
L 698.59244 1199.874089 
L 698.592686 1199.848484 
L 699.992083 1199.735823 
L 700.110922 1199.643645 
L 700.454696 1199.438807 
L 701.182589 1199.326145 
L 702.0711 1198.947194 
L 702.709069 1198.363404 
L 703.576107 1198.249619 
L 703.70416 1197.897373 
L 703.929047 1197.415624 
L 703.968964 1197.280942 
L 704.125683 1197.166979 
L 704.213966 1196.799193 
L 706.355255 1196.605514 
L 707.008534 1196.421599 
L 707.781311 1196.227174 
L 709.997291 1196.11157 
L 711.574313 1195.827814 
L 713.161988 1195.544059 
L 714.753298 1195.149954 
L 718.940761 1195.036508 
L 719.052844 1194.949335 
L 719.238469 1194.655127 
L 719.838049 1193.990434 
L 720.237043 1193.876019 
L 720.471882 1193.48919 
L 721.811658 1193.355816 
L 721.918309 1193.271476 
L 722.192821 1193.142155 
L 722.413951 1193.018457 
L 723.656145 1192.906004 
L 724.282768 1192.608004 
L 725.050571 1192.42808 
L 725.98092 1192.135702 
L 726.686187 1191.781476 
L 726.695834 1191.736495 
L 729.033976 1191.62194 
L 729.293464 1191.125478 
L 729.620738 1191.010022 
L 730.359505 1189.942053 
L 731.644753 1189.820085 
L 731.787683 1189.657228 
L 732.523497 1189.162842 
L 732.868432 1188.97672 
L 733.479137 1188.714986 
L 734.366834 1188.59866 
L 734.815996 1188.278763 
L 734.951695 1188.17407 
L 736.892046 1188.057086 
L 737.34483 1187.551744 
L 737.966333 1187.434222 
L 738.491328 1187.081658 
L 738.949492 1186.770226 
L 739.365734 1186.40591 
L 739.382443 1186.335397 
L 740.828207 1186.21639 
L 740.874548 1186.084938 
L 741.356856 1185.971411 
L 742.180249 1185.158798 
L 742.40481 1184.895894 
L 742.697294 1184.573238 
L 742.727352 1184.483612 
L 744.677461 1184.362792 
L 745.091717 1183.890311 
L 745.617596 1183.484462 
L 746.195018 1182.654591 
L 746.584699 1182.542392 
L 746.587877 1182.522863 
L 746.996324 1182.40569 
L 747.299574 1181.936996 
L 747.74058 1181.819823 
L 748.046785 1181.494341 
L 748.346987 1181.194898 
L 748.78957 1180.609031 
L 750.670311 1180.485211 
L 751.116788 1180.087528 
L 751.529901 1179.755038 
L 752.296421 1179.220447 
L 752.296421 1179.213928 
L 752.958808 1179.096579 
L 753.389981 1178.568507 
L 754.525879 1178.449948 
L 754.726706 1178.087466 
L 754.932464 1177.777708 
L 755.388627 1177.217508 
L 755.734494 1177.098877 
L 755.959723 1176.604583 
L 756.58772 1176.479324 
L 757.145304 1175.489909 
L 757.461063 1175.1667 
L 757.572358 1175.01499 
L 757.686973 1174.770934 
L 757.839779 1174.553263 
L 761.054768 1174.411618 
L 761.15976 1174.356575 
L 761.852239 1174.067599 
L 762.031741 1173.957513 
L 762.401701 1173.757983 
L 762.605051 1173.668538 
L 763.871872 1173.248835 
L 764.231689 1173.063065 
L 765.564296 1172.946099 
L 766.446752 1172.388789 
L 766.447909 1172.381909 
L 769.083372 1172.255265 
L 769.194102 1172.177529 
L 769.430604 1171.916055 
L 769.597701 1171.725249 
L 770.138045 1171.31537 
L 770.41197 1171.053896 
L 771.038111 1170.227071 
L 772.071603 1170.105953 
L 772.178136 1169.905331 
L 772.240627 1169.683215 
L 772.403522 1169.310632 
L 772.622425 1169.08135 
L 772.929134 1168.966709 
L 773.294218 1168.013757 
L 775.224563 1167.847555 
L 775.339064 1167.796784 
L 775.68608 1167.550183 
L 775.792357 1167.41963 
L 776.064486 1167.245559 
L 776.165912 1167.122259 
L 777.430604 1166.491251 
L 777.443901 1166.476745 
L 778.45213 1166.360698 
L 778.990342 1165.99805 
L 779.121513 1165.787714 
L 779.905478 1165.671439 
L 779.90573 1165.664153 
L 780.256835 1165.547585 
L 780.504266 1165.008456 
L 780.878268 1164.891887 
L 781.853123 1163.500351 
L 782.515111 1163.382778 
L 782.530271 1163.323825 
L 784.600498 1163.205918 
L 784.851517 1162.984843 
L 785.04686 1162.859567 
L 785.715417 1162.520584 
L 786.487913 1162.225817 
L 786.882475 1161.945788 
L 787.974273 1161.827881 
L 788.718432 1161.275193 
L 791.345786 1161.142214 
L 791.447235 1161.045796 
L 792.011452 1160.741708 
L 792.197045 1160.578539 
L 793.921936 1159.651441 
L 794.942914 1159.532772 
L 795.667397 1158.976514 
L 796.870685 1158.857336 
L 796.889439 1158.82733 
L 797.527624 1158.714806 
L 797.720005 1158.369733 
L 797.885386 1158.002155 
L 798.312909 1157.492046 
L 798.699137 1156.621861 
L 799.278991 1156.4994 
L 799.394366 1156.036014 
L 799.615176 1155.317767 
L 799.679638 1155.00112 
L 799.835389 1154.885274 
L 799.948769 1154.25198 
L 804.234097 1153.906287 
L 804.508676 1153.695665 
L 804.674117 1153.574151 
L 805.130267 1153.339226 
L 805.252663 1153.242016 
L 806.602313 1152.853174 
L 807.180532 1152.504836 
L 807.843782 1152.132196 
L 808.229406 1151.864867 
L 808.334511 1151.759556 
L 810.008094 1151.637583 
L 810.103594 1151.400751 
L 810.758196 1151.286418 
L 811.415492 1150.469757 
L 811.872911 1150.175759 
L 812.036104 1149.963427 
L 812.478105 1149.391764 
L 812.614015 1149.228431 
L 813.71426 1149.11361 
L 813.733371 1149.055955 
L 813.971105 1148.940645 
L 814.117313 1148.47117 
L 814.150395 1148.380569 
L 814.407256 1148.265259 
L 815.046417 1146.659158 
L 815.709095 1146.541458 
L 815.822745 1145.846474 
L 816.014653 1144.863325 
L 816.130742 1144.74467 
L 816.31177 1143.990176 
L 817.384009 1143.87025 
L 817.739684 1143.510471 
L 817.893513 1143.296317 
L 818.873877 1142.336907 
L 818.934281 1142.242679 
L 819.529158 1142.122753 
L 819.951613 1141.446026 
L 820.508423 1141.325779 
L 820.519047 1141.29984 
L 821.574995 1141.187437 
L 821.715859 1140.988571 
L 822.392411 1140.513021 
L 823.490108 1140.400619 
L 824.346634 1139.89913 
L 825.066275 1139.51869 
L 825.369849 1139.35441 
L 825.492027 1139.198775 
L 825.853255 1138.948031 
L 826.200411 1138.740518 
L 829.539222 1138.618131 
L 829.648383 1138.424232 
L 829.877627 1138.045246 
L 830.051749 1137.851346 
L 830.301262 1137.542869 
L 830.821487 1136.899474 
L 831.243402 1136.044553 
L 832.811291 1135.902825 
L 832.909126 1135.760184 
L 833.177456 1135.501647 
L 833.49014 1134.966744 
L 833.6381 1134.850849 
L 834.288695 1134.298116 
L 834.428443 1134.093069 
L 835.089439 1133.977174 
L 835.52614 1133.38878 
L 835.576151 1133.272885 
L 836.126665 1133.158697 
L 836.178193 1133.055132 
L 836.832929 1132.94121 
L 837.146734 1132.46481 
L 837.166718 1132.43374 
L 837.873867 1132.319819 
L 838.697862 1131.418802 
L 839.086699 1131.056324 
L 839.202727 1130.932045 
L 839.385542 1130.683489 
L 839.566644 1130.393506 
L 839.847708 1130.072454 
L 839.847731 1130.062098 
L 841.106912 1129.948122 
L 841.109831 1129.927391 
L 841.429174 1129.813371 
L 841.687483 1128.994499 
L 842.016306 1128.880479 
L 842.30418 1128.248185 
L 842.601333 1127.709181 
L 842.879542 1126.879944 
L 844.824619 1126.744836 
L 844.926733 1126.546762 
L 845.121689 1126.254864 
L 845.310612 1125.671067 
L 845.438434 1125.525118 
L 845.83478 1125.087271 
L 846.492881 1123.690329 
L 846.951141 1123.575547 
L 846.951141 1123.565013 
L 848.093342 1123.449145 
L 848.203761 1123.333277 
L 848.460472 1122.985672 
L 848.612666 1122.743402 
L 848.781422 1122.574866 
L 849.400231 1122.458998 
L 849.633361 1122.248328 
L 850.319915 1121.563652 
L 850.907151 1120.478703 
L 851.47477 1120.362835 
L 851.484981 1120.320692 
L 852.444826 1120.204729 
L 852.558981 1120.078224 
L 852.739882 1119.80413 
L 852.829587 1119.55112 
L 853.387737 1119.435157 
L 854.210589 1118.380948 
L 854.823632 1117.158065 
L 855.305217 1117.040993 
L 855.413296 1116.724551 
L 855.440209 1116.680903 
L 856.278641 1116.560874 
L 856.894543 1115.535164 
L 857.183413 1115.08778 
L 857.300003 1114.825896 
L 857.736084 1114.705866 
L 858.04299 1113.876569 
L 858.434434 1113.756539 
L 858.455258 1113.668739 
L 859.557049 1113.535774 
L 860.522003 1111.862629 
L 860.997735 1111.397252 
L 861.108682 1111.219965 
L 861.28866 1110.84323 
L 861.578396 1110.366772 
L 863.34713 1110.243876 
L 863.384711 1110.198206 
L 864.639966 1110.08403 
L 865.087677 1109.535987 
L 865.235114 1109.296218 
L 865.720052 1108.736757 
L 866.21029 1108.222966 
L 866.485413 1107.800516 
L 866.968923 1106.989868 
L 867.049316 1106.830022 
L 867.687156 1106.714829 
L 867.690558 1106.691316 
L 868.090851 1106.573749 
L 868.858508 1104.751466 
L 869.110522 1104.328226 
L 869.524468 1104.210659 
L 869.911314 1103.211342 
L 870.710777 1103.093324 
L 870.819696 1102.841697 
L 871.27049 1102.721874 
L 871.385816 1102.398353 
L 872.30891 1100.612996 
L 872.803155 1100.493174 
L 873.200894 1099.606486 
L 874.150848 1099.486664 
L 874.213972 1099.254219 
L 874.840044 1099.130718 
L 875.05849 1098.723165 
L 875.396306 1098.15506 
L 876.086389 1098.031559 
L 876.604101 1097.377004 
L 877.371352 1096.598947 
L 877.655097 1096.055543 
L 879.015558 1095.932042 
L 879.117896 1095.70974 
L 879.158291 1095.48731 
L 880.189601 1095.363666 
L 881.240769 1094.151959 
L 882.588708 1093.286454 
L 882.933206 1093.039167 
L 882.937232 1093.002074 
L 884.167519 1092.87843 
L 884.498388 1092.532228 
L 884.665543 1092.322034 
L 885.039982 1092.037654 
L 885.125211 1091.852189 
L 887.200983 1091.73965 
L 887.215514 1091.714083 
L 888.748964 1091.599027 
L 888.855814 1091.471187 
L 889.148686 1091.164372 
L 889.573762 1090.525174 
L 889.669039 1090.282279 
L 890.487931 1089.796488 
L 891.363426 1089.681433 
L 892.539789 1087.93003 
L 893.281672 1087.814953 
L 893.290501 1087.776536 
L 894.258065 1087.661285 
L 894.374582 1087.443588 
L 894.598762 1087.008195 
L 894.799652 1086.63683 
L 894.929141 1086.36791 
L 895.269747 1085.996545 
L 895.550228 1085.573958 
L 895.733543 1085.164176 
L 896.26504 1085.048925 
L 896.657963 1083.986053 
L 897.130488 1083.870802 
L 897.134913 1083.844692 
L 897.651438 1083.714144 
L 898.085151 1081.782032 
L 898.366791 1081.037908 
L 898.643784 1079.90214 
L 902.609145 1079.693034 
L 903.010176 1079.444596 
L 903.146374 1079.339991 
L 906.699966 1078.228561 
L 907.338497 1077.967048 
L 908.660917 1077.666309 
L 911.091543 1077.156358 
L 914.685139 1077.038678 
L 915.678652 1076.567954 
L 916.006356 1076.411047 
L 916.612391 1076.227988 
L 918.484985 1075.822643 
L 925.007949 1075.704274 
L 925.008093 1075.6911 
L 925.680024 1075.572535 
L 925.794677 1075.230014 
L 926.278583 1074.50545 
L 927.009841 1074.386885 
L 927.420875 1073.728191 
L 928.299216 1072.84554 
L 928.907774 1071.804803 
L 930.640091 1071.685579 
L 930.652187 1071.658792 
L 931.00545 1071.538251 
L 931.576976 1069.609587 
L 931.95189 1068.872945 
L 932.284969 1067.89522 
L 932.328764 1067.707711 
L 933.068262 1067.587169 
L 933.083838 1067.278832 
L 933.784668 1067.158178 
L 934.109469 1066.139323 
L 934.246631 1065.857797 
L 934.621798 1065.066844 
L 934.693687 1064.785319 
L 935.050277 1064.664665 
L 935.336292 1063.551968 
L 935.653723 1063.431286 
L 935.653918 1063.404418 
L 936.180819 1063.283512 
L 936.293391 1062.961095 
L 936.566233 1061.805768 
L 936.818227 1061.254972 
L 936.961798 1060.677309 
L 937.258391 1060.556402 
L 937.489984 1059.454811 
L 937.497507 1059.320471 
L 938.506811 1059.156024 
L 938.610167 1058.894624 
L 938.738131 1058.536919 
L 938.994884 1057.587624 
L 939.344732 1057.009793 
L 939.508376 1056.459477 
L 939.910262 1056.335656 
L 940.249761 1055.152477 
L 943.334212 1054.925541 
L 943.453569 1054.735622 
L 944.197957 1054.238913 
L 944.389772 1053.961339 
L 945.091143 1053.493848 
L 945.387744 1053.318538 
L 946.98228 1052.412774 
L 947.377538 1052.032937 
L 948.877044 1051.916064 
L 949.778974 1051.010299 
L 949.989748 1050.732726 
L 951.292674 1050.615853 
L 951.33634 1050.440446 
L 951.920254 1050.323444 
L 952.029745 1050.030939 
L 952.108956 1049.53368 
L 952.397005 1048.641539 
L 952.625001 1048.071154 
L 952.980031 1046.520877 
L 953.033261 1046.14062 
L 953.626435 1046.008993 
L 953.640586 1045.918956 
L 953.983836 1045.798908 
L 954.099837 1044.883541 
L 954.433573 1043.18786 
L 954.469351 1042.902745 
L 954.652847 1042.782697 
L 954.997861 1041.264524 
L 955.546887 1041.141545 
L 955.681314 1040.665002 
L 956.007622 1039.896385 
L 956.56495 1039.773406 
L 956.977771 1038.897182 
L 957.448813 1038.143937 
L 957.878481 1037.160107 
L 958.122485 1036.683564 
L 959.597035 1036.560361 
L 959.602317 1036.529504 
L 960.054078 1036.406076 
L 960.554544 1034.724376 
L 960.859588 1033.983811 
L 961.336802 1032.857535 
L 961.474288 1032.348396 
L 961.647036 1031.947257 
L 962.838012 1031.823727 
L 963.160588 1029.687511 
L 963.587324 1027.628694 
L 963.614 1027.226219 
L 963.772238 1027.10238 
L 963.773736 1027.071421 
L 964.885688 1026.930302 
L 965.970423 1024.390165 
L 966.29219 1024.076568 
L 966.378479 1023.85705 
L 966.490437 1023.574813 
L 967.048253 1022.242025 
L 968.846877 1022.116266 
L 969.352371 1021.0312 
L 970.151109 1020.905396 
L 970.962996 1019.615897 
L 971.626487 1018.908246 
L 972.452526 1017.461492 
L 973.936467 1017.335558 
L 973.937318 1017.319768 
L 974.945457 1017.177658 
L 975.402389 1015.788134 
L 975.512159 1015.472333 
L 976.007405 1014.54072 
L 976.289479 1014.019648 
L 976.763732 1012.866975 
L 976.869678 1012.582754 
L 977.896681 1012.455853 
L 977.90085 1012.407611 
L 978.313495 1012.295048 
L 978.661818 1010.976451 
L 979.088011 1010.863888 
L 979.455876 1009.8669 
L 979.776479 1009.143279 
L 980.266885 1007.615636 
L 981.069931 1007.502885 
L 981.073282 1007.421541 
L 981.527297 1007.30766 
L 981.924045 1005.876008 
L 982.39539 1005.762127 
L 982.671092 1004.981226 
L 983.17419 1004.265401 
L 983.335444 1003.793606 
L 983.439383 1003.386887 
L 983.693358 1002.605987 
L 984.602971 1002.492105 
L 984.612777 1002.290825 
L 985.143118 1002.173412 
L 985.574095 1000.865093 
L 985.585785 1000.814773 
L 986.139521 1000.69736 
L 986.709463 999.556774 
L 987.024346 999.020028 
L 987.158655 998.768428 
L 987.282311 998.449735 
L 987.488966 997.862668 
L 987.649539 997.627842 
L 988.690275 997.510429 
L 988.735728 997.239844 
L 989.388724 997.11856 
L 989.497981 996.737381 
L 989.755276 995.611172 
L 989.864973 995.195341 
L 990.43668 993.289449 
L 990.656492 992.128588 
L 990.980809 992.007304 
L 990.980809 991.989978 
L 992.198484 991.816266 
L 992.625063 989.747757 
L 992.863357 989.104607 
L 993.301439 986.671067 
L 993.582958 986.549259 
L 993.598757 986.427123 
L 994.633138 986.304988 
L 994.807924 985.921133 
L 996.49072 983.687798 
L 997.274932 983.007329 
L 997.394223 982.850297 
L 997.707372 982.501339 
L 998.049733 981.855765 
L 998.496071 981.437015 
L 998.530034 981.297432 
L 1001.556449 981.174882 
L 1001.588789 981.103433 
L 1002.568753 980.978398 
L 1002.621917 980.817638 
L 1003.175568 980.692602 
L 1003.362582 980.228185 
L 1003.667354 979.156452 
L 1003.786999 978.959968 
L 1004.318277 977.959684 
L 1004.842273 976.352086 
L 1004.946847 975.780495 
L 1005.444023 975.654182 
L 1005.449096 975.615901 
L 1005.882232 975.50106 
L 1005.993065 974.869434 
L 1006.269453 973.051116 
L 1006.501722 971.653883 
L 1006.572767 971.232799 
L 1006.822514 971.117958 
L 1006.957106 969.912126 
L 1007.155348 969.797285 
L 1007.158661 969.644057 
L 1007.474303 969.529109 
L 1007.604197 968.647844 
L 1007.742725 967.862368 
L 1008.061104 967.74742 
L 1008.468149 966.291416 
L 1008.739236 965.237729 
L 1008.966928 964.241516 
L 1009.582013 964.126568 
L 1009.637358 963.76175 
L 1010.905357 963.645577 
L 1010.907143 963.49068 
L 1011.622149 963.374507 
L 1011.854358 962.967902 
L 1012.266938 961.612552 
L 1012.369958 961.477017 
L 1012.99522 960.663807 
L 1013.787405 958.70823 
L 1013.90469 958.243538 
L 1013.955218 958.011192 
L 1014.573783 957.895019 
L 1014.616922 957.526916 
L 1015.17873 957.410664 
L 1015.31533 956.790656 
L 1015.620053 955.841268 
L 1016.192135 955.725017 
L 1016.703102 954.562501 
L 1017.090589 953.942493 
L 1017.322628 953.419361 
L 1017.807463 952.23747 
L 1018.913318 952.121219 
L 1018.9318 951.791595 
L 1019.342745 951.674977 
L 1019.989618 948.856713 
L 1020.430903 947.865461 
L 1020.858266 947.748843 
L 1021.078339 946.738155 
L 1021.332329 945.882957 
L 1022.138294 945.763568 
L 1022.475517 945.643625 
L 1022.687767 944.384222 
L 1023.058996 944.264279 
L 1023.371604 942.784979 
L 1023.840213 941.345661 
L 1024.138913 939.80639 
L 1025.392821 939.666255 
L 1025.419376 939.565294 
L 1026.523073 939.44414 
L 1026.619811 939.161448 
L 1026.813911 938.737411 
L 1027.605532 936.778761 
L 1027.844334 936.334531 
L 1028.677536 933.608576 
L 1029.214844 933.487422 
L 1029.236007 933.28418 
L 1029.59874 933.162037 
L 1030.924622 927.604531 
L 1030.961023 927.299174 
L 1032.061448 927.156674 
L 1032.073412 927.012516 
L 1032.437609 926.888953 
L 1032.766546 925.159061 
L 1033.138956 925.035498 
L 1033.456584 923.717485 
L 1033.845328 922.584818 
L 1034.166147 920.916709 
L 1034.888903 920.793145 
L 1034.89984 920.637797 
L 1035.175149 920.504641 
L 1035.42801 918.596079 
L 1035.713524 918.462923 
L 1035.930343 917.175753 
L 1036.16594 916.177087 
L 1036.275094 915.666657 
L 1036.497314 914.090983 
L 1037.052804 913.957828 
L 1037.068453 913.778135 
L 1038.407252 913.665636 
L 1038.598993 913.148136 
L 1038.722436 912.945637 
L 1039.196971 912.338138 
L 1040.2794 910.74064 
L 1041.704499 910.605641 
L 1042.121303 910.268141 
L 1043.34883 909.345643 
L 1043.457915 909.143143 
L 1043.928722 908.625644 
L 1044.316896 907.860645 
L 1044.809547 907.275646 
L 1044.821837 907.185647 
L 1047.501559 907.073147 
L 1047.598816 906.823503 
L 1048.254923 906.709472 
L 1048.365782 906.23054 
L 1048.479996 905.43232 
L 1048.601048 904.679713 
L 1048.935172 904.565681 
L 1049.039393 904.109556 
L 1049.314416 903.334142 
L 1049.823312 900.072844 
L 1050.149297 899.958813 
L 1050.153218 899.91302 
L 1050.360449 899.798086 
L 1050.360618 899.775099 
L 1050.551492 899.660165 
L 1050.98918 895.706444 
L 1051.137066 894.67204 
L 1051.293941 893.039981 
L 1051.294031 893.016994 
L 1051.689889 892.90206 
L 1051.717736 892.672175 
L 1052.281221 892.557229 
L 1053.162567 889.384706 
L 1053.206825 889.24677 
L 1053.838544 889.131824 
L 1054.397433 888.028338 
L 1054.50912 887.683498 
L 1055.050632 885.867344 
L 1056.211212 885.752397 
L 1056.211653 885.660205 
L 1056.68009 885.498731 
L 1056.79381 883.999328 
L 1056.995011 882.45379 
L 1057.14007 881.023591 
L 1057.292852 878.647614 
L 1057.462636 878.530915 
L 1057.504906 878.413307 
L 1058.711736 878.2957 
L 1058.824259 877.942879 
L 1059.062247 877.260757 
L 1059.516035 875.778906 
L 1060.158672 874.720441 
L 1060.479545 873.661976 
L 1061.135924 873.544369 
L 1061.530934 872.274211 
L 1061.676859 871.450961 
L 1062.257449 871.333354 
L 1062.263813 871.261423 
L 1062.748476 871.141539 
L 1062.857457 870.398256 
L 1063.211947 868.00057 
L 1063.457634 866.370143 
L 1063.720796 866.250259 
L 1063.934618 864.236203 
L 1063.941576 863.996434 
L 1064.185065 863.875863 
L 1064.200322 863.584019 
L 1064.89819 863.462418 
L 1065.140992 862.611207 
L 1065.50664 861.370872 
L 1066.23852 861.249271 
L 1066.655189 860.130537 
L 1067.461143 858.841561 
L 1068.145465 857.285062 
L 1068.145489 857.260742 
L 1069.577424 857.139141 
L 1069.735874 856.652735 
L 1069.788927 856.230702 
L 1070.694514 856.102966 
L 1070.802957 855.745306 
L 1070.948495 855.183268 
L 1071.106128 854.135835 
L 1071.465344 852.935118 
L 1071.757385 852.168703 
L 1072.42698 848.668743 
L 1073.336314 848.51546 
L 1073.469807 848.208623 
L 1074.703044 848.080775 
L 1074.811256 847.901787 
L 1075.022771 847.492672 
L 1075.269869 846.214186 
L 1075.313982 846.009629 
L 1075.954446 845.88178 
L 1076.057182 845.421525 
L 1076.740898 843.938482 
L 1077.026004 842.864555 
L 1077.488866 841.074675 
L 1078.108796 840.946827 
L 1078.196986 840.203844 
L 1078.310748 839.690623 
L 1079.116826 839.562318 
L 1079.574019 837.458112 
L 1079.984487 836.200721 
L 1080.161397 835.276923 
L 1080.581546 835.148618 
L 1080.937009 833.095735 
L 1080.941024 833.044412 
L 1081.327441 832.916107 
L 1081.374948 832.350259 
L 1082.555377 832.210718 
L 1083.521642 830.005968 
L 1083.580976 829.838519 
L 1084.833833 829.698977 
L 1085.274983 828.778006 
L 1086.000652 827.940759 
L 1086.981467 826.936063 
L 1087.185194 826.573256 
L 1087.598114 826.043 
L 1088.192317 824.815038 
L 1088.428153 824.31269 
L 1088.438953 824.14524 
L 1091.266769 824.005571 
L 1091.302498 823.837739 
L 1092.212109 823.725851 
L 1092.316194 823.194381 
L 1092.516977 822.243331 
L 1092.656657 821.544029 
L 1092.760835 821.01256 
L 1092.882823 820.537035 
L 1093.477473 818.662907 
L 1093.932064 815.949616 
L 1093.975651 815.585979 
L 1094.427259 815.474091 
L 1094.43186 815.390027 
L 1095.114316 815.277546 
L 1095.459577 813.78718 
L 1096.28884 810.975167 
L 1096.931917 809.794122 
L 1096.94743 809.625402 
L 1097.692133 809.484801 
L 1098.050228 808.078795 
L 1098.417793 807.01023 
L 1099.857305 806.86963 
L 1099.92459 806.729029 
L 1100.32861 806.614234 
L 1100.331911 806.528137 
L 1100.721552 806.413342 
L 1101.264048 802.510302 
L 1101.594058 801.534542 
L 1101.78989 800.530083 
L 1102.254421 798.004587 
L 1103.047671 797.889792 
L 1103.047686 797.801825 
L 1103.649452 797.683289 
L 1103.758383 796.912806 
L 1103.878769 795.875618 
L 1104.11327 794.275384 
L 1104.564049 791.726864 
L 1104.870664 791.608328 
L 1105.131194 788.763468 
L 1105.43577 788.642582 
L 1105.501676 788.488535 
L 1107.124193 788.365298 
L 1107.2332 787.964777 
L 1107.485612 787.410209 
L 1108.147143 785.068702 
L 1108.705108 784.329278 
L 1109.159133 783.281762 
L 1109.819688 781.12511 
L 1110.256756 779.430598 
L 1111.056209 779.307361 
L 1111.063601 779.214933 
L 1111.897369 779.082957 
L 1111.91972 778.948068 
L 1112.777673 778.813178 
L 1112.884611 778.172454 
L 1114.417649 769.23604 
L 1114.44005 768.999984 
L 1114.866418 768.865094 
L 1114.870132 768.79765 
L 1115.313416 768.660008 
L 1115.319273 768.52145 
L 1115.842735 768.382891 
L 1116.600262 764.018294 
L 1116.75677 763.39478 
L 1117.396331 763.256221 
L 1117.913881 761.974554 
L 1118.133785 760.762166 
L 1118.202488 760.242571 
L 1118.336679 759.3073 
L 1118.609874 758.233471 
L 1119.740676 758.094912 
L 1119.75026 757.851854 
L 1120.231454 757.712908 
L 1121.00928 752.745594 
L 1121.552523 751.112981 
L 1121.553881 750.869826 
L 1122.055968 750.73088 
L 1122.434889 748.403537 
L 1122.583965 747.604599 
L 1123.5625 747.465653 
L 1123.581047 747.326707 
L 1123.817086 747.18616 
L 1123.817086 747.151023 
L 1124.259864 747.010475 
L 1124.369837 745.815821 
L 1125.118346 736.715368 
L 1125.33979 736.57482 
L 1125.361963 736.360262 
L 1126.342651 736.214733 
L 1126.45326 735.596231 
L 1126.606991 734.8322 
L 1126.862191 732.794783 
L 1126.961485 732.139899 
L 1127.545082 730.320777 
L 1127.753797 728.938244 
L 1128.27128 728.792714 
L 1128.767047 725.518294 
L 1129.248343 725.372764 
L 1129.253489 725.029788 
L 1129.698882 724.91132 
L 1129.770291 723.805621 
L 1130.238248 723.687153 
L 1130.580372 721.475754 
L 1131.117752 718.316612 
L 1131.389598 717.171424 
L 1131.501925 716.421127 
L 1131.913037 713.261986 
L 1132.820111 713.143518 
L 1132.859638 712.708409 
L 1133.764365 712.589669 
L 1133.898126 711.600166 
L 1134.01175 711.204365 
L 1135.171187 707.285933 
L 1135.461862 706.61307 
L 1136.334518 705.148606 
L 1136.478545 704.277843 
L 1136.603548 703.842462 
L 1137.571647 703.723722 
L 1137.814932 702.338417 
L 1137.98946 701.942616 
L 1138.276824 701.269754 
L 1138.296994 701.032273 
L 1140.155049 700.913533 
L 1140.214262 700.553357 
L 1140.220856 700.432639 
L 1140.97283 700.311921 
L 1141.656719 696.811102 
L 1142.44033 696.690384 
L 1142.836539 694.919855 
L 1143.329573 693.793155 
L 1143.589573 693.229805 
L 1143.784014 692.585976 
L 1143.911038 691.901908 
L 1144.207106 690.895926 
L 1144.378539 689.970422 
L 1144.573019 689.366832 
L 1144.72717 688.763243 
L 1144.734487 688.562047 
L 1146.270072 688.441329 
L 1146.294919 688.192642 
L 1147.584316 688.066485 
L 1147.825325 686.889026 
L 1148.021326 686.426453 
L 1148.354195 685.585411 
L 1148.491996 685.16489 
L 1149.860536 685.038734 
L 1150.832026 682.305347 
L 1151.233672 681.590461 
L 1152.462907 680.076585 
L 1152.763968 679.109387 
L 1153.18035 678.226292 
L 1153.498268 677.090886 
L 1153.751696 676.502156 
L 1154.029791 675.871375 
L 1154.03135 675.661114 
L 1156.671374 675.534958 
L 1156.86258 675.149905 
L 1159.566044 675.019798 
L 1159.661559 674.542739 
L 1160.201712 673.67536 
L 1161.334978 670.335951 
L 1162.593361 668.818038 
L 1164.571925 663.657134 
L 1164.740768 662.703017 
L 1164.820868 662.399434 
L 1166.146592 662.269327 
L 1166.180807 662.052483 
L 1167.570116 661.922122 
L 1167.57326 661.704005 
L 1167.888758 661.573136 
L 1168.508248 654.680667 
L 1168.732726 652.892114 
L 1169.127114 648.791531 
L 1169.764068 648.660662 
L 1169.775268 648.529792 
L 1170.097354 648.380843 
L 1170.101058 648.222854 
L 1170.449386 648.064865 
L 1170.76964 643.325191 
L 1171.122173 643.167202 
L 1171.540946 639.112147 
L 1171.714649 637.321604 
L 1171.993996 633.898506 
L 1172.120601 632.687256 
L 1172.120623 632.634593 
L 1172.816692 632.476604 
L 1172.868674 632.049131 
L 1174.191023 631.884973 
L 1174.295747 630.845306 
L 1174.618856 629.149006 
L 1174.755817 627.835742 
L 1175.410168 624.880898 
L 1175.636655 624.169546 
L 1175.915935 622.527966 
L 1176.405895 619.080648 
L 1176.761989 616.125803 
L 1176.784158 615.906926 
L 1177.435904 615.742768 
L 1177.442588 615.359733 
L 1178.11322 615.247851 
L 1178.130712 615.133526 
L 1180.302844 615.019202 
L 1180.606866 613.704469 
L 1181.038337 611.9896 
L 1181.204331 610.903516 
L 1182.036567 608.159726 
L 1182.929879 606.216207 
L 1183.517571 603.758228 
L 1183.568339 603.415255 
L 1184.697652 603.30093 
L 1185.742864 597.870511 
L 1185.744527 597.756187 
L 1186.800872 597.641862 
L 1186.829105 597.266198 
L 1187.985532 597.140977 
L 1188.447139 592.695623 
L 1189.737 584.618853 
L 1190.068009 581.550932 
L 1190.205775 579.735224 
L 1190.260328 578.858676 
L 1190.833242 578.733454 
L 1190.842827 578.420401 
L 1191.816089 578.227138 
L 1191.843488 577.954971 
L 1192.624738 577.818887 
L 1193.259731 569.517783 
L 1193.517132 567.54457 
L 1194.150089 557.950672 
L 1194.541782 557.814588 
L 1194.56926 556.898315 
L 1195.223601 556.74954 
L 1195.801896 549.980263 
L 1196.47658 549.831488 
L 1196.821933 546.484043 
L 1197.268697 544.549964 
L 1197.503081 543.508537 
L 1197.699886 541.872009 
L 1197.799282 540.979357 
L 1198.063576 539.194053 
L 1198.264507 536.962424 
L 1198.489783 534.730794 
L 1199.813518 534.582019 
L 1199.907769 533.760429 
L 1201.238939 533.610704 
L 1201.515955 531.589411 
L 1201.63165 530.541333 
L 1202.043132 525.974707 
L 1202.170644 525.22608 
L 1202.804432 522.231572 
L 1203.315512 517.440359 
L 1203.825989 511.67593 
L 1204.491832 511.526205 
L 1204.505514 511.226754 
L 1205.170949 511.151891 
L 1207.465021 510.997975 
L 1207.487055 510.690142 
L 1209.700685 510.536226 
L 1210.040753 508.997063 
L 1210.274957 507.842691 
L 1211.084499 505.918737 
L 1211.712989 504.225657 
L 1212.046483 503.30216 
L 1213.176174 499.916001 
L 1213.719473 498.838587 
L 1215.885074 496.068093 
L 1216.294949 494.298056 
L 1216.841375 492.989767 
L 1217.210516 491.142772 
L 1217.754221 489.680567 
L 1218.373036 488.603153 
L 1218.455383 487.910529 
L 1222.932306 487.756613 
L 1223.079016 487.291914 
L 1223.10619 486.572737 
L 1223.752685 486.41292 
L 1224.218776 480.739417 
L 1224.774176 474.906097 
L 1225.445655 474.74628 
L 1226.15395 471.54994 
L 1226.991565 462.999731 
L 1228.29912 462.839914 
L 1228.312272 462.599783 
L 1228.746194 462.439154 
L 1228.749818 462.278526 
L 1229.174845 462.117897 
L 1229.773013 451.195146 
L 1230.227681 447.741629 
L 1230.334304 446.135342 
L 1230.444497 444.769998 
L 1230.573428 442.762139 
L 1230.695994 440.593652 
L 1230.843078 438.585793 
L 1231.702028 438.425165 
L 1231.757662 437.210177 
L 1232.080238 437.04698 
L 1232.681316 424.480819 
L 1232.936146 420.972086 
L 1233.048273 419.503314 
L 1233.068698 419.176921 
L 1233.398333 419.013724 
L 1233.483091 416.728967 
L 1233.680863 413.138636 
L 1234.326406 412.975439 
L 1234.364932 412.307906 
L 1235.694746 412.137336 
L 1235.972101 409.834644 
L 1236.002931 409.578789 
L 1236.673526 409.408219 
L 1237.266171 402.670712 
L 1237.910417 399.259316 
L 1238.369035 394.398077 
L 1238.946363 387.148861 
L 1239.606669 386.978291 
L 1239.725297 385.7919 
L 1241.486841 385.590255 
L 1241.810744 382.96887 
L 1241.957812 381.759001 
L 1242.181751 378.734327 
L 1242.292785 377.927747 
L 1242.573713 375.003895 
L 1242.776976 374.096493 
L 1243.477825 370.870174 
L 1244.395504 370.668529 
L 1245.126584 363.610956 
L 1245.802965 356.150093 
L 1246.658993 355.948448 
L 1246.876914 354.40654 
L 1250.823515 354.283985 
L 1250.927762 352.81333 
L 1251.661099 350.117127 
L 1252.497636 344.969831 
L 1252.866844 343.254066 
L 1254.880742 343.131511 
L 1255.002532 341.660855 
L 1255.075494 341.170637 
L 1255.304246 340.557863 
L 1256.628216 337.739106 
L 1257.428375 335.288013 
L 1258.001452 332.224146 
L 1259.569306 324.012984 
L 1260.185798 320.704008 
L 1260.462373 318.375469 
L 1260.502798 318.007805 
L 1262.435502 317.88525 
L 1262.52536 316.694662 
L 1265.128556 316.550209 
L 1265.231138 315.82794 
L 1265.508871 313.661135 
L 1265.972542 310.772061 
L 1266.548798 308.605256 
L 1267.335253 304.705006 
L 1267.678811 303.116016 
L 1270.407339 302.971562 
L 1270.503635 302.249293 
L 1271.140067 299.071312 
L 1271.635531 296.904507 
L 1272.676363 293.870979 
L 1274.591113 290.115183 
L 1275.108633 289.104008 
L 1275.63972 285.781573 
L 1276.358951 283.470314 
L 1276.56543 281.592416 
L 1276.705839 280.725694 
L 1277.232507 277.981073 
L 1277.331214 277.547712 
L 1278.20074 274.658639 
L 1278.225871 273.791916 
L 1283.557595 273.647463 
L 1283.654677 273.214102 
L 1283.813477 272.485319 
L 1283.814182 272.33435 
L 1284.9499 272.183382 
L 1285.053953 270.371762 
L 1285.95208 259.049136 
L 1286.173752 256.029769 
L 1286.52158 252.406529 
L 1287.031448 248.481352 
L 1288.150611 242.593587 
L 1288.17621 241.38584 
L 1289.386756 241.234872 
L 1289.479272 240.178093 
L 1289.941231 236.705822 
L 1290.384797 230.969025 
L 1290.733901 227.647721 
L 1290.74393 227.194816 
L 1293.090194 227.043848 
L 1293.197084 225.814943 
L 1293.210114 225.298564 
L 1293.912553 225.126437 
L 1294.01856 220.65115 
L 1294.150392 213.938219 
L 1294.342724 206.364655 
L 1294.942398 190.356897 
L 1295.296982 190.18477 
L 1295.412853 185.020977 
L 1295.642062 174.349138 
L 1295.989917 174.177012 
L 1296 172.8 
L 1296 172.8 
" clip-path="url(#p43159bd77c)" style="fill: none; stroke: #627313; stroke-width: 5; stroke-linecap: square"/>
   </g>
   <g id="line2d_14">
    <path d="M 181.807692 1281.6 
L 182.767486 1281.6 
L 183.995421 1281.588648 
L 201.739784 1281.550607 
L 212.843366 1280.760843 
L 231.383293 1278.619253 
L 235.578965 1276.095769 
L 239.977565 1273.029877 
L 248.907507 1269.72212 
L 251.711666 1265.58353 
L 263.40463 1261.349705 
L 278.648705 1253.564233 
L 288.719999 1242.435611 
L 309.711638 1226.740124 
L 331.748089 1210.980439 
L 354.727294 1194.396229 
L 360.882553 1177.778257 
L 372.445412 1157.933102 
L 511.762322 1135.283191 
L 535.865303 1105.348012 
L 556.81319 1070.101195 
L 579.302488 1025.69609 
L 621.410531 974.364491 
L 657.591521 919.544346 
L 669.753164 859.159478 
L 750.657899 785.651423 
L 892.658365 692.004743 
L 1021.931241 534.640454 
L 1197.040292 360.634465 
L 1296 172.8 
" clip-path="url(#p43159bd77c)" style="fill: none; stroke: #215caf; stroke-width: 5; stroke-linecap: square"/>
   </g>
   <g id="line2d_15">
    <path d="M 180 1281.6 
L 1296 172.8 
" clip-path="url(#p43159bd77c)" style="fill: none; stroke-dasharray: 18.5,8; stroke-dashoffset: 0; stroke: #a9a9a9; stroke-width: 5"/>
   </g>
   <g id="patch_3">
    <path d="M 1296 1281.6 
L 1296 172.8 
" style="fill: none; stroke: #000000; stroke-width: 0.8; stroke-linejoin: miter; stroke-linecap: square"/>
   </g>
   <g id="patch_4">
    <path d="M 180 1281.6 
L 1296 1281.6 
" style="fill: none; stroke: #000000; stroke-width: 0.8; stroke-linejoin: miter; stroke-linecap: square"/>
   </g>
   <g id="text_15">
    <g id="patch_5">
     <path d="M 849.120551 938.105423 
L 936.704366 758.53199 
L 894.719449 738.054577 
L 807.135634 917.62801 
z
" style="fill: #ffffff; stroke: #ffffff; stroke-linejoin: miter"/>
    </g>
    <!-- Countries -->
    <g style="fill: #215caf" transform="translate(839.802016 929.110062) rotate(-64) scale(0.4 -0.4)">
     <defs>
      <path id="DejaVuSans-43" d="M 4122 4306 
L 4122 3641 
Q 3803 3938 3442 4084 
Q 3081 4231 2675 4231 
Q 1875 4231 1450 3742 
Q 1025 3253 1025 2328 
Q 1025 1406 1450 917 
Q 1875 428 2675 428 
Q 3081 428 3442 575 
Q 3803 722 4122 1019 
L 4122 359 
Q 3791 134 3420 21 
Q 3050 -91 2638 -91 
Q 1578 -91 968 557 
Q 359 1206 359 2328 
Q 359 3453 968 4101 
Q 1578 4750 2638 4750 
Q 3056 4750 3426 4639 
Q 3797 4528 4122 4306 
z
" transform="scale(0.015625)"/>
      <path id="DejaVuSans-6f" d="M 1959 3097 
Q 1497 3097 1228 2736 
Q 959 2375 959 1747 
Q 959 1119 1226 758 
Q 1494 397 1959 397 
Q 2419 397 2687 759 
Q 2956 1122 2956 1747 
Q 2956 2369 2687 2733 
Q 2419 3097 1959 3097 
z
M 1959 3584 
Q 2709 3584 3137 3096 
Q 3566 2609 3566 1747 
Q 3566 888 3137 398 
Q 2709 -91 1959 -91 
Q 1206 -91 779 398 
Q 353 888 353 1747 
Q 353 2609 779 3096 
Q 1206 3584 1959 3584 
z
" transform="scale(0.015625)"/>
      <path id="DejaVuSans-75" d="M 544 1381 
L 544 3500 
L 1119 3500 
L 1119 1403 
Q 1119 906 1312 657 
Q 1506 409 1894 409 
Q 2359 409 2629 706 
Q 2900 1003 2900 1516 
L 2900 3500 
L 3475 3500 
L 3475 0 
L 2900 0 
L 2900 538 
Q 2691 219 2414 64 
Q 2138 -91 1772 -91 
Q 1169 -91 856 284 
Q 544 659 544 1381 
z
M 1991 3584 
L 1991 3584 
z
" transform="scale(0.015625)"/>
      <path id="DejaVuSans-6e" d="M 3513 2113 
L 3513 0 
L 2938 0 
L 2938 2094 
Q 2938 2591 2744 2837 
Q 2550 3084 2163 3084 
Q 1697 3084 1428 2787 
Q 1159 2491 1159 1978 
L 1159 0 
L 581 0 
L 581 3500 
L 1159 3500 
L 1159 2956 
Q 1366 3272 1645 3428 
Q 1925 3584 2291 3584 
Q 2894 3584 3203 3211 
Q 3513 2838 3513 2113 
z
" transform="scale(0.015625)"/>
      <path id="DejaVuSans-74" d="M 1172 4494 
L 1172 3500 
L 2356 3500 
L 2356 3053 
L 1172 3053 
L 1172 1153 
Q 1172 725 1289 603 
Q 1406 481 1766 481 
L 2356 481 
L 2356 0 
L 1766 0 
Q 1100 0 847 248 
Q 594 497 594 1153 
L 594 3053 
L 172 3053 
L 172 3500 
L 594 3500 
L 594 4494 
L 1172 4494 
z
" transform="scale(0.015625)"/>
      <path id="DejaVuSans-72" d="M 2631 2963 
Q 2534 3019 2420 3045 
Q 2306 3072 2169 3072 
Q 1681 3072 1420 2755 
Q 1159 2438 1159 1844 
L 1159 0 
L 581 0 
L 581 3500 
L 1159 3500 
L 1159 2956 
Q 1341 3275 1631 3429 
Q 1922 3584 2338 3584 
Q 2397 3584 2469 3576 
Q 2541 3569 2628 3553 
L 2631 2963 
z
" transform="scale(0.015625)"/>
      <path id="DejaVuSans-69" d="M 603 3500 
L 1178 3500 
L 1178 0 
L 603 0 
L 603 3500 
z
M 603 4863 
L 1178 4863 
L 1178 4134 
L 603 4134 
L 603 4863 
z
" transform="scale(0.015625)"/>
      <path id="DejaVuSans-65" d="M 3597 1894 
L 3597 1613 
L 953 1613 
Q 991 1019 1311 708 
Q 1631 397 2203 397 
Q 2534 397 2845 478 
Q 3156 559 3463 722 
L 3463 178 
Q 3153 47 2828 -22 
Q 2503 -91 2169 -91 
Q 1331 -91 842 396 
Q 353 884 353 1716 
Q 353 2575 817 3079 
Q 1281 3584 2069 3584 
Q 2775 3584 3186 3129 
Q 3597 2675 3597 1894 
z
M 3022 2063 
Q 3016 2534 2758 2815 
Q 2500 3097 2075 3097 
Q 1594 3097 1305 2825 
Q 1016 2553 972 2059 
L 3022 2063 
z
" transform="scale(0.015625)"/>
      <path id="DejaVuSans-73" d="M 2834 3397 
L 2834 2853 
Q 2591 2978 2328 3040 
Q 2066 3103 1784 3103 
Q 1356 3103 1142 2972 
Q 928 2841 928 2578 
Q 928 2378 1081 2264 
Q 1234 2150 1697 2047 
L 1894 2003 
Q 2506 1872 2764 1633 
Q 3022 1394 3022 966 
Q 3022 478 2636 193 
Q 2250 -91 1575 -91 
Q 1294 -91 989 -36 
Q 684 19 347 128 
L 347 722 
Q 666 556 975 473 
Q 1284 391 1588 391 
Q 1994 391 2212 530 
Q 2431 669 2431 922 
Q 2431 1156 2273 1281 
Q 2116 1406 1581 1522 
L 1381 1569 
Q 847 1681 609 1914 
Q 372 2147 372 2553 
Q 372 3047 722 3315 
Q 1072 3584 1716 3584 
Q 2034 3584 2315 3537 
Q 2597 3491 2834 3397 
z
" transform="scale(0.015625)"/>
     </defs>
     <use xlink:href="#DejaVuSans-43"/>
     <use xlink:href="#DejaVuSans-6f" x="69.824219"/>
     <use xlink:href="#DejaVuSans-75" x="131.005859"/>
     <use xlink:href="#DejaVuSans-6e" x="194.384766"/>
     <use xlink:href="#DejaVuSans-74" x="257.763672"/>
     <use xlink:href="#DejaVuSans-72" x="296.972656"/>
     <use xlink:href="#DejaVuSans-69" x="338.085938"/>
     <use xlink:href="#DejaVuSans-65" x="365.869141"/>
     <use xlink:href="#DejaVuSans-73" x="427.392578"/>
    </g>
   </g>
   <g id="text_16">
    <g id="patch_6">
     <path d="M 1152.027541 924.188219 
L 1194.933269 764.061865 
L 1149.812459 751.971781 
L 1106.906731 912.098135 
z
" style="fill: #ffffff; stroke: #ffffff; stroke-linejoin: miter"/>
    </g>
    <!-- Regions -->
    <g style="fill: #627313" transform="translate(1141.163819 917.136189) rotate(-75) scale(0.4 -0.4)">
     <defs>
      <path id="DejaVuSans-52" d="M 2841 2188 
Q 3044 2119 3236 1894 
Q 3428 1669 3622 1275 
L 4263 0 
L 3584 0 
L 2988 1197 
Q 2756 1666 2539 1819 
Q 2322 1972 1947 1972 
L 1259 1972 
L 1259 0 
L 628 0 
L 628 4666 
L 2053 4666 
Q 2853 4666 3247 4331 
Q 3641 3997 3641 3322 
Q 3641 2881 3436 2590 
Q 3231 2300 2841 2188 
z
M 1259 4147 
L 1259 2491 
L 2053 2491 
Q 2509 2491 2742 2702 
Q 2975 2913 2975 3322 
Q 2975 3731 2742 3939 
Q 2509 4147 2053 4147 
L 1259 4147 
z
" transform="scale(0.015625)"/>
      <path id="DejaVuSans-67" d="M 2906 1791 
Q 2906 2416 2648 2759 
Q 2391 3103 1925 3103 
Q 1463 3103 1205 2759 
Q 947 2416 947 1791 
Q 947 1169 1205 825 
Q 1463 481 1925 481 
Q 2391 481 2648 825 
Q 2906 1169 2906 1791 
z
M 3481 434 
Q 3481 -459 3084 -895 
Q 2688 -1331 1869 -1331 
Q 1566 -1331 1297 -1286 
Q 1028 -1241 775 -1147 
L 775 -588 
Q 1028 -725 1275 -790 
Q 1522 -856 1778 -856 
Q 2344 -856 2625 -561 
Q 2906 -266 2906 331 
L 2906 616 
Q 2728 306 2450 153 
Q 2172 0 1784 0 
Q 1141 0 747 490 
Q 353 981 353 1791 
Q 353 2603 747 3093 
Q 1141 3584 1784 3584 
Q 2172 3584 2450 3431 
Q 2728 3278 2906 2969 
L 2906 3500 
L 3481 3500 
L 3481 434 
z
" transform="scale(0.015625)"/>
     </defs>
     <use xlink:href="#DejaVuSans-52"/>
     <use xlink:href="#DejaVuSans-65" x="64.982422"/>
     <use xlink:href="#DejaVuSans-67" x="126.505859"/>
     <use xlink:href="#DejaVuSans-69" x="189.982422"/>
     <use xlink:href="#DejaVuSans-6f" x="217.765625"/>
     <use xlink:href="#DejaVuSans-6e" x="278.947266"/>
     <use xlink:href="#DejaVuSans-73" x="342.326172"/>
    </g>
   </g>
  </g>
 </g>
 <defs>
  <clipPath id="p43159bd77c">
   <rect x="180" y="172.8" width="1116" height="1108.8"/>
  </clipPath>
 </defs>
</svg>
