<?xml version="1.0" encoding="utf-8" standalone="no"?>
<!DOCTYPE svg PUBLIC "-//W3C//DTD SVG 1.1//EN"
  "http://www.w3.org/Graphics/SVG/1.1/DTD/svg11.dtd">
<svg xmlns:xlink="http://www.w3.org/1999/xlink" width="460.8pt" height="345.6pt" viewBox="0 0 460.8 345.6" xmlns="http://www.w3.org/2000/svg" version="1.1">
 <metadata>
  <rdf:RDF xmlns:dc="http://purl.org/dc/elements/1.1/" xmlns:cc="http://creativecommons.org/ns#" xmlns:rdf="http://www.w3.org/1999/02/22-rdf-syntax-ns#">
   <cc:Work>
    <dc:type rdf:resource="http://purl.org/dc/dcmitype/StillImage"/>
    <dc:date>2023-08-28T09:55:30.386239</dc:date>
    <dc:format>image/svg+xml</dc:format>
    <dc:creator>
     <cc:Agent>
      <dc:title>Matplotlib v3.7.1, https://matplotlib.org/</dc:title>
     </cc:Agent>
    </dc:creator>
   </cc:Work>
  </rdf:RDF>
 </metadata>
 <defs>
  <style type="text/css">*{stroke-linejoin: round; stroke-linecap: butt}</style>
 </defs>
 <g id="figure_1">
  <g id="patch_1">
   <path d="M 0 345.6 
L 460.8 345.6 
L 460.8 0 
L 0 0 
L 0 345.6 
z
" style="fill: none"/>
  </g>
  <g id="axes_1">
   <g id="patch_2">
    <path d="M 57.6 307.584 
L 414.72 307.584 
L 414.72 41.472 
L 57.6 41.472 
L 57.6 307.584 
z
" style="fill: none"/>
   </g>
   <g id="PolyCollection_1">
    <defs>
     <path id="mee4208c9fc" d="M 57.6 -39.60542 
L 57.6 -39.60542 
L 83.108571 -97.957988 
L 108.617143 -103.96756 
L 134.125714 -108.339234 
L 159.634286 -112.632805 
L 185.142857 -132.925064 
L 210.651429 -158.947076 
L 236.16 -181.050183 
L 261.668571 -200.799666 
L 287.177143 -211.013605 
L 312.685714 -219.281182 
L 338.194286 -235.288479 
L 363.702857 -257.340052 
L 389.211429 -266.571945 
L 414.72 -275.790656 
L 414.72 -275.790656 
L 414.72 -256.729239 
L 389.211429 -249.322873 
L 363.702857 -244.117605 
L 338.194286 -235.79498 
L 312.685714 -219.745213 
L 287.177143 -203.722238 
L 261.668571 -198.191675 
L 236.16 -194.808187 
L 210.651429 -183.16101 
L 185.142857 -179.181518 
L 159.634286 -175.375416 
L 134.125714 -168.960431 
L 108.617143 -137.638759 
L 83.108571 -128.566363 
L 57.6 -41.007814 
z
" style="stroke: #a30774; stroke-opacity: 0.2"/>
    </defs>
    <g clip-path="url(#p57fc8b9737)">
     <use xlink:href="#mee4208c9fc" x="0" y="345.6" style="fill: #a30774; fill-opacity: 0.2; stroke: #a30774; stroke-opacity: 0.2"/>
    </g>
   </g>
   <g id="PolyCollection_2">
    <defs>
     <path id="m91902f907e" d="M 57.6 -39.60542 
L 57.6 -39.60542 
L 83.108571 -97.957988 
L 99.351915 -101.784762 
L 83.108571 -78.416995 
L 57.6 -39.411997 
z
" style="stroke: #a30774; stroke-opacity: 0.2"/>
    </defs>
    <g clip-path="url(#p57fc8b9737)">
     <use xlink:href="#m91902f907e" x="0" y="345.6" style="fill: #a30774; fill-opacity: 0.2; stroke: #a30774; stroke-opacity: 0.2"/>
    </g>
   </g>
   <g id="PolyCollection_3">
    <defs>
     <path id="mab4f52880e" d="M 167.056427 -176.482865 
L 185.142857 -179.181518 
L 210.651429 -183.16101 
L 236.16 -194.808187 
L 261.668571 -198.191675 
L 287.177143 -203.722238 
L 312.685714 -219.745213 
L 338.194286 -235.79498 
L 363.702857 -244.117605 
L 389.211429 -249.322873 
L 414.72 -256.729239 
L 414.72 -256.729239 
L 414.72 -305.441546 
L 389.211429 -293.446411 
L 363.702857 -264.200319 
L 338.194286 -255.511299 
L 312.685714 -246.795735 
L 287.177143 -238.014716 
L 261.668571 -229.328019 
L 236.16 -218.092672 
L 210.651429 -207.469502 
L 185.142857 -194.24823 
z
" style="stroke: #a30774; stroke-opacity: 0.2"/>
    </defs>
    <g clip-path="url(#p57fc8b9737)">
     <use xlink:href="#mab4f52880e" x="0" y="345.6" style="fill: #a30774; fill-opacity: 0.2; stroke: #a30774; stroke-opacity: 0.2"/>
    </g>
   </g>
   <g id="PolyCollection_4">
    <defs>
     <path id="ma2c442289c" d="M 57.6 -39.95741 
L 57.6 -39.95741 
L 83.108571 -53.114353 
L 108.617143 -63.894996 
L 134.125714 -70.789273 
L 159.634286 -74.258573 
L 185.142857 -75.648856 
L 210.651429 -78.663447 
L 236.16 -97.156079 
L 261.668571 -101.302475 
L 287.177143 -129.081959 
L 312.685714 -135.695141 
L 338.194286 -144.434422 
L 363.702857 -147.582451 
L 389.211429 -151.906682 
L 414.72 -155.601788 
L 414.72 -155.601788 
L 414.72 -66.293782 
L 389.211429 -64.625451 
L 363.702857 -64.31331 
L 338.194286 -63.801272 
L 312.685714 -62.131805 
L 287.177143 -60.462476 
L 261.668571 -60.070892 
L 236.16 -49.591544 
L 210.651429 -49.356206 
L 185.142857 -49.120783 
L 159.634286 -39.265801 
L 134.125714 -39.150009 
L 108.617143 -39.03421 
L 83.108571 -38.918418 
L 57.6 -38.610166 
z
" style="stroke: #215caf; stroke-opacity: 0.2"/>
    </defs>
    <g clip-path="url(#p57fc8b9737)">
     <use xlink:href="#ma2c442289c" x="0" y="345.6" style="fill: #215caf; fill-opacity: 0.2; stroke: #215caf; stroke-opacity: 0.2"/>
    </g>
   </g>
   <g id="PolyCollection_5">
    <path d="M 57.6 305.64259 
L 57.6 305.64259 
L 58.842148 305.001908 
L 57.6 305.089943 
z
" clip-path="url(#p57fc8b9737)" style="fill: #215caf; fill-opacity: 0.2; stroke: #215caf; stroke-opacity: 0.2"/>
    <path d="M 150.373203 272.600983 
L 159.634286 271.341427 
L 185.142857 269.951144 
L 210.651429 266.936553 
L 230.672932 252.421813 
L 210.651429 259.622042 
L 185.142857 259.899846 
L 159.634286 261.965193 
z
" clip-path="url(#p57fc8b9737)" style="fill: #215caf; fill-opacity: 0.2; stroke: #215caf; stroke-opacity: 0.2"/>
   </g>
   <g id="matplotlib.axis_1">
    <g id="xtick_1">
     <g id="line2d_1">
      <defs>
       <path id="m5ca3382c63" d="M 0 0 
L 0 3.5 
" style="stroke: #000000; stroke-width: 0.8"/>
      </defs>
      <g>
       <use xlink:href="#m5ca3382c63" x="95.862857" y="307.584" style="stroke: #000000; stroke-width: 0.8"/>
      </g>
     </g>
     <g id="text_1">
      <!-- 2025 -->
      <g transform="translate(83.137857 322.182437) scale(0.1 -0.1)">
       <defs>
        <path id="DejaVuSans-32" d="M 1228 531 
L 3431 531 
L 3431 0 
L 469 0 
L 469 531 
Q 828 903 1448 1529 
Q 2069 2156 2228 2338 
Q 2531 2678 2651 2914 
Q 2772 3150 2772 3378 
Q 2772 3750 2511 3984 
Q 2250 4219 1831 4219 
Q 1534 4219 1204 4116 
Q 875 4013 500 3803 
L 500 4441 
Q 881 4594 1212 4672 
Q 1544 4750 1819 4750 
Q 2544 4750 2975 4387 
Q 3406 4025 3406 3419 
Q 3406 3131 3298 2873 
Q 3191 2616 2906 2266 
Q 2828 2175 2409 1742 
Q 1991 1309 1228 531 
z
" transform="scale(0.015625)"/>
        <path id="DejaVuSans-30" d="M 2034 4250 
Q 1547 4250 1301 3770 
Q 1056 3291 1056 2328 
Q 1056 1369 1301 889 
Q 1547 409 2034 409 
Q 2525 409 2770 889 
Q 3016 1369 3016 2328 
Q 3016 3291 2770 3770 
Q 2525 4250 2034 4250 
z
M 2034 4750 
Q 2819 4750 3233 4129 
Q 3647 3509 3647 2328 
Q 3647 1150 3233 529 
Q 2819 -91 2034 -91 
Q 1250 -91 836 529 
Q 422 1150 422 2328 
Q 422 3509 836 4129 
Q 1250 4750 2034 4750 
z
" transform="scale(0.015625)"/>
        <path id="DejaVuSans-35" d="M 691 4666 
L 3169 4666 
L 3169 4134 
L 1269 4134 
L 1269 2991 
Q 1406 3038 1543 3061 
Q 1681 3084 1819 3084 
Q 2600 3084 3056 2656 
Q 3513 2228 3513 1497 
Q 3513 744 3044 326 
Q 2575 -91 1722 -91 
Q 1428 -91 1123 -41 
Q 819 9 494 109 
L 494 744 
Q 775 591 1075 516 
Q 1375 441 1709 441 
Q 2250 441 2565 725 
Q 2881 1009 2881 1497 
Q 2881 1984 2565 2268 
Q 2250 2553 1709 2553 
Q 1456 2553 1204 2497 
Q 953 2441 691 2322 
L 691 4666 
z
" transform="scale(0.015625)"/>
       </defs>
       <use xlink:href="#DejaVuSans-32"/>
       <use xlink:href="#DejaVuSans-30" x="63.623047"/>
       <use xlink:href="#DejaVuSans-32" x="127.246094"/>
       <use xlink:href="#DejaVuSans-35" x="190.869141"/>
      </g>
     </g>
    </g>
    <g id="xtick_2">
     <g id="line2d_2">
      <g>
       <use xlink:href="#m5ca3382c63" x="159.634286" y="307.584" style="stroke: #000000; stroke-width: 0.8"/>
      </g>
     </g>
     <g id="text_2">
      <!-- 2030 -->
      <g transform="translate(146.909286 322.182437) scale(0.1 -0.1)">
       <defs>
        <path id="DejaVuSans-33" d="M 2597 2516 
Q 3050 2419 3304 2112 
Q 3559 1806 3559 1356 
Q 3559 666 3084 287 
Q 2609 -91 1734 -91 
Q 1441 -91 1130 -33 
Q 819 25 488 141 
L 488 750 
Q 750 597 1062 519 
Q 1375 441 1716 441 
Q 2309 441 2620 675 
Q 2931 909 2931 1356 
Q 2931 1769 2642 2001 
Q 2353 2234 1838 2234 
L 1294 2234 
L 1294 2753 
L 1863 2753 
Q 2328 2753 2575 2939 
Q 2822 3125 2822 3475 
Q 2822 3834 2567 4026 
Q 2313 4219 1838 4219 
Q 1578 4219 1281 4162 
Q 984 4106 628 3988 
L 628 4550 
Q 988 4650 1302 4700 
Q 1616 4750 1894 4750 
Q 2613 4750 3031 4423 
Q 3450 4097 3450 3541 
Q 3450 3153 3228 2886 
Q 3006 2619 2597 2516 
z
" transform="scale(0.015625)"/>
       </defs>
       <use xlink:href="#DejaVuSans-32"/>
       <use xlink:href="#DejaVuSans-30" x="63.623047"/>
       <use xlink:href="#DejaVuSans-33" x="127.246094"/>
       <use xlink:href="#DejaVuSans-30" x="190.869141"/>
      </g>
     </g>
    </g>
    <g id="xtick_3">
     <g id="line2d_3">
      <g>
       <use xlink:href="#m5ca3382c63" x="223.405714" y="307.584" style="stroke: #000000; stroke-width: 0.8"/>
      </g>
     </g>
     <g id="text_3">
      <!-- 2035 -->
      <g transform="translate(210.680714 322.182437) scale(0.1 -0.1)">
       <use xlink:href="#DejaVuSans-32"/>
       <use xlink:href="#DejaVuSans-30" x="63.623047"/>
       <use xlink:href="#DejaVuSans-33" x="127.246094"/>
       <use xlink:href="#DejaVuSans-35" x="190.869141"/>
      </g>
     </g>
    </g>
    <g id="xtick_4">
     <g id="line2d_4">
      <g>
       <use xlink:href="#m5ca3382c63" x="287.177143" y="307.584" style="stroke: #000000; stroke-width: 0.8"/>
      </g>
     </g>
     <g id="text_4">
      <!-- 2040 -->
      <g transform="translate(274.452143 322.182437) scale(0.1 -0.1)">
       <defs>
        <path id="DejaVuSans-34" d="M 2419 4116 
L 825 1625 
L 2419 1625 
L 2419 4116 
z
M 2253 4666 
L 3047 4666 
L 3047 1625 
L 3713 1625 
L 3713 1100 
L 3047 1100 
L 3047 0 
L 2419 0 
L 2419 1100 
L 313 1100 
L 313 1709 
L 2253 4666 
z
" transform="scale(0.015625)"/>
       </defs>
       <use xlink:href="#DejaVuSans-32"/>
       <use xlink:href="#DejaVuSans-30" x="63.623047"/>
       <use xlink:href="#DejaVuSans-34" x="127.246094"/>
       <use xlink:href="#DejaVuSans-30" x="190.869141"/>
      </g>
     </g>
    </g>
    <g id="xtick_5">
     <g id="line2d_5">
      <g>
       <use xlink:href="#m5ca3382c63" x="350.948571" y="307.584" style="stroke: #000000; stroke-width: 0.8"/>
      </g>
     </g>
     <g id="text_5">
      <!-- 2045 -->
      <g transform="translate(338.223571 322.182437) scale(0.1 -0.1)">
       <use xlink:href="#DejaVuSans-32"/>
       <use xlink:href="#DejaVuSans-30" x="63.623047"/>
       <use xlink:href="#DejaVuSans-34" x="127.246094"/>
       <use xlink:href="#DejaVuSans-35" x="190.869141"/>
      </g>
     </g>
    </g>
    <g id="xtick_6">
     <g id="line2d_6">
      <g>
       <use xlink:href="#m5ca3382c63" x="414.72" y="307.584" style="stroke: #000000; stroke-width: 0.8"/>
      </g>
     </g>
     <g id="text_6">
      <!-- 2050 -->
      <g transform="translate(401.995 322.182437) scale(0.1 -0.1)">
       <use xlink:href="#DejaVuSans-32"/>
       <use xlink:href="#DejaVuSans-30" x="63.623047"/>
       <use xlink:href="#DejaVuSans-35" x="127.246094"/>
       <use xlink:href="#DejaVuSans-30" x="190.869141"/>
      </g>
     </g>
    </g>
    <g id="text_7">
     <!-- Time -->
     <g transform="translate(223.926406 335.860562) scale(0.1 -0.1)">
      <defs>
       <path id="DejaVuSans-54" d="M -19 4666 
L 3928 4666 
L 3928 4134 
L 2272 4134 
L 2272 0 
L 1638 0 
L 1638 4134 
L -19 4134 
L -19 4666 
z
" transform="scale(0.015625)"/>
       <path id="DejaVuSans-69" d="M 603 3500 
L 1178 3500 
L 1178 0 
L 603 0 
L 603 3500 
z
M 603 4863 
L 1178 4863 
L 1178 4134 
L 603 4134 
L 603 4863 
z
" transform="scale(0.015625)"/>
       <path id="DejaVuSans-6d" d="M 3328 2828 
Q 3544 3216 3844 3400 
Q 4144 3584 4550 3584 
Q 5097 3584 5394 3201 
Q 5691 2819 5691 2113 
L 5691 0 
L 5113 0 
L 5113 2094 
Q 5113 2597 4934 2840 
Q 4756 3084 4391 3084 
Q 3944 3084 3684 2787 
Q 3425 2491 3425 1978 
L 3425 0 
L 2847 0 
L 2847 2094 
Q 2847 2600 2669 2842 
Q 2491 3084 2119 3084 
Q 1678 3084 1418 2786 
Q 1159 2488 1159 1978 
L 1159 0 
L 581 0 
L 581 3500 
L 1159 3500 
L 1159 2956 
Q 1356 3278 1631 3431 
Q 1906 3584 2284 3584 
Q 2666 3584 2933 3390 
Q 3200 3197 3328 2828 
z
" transform="scale(0.015625)"/>
       <path id="DejaVuSans-65" d="M 3597 1894 
L 3597 1613 
L 953 1613 
Q 991 1019 1311 708 
Q 1631 397 2203 397 
Q 2534 397 2845 478 
Q 3156 559 3463 722 
L 3463 178 
Q 3153 47 2828 -22 
Q 2503 -91 2169 -91 
Q 1331 -91 842 396 
Q 353 884 353 1716 
Q 353 2575 817 3079 
Q 1281 3584 2069 3584 
Q 2775 3584 3186 3129 
Q 3597 2675 3597 1894 
z
M 3022 2063 
Q 3016 2534 2758 2815 
Q 2500 3097 2075 3097 
Q 1594 3097 1305 2825 
Q 1016 2553 972 2059 
L 3022 2063 
z
" transform="scale(0.015625)"/>
      </defs>
      <use xlink:href="#DejaVuSans-54"/>
      <use xlink:href="#DejaVuSans-69" x="57.958984"/>
      <use xlink:href="#DejaVuSans-6d" x="85.742188"/>
      <use xlink:href="#DejaVuSans-65" x="183.154297"/>
     </g>
    </g>
   </g>
   <g id="matplotlib.axis_2">
    <g id="ytick_1">
     <g id="line2d_7">
      <defs>
       <path id="m999004ff79" d="M 0 0 
L -3.5 0 
" style="stroke: #000000; stroke-width: 0.8"/>
      </defs>
      <g>
       <use xlink:href="#m999004ff79" x="57.6" y="307.584" style="stroke: #000000; stroke-width: 0.8"/>
      </g>
     </g>
     <g id="text_8">
      <!-- 0 -->
      <g transform="translate(44.2375 311.383219) scale(0.1 -0.1)">
       <use xlink:href="#DejaVuSans-30"/>
      </g>
     </g>
    </g>
    <g id="ytick_2">
     <g id="line2d_8">
      <g>
       <use xlink:href="#m999004ff79" x="57.6" y="260.064" style="stroke: #000000; stroke-width: 0.8"/>
      </g>
     </g>
     <g id="text_9">
      <!-- 5000 -->
      <g transform="translate(25.15 263.863219) scale(0.1 -0.1)">
       <use xlink:href="#DejaVuSans-35"/>
       <use xlink:href="#DejaVuSans-30" x="63.623047"/>
       <use xlink:href="#DejaVuSans-30" x="127.246094"/>
       <use xlink:href="#DejaVuSans-30" x="190.869141"/>
      </g>
     </g>
    </g>
    <g id="ytick_3">
     <g id="line2d_9">
      <g>
       <use xlink:href="#m999004ff79" x="57.6" y="212.544" style="stroke: #000000; stroke-width: 0.8"/>
      </g>
     </g>
     <g id="text_10">
      <!-- 10000 -->
      <g transform="translate(18.7875 216.343219) scale(0.1 -0.1)">
       <defs>
        <path id="DejaVuSans-31" d="M 794 531 
L 1825 531 
L 1825 4091 
L 703 3866 
L 703 4441 
L 1819 4666 
L 2450 4666 
L 2450 531 
L 3481 531 
L 3481 0 
L 794 0 
L 794 531 
z
" transform="scale(0.015625)"/>
       </defs>
       <use xlink:href="#DejaVuSans-31"/>
       <use xlink:href="#DejaVuSans-30" x="63.623047"/>
       <use xlink:href="#DejaVuSans-30" x="127.246094"/>
       <use xlink:href="#DejaVuSans-30" x="190.869141"/>
       <use xlink:href="#DejaVuSans-30" x="254.492188"/>
      </g>
     </g>
    </g>
    <g id="ytick_4">
     <g id="line2d_10">
      <g>
       <use xlink:href="#m999004ff79" x="57.6" y="165.024" style="stroke: #000000; stroke-width: 0.8"/>
      </g>
     </g>
     <g id="text_11">
      <!-- 15000 -->
      <g transform="translate(18.7875 168.823219) scale(0.1 -0.1)">
       <use xlink:href="#DejaVuSans-31"/>
       <use xlink:href="#DejaVuSans-35" x="63.623047"/>
       <use xlink:href="#DejaVuSans-30" x="127.246094"/>
       <use xlink:href="#DejaVuSans-30" x="190.869141"/>
       <use xlink:href="#DejaVuSans-30" x="254.492188"/>
      </g>
     </g>
    </g>
    <g id="ytick_5">
     <g id="line2d_11">
      <g>
       <use xlink:href="#m999004ff79" x="57.6" y="117.504" style="stroke: #000000; stroke-width: 0.8"/>
      </g>
     </g>
     <g id="text_12">
      <!-- 20000 -->
      <g transform="translate(18.7875 121.303219) scale(0.1 -0.1)">
       <use xlink:href="#DejaVuSans-32"/>
       <use xlink:href="#DejaVuSans-30" x="63.623047"/>
       <use xlink:href="#DejaVuSans-30" x="127.246094"/>
       <use xlink:href="#DejaVuSans-30" x="190.869141"/>
       <use xlink:href="#DejaVuSans-30" x="254.492188"/>
      </g>
     </g>
    </g>
    <g id="ytick_6">
     <g id="line2d_12">
      <g>
       <use xlink:href="#m999004ff79" x="57.6" y="69.984" style="stroke: #000000; stroke-width: 0.8"/>
      </g>
     </g>
     <g id="text_13">
      <!-- 25000 -->
      <g transform="translate(18.7875 73.783219) scale(0.1 -0.1)">
       <use xlink:href="#DejaVuSans-32"/>
       <use xlink:href="#DejaVuSans-35" x="63.623047"/>
       <use xlink:href="#DejaVuSans-30" x="127.246094"/>
       <use xlink:href="#DejaVuSans-30" x="190.869141"/>
       <use xlink:href="#DejaVuSans-30" x="254.492188"/>
      </g>
     </g>
    </g>
    <g id="text_14">
     <!-- Jobs [FTE] -->
     <g transform="translate(12.707812 199.333469) rotate(-90) scale(0.1 -0.1)">
      <defs>
       <path id="DejaVuSans-4a" d="M 628 4666 
L 1259 4666 
L 1259 325 
Q 1259 -519 939 -900 
Q 619 -1281 -91 -1281 
L -331 -1281 
L -331 -750 
L -134 -750 
Q 284 -750 456 -515 
Q 628 -281 628 325 
L 628 4666 
z
" transform="scale(0.015625)"/>
       <path id="DejaVuSans-6f" d="M 1959 3097 
Q 1497 3097 1228 2736 
Q 959 2375 959 1747 
Q 959 1119 1226 758 
Q 1494 397 1959 397 
Q 2419 397 2687 759 
Q 2956 1122 2956 1747 
Q 2956 2369 2687 2733 
Q 2419 3097 1959 3097 
z
M 1959 3584 
Q 2709 3584 3137 3096 
Q 3566 2609 3566 1747 
Q 3566 888 3137 398 
Q 2709 -91 1959 -91 
Q 1206 -91 779 398 
Q 353 888 353 1747 
Q 353 2609 779 3096 
Q 1206 3584 1959 3584 
z
" transform="scale(0.015625)"/>
       <path id="DejaVuSans-62" d="M 3116 1747 
Q 3116 2381 2855 2742 
Q 2594 3103 2138 3103 
Q 1681 3103 1420 2742 
Q 1159 2381 1159 1747 
Q 1159 1113 1420 752 
Q 1681 391 2138 391 
Q 2594 391 2855 752 
Q 3116 1113 3116 1747 
z
M 1159 2969 
Q 1341 3281 1617 3432 
Q 1894 3584 2278 3584 
Q 2916 3584 3314 3078 
Q 3713 2572 3713 1747 
Q 3713 922 3314 415 
Q 2916 -91 2278 -91 
Q 1894 -91 1617 61 
Q 1341 213 1159 525 
L 1159 0 
L 581 0 
L 581 4863 
L 1159 4863 
L 1159 2969 
z
" transform="scale(0.015625)"/>
       <path id="DejaVuSans-73" d="M 2834 3397 
L 2834 2853 
Q 2591 2978 2328 3040 
Q 2066 3103 1784 3103 
Q 1356 3103 1142 2972 
Q 928 2841 928 2578 
Q 928 2378 1081 2264 
Q 1234 2150 1697 2047 
L 1894 2003 
Q 2506 1872 2764 1633 
Q 3022 1394 3022 966 
Q 3022 478 2636 193 
Q 2250 -91 1575 -91 
Q 1294 -91 989 -36 
Q 684 19 347 128 
L 347 722 
Q 666 556 975 473 
Q 1284 391 1588 391 
Q 1994 391 2212 530 
Q 2431 669 2431 922 
Q 2431 1156 2273 1281 
Q 2116 1406 1581 1522 
L 1381 1569 
Q 847 1681 609 1914 
Q 372 2147 372 2553 
Q 372 3047 722 3315 
Q 1072 3584 1716 3584 
Q 2034 3584 2315 3537 
Q 2597 3491 2834 3397 
z
" transform="scale(0.015625)"/>
       <path id="DejaVuSans-20" transform="scale(0.015625)"/>
       <path id="DejaVuSans-5b" d="M 550 4863 
L 1875 4863 
L 1875 4416 
L 1125 4416 
L 1125 -397 
L 1875 -397 
L 1875 -844 
L 550 -844 
L 550 4863 
z
" transform="scale(0.015625)"/>
       <path id="DejaVuSans-46" d="M 628 4666 
L 3309 4666 
L 3309 4134 
L 1259 4134 
L 1259 2759 
L 3109 2759 
L 3109 2228 
L 1259 2228 
L 1259 0 
L 628 0 
L 628 4666 
z
" transform="scale(0.015625)"/>
       <path id="DejaVuSans-45" d="M 628 4666 
L 3578 4666 
L 3578 4134 
L 1259 4134 
L 1259 2753 
L 3481 2753 
L 3481 2222 
L 1259 2222 
L 1259 531 
L 3634 531 
L 3634 0 
L 628 0 
L 628 4666 
z
" transform="scale(0.015625)"/>
       <path id="DejaVuSans-5d" d="M 1947 4863 
L 1947 -844 
L 622 -844 
L 622 -397 
L 1369 -397 
L 1369 4416 
L 622 4416 
L 622 4863 
L 1947 4863 
z
" transform="scale(0.015625)"/>
      </defs>
      <use xlink:href="#DejaVuSans-4a"/>
      <use xlink:href="#DejaVuSans-6f" x="29.492188"/>
      <use xlink:href="#DejaVuSans-62" x="90.673828"/>
      <use xlink:href="#DejaVuSans-73" x="154.150391"/>
      <use xlink:href="#DejaVuSans-20" x="206.25"/>
      <use xlink:href="#DejaVuSans-5b" x="238.037109"/>
      <use xlink:href="#DejaVuSans-46" x="277.050781"/>
      <use xlink:href="#DejaVuSans-54" x="332.820312"/>
      <use xlink:href="#DejaVuSans-45" x="393.904297"/>
      <use xlink:href="#DejaVuSans-5d" x="457.087891"/>
     </g>
    </g>
   </g>
   <g id="line2d_13">
    <path d="M 57.6 307.231296 
L 83.108571 307.048192 
L 108.617143 306.979334 
L 134.125714 306.910477 
L 159.634286 306.841622 
L 185.142857 306.75776 
L 210.651429 306.673897 
L 236.16 306.589723 
L 261.668571 306.505232 
L 287.177143 306.291519 
L 312.685714 305.756086 
L 338.194286 304.330197 
L 363.702857 303.932398 
L 389.211429 302.684785 
L 414.72 301.583663 
" clip-path="url(#p57fc8b9737)" style="fill: none; stroke: #6f6f6f; stroke-width: 1.5; stroke-linecap: square"/>
   </g>
   <g id="line2d_14">
    <path d="M 57.6 306.569315 
L 83.108571 305.421065 
L 108.617143 304.622283 
L 134.125714 285.529636 
L 159.634286 283.729656 
L 185.142857 283.623065 
L 210.651429 283.508495 
L 236.16 279.006066 
L 261.668571 271.764253 
L 287.177143 271.459602 
L 312.685714 270.760489 
L 338.194286 270.464225 
L 363.702857 270.192696 
L 389.211429 270.249053 
L 414.72 270.454392 
" clip-path="url(#p57fc8b9737)" style="fill: none; stroke: #6f6f6f; stroke-width: 1.5; stroke-linecap: square"/>
   </g>
   <g id="line2d_15">
    <path d="M 57.6 307.349818 
L 83.108571 307.315354 
L 108.617143 305.924617 
L 134.125714 304.422809 
L 159.634286 302.781671 
L 185.142857 302.620962 
L 210.651429 300.655225 
L 236.16 299.598411 
L 261.668571 299.571635 
L 287.177143 299.554877 
L 312.685714 298.683558 
L 338.194286 297.189271 
L 363.702857 296.578164 
L 389.211429 296.189189 
L 414.72 294.828937 
" clip-path="url(#p57fc8b9737)" style="fill: none; stroke: #6f6f6f; stroke-width: 1.5; stroke-linecap: square"/>
   </g>
   <g id="line2d_16">
    <path d="M 57.6 307.557542 
L 83.108571 307.543765 
L 108.617143 307.538558 
L 134.125714 307.533351 
L 159.634286 307.54098 
L 185.142857 307.54861 
L 210.651429 307.556239 
L 236.16 307.556239 
L 261.668571 307.556239 
L 287.177143 307.556239 
L 312.685714 307.556239 
L 338.194286 307.556239 
L 363.702857 307.556239 
L 389.211429 307.556239 
L 414.72 307.556239 
" clip-path="url(#p57fc8b9737)" style="fill: none; stroke: #6f6f6f; stroke-width: 1.5; stroke-linecap: square"/>
   </g>
   <g id="line2d_17">
    <path d="M 57.6 307.584 
L 83.108571 307.584 
L 108.617143 307.584 
L 134.125714 307.584 
L 159.634286 307.584 
L 185.142857 307.584 
L 210.651429 307.584 
L 236.16 307.584 
L 261.668571 307.584 
L 287.177143 307.584 
L 312.685714 307.584 
L 338.194286 307.584 
L 363.702857 307.584 
L 389.211429 307.584 
L 414.72 307.584 
" clip-path="url(#p57fc8b9737)" style="fill: none; stroke: #6f6f6f; stroke-width: 1.5; stroke-linecap: square"/>
   </g>
   <g id="line2d_18">
    <path d="M 57.6 307.253013 
L 83.108571 306.988651 
L 108.617143 301.574761 
L 134.125714 288.37608 
L 159.634286 276.602048 
L 185.142857 273.473894 
L 210.651429 270.317894 
L 236.16 257.451916 
L 261.668571 256.222336 
L 287.177143 253.127998 
L 312.685714 250.323131 
L 338.194286 249.506841 
L 363.702857 249.568994 
L 389.211429 249.804773 
L 414.72 249.982993 
" clip-path="url(#p57fc8b9737)" style="fill: none; stroke: #6f6f6f; stroke-width: 1.5; stroke-linecap: square"/>
   </g>
   <g id="line2d_19">
    <path d="M 57.6 304.592186 
L 83.108571 217.033637 
L 108.617143 207.961241 
L 134.125714 176.639569 
L 159.634286 170.224584 
L 185.142857 166.418482 
L 210.651429 162.43899 
L 236.16 150.791813 
L 261.668571 147.408325 
L 287.177143 141.877762 
L 312.685714 125.854787 
L 338.194286 109.80502 
L 363.702857 101.482395 
L 389.211429 96.277127 
L 414.72 88.870761 
" clip-path="url(#p57fc8b9737)" style="fill: none; stroke: #6f6f6f; stroke-width: 1.5; stroke-linecap: square"/>
   </g>
   <g id="line2d_20">
    <path d="M 57.6 307.531337 
L 83.108571 307.372579 
L 108.617143 307.134366 
L 134.125714 306.9668 
L 159.634286 288.340951 
L 185.142857 281.10435 
L 210.651429 268.472317 
L 236.16 261.080174 
L 261.668571 240.097406 
L 287.177143 225.394565 
L 312.685714 225.112858 
L 338.194286 218.690217 
L 363.702857 199.81632 
L 389.211429 199.791339 
L 414.72 197.401684 
" clip-path="url(#p57fc8b9737)" style="fill: none; stroke: #6f6f6f; stroke-width: 1.5; stroke-linecap: square"/>
   </g>
   <g id="line2d_21">
    <path d="M 57.6 307.584 
L 83.108571 307.584 
L 108.617143 307.584 
L 134.125714 307.584 
L 159.634286 307.584 
L 185.142857 307.584 
L 210.651429 307.584 
L 236.16 307.584 
L 261.668571 307.584 
L 287.177143 307.584 
L 312.685714 297.772508 
L 338.194286 297.616165 
L 363.702857 297.459732 
L 389.211429 295.903386 
L 414.72 295.746953 
" clip-path="url(#p57fc8b9737)" style="fill: none; stroke: #6f6f6f; stroke-width: 1.5; stroke-linecap: square"/>
   </g>
   <g id="line2d_22">
    <path d="M 57.6 306.925091 
L 83.108571 305.838707 
L 108.617143 305.321552 
L 134.125714 303.984818 
L 159.634286 303.669585 
L 185.142857 302.505017 
L 210.651429 299.309129 
L 236.16 296.88102 
L 261.668571 294.545045 
L 287.177143 292.053251 
L 312.685714 287.776585 
L 338.194286 285.264339 
L 363.702857 278.504843 
L 389.211429 270.837911 
L 414.72 266.272794 
" clip-path="url(#p57fc8b9737)" style="fill: none; stroke: #6f6f6f; stroke-width: 1.5; stroke-linecap: square"/>
   </g>
   <g id="line2d_23">
    <path d="M 57.6 306.188003 
L 83.108571 267.183005 
L 108.617143 230.486229 
L 134.125714 205.461281 
L 159.634286 176.407521 
L 185.142857 151.35177 
L 210.651429 138.130498 
L 236.16 127.507328 
L 261.668571 116.271981 
L 287.177143 107.585284 
L 312.685714 98.804265 
L 338.194286 90.088701 
L 363.702857 81.399681 
L 389.211429 52.153589 
L 414.72 40.158454 
" clip-path="url(#p57fc8b9737)" style="fill: none; stroke: #6f6f6f; stroke-width: 1.5; stroke-linecap: square"/>
   </g>
   <g id="line2d_24">
    <path d="M 57.6 307.29737 
L 83.108571 307.148116 
L 108.617143 307.091707 
L 134.125714 307.035298 
L 159.634286 306.978893 
L 185.142857 306.877698 
L 210.651429 306.776507 
L 236.16 306.69195 
L 261.668571 306.69273 
L 287.177143 304.93858 
L 312.685714 301.193635 
L 338.194286 299.296967 
L 363.702857 297.645507 
L 389.211429 297.029943 
L 414.72 296.414552 
" clip-path="url(#p57fc8b9737)" style="fill: none; stroke: #6f6f6f; stroke-width: 1.5; stroke-linecap: square"/>
   </g>
   <g id="line2d_25">
    <path d="M 57.6 306.07578 
L 83.108571 304.09832 
L 108.617143 295.624214 
L 134.125714 290.041042 
L 159.634286 283.482775 
L 185.142857 272.769491 
L 210.651429 265.663973 
L 236.16 239.369911 
L 261.668571 194.273909 
L 287.177143 184.542623 
L 312.685714 178.327763 
L 338.194286 167.386565 
L 363.702857 152.335204 
L 389.211429 143.053815 
L 414.72 127.915729 
" clip-path="url(#p57fc8b9737)" style="fill: none; stroke: #6f6f6f; stroke-width: 1.5; stroke-linecap: square"/>
   </g>
   <g id="line2d_26">
    <path d="M 57.6 307.320983 
L 83.108571 307.20026 
L 108.617143 307.051258 
L 134.125714 306.985637 
L 159.634286 306.930299 
L 185.142857 306.953058 
L 210.651429 306.888616 
L 236.16 306.027007 
L 261.668571 305.56252 
L 287.177143 304.717183 
L 312.685714 303.896147 
L 338.194286 303.231718 
L 363.702857 302.424452 
L 389.211429 299.551 
L 414.72 296.323072 
" clip-path="url(#p57fc8b9737)" style="fill: none; stroke: #6f6f6f; stroke-width: 1.5; stroke-linecap: square"/>
   </g>
   <g id="line2d_27">
    <path d="M 57.6 307.234556 
L 83.108571 307.038734 
L 108.617143 306.545306 
L 134.125714 305.644908 
L 159.634286 305.012671 
L 185.142857 298.322306 
L 210.651429 295.877307 
L 236.16 295.373903 
L 261.668571 289.138639 
L 287.177143 259.690565 
L 312.685714 243.82686 
L 338.194286 242.251257 
L 363.702857 239.959268 
L 389.211429 236.964079 
L 414.72 225.91089 
" clip-path="url(#p57fc8b9737)" style="fill: none; stroke: #6f6f6f; stroke-width: 1.5; stroke-linecap: square"/>
   </g>
   <g id="line2d_28">
    <path d="M 57.6 307.565595 
L 83.108571 307.56115 
L 108.617143 303.267492 
L 134.125714 303.23435 
L 159.634286 299.001497 
L 185.142857 298.886525 
L 210.651429 298.536511 
L 236.16 294.677897 
L 261.668571 294.408246 
L 287.177143 294.138613 
L 312.685714 293.873053 
L 338.194286 293.873053 
L 363.702857 293.847314 
L 389.211429 293.681958 
L 414.72 293.557594 
" clip-path="url(#p57fc8b9737)" style="fill: none; stroke: #6f6f6f; stroke-width: 1.5; stroke-linecap: square"/>
   </g>
   <g id="line2d_29">
    <path d="M 57.6 305.99458 
L 83.108571 247.642012 
L 108.617143 241.63244 
L 134.125714 237.260766 
L 159.634286 232.967195 
L 185.142857 212.674936 
L 210.651429 186.652924 
L 236.16 164.549817 
L 261.668571 144.800334 
L 287.177143 134.586395 
L 312.685714 126.318818 
L 338.194286 110.311521 
L 363.702857 88.259948 
L 389.211429 79.028055 
L 414.72 69.809344 
" clip-path="url(#p57fc8b9737)" style="fill: none; stroke: #6f6f6f; stroke-width: 1.5; stroke-linecap: square"/>
   </g>
   <g id="line2d_30">
    <path d="M 57.6 306.989834 
L 83.108571 306.681582 
L 108.617143 306.56579 
L 134.125714 306.449991 
L 159.634286 306.334199 
L 185.142857 296.479217 
L 210.651429 296.243794 
L 236.16 296.008456 
L 261.668571 285.529108 
L 287.177143 285.137524 
L 312.685714 283.468195 
L 338.194286 281.798728 
L 363.702857 281.28669 
L 389.211429 280.974549 
L 414.72 279.306218 
" clip-path="url(#p57fc8b9737)" style="fill: none; stroke: #6f6f6f; stroke-width: 1.5; stroke-linecap: square"/>
   </g>
   <g id="line2d_31">
    <path d="M 57.6 307.584 
L 83.108571 307.584 
L 108.617143 307.584 
L 134.125714 307.584 
L 159.634286 307.584 
L 185.142857 307.584 
L 210.651429 307.584 
L 236.16 307.584 
L 261.668571 307.584 
L 287.177143 307.584 
L 312.685714 307.584 
L 338.194286 307.584 
L 363.702857 307.557551 
L 389.211429 307.52396 
L 414.72 307.52396 
" clip-path="url(#p57fc8b9737)" style="fill: none; stroke: #6f6f6f; stroke-width: 1.5; stroke-linecap: square"/>
   </g>
   <g id="line2d_32">
    <path d="M 57.6 307.584 
L 83.108571 307.584 
L 108.617143 307.584 
L 134.125714 307.584 
L 159.634286 307.584 
L 185.142857 307.584 
L 210.651429 307.584 
L 236.16 307.584 
L 261.668571 307.584 
L 287.177143 307.584 
L 312.685714 307.584 
L 338.194286 301.187378 
L 363.702857 299.065751 
L 389.211429 298.776025 
L 414.72 298.733511 
" clip-path="url(#p57fc8b9737)" style="fill: none; stroke: #6f6f6f; stroke-width: 1.5; stroke-linecap: square"/>
   </g>
   <g id="line2d_33">
    <path d="M 57.6 307.584 
L 83.108571 307.584 
L 108.617143 307.584 
L 134.125714 307.584 
L 159.634286 307.584 
L 185.142857 307.584 
L 210.651429 307.584 
L 236.16 307.584 
L 261.668571 307.584 
L 287.177143 307.584 
L 312.685714 307.584 
L 338.194286 307.584 
L 363.702857 307.584 
L 389.211429 307.584 
L 414.72 307.584 
" clip-path="url(#p57fc8b9737)" style="fill: none; stroke: #6f6f6f; stroke-width: 1.5; stroke-linecap: square"/>
   </g>
   <g id="line2d_34">
    <path d="M 57.6 305.089943 
L 83.108571 303.282086 
L 108.617143 295.574831 
L 134.125714 291.260234 
L 159.634286 261.965193 
L 185.142857 259.899846 
L 210.651429 259.622042 
L 236.16 250.448527 
L 261.668571 248.107171 
L 287.177143 245.246122 
L 312.685714 243.274249 
L 338.194286 240.8235 
L 363.702857 240.004357 
L 389.211429 233.374178 
L 414.72 228.164876 
" clip-path="url(#p57fc8b9737)" style="fill: none; stroke: #6f6f6f; stroke-width: 1.5; stroke-linecap: square"/>
   </g>
   <g id="line2d_35">
    <path d="M 57.6 307.234186 
L 83.108571 307.076074 
L 108.617143 307.02446 
L 134.125714 306.996998 
L 159.634286 306.969537 
L 185.142857 306.947707 
L 210.651429 306.921477 
L 236.16 306.921477 
L 261.668571 306.921477 
L 287.177143 306.874523 
L 312.685714 306.82834 
L 338.194286 306.782159 
L 363.702857 306.735739 
L 389.211429 306.689086 
L 414.72 306.642433 
" clip-path="url(#p57fc8b9737)" style="fill: none; stroke: #6f6f6f; stroke-width: 1.5; stroke-linecap: square"/>
   </g>
   <g id="line2d_36">
    <path d="M 57.6 305.64259 
L 83.108571 292.485647 
L 108.617143 281.705004 
L 134.125714 274.810727 
L 159.634286 271.341427 
L 185.142857 269.951144 
L 210.651429 266.936553 
L 236.16 248.443921 
L 261.668571 244.297525 
L 287.177143 216.518041 
L 312.685714 209.904859 
L 338.194286 201.165578 
L 363.702857 198.017549 
L 389.211429 193.693318 
L 414.72 189.998212 
" clip-path="url(#p57fc8b9737)" style="fill: none; stroke: #6f6f6f; stroke-width: 1.5; stroke-linecap: square"/>
   </g>
   <g id="line2d_37">
    <path d="M 57.6 307.406586 
L 83.108571 306.305609 
L 108.617143 306.270694 
L 134.125714 299.742722 
L 159.634286 299.523101 
L 185.142857 299.283105 
L 210.651429 298.842055 
L 236.16 294.743124 
L 261.668571 293.330658 
L 287.177143 289.234128 
L 312.685714 285.639088 
L 338.194286 284.690473 
L 363.702857 283.234253 
L 389.211429 281.669664 
L 414.72 280.41745 
" clip-path="url(#p57fc8b9737)" style="fill: none; stroke: #6f6f6f; stroke-width: 1.5; stroke-linecap: square"/>
   </g>
   <g id="line2d_38">
    <path d="M 57.6 307.149193 
L 83.108571 287.836786 
L 108.617143 280.588862 
L 134.125714 277.412864 
L 159.634286 274.023844 
L 185.142857 270.034111 
L 210.651429 265.81227 
L 236.16 259.822259 
L 261.668571 254.918428 
L 287.177143 252.160047 
L 312.685714 249.652458 
L 338.194286 245.459164 
L 363.702857 245.440495 
L 389.211429 241.421955 
L 414.72 239.43485 
" clip-path="url(#p57fc8b9737)" style="fill: none; stroke: #6f6f6f; stroke-width: 1.5; stroke-linecap: square"/>
   </g>
   <g id="line2d_39">
    <path d="M 57.6 307.286102 
L 83.108571 307.228153 
L 108.617143 305.712979 
L 134.125714 302.636441 
L 159.634286 302.414015 
L 185.142857 298.503669 
L 210.651429 298.052178 
L 236.16 295.535593 
L 261.668571 289.498102 
L 287.177143 287.652605 
L 312.685714 285.812323 
L 338.194286 283.249369 
L 363.702857 282.870519 
L 389.211429 282.497451 
L 414.72 282.211893 
" clip-path="url(#p57fc8b9737)" style="fill: none; stroke: #6f6f6f; stroke-width: 1.5; stroke-linecap: square"/>
   </g>
   <g id="line2d_40">
    <path d="M 57.6 307.584 
L 83.108571 305.025589 
L 108.617143 305.025589 
L 134.125714 305.025589 
L 159.634286 305.025589 
L 185.142857 304.65905 
L 210.651429 304.65905 
L 236.16 304.65905 
L 261.668571 304.65905 
L 287.177143 304.65972 
L 312.685714 304.653389 
L 338.194286 304.647005 
L 363.702857 304.640567 
L 389.211429 304.634183 
L 414.72 304.627799 
" clip-path="url(#p57fc8b9737)" style="fill: none; stroke: #6f6f6f; stroke-width: 1.5; stroke-linecap: square"/>
   </g>
   <g id="line2d_41">
    <path d="M 57.6 307.137491 
L 83.108571 298.165425 
L 108.617143 291.834646 
L 134.125714 291.511856 
L 159.634286 290.846853 
L 185.142857 290.20872 
L 210.651429 289.96074 
L 236.16 289.047145 
L 261.668571 288.633575 
L 287.177143 288.265347 
L 312.685714 288.007856 
L 338.194286 287.241807 
L 363.702857 285.977957 
L 389.211429 285.416693 
L 414.72 285.341035 
" clip-path="url(#p57fc8b9737)" style="fill: none; stroke: #6f6f6f; stroke-width: 1.5; stroke-linecap: square"/>
   </g>
   <g id="line2d_42">
    <path d="M 57.6 306.34066 
L 83.108571 305.810888 
L 108.617143 303.491109 
L 134.125714 302.305633 
L 159.634286 302.183081 
L 185.142857 301.437451 
L 210.651429 299.638836 
L 236.16 295.149789 
L 261.668571 291.15267 
L 287.177143 287.532119 
L 312.685714 280.08892 
L 338.194286 277.569643 
L 363.702857 273.825533 
L 389.211429 258.401008 
L 414.72 236.465784 
" clip-path="url(#p57fc8b9737)" style="fill: none; stroke: #6f6f6f; stroke-width: 1.5; stroke-linecap: square"/>
   </g>
   <g id="line2d_43">
    <path d="M 414.72 40.158454 
L 417.270857 40.158454 
L 419.821714 40.158454 
" clip-path="url(#p57fc8b9737)" style="fill: none; stroke-dasharray: 5.55,2.4; stroke-dashoffset: 0; stroke: #a30774; stroke-width: 1.5"/>
   </g>
   <g id="line2d_44">
    <path d="M 414.72 69.809344 
L 417.270857 69.809344 
L 419.821714 69.809344 
" clip-path="url(#p57fc8b9737)" style="fill: none; stroke-dasharray: 5.55,2.4; stroke-dashoffset: 0; stroke: #a30774; stroke-width: 1.5"/>
   </g>
   <g id="line2d_45">
    <path d="M 414.72 88.870761 
L 417.270857 88.870761 
L 419.821714 88.870761 
" clip-path="url(#p57fc8b9737)" style="fill: none; stroke-dasharray: 5.55,2.4; stroke-dashoffset: 0; stroke: #a30774; stroke-width: 1.5"/>
   </g>
   <g id="line2d_46">
    <path d="M 414.72 127.915729 
L 417.270857 127.915729 
L 419.821714 127.915729 
" clip-path="url(#p57fc8b9737)" style="fill: none; stroke-dasharray: 5.55,2.4; stroke-dashoffset: 0; stroke: #215caf; stroke-width: 1.5"/>
   </g>
   <g id="line2d_47">
    <path d="M 414.72 189.998212 
L 417.270857 189.998212 
L 419.821714 189.998212 
" clip-path="url(#p57fc8b9737)" style="fill: none; stroke-dasharray: 5.55,2.4; stroke-dashoffset: 0; stroke: #215caf; stroke-width: 1.5"/>
   </g>
   <g id="line2d_48">
    <path d="M 414.72 197.401684 
L 417.270857 197.401684 
L 419.821714 197.401684 
" clip-path="url(#p57fc8b9737)" style="fill: none; stroke-dasharray: 5.55,2.4; stroke-dashoffset: 0; stroke: #215caf; stroke-width: 1.5"/>
   </g>
   <g id="line2d_49">
    <path d="M 414.72 225.91089 
L 417.270857 225.91089 
L 419.821714 225.91089 
" clip-path="url(#p57fc8b9737)" style="fill: none; stroke-dasharray: 5.55,2.4; stroke-dashoffset: 0; stroke: #215caf; stroke-width: 1.5"/>
   </g>
   <g id="line2d_50">
    <path d="M 414.72 228.164876 
L 417.270857 228.164876 
L 419.821714 228.164876 
" clip-path="url(#p57fc8b9737)" style="fill: none; stroke-dasharray: 5.55,2.4; stroke-dashoffset: 0; stroke: #215caf; stroke-width: 1.5"/>
   </g>
   <g id="line2d_51">
    <path d="M 414.72 236.465784 
L 417.270857 236.465784 
L 419.821714 236.465784 
" clip-path="url(#p57fc8b9737)" style="fill: none; stroke-dasharray: 5.55,2.4; stroke-dashoffset: 0; stroke: #215caf; stroke-width: 1.5"/>
   </g>
   <g id="line2d_52">
    <path d="M 414.72 239.43485 
L 417.270857 239.43485 
L 419.821714 239.43485 
" clip-path="url(#p57fc8b9737)" style="fill: none; stroke-dasharray: 5.55,2.4; stroke-dashoffset: 0; stroke: #215caf; stroke-width: 1.5"/>
   </g>
   <g id="line2d_53">
    <path d="M 414.72 249.982993 
L 417.270857 249.982993 
L 419.821714 249.982993 
" clip-path="url(#p57fc8b9737)" style="fill: none; stroke-dasharray: 5.55,2.4; stroke-dashoffset: 0; stroke: #215caf; stroke-width: 1.5"/>
   </g>
   <g id="line2d_54">
    <path d="M 414.72 266.272794 
L 417.270857 266.272794 
L 419.821714 266.272794 
" clip-path="url(#p57fc8b9737)" style="fill: none; stroke-dasharray: 5.55,2.4; stroke-dashoffset: 0; stroke: #215caf; stroke-width: 1.5"/>
   </g>
   <g id="line2d_55">
    <path d="M 57.6 306.07578 
L 83.108571 304.09832 
L 108.617143 295.624214 
L 134.125714 290.041042 
L 159.634286 283.482775 
L 185.142857 272.769491 
L 210.651429 265.663973 
L 236.16 239.369911 
L 261.668571 194.273909 
L 287.177143 184.542623 
L 312.685714 178.327763 
L 338.194286 167.386565 
L 363.702857 152.335204 
L 389.211429 143.053815 
L 414.72 127.915729 
" clip-path="url(#p57fc8b9737)" style="fill: none; stroke: #215caf; stroke-width: 1.2; stroke-linecap: square"/>
   </g>
   <g id="line2d_56">
    <path d="M 57.6 305.64259 
L 83.108571 292.485647 
L 108.617143 281.705004 
L 134.125714 274.810727 
L 159.634286 271.341427 
L 185.142857 269.951144 
L 210.651429 266.936553 
L 236.16 248.443921 
L 261.668571 244.297525 
L 287.177143 216.518041 
L 312.685714 209.904859 
L 338.194286 201.165578 
L 363.702857 198.017549 
L 389.211429 193.693318 
L 414.72 189.998212 
" clip-path="url(#p57fc8b9737)" style="fill: none; stroke: #215caf; stroke-width: 1.2; stroke-linecap: square"/>
   </g>
   <g id="line2d_57">
    <path d="M 57.6 307.531337 
L 83.108571 307.372579 
L 108.617143 307.134366 
L 134.125714 306.9668 
L 159.634286 288.340951 
L 185.142857 281.10435 
L 210.651429 268.472317 
L 236.16 261.080174 
L 261.668571 240.097406 
L 287.177143 225.394565 
L 312.685714 225.112858 
L 338.194286 218.690217 
L 363.702857 199.81632 
L 389.211429 199.791339 
L 414.72 197.401684 
" clip-path="url(#p57fc8b9737)" style="fill: none; stroke: #215caf; stroke-width: 1.2; stroke-linecap: square"/>
   </g>
   <g id="line2d_58">
    <path d="M 57.6 307.234556 
L 83.108571 307.038734 
L 108.617143 306.545306 
L 134.125714 305.644908 
L 159.634286 305.012671 
L 185.142857 298.322306 
L 210.651429 295.877307 
L 236.16 295.373903 
L 261.668571 289.138639 
L 287.177143 259.690565 
L 312.685714 243.82686 
L 338.194286 242.251257 
L 363.702857 239.959268 
L 389.211429 236.964079 
L 414.72 225.91089 
" clip-path="url(#p57fc8b9737)" style="fill: none; stroke: #215caf; stroke-width: 1.2; stroke-linecap: square"/>
   </g>
   <g id="line2d_59">
    <path d="M 57.6 305.089943 
L 83.108571 303.282086 
L 108.617143 295.574831 
L 134.125714 291.260234 
L 159.634286 261.965193 
L 185.142857 259.899846 
L 210.651429 259.622042 
L 236.16 250.448527 
L 261.668571 248.107171 
L 287.177143 245.246122 
L 312.685714 243.274249 
L 338.194286 240.8235 
L 363.702857 240.004357 
L 389.211429 233.374178 
L 414.72 228.164876 
" clip-path="url(#p57fc8b9737)" style="fill: none; stroke: #215caf; stroke-width: 1.2; stroke-linecap: square"/>
   </g>
   <g id="line2d_60">
    <path d="M 57.6 306.34066 
L 83.108571 305.810888 
L 108.617143 303.491109 
L 134.125714 302.305633 
L 159.634286 302.183081 
L 185.142857 301.437451 
L 210.651429 299.638836 
L 236.16 295.149789 
L 261.668571 291.15267 
L 287.177143 287.532119 
L 312.685714 280.08892 
L 338.194286 277.569643 
L 363.702857 273.825533 
L 389.211429 258.401008 
L 414.72 236.465784 
" clip-path="url(#p57fc8b9737)" style="fill: none; stroke: #215caf; stroke-width: 1.2; stroke-linecap: square"/>
   </g>
   <g id="line2d_61">
    <path d="M 57.6 307.149193 
L 83.108571 287.836786 
L 108.617143 280.588862 
L 134.125714 277.412864 
L 159.634286 274.023844 
L 185.142857 270.034111 
L 210.651429 265.81227 
L 236.16 259.822259 
L 261.668571 254.918428 
L 287.177143 252.160047 
L 312.685714 249.652458 
L 338.194286 245.459164 
L 363.702857 245.440495 
L 389.211429 241.421955 
L 414.72 239.43485 
" clip-path="url(#p57fc8b9737)" style="fill: none; stroke: #215caf; stroke-width: 1.2; stroke-linecap: square"/>
   </g>
   <g id="line2d_62">
    <path d="M 57.6 307.253013 
L 83.108571 306.988651 
L 108.617143 301.574761 
L 134.125714 288.37608 
L 159.634286 276.602048 
L 185.142857 273.473894 
L 210.651429 270.317894 
L 236.16 257.451916 
L 261.668571 256.222336 
L 287.177143 253.127998 
L 312.685714 250.323131 
L 338.194286 249.506841 
L 363.702857 249.568994 
L 389.211429 249.804773 
L 414.72 249.982993 
" clip-path="url(#p57fc8b9737)" style="fill: none; stroke: #215caf; stroke-width: 1.2; stroke-linecap: square"/>
   </g>
   <g id="line2d_63">
    <path d="M 57.6 306.925091 
L 83.108571 305.838707 
L 108.617143 305.321552 
L 134.125714 303.984818 
L 159.634286 303.669585 
L 185.142857 302.505017 
L 210.651429 299.309129 
L 236.16 296.88102 
L 261.668571 294.545045 
L 287.177143 292.053251 
L 312.685714 287.776585 
L 338.194286 285.264339 
L 363.702857 278.504843 
L 389.211429 270.837911 
L 414.72 266.272794 
" clip-path="url(#p57fc8b9737)" style="fill: none; stroke: #215caf; stroke-width: 1.2; stroke-linecap: square"/>
   </g>
   <g id="patch_3">
    <path d="M 57.6 307.584 
L 57.6 41.472 
" style="fill: none; stroke: #000000; stroke-width: 0.8; stroke-linejoin: miter; stroke-linecap: square"/>
   </g>
   <g id="patch_4">
    <path d="M 57.6 307.584 
L 414.72 307.584 
" style="fill: none; stroke: #000000; stroke-width: 0.8; stroke-linejoin: miter; stroke-linecap: square"/>
   </g>
   <g id="text_15">
    <!-- ES -->
    <g transform="translate(421.097143 42.917829) scale(0.1 -0.1)">
     <defs>
      <path id="DejaVuSans-Bold-45" d="M 588 4666 
L 3834 4666 
L 3834 3756 
L 1791 3756 
L 1791 2888 
L 3713 2888 
L 3713 1978 
L 1791 1978 
L 1791 909 
L 3903 909 
L 3903 0 
L 588 0 
L 588 4666 
z
" transform="scale(0.015625)"/>
      <path id="DejaVuSans-Bold-53" d="M 3834 4519 
L 3834 3531 
Q 3450 3703 3084 3790 
Q 2719 3878 2394 3878 
Q 1963 3878 1756 3759 
Q 1550 3641 1550 3391 
Q 1550 3203 1689 3098 
Q 1828 2994 2194 2919 
L 2706 2816 
Q 3484 2659 3812 2340 
Q 4141 2022 4141 1434 
Q 4141 663 3683 286 
Q 3225 -91 2284 -91 
Q 1841 -91 1394 -6 
Q 947 78 500 244 
L 500 1259 
Q 947 1022 1364 901 
Q 1781 781 2169 781 
Q 2563 781 2772 912 
Q 2981 1044 2981 1288 
Q 2981 1506 2839 1625 
Q 2697 1744 2272 1838 
L 1806 1941 
Q 1106 2091 782 2419 
Q 459 2747 459 3303 
Q 459 4000 909 4375 
Q 1359 4750 2203 4750 
Q 2588 4750 2994 4692 
Q 3400 4634 3834 4519 
z
" transform="scale(0.015625)"/>
     </defs>
     <use xlink:href="#DejaVuSans-Bold-45"/>
     <use xlink:href="#DejaVuSans-Bold-53" x="68.310547"/>
    </g>
   </g>
   <g id="text_16">
    <!-- IT -->
    <g transform="translate(421.097143 72.568719) scale(0.1 -0.1)">
     <defs>
      <path id="DejaVuSans-Bold-49" d="M 588 4666 
L 1791 4666 
L 1791 0 
L 588 0 
L 588 4666 
z
" transform="scale(0.015625)"/>
      <path id="DejaVuSans-Bold-54" d="M 31 4666 
L 4331 4666 
L 4331 3756 
L 2784 3756 
L 2784 0 
L 1581 0 
L 1581 3756 
L 31 3756 
L 31 4666 
z
" transform="scale(0.015625)"/>
     </defs>
     <use xlink:href="#DejaVuSans-Bold-49"/>
     <use xlink:href="#DejaVuSans-Bold-54" x="37.207031"/>
    </g>
   </g>
   <g id="text_17">
    <!-- DE -->
    <g transform="translate(421.097143 91.630136) scale(0.1 -0.1)">
     <defs>
      <path id="DejaVuSans-Bold-44" d="M 1791 3756 
L 1791 909 
L 2222 909 
Q 2959 909 3348 1275 
Q 3738 1641 3738 2338 
Q 3738 3031 3350 3393 
Q 2963 3756 2222 3756 
L 1791 3756 
z
M 588 4666 
L 1856 4666 
Q 2919 4666 3439 4514 
Q 3959 4363 4331 4000 
Q 4659 3684 4818 3271 
Q 4978 2859 4978 2338 
Q 4978 1809 4818 1395 
Q 4659 981 4331 666 
Q 3956 303 3431 151 
Q 2906 0 1856 0 
L 588 0 
L 588 4666 
z
" transform="scale(0.015625)"/>
     </defs>
     <use xlink:href="#DejaVuSans-Bold-44"/>
     <use xlink:href="#DejaVuSans-Bold-45" x="83.007812"/>
    </g>
   </g>
   <g id="text_18">
    <!-- FR -->
    <g transform="translate(421.097143 130.675104) scale(0.1 -0.1)">
     <defs>
      <path id="DejaVuSans-Bold-46" d="M 588 4666 
L 3834 4666 
L 3834 3756 
L 1791 3756 
L 1791 2888 
L 3713 2888 
L 3713 1978 
L 1791 1978 
L 1791 0 
L 588 0 
L 588 4666 
z
" transform="scale(0.015625)"/>
      <path id="DejaVuSans-Bold-52" d="M 2297 2597 
Q 2675 2597 2839 2737 
Q 3003 2878 3003 3200 
Q 3003 3519 2839 3656 
Q 2675 3794 2297 3794 
L 1791 3794 
L 1791 2597 
L 2297 2597 
z
M 1791 1766 
L 1791 0 
L 588 0 
L 588 4666 
L 2425 4666 
Q 3347 4666 3776 4356 
Q 4206 4047 4206 3378 
Q 4206 2916 3982 2619 
Q 3759 2322 3309 2181 
Q 3556 2125 3751 1926 
Q 3947 1728 4147 1325 
L 4800 0 
L 3519 0 
L 2950 1159 
Q 2778 1509 2601 1637 
Q 2425 1766 2131 1766 
L 1791 1766 
z
" transform="scale(0.015625)"/>
     </defs>
     <use xlink:href="#DejaVuSans-Bold-46"/>
     <use xlink:href="#DejaVuSans-Bold-52" x="68.310547"/>
    </g>
   </g>
   <g id="text_19">
    <!-- PL -->
    <g transform="translate(421.097143 192.757587) scale(0.1 -0.1)">
     <defs>
      <path id="DejaVuSans-Bold-50" d="M 588 4666 
L 2584 4666 
Q 3475 4666 3951 4270 
Q 4428 3875 4428 3144 
Q 4428 2409 3951 2014 
Q 3475 1619 2584 1619 
L 1791 1619 
L 1791 0 
L 588 0 
L 588 4666 
z
M 1791 3794 
L 1791 2491 
L 2456 2491 
Q 2806 2491 2997 2661 
Q 3188 2831 3188 3144 
Q 3188 3456 2997 3625 
Q 2806 3794 2456 3794 
L 1791 3794 
z
" transform="scale(0.015625)"/>
      <path id="DejaVuSans-Bold-4c" d="M 588 4666 
L 1791 4666 
L 1791 909 
L 3903 909 
L 3903 0 
L 588 0 
L 588 4666 
z
" transform="scale(0.015625)"/>
     </defs>
     <use xlink:href="#DejaVuSans-Bold-50"/>
     <use xlink:href="#DejaVuSans-Bold-4c" x="73.291016"/>
    </g>
   </g>
   <g id="text_20">
    <!-- DK -->
    <g transform="translate(421.097143 200.161059) scale(0.1 -0.1)">
     <defs>
      <path id="DejaVuSans-Bold-4b" d="M 588 4666 
L 1791 4666 
L 1791 2963 
L 3525 4666 
L 4922 4666 
L 2675 2456 
L 5153 0 
L 3647 0 
L 1791 1838 
L 1791 0 
L 588 0 
L 588 4666 
z
" transform="scale(0.015625)"/>
     </defs>
     <use xlink:href="#DejaVuSans-Bold-44"/>
     <use xlink:href="#DejaVuSans-Bold-4b" x="83.007812"/>
    </g>
   </g>
   <g id="text_21">
    <!-- HU -->
    <g transform="translate(421.097143 228.670265) scale(0.1 -0.1)">
     <defs>
      <path id="DejaVuSans-Bold-48" d="M 588 4666 
L 1791 4666 
L 1791 2888 
L 3566 2888 
L 3566 4666 
L 4769 4666 
L 4769 0 
L 3566 0 
L 3566 1978 
L 1791 1978 
L 1791 0 
L 588 0 
L 588 4666 
z
" transform="scale(0.015625)"/>
      <path id="DejaVuSans-Bold-55" d="M 588 4666 
L 1791 4666 
L 1791 1869 
Q 1791 1291 1980 1042 
Q 2169 794 2597 794 
Q 3028 794 3217 1042 
Q 3406 1291 3406 1869 
L 3406 4666 
L 4609 4666 
L 4609 1869 
Q 4609 878 4112 393 
Q 3616 -91 2597 -91 
Q 1581 -91 1084 393 
Q 588 878 588 1869 
L 588 4666 
z
" transform="scale(0.015625)"/>
     </defs>
     <use xlink:href="#DejaVuSans-Bold-48"/>
     <use xlink:href="#DejaVuSans-Bold-55" x="83.691406"/>
    </g>
   </g>
   <g id="text_22">
    <!-- NL -->
    <g transform="translate(421.097143 230.924251) scale(0.1 -0.1)">
     <defs>
      <path id="DejaVuSans-Bold-4e" d="M 588 4666 
L 1931 4666 
L 3628 1466 
L 3628 4666 
L 4769 4666 
L 4769 0 
L 3425 0 
L 1728 3200 
L 1728 0 
L 588 0 
L 588 4666 
z
" transform="scale(0.015625)"/>
     </defs>
     <use xlink:href="#DejaVuSans-Bold-4e"/>
     <use xlink:href="#DejaVuSans-Bold-4c" x="83.691406"/>
    </g>
   </g>
   <g id="text_23">
    <!-- UK -->
    <g transform="translate(421.097143 239.225159) scale(0.1 -0.1)">
     <use xlink:href="#DejaVuSans-Bold-55"/>
     <use xlink:href="#DejaVuSans-Bold-4b" x="81.201172"/>
    </g>
   </g>
   <g id="text_24">
    <!-- RO -->
    <g transform="translate(421.097143 242.194225) scale(0.1 -0.1)">
     <defs>
      <path id="DejaVuSans-Bold-4f" d="M 2719 3878 
Q 2169 3878 1866 3472 
Q 1563 3066 1563 2328 
Q 1563 1594 1866 1187 
Q 2169 781 2719 781 
Q 3272 781 3575 1187 
Q 3878 1594 3878 2328 
Q 3878 3066 3575 3472 
Q 3272 3878 2719 3878 
z
M 2719 4750 
Q 3844 4750 4481 4106 
Q 5119 3463 5119 2328 
Q 5119 1197 4481 553 
Q 3844 -91 2719 -91 
Q 1597 -91 958 553 
Q 319 1197 319 2328 
Q 319 3463 958 4106 
Q 1597 4750 2719 4750 
z
" transform="scale(0.015625)"/>
     </defs>
     <use xlink:href="#DejaVuSans-Bold-52"/>
     <use xlink:href="#DejaVuSans-Bold-4f" x="77.001953"/>
    </g>
   </g>
   <g id="text_25">
    <!-- CZ -->
    <g transform="translate(421.097143 252.742368) scale(0.1 -0.1)">
     <defs>
      <path id="DejaVuSans-Bold-43" d="M 4288 256 
Q 3956 84 3597 -3 
Q 3238 -91 2847 -91 
Q 1681 -91 1000 561 
Q 319 1213 319 2328 
Q 319 3447 1000 4098 
Q 1681 4750 2847 4750 
Q 3238 4750 3597 4662 
Q 3956 4575 4288 4403 
L 4288 3438 
Q 3953 3666 3628 3772 
Q 3303 3878 2944 3878 
Q 2300 3878 1931 3465 
Q 1563 3053 1563 2328 
Q 1563 1606 1931 1193 
Q 2300 781 2944 781 
Q 3303 781 3628 887 
Q 3953 994 4288 1222 
L 4288 256 
z
" transform="scale(0.015625)"/>
      <path id="DejaVuSans-Bold-5a" d="M 359 4666 
L 4281 4666 
L 4281 3938 
L 1778 909 
L 4353 909 
L 4353 0 
L 288 0 
L 288 728 
L 2791 3756 
L 359 3756 
L 359 4666 
z
" transform="scale(0.015625)"/>
     </defs>
     <use xlink:href="#DejaVuSans-Bold-43"/>
     <use xlink:href="#DejaVuSans-Bold-5a" x="73.388672"/>
    </g>
   </g>
   <g id="text_26">
    <!-- EL -->
    <g transform="translate(421.097143 269.032169) scale(0.1 -0.1)">
     <use xlink:href="#DejaVuSans-Bold-45"/>
     <use xlink:href="#DejaVuSans-Bold-4c" x="68.310547"/>
    </g>
   </g>
   <g id="line2d_64">
    <path d="M 57.6 306.188003 
L 83.108571 267.183005 
L 108.617143 230.486229 
L 134.125714 205.461281 
L 159.634286 176.407521 
L 185.142857 151.35177 
L 210.651429 138.130498 
L 236.16 127.507328 
L 261.668571 116.271981 
L 287.177143 107.585284 
L 312.685714 98.804265 
L 338.194286 90.088701 
L 363.702857 81.399681 
L 389.211429 52.153589 
L 414.72 40.158454 
" clip-path="url(#p57fc8b9737)" style="fill: none; stroke: #a30774; stroke-width: 1.2; stroke-linecap: square"/>
   </g>
   <g id="line2d_65">
    <path d="M 57.6 305.99458 
L 83.108571 247.642012 
L 108.617143 241.63244 
L 134.125714 237.260766 
L 159.634286 232.967195 
L 185.142857 212.674936 
L 210.651429 186.652924 
L 236.16 164.549817 
L 261.668571 144.800334 
L 287.177143 134.586395 
L 312.685714 126.318818 
L 338.194286 110.311521 
L 363.702857 88.259948 
L 389.211429 79.028055 
L 414.72 69.809344 
" clip-path="url(#p57fc8b9737)" style="fill: none; stroke: #a30774; stroke-width: 1.2; stroke-linecap: square"/>
   </g>
   <g id="line2d_66">
    <path d="M 57.6 304.592186 
L 83.108571 217.033637 
L 108.617143 207.961241 
L 134.125714 176.639569 
L 159.634286 170.224584 
L 185.142857 166.418482 
L 210.651429 162.43899 
L 236.16 150.791813 
L 261.668571 147.408325 
L 287.177143 141.877762 
L 312.685714 125.854787 
L 338.194286 109.80502 
L 363.702857 101.482395 
L 389.211429 96.277127 
L 414.72 88.870761 
" clip-path="url(#p57fc8b9737)" style="fill: none; stroke: #a30774; stroke-width: 1.2; stroke-linecap: square"/>
   </g>
  </g>
 </g>
 <defs>
  <clipPath id="p57fc8b9737">
   <rect x="57.6" y="41.472" width="357.12" height="266.112"/>
  </clipPath>
 </defs>
</svg>
