<?xml version="1.0" encoding="utf-8" standalone="no"?>
<!DOCTYPE svg PUBLIC "-//W3C//DTD SVG 1.1//EN"
  "http://www.w3.org/Graphics/SVG/1.1/DTD/svg11.dtd">
<svg xmlns:xlink="http://www.w3.org/1999/xlink" width="1440pt" height="1440pt" viewBox="0 0 1440 1440" xmlns="http://www.w3.org/2000/svg" version="1.1">
 <metadata>
  <rdf:RDF xmlns:dc="http://purl.org/dc/elements/1.1/" xmlns:cc="http://creativecommons.org/ns#" xmlns:rdf="http://www.w3.org/1999/02/22-rdf-syntax-ns#">
   <cc:Work>
    <dc:type rdf:resource="http://purl.org/dc/dcmitype/StillImage"/>
    <dc:date>2023-08-28T09:53:18.726061</dc:date>
    <dc:format>image/svg+xml</dc:format>
    <dc:creator>
     <cc:Agent>
      <dc:title>Matplotlib v3.7.1, https://matplotlib.org/</dc:title>
     </cc:Agent>
    </dc:creator>
   </cc:Work>
  </rdf:RDF>
 </metadata>
 <defs>
  <style type="text/css">*{stroke-linejoin: round; stroke-linecap: butt}</style>
 </defs>
 <g id="figure_1">
  <g id="patch_1">
   <path d="M 0 1440 
L 1440 1440 
L 1440 0 
L 0 0 
L 0 1440 
z
" style="fill: none"/>
  </g>
  <g id="axes_1">
   <g id="patch_2">
    <path d="M 180 1281.6 
L 1296 1281.6 
L 1296 172.8 
L 180 172.8 
L 180 1281.6 
z
" style="fill: none"/>
   </g>
   <g id="matplotlib.axis_1">
    <g id="xtick_1">
     <g id="line2d_1">
      <defs>
       <path id="m34d04979a3" d="M 0 0 
L 0 3.5 
" style="stroke: #000000; stroke-width: 0.8"/>
      </defs>
      <g>
       <use xlink:href="#m34d04979a3" x="180" y="1281.6" style="stroke: #000000; stroke-width: 0.8"/>
      </g>
     </g>
     <g id="text_1">
      <!-- 0.0 -->
      <g transform="translate(156.145312 1311.395313) scale(0.3 -0.3)">
       <defs>
        <path id="DejaVuSans-30" d="M 2034 4250 
Q 1547 4250 1301 3770 
Q 1056 3291 1056 2328 
Q 1056 1369 1301 889 
Q 1547 409 2034 409 
Q 2525 409 2770 889 
Q 3016 1369 3016 2328 
Q 3016 3291 2770 3770 
Q 2525 4250 2034 4250 
z
M 2034 4750 
Q 2819 4750 3233 4129 
Q 3647 3509 3647 2328 
Q 3647 1150 3233 529 
Q 2819 -91 2034 -91 
Q 1250 -91 836 529 
Q 422 1150 422 2328 
Q 422 3509 836 4129 
Q 1250 4750 2034 4750 
z
" transform="scale(0.015625)"/>
        <path id="DejaVuSans-2e" d="M 684 794 
L 1344 794 
L 1344 0 
L 684 0 
L 684 794 
z
" transform="scale(0.015625)"/>
       </defs>
       <use xlink:href="#DejaVuSans-30"/>
       <use xlink:href="#DejaVuSans-2e" x="63.623047"/>
       <use xlink:href="#DejaVuSans-30" x="95.410156"/>
      </g>
     </g>
    </g>
    <g id="xtick_2">
     <g id="line2d_2">
      <g>
       <use xlink:href="#m34d04979a3" x="403.2" y="1281.6" style="stroke: #000000; stroke-width: 0.8"/>
      </g>
     </g>
     <g id="text_2">
      <!-- 0.2 -->
      <g transform="translate(379.345313 1311.395313) scale(0.3 -0.3)">
       <defs>
        <path id="DejaVuSans-32" d="M 1228 531 
L 3431 531 
L 3431 0 
L 469 0 
L 469 531 
Q 828 903 1448 1529 
Q 2069 2156 2228 2338 
Q 2531 2678 2651 2914 
Q 2772 3150 2772 3378 
Q 2772 3750 2511 3984 
Q 2250 4219 1831 4219 
Q 1534 4219 1204 4116 
Q 875 4013 500 3803 
L 500 4441 
Q 881 4594 1212 4672 
Q 1544 4750 1819 4750 
Q 2544 4750 2975 4387 
Q 3406 4025 3406 3419 
Q 3406 3131 3298 2873 
Q 3191 2616 2906 2266 
Q 2828 2175 2409 1742 
Q 1991 1309 1228 531 
z
" transform="scale(0.015625)"/>
       </defs>
       <use xlink:href="#DejaVuSans-30"/>
       <use xlink:href="#DejaVuSans-2e" x="63.623047"/>
       <use xlink:href="#DejaVuSans-32" x="95.410156"/>
      </g>
     </g>
    </g>
    <g id="xtick_3">
     <g id="line2d_3">
      <g>
       <use xlink:href="#m34d04979a3" x="626.4" y="1281.6" style="stroke: #000000; stroke-width: 0.8"/>
      </g>
     </g>
     <g id="text_3">
      <!-- 0.4 -->
      <g transform="translate(602.545313 1311.395313) scale(0.3 -0.3)">
       <defs>
        <path id="DejaVuSans-34" d="M 2419 4116 
L 825 1625 
L 2419 1625 
L 2419 4116 
z
M 2253 4666 
L 3047 4666 
L 3047 1625 
L 3713 1625 
L 3713 1100 
L 3047 1100 
L 3047 0 
L 2419 0 
L 2419 1100 
L 313 1100 
L 313 1709 
L 2253 4666 
z
" transform="scale(0.015625)"/>
       </defs>
       <use xlink:href="#DejaVuSans-30"/>
       <use xlink:href="#DejaVuSans-2e" x="63.623047"/>
       <use xlink:href="#DejaVuSans-34" x="95.410156"/>
      </g>
     </g>
    </g>
    <g id="xtick_4">
     <g id="line2d_4">
      <g>
       <use xlink:href="#m34d04979a3" x="849.6" y="1281.6" style="stroke: #000000; stroke-width: 0.8"/>
      </g>
     </g>
     <g id="text_4">
      <!-- 0.6 -->
      <g transform="translate(825.745313 1311.395313) scale(0.3 -0.3)">
       <defs>
        <path id="DejaVuSans-36" d="M 2113 2584 
Q 1688 2584 1439 2293 
Q 1191 2003 1191 1497 
Q 1191 994 1439 701 
Q 1688 409 2113 409 
Q 2538 409 2786 701 
Q 3034 994 3034 1497 
Q 3034 2003 2786 2293 
Q 2538 2584 2113 2584 
z
M 3366 4563 
L 3366 3988 
Q 3128 4100 2886 4159 
Q 2644 4219 2406 4219 
Q 1781 4219 1451 3797 
Q 1122 3375 1075 2522 
Q 1259 2794 1537 2939 
Q 1816 3084 2150 3084 
Q 2853 3084 3261 2657 
Q 3669 2231 3669 1497 
Q 3669 778 3244 343 
Q 2819 -91 2113 -91 
Q 1303 -91 875 529 
Q 447 1150 447 2328 
Q 447 3434 972 4092 
Q 1497 4750 2381 4750 
Q 2619 4750 2861 4703 
Q 3103 4656 3366 4563 
z
" transform="scale(0.015625)"/>
       </defs>
       <use xlink:href="#DejaVuSans-30"/>
       <use xlink:href="#DejaVuSans-2e" x="63.623047"/>
       <use xlink:href="#DejaVuSans-36" x="95.410156"/>
      </g>
     </g>
    </g>
    <g id="xtick_5">
     <g id="line2d_5">
      <g>
       <use xlink:href="#m34d04979a3" x="1072.8" y="1281.6" style="stroke: #000000; stroke-width: 0.8"/>
      </g>
     </g>
     <g id="text_5">
      <!-- 0.8 -->
      <g transform="translate(1048.945313 1311.395313) scale(0.3 -0.3)">
       <defs>
        <path id="DejaVuSans-38" d="M 2034 2216 
Q 1584 2216 1326 1975 
Q 1069 1734 1069 1313 
Q 1069 891 1326 650 
Q 1584 409 2034 409 
Q 2484 409 2743 651 
Q 3003 894 3003 1313 
Q 3003 1734 2745 1975 
Q 2488 2216 2034 2216 
z
M 1403 2484 
Q 997 2584 770 2862 
Q 544 3141 544 3541 
Q 544 4100 942 4425 
Q 1341 4750 2034 4750 
Q 2731 4750 3128 4425 
Q 3525 4100 3525 3541 
Q 3525 3141 3298 2862 
Q 3072 2584 2669 2484 
Q 3125 2378 3379 2068 
Q 3634 1759 3634 1313 
Q 3634 634 3220 271 
Q 2806 -91 2034 -91 
Q 1263 -91 848 271 
Q 434 634 434 1313 
Q 434 1759 690 2068 
Q 947 2378 1403 2484 
z
M 1172 3481 
Q 1172 3119 1398 2916 
Q 1625 2713 2034 2713 
Q 2441 2713 2670 2916 
Q 2900 3119 2900 3481 
Q 2900 3844 2670 4047 
Q 2441 4250 2034 4250 
Q 1625 4250 1398 4047 
Q 1172 3844 1172 3481 
z
" transform="scale(0.015625)"/>
       </defs>
       <use xlink:href="#DejaVuSans-30"/>
       <use xlink:href="#DejaVuSans-2e" x="63.623047"/>
       <use xlink:href="#DejaVuSans-38" x="95.410156"/>
      </g>
     </g>
    </g>
    <g id="xtick_6">
     <g id="line2d_6">
      <g>
       <use xlink:href="#m34d04979a3" x="1296" y="1281.6" style="stroke: #000000; stroke-width: 0.8"/>
      </g>
     </g>
     <g id="text_6">
      <!-- 1.0 -->
      <g transform="translate(1272.145313 1311.395313) scale(0.3 -0.3)">
       <defs>
        <path id="DejaVuSans-31" d="M 794 531 
L 1825 531 
L 1825 4091 
L 703 3866 
L 703 4441 
L 1819 4666 
L 2450 4666 
L 2450 531 
L 3481 531 
L 3481 0 
L 794 0 
L 794 531 
z
" transform="scale(0.015625)"/>
       </defs>
       <use xlink:href="#DejaVuSans-31"/>
       <use xlink:href="#DejaVuSans-2e" x="63.623047"/>
       <use xlink:href="#DejaVuSans-30" x="95.410156"/>
      </g>
     </g>
    </g>
    <g id="text_7">
     <!-- Cumulative proportion of population -->
     <g transform="translate(325.71875 1352.028125) scale(0.4 -0.4)">
      <defs>
       <path id="DejaVuSans-Bold-43" d="M 4288 256 
Q 3956 84 3597 -3 
Q 3238 -91 2847 -91 
Q 1681 -91 1000 561 
Q 319 1213 319 2328 
Q 319 3447 1000 4098 
Q 1681 4750 2847 4750 
Q 3238 4750 3597 4662 
Q 3956 4575 4288 4403 
L 4288 3438 
Q 3953 3666 3628 3772 
Q 3303 3878 2944 3878 
Q 2300 3878 1931 3465 
Q 1563 3053 1563 2328 
Q 1563 1606 1931 1193 
Q 2300 781 2944 781 
Q 3303 781 3628 887 
Q 3953 994 4288 1222 
L 4288 256 
z
" transform="scale(0.015625)"/>
       <path id="DejaVuSans-Bold-75" d="M 500 1363 
L 500 3500 
L 1625 3500 
L 1625 3150 
Q 1625 2866 1622 2436 
Q 1619 2006 1619 1863 
Q 1619 1441 1641 1255 
Q 1663 1069 1716 984 
Q 1784 875 1895 815 
Q 2006 756 2150 756 
Q 2500 756 2700 1025 
Q 2900 1294 2900 1772 
L 2900 3500 
L 4019 3500 
L 4019 0 
L 2900 0 
L 2900 506 
Q 2647 200 2364 54 
Q 2081 -91 1741 -91 
Q 1134 -91 817 281 
Q 500 653 500 1363 
z
" transform="scale(0.015625)"/>
       <path id="DejaVuSans-Bold-6d" d="M 3781 2919 
Q 3994 3244 4286 3414 
Q 4578 3584 4928 3584 
Q 5531 3584 5847 3212 
Q 6163 2841 6163 2131 
L 6163 0 
L 5038 0 
L 5038 1825 
Q 5041 1866 5042 1909 
Q 5044 1953 5044 2034 
Q 5044 2406 4934 2573 
Q 4825 2741 4581 2741 
Q 4263 2741 4089 2478 
Q 3916 2216 3909 1719 
L 3909 0 
L 2784 0 
L 2784 1825 
Q 2784 2406 2684 2573 
Q 2584 2741 2328 2741 
Q 2006 2741 1831 2477 
Q 1656 2213 1656 1722 
L 1656 0 
L 531 0 
L 531 3500 
L 1656 3500 
L 1656 2988 
Q 1863 3284 2130 3434 
Q 2397 3584 2719 3584 
Q 3081 3584 3359 3409 
Q 3638 3234 3781 2919 
z
" transform="scale(0.015625)"/>
       <path id="DejaVuSans-Bold-6c" d="M 538 4863 
L 1656 4863 
L 1656 0 
L 538 0 
L 538 4863 
z
" transform="scale(0.015625)"/>
       <path id="DejaVuSans-Bold-61" d="M 2106 1575 
Q 1756 1575 1579 1456 
Q 1403 1338 1403 1106 
Q 1403 894 1545 773 
Q 1688 653 1941 653 
Q 2256 653 2472 879 
Q 2688 1106 2688 1447 
L 2688 1575 
L 2106 1575 
z
M 3816 1997 
L 3816 0 
L 2688 0 
L 2688 519 
Q 2463 200 2181 54 
Q 1900 -91 1497 -91 
Q 953 -91 614 226 
Q 275 544 275 1050 
Q 275 1666 698 1953 
Q 1122 2241 2028 2241 
L 2688 2241 
L 2688 2328 
Q 2688 2594 2478 2717 
Q 2269 2841 1825 2841 
Q 1466 2841 1156 2769 
Q 847 2697 581 2553 
L 581 3406 
Q 941 3494 1303 3539 
Q 1666 3584 2028 3584 
Q 2975 3584 3395 3211 
Q 3816 2838 3816 1997 
z
" transform="scale(0.015625)"/>
       <path id="DejaVuSans-Bold-74" d="M 1759 4494 
L 1759 3500 
L 2913 3500 
L 2913 2700 
L 1759 2700 
L 1759 1216 
Q 1759 972 1856 886 
Q 1953 800 2241 800 
L 2816 800 
L 2816 0 
L 1856 0 
Q 1194 0 917 276 
Q 641 553 641 1216 
L 641 2700 
L 84 2700 
L 84 3500 
L 641 3500 
L 641 4494 
L 1759 4494 
z
" transform="scale(0.015625)"/>
       <path id="DejaVuSans-Bold-69" d="M 538 3500 
L 1656 3500 
L 1656 0 
L 538 0 
L 538 3500 
z
M 538 4863 
L 1656 4863 
L 1656 3950 
L 538 3950 
L 538 4863 
z
" transform="scale(0.015625)"/>
       <path id="DejaVuSans-Bold-76" d="M 97 3500 
L 1216 3500 
L 2088 1081 
L 2956 3500 
L 4078 3500 
L 2700 0 
L 1472 0 
L 97 3500 
z
" transform="scale(0.015625)"/>
       <path id="DejaVuSans-Bold-65" d="M 4031 1759 
L 4031 1441 
L 1416 1441 
Q 1456 1047 1700 850 
Q 1944 653 2381 653 
Q 2734 653 3104 758 
Q 3475 863 3866 1075 
L 3866 213 
Q 3469 63 3072 -14 
Q 2675 -91 2278 -91 
Q 1328 -91 801 392 
Q 275 875 275 1747 
Q 275 2603 792 3093 
Q 1309 3584 2216 3584 
Q 3041 3584 3536 3087 
Q 4031 2591 4031 1759 
z
M 2881 2131 
Q 2881 2450 2695 2645 
Q 2509 2841 2209 2841 
Q 1884 2841 1681 2658 
Q 1478 2475 1428 2131 
L 2881 2131 
z
" transform="scale(0.015625)"/>
       <path id="DejaVuSans-Bold-20" transform="scale(0.015625)"/>
       <path id="DejaVuSans-Bold-70" d="M 1656 506 
L 1656 -1331 
L 538 -1331 
L 538 3500 
L 1656 3500 
L 1656 2988 
Q 1888 3294 2169 3439 
Q 2450 3584 2816 3584 
Q 3463 3584 3878 3070 
Q 4294 2556 4294 1747 
Q 4294 938 3878 423 
Q 3463 -91 2816 -91 
Q 2450 -91 2169 54 
Q 1888 200 1656 506 
z
M 2400 2772 
Q 2041 2772 1848 2508 
Q 1656 2244 1656 1747 
Q 1656 1250 1848 986 
Q 2041 722 2400 722 
Q 2759 722 2948 984 
Q 3138 1247 3138 1747 
Q 3138 2247 2948 2509 
Q 2759 2772 2400 2772 
z
" transform="scale(0.015625)"/>
       <path id="DejaVuSans-Bold-72" d="M 3138 2547 
Q 2991 2616 2845 2648 
Q 2700 2681 2553 2681 
Q 2122 2681 1889 2404 
Q 1656 2128 1656 1613 
L 1656 0 
L 538 0 
L 538 3500 
L 1656 3500 
L 1656 2925 
Q 1872 3269 2151 3426 
Q 2431 3584 2822 3584 
Q 2878 3584 2943 3579 
Q 3009 3575 3134 3559 
L 3138 2547 
z
" transform="scale(0.015625)"/>
       <path id="DejaVuSans-Bold-6f" d="M 2203 2784 
Q 1831 2784 1636 2517 
Q 1441 2250 1441 1747 
Q 1441 1244 1636 976 
Q 1831 709 2203 709 
Q 2569 709 2762 976 
Q 2956 1244 2956 1747 
Q 2956 2250 2762 2517 
Q 2569 2784 2203 2784 
z
M 2203 3584 
Q 3106 3584 3614 3096 
Q 4122 2609 4122 1747 
Q 4122 884 3614 396 
Q 3106 -91 2203 -91 
Q 1297 -91 786 396 
Q 275 884 275 1747 
Q 275 2609 786 3096 
Q 1297 3584 2203 3584 
z
" transform="scale(0.015625)"/>
       <path id="DejaVuSans-Bold-6e" d="M 4056 2131 
L 4056 0 
L 2931 0 
L 2931 347 
L 2931 1631 
Q 2931 2084 2911 2256 
Q 2891 2428 2841 2509 
Q 2775 2619 2662 2680 
Q 2550 2741 2406 2741 
Q 2056 2741 1856 2470 
Q 1656 2200 1656 1722 
L 1656 0 
L 538 0 
L 538 3500 
L 1656 3500 
L 1656 2988 
Q 1909 3294 2193 3439 
Q 2478 3584 2822 3584 
Q 3428 3584 3742 3212 
Q 4056 2841 4056 2131 
z
" transform="scale(0.015625)"/>
       <path id="DejaVuSans-Bold-66" d="M 2841 4863 
L 2841 4128 
L 2222 4128 
Q 1984 4128 1890 4042 
Q 1797 3956 1797 3744 
L 1797 3500 
L 2753 3500 
L 2753 2700 
L 1797 2700 
L 1797 0 
L 678 0 
L 678 2700 
L 122 2700 
L 122 3500 
L 678 3500 
L 678 3744 
Q 678 4316 997 4589 
Q 1316 4863 1984 4863 
L 2841 4863 
z
" transform="scale(0.015625)"/>
      </defs>
      <use xlink:href="#DejaVuSans-Bold-43"/>
      <use xlink:href="#DejaVuSans-Bold-75" x="73.388672"/>
      <use xlink:href="#DejaVuSans-Bold-6d" x="144.580078"/>
      <use xlink:href="#DejaVuSans-Bold-75" x="248.779297"/>
      <use xlink:href="#DejaVuSans-Bold-6c" x="319.970703"/>
      <use xlink:href="#DejaVuSans-Bold-61" x="354.248047"/>
      <use xlink:href="#DejaVuSans-Bold-74" x="421.728516"/>
      <use xlink:href="#DejaVuSans-Bold-69" x="469.53125"/>
      <use xlink:href="#DejaVuSans-Bold-76" x="503.808594"/>
      <use xlink:href="#DejaVuSans-Bold-65" x="568.994141"/>
      <use xlink:href="#DejaVuSans-Bold-20" x="636.816406"/>
      <use xlink:href="#DejaVuSans-Bold-70" x="671.630859"/>
      <use xlink:href="#DejaVuSans-Bold-72" x="743.212891"/>
      <use xlink:href="#DejaVuSans-Bold-6f" x="792.529297"/>
      <use xlink:href="#DejaVuSans-Bold-70" x="861.230469"/>
      <use xlink:href="#DejaVuSans-Bold-6f" x="932.8125"/>
      <use xlink:href="#DejaVuSans-Bold-72" x="1001.513672"/>
      <use xlink:href="#DejaVuSans-Bold-74" x="1050.830078"/>
      <use xlink:href="#DejaVuSans-Bold-69" x="1098.632812"/>
      <use xlink:href="#DejaVuSans-Bold-6f" x="1132.910156"/>
      <use xlink:href="#DejaVuSans-Bold-6e" x="1201.611328"/>
      <use xlink:href="#DejaVuSans-Bold-20" x="1272.802734"/>
      <use xlink:href="#DejaVuSans-Bold-6f" x="1307.617188"/>
      <use xlink:href="#DejaVuSans-Bold-66" x="1376.318359"/>
      <use xlink:href="#DejaVuSans-Bold-20" x="1419.824219"/>
      <use xlink:href="#DejaVuSans-Bold-70" x="1454.638672"/>
      <use xlink:href="#DejaVuSans-Bold-6f" x="1526.220703"/>
      <use xlink:href="#DejaVuSans-Bold-70" x="1594.921875"/>
      <use xlink:href="#DejaVuSans-Bold-75" x="1666.503906"/>
      <use xlink:href="#DejaVuSans-Bold-6c" x="1737.695312"/>
      <use xlink:href="#DejaVuSans-Bold-61" x="1771.972656"/>
      <use xlink:href="#DejaVuSans-Bold-74" x="1839.453125"/>
      <use xlink:href="#DejaVuSans-Bold-69" x="1887.255859"/>
      <use xlink:href="#DejaVuSans-Bold-6f" x="1921.533203"/>
      <use xlink:href="#DejaVuSans-Bold-6e" x="1990.234375"/>
     </g>
    </g>
   </g>
   <g id="matplotlib.axis_2">
    <g id="ytick_1">
     <g id="line2d_7">
      <defs>
       <path id="m64ea693a09" d="M 0 0 
L 3.5 0 
" style="stroke: #000000; stroke-width: 0.8"/>
      </defs>
      <g>
       <use xlink:href="#m64ea693a09" x="1296" y="1281.6" style="stroke: #000000; stroke-width: 0.8"/>
      </g>
     </g>
     <g id="text_8">
      <!-- 0.0 -->
      <g transform="translate(1303 1292.997656) scale(0.3 -0.3)">
       <use xlink:href="#DejaVuSans-30"/>
       <use xlink:href="#DejaVuSans-2e" x="63.623047"/>
       <use xlink:href="#DejaVuSans-30" x="95.410156"/>
      </g>
     </g>
    </g>
    <g id="ytick_2">
     <g id="line2d_8">
      <g>
       <use xlink:href="#m64ea693a09" x="1296" y="1059.84" style="stroke: #000000; stroke-width: 0.8"/>
      </g>
     </g>
     <g id="text_9">
      <!-- 0.2 -->
      <g transform="translate(1303 1071.237656) scale(0.3 -0.3)">
       <use xlink:href="#DejaVuSans-30"/>
       <use xlink:href="#DejaVuSans-2e" x="63.623047"/>
       <use xlink:href="#DejaVuSans-32" x="95.410156"/>
      </g>
     </g>
    </g>
    <g id="ytick_3">
     <g id="line2d_9">
      <g>
       <use xlink:href="#m64ea693a09" x="1296" y="838.08" style="stroke: #000000; stroke-width: 0.8"/>
      </g>
     </g>
     <g id="text_10">
      <!-- 0.4 -->
      <g transform="translate(1303 849.477656) scale(0.3 -0.3)">
       <use xlink:href="#DejaVuSans-30"/>
       <use xlink:href="#DejaVuSans-2e" x="63.623047"/>
       <use xlink:href="#DejaVuSans-34" x="95.410156"/>
      </g>
     </g>
    </g>
    <g id="ytick_4">
     <g id="line2d_10">
      <g>
       <use xlink:href="#m64ea693a09" x="1296" y="616.32" style="stroke: #000000; stroke-width: 0.8"/>
      </g>
     </g>
     <g id="text_11">
      <!-- 0.6 -->
      <g transform="translate(1303 627.717656) scale(0.3 -0.3)">
       <use xlink:href="#DejaVuSans-30"/>
       <use xlink:href="#DejaVuSans-2e" x="63.623047"/>
       <use xlink:href="#DejaVuSans-36" x="95.410156"/>
      </g>
     </g>
    </g>
    <g id="ytick_5">
     <g id="line2d_11">
      <g>
       <use xlink:href="#m64ea693a09" x="1296" y="394.56" style="stroke: #000000; stroke-width: 0.8"/>
      </g>
     </g>
     <g id="text_12">
      <!-- 0.8 -->
      <g transform="translate(1303 405.957656) scale(0.3 -0.3)">
       <use xlink:href="#DejaVuSans-30"/>
       <use xlink:href="#DejaVuSans-2e" x="63.623047"/>
       <use xlink:href="#DejaVuSans-38" x="95.410156"/>
      </g>
     </g>
    </g>
    <g id="ytick_6">
     <g id="line2d_12">
      <g>
       <use xlink:href="#m64ea693a09" x="1296" y="172.8" style="stroke: #000000; stroke-width: 0.8"/>
      </g>
     </g>
     <g id="text_13">
      <!-- 1.0 -->
      <g transform="translate(1303 184.197656) scale(0.3 -0.3)">
       <use xlink:href="#DejaVuSans-31"/>
       <use xlink:href="#DejaVuSans-2e" x="63.623047"/>
       <use xlink:href="#DejaVuSans-30" x="95.410156"/>
      </g>
     </g>
    </g>
    <g id="text_14">
     <!-- Cumulative proportion of jobs -->
     <g transform="translate(1385.103125 1064.940625) rotate(-90) scale(0.4 -0.4)">
      <defs>
       <path id="DejaVuSans-Bold-6a" d="M 538 3500 
L 1656 3500 
L 1656 63 
Q 1656 -641 1318 -1011 
Q 981 -1381 341 -1381 
L -213 -1381 
L -213 -647 
L -19 -647 
Q 300 -647 419 -503 
Q 538 -359 538 63 
L 538 3500 
z
M 538 4863 
L 1656 4863 
L 1656 3950 
L 538 3950 
L 538 4863 
z
" transform="scale(0.015625)"/>
       <path id="DejaVuSans-Bold-62" d="M 2400 722 
Q 2759 722 2948 984 
Q 3138 1247 3138 1747 
Q 3138 2247 2948 2509 
Q 2759 2772 2400 2772 
Q 2041 2772 1848 2508 
Q 1656 2244 1656 1747 
Q 1656 1250 1848 986 
Q 2041 722 2400 722 
z
M 1656 2988 
Q 1888 3294 2169 3439 
Q 2450 3584 2816 3584 
Q 3463 3584 3878 3070 
Q 4294 2556 4294 1747 
Q 4294 938 3878 423 
Q 3463 -91 2816 -91 
Q 2450 -91 2169 54 
Q 1888 200 1656 506 
L 1656 0 
L 538 0 
L 538 4863 
L 1656 4863 
L 1656 2988 
z
" transform="scale(0.015625)"/>
       <path id="DejaVuSans-Bold-73" d="M 3272 3391 
L 3272 2541 
Q 2913 2691 2578 2766 
Q 2244 2841 1947 2841 
Q 1628 2841 1473 2761 
Q 1319 2681 1319 2516 
Q 1319 2381 1436 2309 
Q 1553 2238 1856 2203 
L 2053 2175 
Q 2913 2066 3209 1816 
Q 3506 1566 3506 1031 
Q 3506 472 3093 190 
Q 2681 -91 1863 -91 
Q 1516 -91 1145 -36 
Q 775 19 384 128 
L 384 978 
Q 719 816 1070 734 
Q 1422 653 1784 653 
Q 2113 653 2278 743 
Q 2444 834 2444 1013 
Q 2444 1163 2330 1236 
Q 2216 1309 1875 1350 
L 1678 1375 
Q 931 1469 631 1722 
Q 331 1975 331 2491 
Q 331 3047 712 3315 
Q 1094 3584 1881 3584 
Q 2191 3584 2531 3537 
Q 2872 3491 3272 3391 
z
" transform="scale(0.015625)"/>
      </defs>
      <use xlink:href="#DejaVuSans-Bold-43"/>
      <use xlink:href="#DejaVuSans-Bold-75" x="73.388672"/>
      <use xlink:href="#DejaVuSans-Bold-6d" x="144.580078"/>
      <use xlink:href="#DejaVuSans-Bold-75" x="248.779297"/>
      <use xlink:href="#DejaVuSans-Bold-6c" x="319.970703"/>
      <use xlink:href="#DejaVuSans-Bold-61" x="354.248047"/>
      <use xlink:href="#DejaVuSans-Bold-74" x="421.728516"/>
      <use xlink:href="#DejaVuSans-Bold-69" x="469.53125"/>
      <use xlink:href="#DejaVuSans-Bold-76" x="503.808594"/>
      <use xlink:href="#DejaVuSans-Bold-65" x="568.994141"/>
      <use xlink:href="#DejaVuSans-Bold-20" x="636.816406"/>
      <use xlink:href="#DejaVuSans-Bold-70" x="671.630859"/>
      <use xlink:href="#DejaVuSans-Bold-72" x="743.212891"/>
      <use xlink:href="#DejaVuSans-Bold-6f" x="792.529297"/>
      <use xlink:href="#DejaVuSans-Bold-70" x="861.230469"/>
      <use xlink:href="#DejaVuSans-Bold-6f" x="932.8125"/>
      <use xlink:href="#DejaVuSans-Bold-72" x="1001.513672"/>
      <use xlink:href="#DejaVuSans-Bold-74" x="1050.830078"/>
      <use xlink:href="#DejaVuSans-Bold-69" x="1098.632812"/>
      <use xlink:href="#DejaVuSans-Bold-6f" x="1132.910156"/>
      <use xlink:href="#DejaVuSans-Bold-6e" x="1201.611328"/>
      <use xlink:href="#DejaVuSans-Bold-20" x="1272.802734"/>
      <use xlink:href="#DejaVuSans-Bold-6f" x="1307.617188"/>
      <use xlink:href="#DejaVuSans-Bold-66" x="1376.318359"/>
      <use xlink:href="#DejaVuSans-Bold-20" x="1419.824219"/>
      <use xlink:href="#DejaVuSans-Bold-6a" x="1454.638672"/>
      <use xlink:href="#DejaVuSans-Bold-6f" x="1488.916016"/>
      <use xlink:href="#DejaVuSans-Bold-62" x="1557.617188"/>
      <use xlink:href="#DejaVuSans-Bold-73" x="1629.199219"/>
     </g>
    </g>
   </g>
   <g id="line2d_13">
    <path d="M 180.000607 1281.6 
L 563.303258 1281.488937 
L 588.723986 1280.883324 
L 595.885197 1280.771017 
L 607.600804 1280.272211 
L 608.121793 1280.20806 
L 611.648187 1279.908235 
L 619.967924 1279.79516 
L 626.152319 1279.669075 
L 633.455157 1279.55706 
L 639.213273 1279.240957 
L 639.480796 1279.189074 
L 640.676998 1279.076649 
L 642.587181 1278.834138 
L 643.497446 1278.651307 
L 644.077272 1278.619514 
L 645.209022 1278.507176 
L 646.618368 1278.323624 
L 648.650039 1278.210765 
L 649.281706 1277.973278 
L 651.849556 1277.857346 
L 655.16382 1277.299227 
L 655.409595 1277.148356 
L 657.033137 1277.031541 
L 657.638923 1276.920259 
L 658.888446 1276.685664 
L 658.889294 1276.678145 
L 660.596831 1276.561604 
L 660.862607 1276.47722 
L 661.477147 1276.288508 
L 662.63634 1276.033864 
L 663.312563 1275.920661 
L 664.80854 1275.65932 
L 665.650857 1275.546372 
L 665.772657 1275.496173 
L 667.270702 1275.098112 
L 667.849043 1274.984622 
L 669.087347 1274.566688 
L 670.91066 1274.451721 
L 671.330134 1274.26389 
L 671.781673 1274.150053 
L 672.250793 1273.957865 
L 672.845673 1273.843745 
L 674.22239 1273.356695 
L 677.426008 1273.237663 
L 679.869904 1272.719737 
L 682.838052 1272.60196 
L 684.273735 1272.259765 
L 685.223678 1272.1457 
L 686.198398 1272.030938 
L 686.70574 1271.918774 
L 687.012015 1271.716437 
L 687.258799 1271.489909 
L 687.541871 1271.361901 
L 687.888909 1271.249177 
L 688.469735 1270.645634 
L 689.309807 1270.52019 
L 689.882887 1270.170213 
L 690.163634 1269.924022 
L 694.911439 1269.769259 
L 698.422134 1269.399134 
L 700.917757 1269.285436 
L 701.60631 1269.1669 
L 704.529776 1269.05336 
L 706.430702 1268.406847 
L 707.909337 1268.289289 
L 708.032994 1268.138872 
L 708.326722 1268.023553 
L 708.526489 1267.775365 
L 708.613928 1267.627455 
L 709.301044 1267.50711 
L 709.718102 1267.173024 
L 710.180784 1266.854358 
L 710.187238 1266.831229 
L 711.394666 1266.715162 
L 712.569602 1266.041598 
L 714.076033 1265.925683 
L 714.936875 1265.467537 
L 714.936875 1265.464889 
L 715.460553 1265.351015 
L 715.943374 1265.197362 
L 720.761878 1265.078431 
L 723.357452 1264.751372 
L 726.665051 1264.354008 
L 728.222101 1264.240199 
L 728.915942 1264.099291 
L 730.690927 1263.985481 
L 733.690915 1263.543791 
L 738.930124 1263.428861 
L 739.43779 1263.289076 
L 741.469516 1262.962911 
L 743.136126 1262.847794 
L 743.673762 1262.705268 
L 746.497751 1262.589688 
L 747.862873 1262.011954 
L 748.236146 1261.794937 
L 749.187897 1261.679748 
L 749.366186 1261.56438 
L 749.502391 1261.481552 
L 750.042497 1261.369142 
L 750.535062 1261.203485 
L 751.032673 1260.901753 
L 751.047211 1260.87513 
L 752.596164 1260.759128 
L 754.51064 1259.863023 
L 755.575253 1259.74978 
L 755.786858 1259.651438 
L 756.579532 1259.33555 
L 757.210955 1259.222308 
L 757.446925 1259.064364 
L 758.367505 1258.947848 
L 759.652109 1258.079888 
L 760.617216 1257.967766 
L 761.807874 1257.310188 
L 761.937365 1257.185945 
L 763.288009 1257.065514 
L 763.551537 1256.792462 
L 763.749975 1256.683242 
L 764.39453 1256.272058 
L 764.439888 1256.169262 
L 765.38569 1256.046241 
L 765.518794 1255.929671 
L 766.504514 1255.246437 
L 766.579098 1255.178437 
L 768.422542 1255.058431 
L 768.568138 1255.016258 
L 772.101505 1254.192262 
L 775.387133 1254.077961 
L 775.703882 1253.276019 
L 775.810974 1253.154909 
L 776.685581 1253.013752 
L 777.195259 1252.665758 
L 778.037846 1252.199577 
L 778.061414 1252.150333 
L 779.886929 1252.022148 
L 780.33043 1251.788755 
L 780.457999 1251.736159 
L 781.258799 1251.476468 
L 781.311292 1251.446882 
L 782.192165 1251.331829 
L 782.535673 1251.124734 
L 783.905242 1251.007719 
L 784.165801 1250.755387 
L 784.283848 1250.677199 
L 785.723219 1250.00542 
L 787.354306 1249.891191 
L 788.975403 1249.534225 
L 792.492111 1248.952372 
L 797.415948 1248.838143 
L 797.638579 1248.616825 
L 798.189206 1248.181327 
L 798.601055 1248.067099 
L 798.784625 1247.84221 
L 800.201016 1247.715448 
L 800.622846 1247.572209 
L 801.761207 1247.22919 
L 803.35156 1246.908788 
L 803.585185 1246.807013 
L 805.044324 1246.69393 
L 805.054381 1246.682621 
L 808.234289 1246.568299 
L 808.758961 1246.251674 
L 808.870044 1246.175523 
L 809.591223 1245.870921 
L 810.135994 1245.446082 
L 811.513863 1245.325155 
L 812.170327 1244.468837 
L 812.459735 1244.144982 
L 812.994044 1244.032057 
L 813.482775 1243.438156 
L 813.573823 1243.291772 
L 813.857327 1243.178847 
L 814.003077 1242.898626 
L 814.772579 1242.776803 
L 814.976746 1242.604375 
L 815.209521 1242.452974 
L 815.8366 1242.339424 
L 816.322901 1242.099706 
L 816.661503 1241.885222 
L 816.911428 1241.691765 
L 817.05437 1241.599243 
L 818.668364 1241.481447 
L 819.039721 1241.220591 
L 819.497257 1240.926075 
L 820.426609 1240.808269 
L 821.015835 1240.438021 
L 821.130942 1240.39174 
L 821.291631 1240.303385 
L 823.586377 1240.18548 
L 825.215295 1239.256714 
L 825.919996 1239.141724 
L 826.139067 1238.93828 
L 827.165495 1238.822455 
L 828.630368 1237.499806 
L 828.858118 1237.385969 
L 829.149734 1236.466161 
L 829.31764 1236.095868 
L 829.326069 1236.086177 
L 830.423278 1235.969887 
L 830.63741 1235.863288 
L 831.414629 1235.524108 
L 832.053308 1235.330291 
L 833.031565 1235.058947 
L 834.049871 1234.676159 
L 834.058567 1234.656777 
L 838.174158 1234.537607 
L 838.279091 1234.492474 
L 838.586612 1234.256777 
L 838.82236 1234.131407 
L 839.547565 1234.016066 
L 840.387813 1233.604851 
L 840.959276 1233.108384 
L 842.046119 1232.992237 
L 842.322602 1232.571827 
L 842.433535 1232.430002 
L 843.237441 1231.543596 
L 843.240193 1231.533465 
L 844.66968 1231.395996 
L 844.977487 1231.166612 
L 845.337638 1230.911741 
L 846.18738 1230.468266 
L 846.192276 1230.452974 
L 846.879688 1230.335733 
L 847.267264 1229.948329 
L 848.275466 1229.830164 
L 848.632097 1229.434103 
L 849.148476 1229.320943 
L 849.633933 1229.012325 
L 850.058441 1228.657413 
L 850.207182 1228.508247 
L 850.355365 1228.369369 
L 852.336243 1228.250436 
L 852.83845 1227.893113 
L 854.227236 1226.924716 
L 854.327777 1226.774537 
L 855.5547 1226.655011 
L 856.115212 1224.99084 
L 856.946472 1224.874395 
L 857.077993 1224.669229 
L 857.238678 1224.403069 
L 857.808745 1223.904019 
L 858.012108 1223.637858 
L 858.47227 1223.521413 
L 858.558592 1223.332883 
L 859.464264 1223.209568 
L 859.584889 1223.035619 
L 860.032753 1222.59233 
L 860.313999 1222.407158 
L 860.744315 1222.126596 
L 861.282485 1221.694529 
L 861.307812 1221.627194 
L 863.404719 1221.507218 
L 863.973398 1221.051855 
L 864.026067 1221.011507 
L 864.780277 1220.896225 
L 865.705236 1220.475447 
L 865.856102 1220.325581 
L 866.440534 1219.82987 
L 868.795215 1219.712211 
L 869.768083 1219.203721 
L 871.05742 1219.09138 
L 871.959663 1218.813484 
L 873.114192 1218.4942 
L 873.835193 1218.198566 
L 876.305451 1218.086225 
L 876.344016 1217.979797 
L 877.463565 1217.855028 
L 877.826853 1217.355954 
L 877.929428 1217.243068 
L 878.309612 1216.946 
L 878.811135 1216.179565 
L 879.481028 1216.0604 
L 879.754334 1215.547368 
L 880.1169 1215.434024 
L 880.526818 1215.00451 
L 880.714775 1214.736063 
L 880.933817 1214.407962 
L 880.959184 1214.324445 
L 881.754099 1214.2094 
L 881.865043 1213.844669 
L 881.911599 1213.704855 
L 882.123672 1213.589356 
L 882.621454 1212.458688 
L 883.563185 1212.335646 
L 883.870747 1211.84715 
L 884.163482 1211.51324 
L 884.366609 1211.216432 
L 884.398476 1211.136047 
L 884.742303 1211.01856 
L 884.95475 1210.560981 
L 886.290112 1210.42038 
L 886.391998 1210.342267 
L 886.666444 1210.107926 
L 886.833537 1209.93217 
L 887.691556 1209.333298 
L 888.34925 1208.56518 
L 892.066413 1208.408573 
L 892.184233 1208.362817 
L 892.943864 1208.055596 
L 893.39399 1207.911791 
L 895.122085 1207.506521 
L 896.814629 1207.388862 
L 898.348712 1206.702518 
L 898.573969 1206.552176 
L 901.391474 1206.427945 
L 901.49614 1206.342911 
L 901.914653 1206.048563 
L 902.164383 1205.891577 
L 903.41 1205.302881 
L 903.659214 1205.119731 
L 904.611044 1205.001992 
L 905.164563 1204.524493 
L 907.106524 1204.395778 
L 907.218594 1204.269169 
L 907.51912 1203.973746 
L 907.756728 1203.804934 
L 907.816331 1203.741629 
L 908.548762 1203.629087 
L 909.346085 1203.192988 
L 910.107157 1202.334857 
L 912.630101 1202.193654 
L 912.737688 1202.12468 
L 913.306763 1201.848781 
L 914.339829 1201.273993 
L 915.233416 1200.906129 
L 915.50335 1200.714533 
L 916.62212 1200.599575 
L 917.42635 1200.001796 
L 918.433854 1199.886361 
L 918.433854 1199.878578 
L 919.98996 1199.761831 
L 920.665701 1199.232578 
L 921.175424 1198.905687 
L 921.876115 1198.578795 
L 922.206455 1198.283036 
L 923.148448 1198.166289 
L 923.709688 1197.668169 
L 923.775266 1197.520289 
L 925.962693 1197.386734 
L 926.083489 1197.260962 
L 926.211861 1197.182355 
L 927.630263 1196.490609 
L 928.218326 1196.270508 
L 929.561451 1195.885331 
L 929.663248 1195.822445 
L 930.312909 1195.492294 
L 931.112949 1195.146421 
L 935.351466 1195.027416 
L 935.356983 1195.011382 
L 935.905663 1194.899144 
L 936.057068 1194.50631 
L 936.246314 1194.073392 
L 936.531893 1193.624439 
L 936.782288 1192.999112 
L 936.870759 1192.65438 
L 939.449767 1192.469027 
L 940.081108 1192.057272 
L 940.37369 1191.903873 
L 942.390411 1190.975407 
L 942.439781 1190.918892 
L 943.619914 1190.805861 
L 944.413012 1190.119603 
L 945.800576 1190.004615 
L 946.485673 1188.820328 
L 946.912079 1188.400893 
L 947.388037 1187.644266 
L 949.105041 1187.51953 
L 949.21394 1187.215222 
L 949.518815 1186.750307 
L 950.011378 1186.631965 
L 950.520591 1186.031803 
L 950.876331 1185.592247 
L 951.173946 1185.161144 
L 951.246371 1185.017443 
L 953.386929 1184.890403 
L 953.493346 1184.729215 
L 954.639595 1183.728151 
L 954.991139 1183.465159 
L 955.193065 1183.1852 
L 955.876862 1183.06643 
L 956.342804 1182.413193 
L 957.648182 1182.285866 
L 957.655456 1182.268874 
L 958.402302 1182.149933 
L 959.847071 1180.807597 
L 960.472502 1180.340328 
L 960.768583 1179.992 
L 961.021198 1179.762613 
L 962.742293 1179.6481 
L 963.097117 1177.415157 
L 963.251064 1176.888608 
L 964.147321 1176.770069 
L 964.256337 1176.642411 
L 964.64603 1176.004121 
L 964.747725 1175.821752 
L 965.293771 1175.347594 
L 965.466868 1175.010212 
L 965.97971 1174.891672 
L 966.338622 1174.15308 
L 966.97659 1174.033769 
L 967.446681 1172.498762 
L 967.653657 1171.943941 
L 967.805296 1171.315143 
L 969.774285 1171.171424 
L 969.88147 1171.000019 
L 970.207811 1170.69754 
L 970.478756 1170.233738 
L 970.586729 1170.032085 
L 971.40547 1169.376713 
L 971.784109 1168.882664 
L 972.519711 1168.761672 
L 972.822086 1168.277705 
L 972.874807 1168.126465 
L 973.849923 1168.001 
L 974.762891 1165.945088 
L 975.140906 1165.829706 
L 975.482124 1164.969579 
L 976.206435 1164.853948 
L 976.212155 1164.76904 
L 976.483058 1164.652292 
L 976.611785 1164.16407 
L 976.71263 1163.835052 
L 977.005149 1163.718303 
L 977.271262 1163.049652 
L 977.463088 1162.656953 
L 977.774215 1161.638056 
L 979.467908 1161.499714 
L 981.092004 1160.125315 
L 981.931236 1159.773725 
L 982.798952 1159.315592 
L 983.36239 1158.921385 
L 984.144417 1158.378018 
L 988.979937 1158.247398 
L 989.090096 1158.056863 
L 989.367523 1157.731832 
L 989.999729 1156.857611 
L 990.390241 1156.521372 
L 990.72931 1155.98339 
L 991.450375 1155.860102 
L 991.915886 1155.243664 
L 992.024924 1154.873801 
L 995.142125 1154.71088 
L 995.237807 1154.581582 
L 995.585039 1154.264216 
L 996.040642 1153.629482 
L 996.144451 1153.464921 
L 996.855813 1153.100537 
L 997.209884 1152.747908 
L 997.910641 1151.878087 
L 998.225495 1151.443177 
L 998.301159 1151.290371 
L 999.129323 1151.172451 
L 999.129323 1151.160571 
L 999.898558 1151.041772 
L 1000.003761 1150.875453 
L 1000.158384 1150.400257 
L 1000.372996 1149.830022 
L 1000.873848 1149.152867 
L 1001.135058 1148.451953 
L 1001.573969 1148.333154 
L 1001.792553 1147.63224 
L 1002.1793 1147.513401 
L 1002.1793 1147.501501 
L 1002.74738 1147.382502 
L 1002.85505 1147.144505 
L 1002.979124 1146.609012 
L 1003.261773 1145.906921 
L 1003.510416 1145.311929 
L 1003.578528 1145.062032 
L 1003.905206 1144.943034 
L 1004.150848 1143.943446 
L 1004.797776 1143.812179 
L 1005.071209 1142.960738 
L 1005.503043 1142.840817 
L 1006.667388 1140.226534 
L 1009.271029 1140.082255 
L 1009.663698 1139.756785 
L 1009.882092 1139.491587 
L 1010.180351 1139.069681 
L 1010.292423 1138.840646 
L 1010.440185 1138.732156 
L 1011.419427 1138.117379 
L 1012.581271 1136.851662 
L 1012.718637 1136.562355 
L 1014.539387 1136.429756 
L 1014.541508 1136.369193 
L 1014.788876 1136.248066 
L 1014.903248 1135.654545 
L 1015.225619 1134.443279 
L 1015.434916 1133.958773 
L 1015.520332 1133.631731 
L 1015.788535 1133.510604 
L 1015.937764 1132.941309 
L 1015.963486 1132.771731 
L 1017.584814 1132.624385 
L 1017.682522 1132.411688 
L 1017.932143 1132.098899 
L 1018.240175 1131.323181 
L 1018.389012 1131.160531 
L 1019.022365 1130.434859 
L 1019.184207 1130.109558 
L 1019.805615 1129.996954 
L 1020.286271 1129.096121 
L 1020.340695 1128.858401 
L 1021.842186 1128.725851 
L 1021.950253 1128.400084 
L 1022.075172 1127.884287 
L 1022.262842 1127.192033 
L 1022.609548 1126.459058 
L 1023.024733 1124.708062 
L 1024.480278 1124.539658 
L 1024.480684 1124.525165 
L 1025.600073 1124.409215 
L 1027.470739 1122.278637 
L 1028.499996 1121.684395 
L 1028.663418 1121.466989 
L 1029.072469 1121.061164 
L 1029.268588 1120.785784 
L 1029.715997 1120.452428 
L 1029.806009 1120.26401 
L 1029.814649 1120.235022 
L 1032.539409 1120.117822 
L 1032.562683 1120.072466 
L 1033.572209 1119.951515 
L 1033.683231 1119.739851 
L 1033.916433 1119.256049 
L 1034.052257 1118.84784 
L 1034.62307 1117.925592 
L 1034.848993 1117.517383 
L 1035.452035 1115.899668 
L 1035.527115 1115.627529 
L 1036.022608 1115.506578 
L 1036.045077 1115.44578 
L 1036.5506 1115.323537 
L 1036.663029 1114.819283 
L 1037.081386 1113.275961 
L 1037.237567 1112.664745 
L 1037.299228 1112.313296 
L 1037.578332 1112.191052 
L 1037.802269 1110.815815 
L 1039.165444 1110.632349 
L 1039.269336 1110.38766 
L 1039.554204 1109.898281 
L 1039.796202 1109.271265 
L 1040.360423 1109.14892 
L 1040.478336 1108.919524 
L 1041.098555 1108.124284 
L 1041.750765 1106.518511 
L 1041.847614 1106.151477 
L 1042.389898 1106.029133 
L 1042.405945 1105.967016 
L 1042.987945 1105.842782 
L 1043.09669 1105.50114 
L 1043.304883 1104.538329 
L 1043.485711 1103.963749 
L 1043.741737 1103.327052 
L 1043.92721 1102.426358 
L 1044.245083 1102.302124 
L 1044.423935 1101.354843 
L 1044.717264 1101.230609 
L 1044.722763 1101.168101 
L 1045.237998 1101.043085 
L 1046.187591 1098.620896 
L 1046.547514 1097.948934 
L 1047.100969 1096.558129 
L 1048.123344 1096.433113 
L 1048.123498 1096.417486 
L 1049.141933 1096.276106 
L 1049.251758 1095.867407 
L 1049.367155 1095.112887 
L 1050.130246 1091.670387 
L 1050.650144 1091.528576 
L 1050.667925 1091.464345 
L 1051.267928 1091.351942 
L 1051.375372 1091.03079 
L 1051.485696 1090.372428 
L 1051.629656 1089.681952 
L 1051.932021 1089.103878 
L 1052.254936 1088.975417 
L 1052.723743 1086.727353 
L 1053.025455 1086.61495 
L 1053.065551 1086.475135 
L 1053.716013 1086.349485 
L 1053.824351 1086.008435 
L 1054.056712 1084.895535 
L 1054.062512 1084.841685 
L 1054.39662 1084.716035 
L 1054.8888 1083.244135 
L 1055.293979 1081.143985 
L 1055.626303 1081.015889 
L 1055.638987 1080.954702 
L 1056.285496 1080.832327 
L 1056.393021 1080.42441 
L 1056.525761 1079.608577 
L 1056.708825 1078.609181 
L 1057.024005 1077.874931 
L 1057.374185 1077.752555 
L 1057.854744 1075.121493 
L 1057.882735 1074.856347 
L 1058.205714 1074.733972 
L 1058.240411 1074.405407 
L 1058.642607 1074.273981 
L 1059.379954 1071.097851 
L 1059.697476 1070.112156 
L 1060.158062 1068.140765 
L 1060.976877 1068.009339 
L 1061.381906 1067.896698 
L 1061.386774 1067.85081 
L 1061.825322 1067.73609 
L 1062.537301 1064.455081 
L 1063.009781 1064.340361 
L 1063.432079 1063.193155 
L 1063.592566 1062.55072 
L 1063.750786 1061.610011 
L 1063.919 1061.059353 
L 1064.810432 1060.944632 
L 1064.863529 1060.736647 
L 1065.764688 1060.620686 
L 1065.790161 1060.388765 
L 1066.300974 1060.272804 
L 1066.480325 1059.693001 
L 1066.696964 1058.626163 
L 1066.891698 1057.907207 
L 1067.288205 1057.049098 
L 1067.834801 1054.77627 
L 1067.968709 1053.871777 
L 1068.409465 1053.755816 
L 1068.413749 1053.709432 
L 1069.715377 1053.579596 
L 1069.81156 1053.138155 
L 1070.025755 1052.644779 
L 1070.615776 1050.515473 
L 1071.128277 1049.658558 
L 1071.516753 1048.308266 
L 1072.179496 1048.178431 
L 1072.630216 1046.750238 
L 1072.693596 1046.308796 
L 1072.778512 1045.841388 
L 1073.397009 1045.711552 
L 1073.416757 1045.631264 
L 1074.469164 1045.495462 
L 1074.581605 1045.060895 
L 1074.783654 1044.463365 
L 1075.421466 1042.100406 
L 1075.788006 1041.12263 
L 1076.016842 1040.036212 
L 1076.567516 1039.90041 
L 1077.057471 1037.537451 
L 1077.587415 1037.401649 
L 1077.648249 1037.23515 
L 1078.059876 1037.061578 
L 1084.561722 1036.945863 
L 1084.647515 1036.743363 
L 1086.299482 1036.049076 
L 1087.660001 1034.68943 
L 1088.076691 1034.226572 
L 1088.228461 1034.024071 
L 1088.424074 1033.908357 
L 1091.512709 1032.751212 
L 1095.734562 1029.742634 
L 1096.247692 1029.279776 
L 1096.493903 1028.816918 
L 1096.826576 1028.55656 
L 1099.988865 1028.440845 
L 1100.030541 1028.411917 
L 1103.409226 1028.295763 
L 1103.415113 1028.179171 
L 1103.905594 1028.062579 
L 1104.347889 1025.584997 
L 1104.694409 1023.894412 
L 1105.232349 1023.77782 
L 1105.737034 1022.437011 
L 1105.868251 1021.766607 
L 1105.962864 1021.300238 
L 1106.140595 1020.309206 
L 1106.331245 1019.580505 
L 1106.33127 1019.551357 
L 1107.34535 1019.434765 
L 1107.369231 1019.347321 
L 1107.735758 1019.227235 
L 1107.739226 1019.107149 
L 1108.095809 1018.987063 
L 1108.764949 1014.453812 
L 1109.095477 1013.072822 
L 1109.347553 1011.121422 
L 1109.50205 1010.250798 
L 1110.231919 1010.130712 
L 1110.277066 1009.856565 
L 1111.121925 1009.734219 
L 1111.230389 1009.153079 
L 1111.40563 1008.235489 
L 1111.526087 1007.317899 
L 1111.582022 1007.042622 
L 1112.004851 1006.920277 
L 1112.11452 1006.30855 
L 1112.502938 1005.085097 
L 1113.161174 1000.772425 
L 1113.583385 1000.650079 
L 1113.613912 1000.458221 
L 1114.129262 1000.329203 
L 1114.484249 998.103649 
L 1114.736182 996.813473 
L 1115.220742 994.974971 
L 1115.504905 994.007339 
L 1115.614708 993.42676 
L 1116.084414 990.94317 
L 1117.139852 990.814152 
L 1117.173093 990.717389 
L 1117.707285 990.587557 
L 1117.709013 990.489572 
L 1117.880794 990.358925 
L 1118.044359 987.452034 
L 1118.219036 987.321387 
L 1118.475118 984.512481 
L 1118.563356 983.33666 
L 1118.713776 980.756385 
L 1119.060233 980.625739 
L 1119.067836 980.49498 
L 1119.368103 980.364108 
L 1119.950132 975.096543 
L 1120.174142 973.853266 
L 1120.178953 973.722395 
L 1120.484235 973.591524 
L 1120.798504 971.072254 
L 1120.82102 970.712358 
L 1121.425844 970.581487 
L 1121.454714 970.383284 
L 1122.909341 970.248623 
L 1123.019172 969.67631 
L 1123.341969 968.531685 
L 1123.508894 967.757379 
L 1123.761602 966.915743 
L 1123.911523 966.478092 
L 1124.622916 965.266136 
L 1125.079096 963.448202 
L 1125.845988 963.31354 
L 1126.248507 961.764929 
L 1126.474646 960.754966 
L 1126.532008 960.35098 
L 1127.238113 960.216318 
L 1127.246021 960.014309 
L 1128.613999 959.812215 
L 1128.722584 959.104885 
L 1128.901804 957.959684 
L 1129.043786 957.083942 
L 1129.156772 956.275565 
L 1129.307334 955.804012 
L 1129.655805 954.759858 
L 1130.373891 949.943279 
L 1130.820123 949.808549 
L 1130.829988 949.640137 
L 1131.168416 949.503401 
L 1131.171684 949.366664 
L 1131.495946 949.229928 
L 1132.059906 944.102308 
L 1132.486989 941.811972 
L 1132.772382 939.213978 
L 1133.428408 939.077241 
L 1133.434532 938.837945 
L 1133.959004 938.718297 
L 1134.473738 935.208622 
L 1135.084893 935.088974 
L 1135.431102 933.134723 
L 1135.889223 931.73883 
L 1136.054276 930.981059 
L 1136.159676 930.303054 
L 1136.320994 929.34587 
L 1136.478758 928.109507 
L 1136.720617 927.072557 
L 1136.726557 926.992792 
L 1137.847466 926.873144 
L 1137.947203 926.547397 
L 1140.587802 926.423737 
L 1140.698377 925.929098 
L 1141.116416 925.145921 
L 1141.850601 923.043707 
L 1141.956066 922.713948 
L 1142.08018 922.136869 
L 1142.639249 921.559791 
L 1143.52502 920.529294 
L 1144.355521 918.38586 
L 1145.148468 916.283646 
L 1145.480069 915.418029 
L 1145.681946 914.469972 
L 1146.991276 914.346312 
L 1147.004699 914.181433 
L 1148.377463 914.057773 
L 1148.388179 913.803776 
L 1148.940601 913.676109 
L 1149.843175 907.67579 
L 1149.863318 907.548124 
L 1150.463665 907.420458 
L 1151.063674 905.250129 
L 1151.17434 904.696908 
L 1151.731788 901.207361 
L 1152.870794 901.079695 
L 1152.89226 900.866918 
L 1153.479381 900.738369 
L 1153.511041 900.56697 
L 1154.614697 900.438421 
L 1154.721669 899.838526 
L 1154.883535 899.110082 
L 1155.625268 894.867968 
L 1155.906635 893.796727 
L 1156.55708 889.768861 
L 1156.686111 888.354823 
L 1156.743755 887.883477 
L 1157.280873 887.754928 
L 1157.300659 887.216947 
L 1157.898421 887.08047 
L 1158.500474 883.16812 
L 1159.128966 883.031643 
L 1159.610468 880.256604 
L 1160.187898 878.300429 
L 1160.301985 877.57255 
L 1160.89943 873.84217 
L 1162.125684 873.705692 
L 1162.146776 873.237578 
L 1162.41553 873.095448 
L 1162.836632 866.415334 
L 1163.475054 859.356205 
L 1164.021889 859.214075 
L 1164.026231 859.119322 
L 1164.304347 858.977192 
L 1164.304459 858.929815 
L 1164.970829 858.782492 
L 1166.06229 851.465427 
L 1166.071381 851.416319 
L 1166.76723 851.268995 
L 1167.415215 849.304683 
L 1167.551885 848.175203 
L 1167.709904 846.947507 
L 1167.839988 845.818027 
L 1168.061892 844.983194 
L 1168.157525 844.344793 
L 1169.504062 844.197469 
L 1169.623838 843.652666 
L 1171.729767 843.395583 
L 1171.831868 842.470084 
L 1172.07104 841.441753 
L 1172.853904 837.174176 
L 1173.64896 834.294848 
L 1174.501174 828.330524 
L 1175.193419 828.176275 
L 1175.198379 827.815679 
L 1176.107797 827.607294 
L 1176.215438 825.731829 
L 1176.971858 819.219798 
L 1177.333097 817.135948 
L 1177.443385 816.250312 
L 1177.581838 814.635328 
L 1177.903868 811.874227 
L 1178.816758 811.770034 
L 1178.831696 811.52827 
L 1179.7918 811.407388 
L 1180.439976 804.517097 
L 1180.93023 801.978568 
L 1181.198737 799.198276 
L 1181.701139 799.077393 
L 1182.18069 793.63769 
L 1182.652251 793.516808 
L 1182.675844 792.773662 
L 1183.857354 792.581628 
L 1183.965688 790.981342 
L 1185.299349 775.874645 
L 1185.390224 773.762268 
L 1185.773653 773.634245 
L 1185.783173 773.119713 
L 1186.095613 772.990062 
L 1186.601646 763.395944 
L 1186.920178 763.266294 
L 1187.177858 761.19189 
L 1187.273595 759.636087 
L 1187.638456 754.385252 
L 1187.645644 753.737001 
L 1188.276616 753.60735 
L 1188.345535 752.981251 
L 1189.661317 752.830264 
L 1190.054289 749.584046 
L 1190.139256 748.14967 
L 1190.317995 746.639801 
L 1190.405609 745.205425 
L 1190.518891 744.450491 
L 1191.085418 742.110194 
L 1191.330504 740.222857 
L 1191.591984 737.580586 
L 1192.269045 737.429599 
L 1192.907883 730.408708 
L 1193.553496 730.257721 
L 1193.571265 729.577048 
L 1193.997751 729.425568 
L 1194.530444 720.109563 
L 1195.025598 715.86813 
L 1195.12804 714.429072 
L 1195.136088 714.201852 
L 1195.571461 714.050373 
L 1195.974462 708.975801 
L 1196.102221 707.006564 
L 1196.956053 706.855084 
L 1197.013525 705.39664 
L 1197.490824 705.242575 
L 1197.797359 700.851734 
L 1197.811589 700.69767 
L 1198.31481 700.543605 
L 1199.085455 692.917407 
L 1199.351315 691.222697 
L 1199.480389 688.757663 
L 1199.531039 687.98734 
L 1199.689312 685.29121 
L 1199.878213 683.211338 
L 1200.854255 683.057273 
L 1200.926644 682.410311 
L 1202.449625 682.240894 
L 1202.730008 680.038478 
L 1202.868937 678.767853 
L 1203.680294 672.075897 
L 1204.503466 667.41694 
L 1204.70824 665.214524 
L 1205.493417 665.045108 
L 1206.203967 657.42136 
L 1206.949819 657.251943 
L 1206.984767 656.003368 
L 1207.650485 655.889186 
L 1207.761287 653.148825 
L 1208.275889 645.270287 
L 1208.941324 645.156105 
L 1209.489694 638.305202 
L 1210.103107 634.080479 
L 1210.125299 633.052843 
L 1210.229218 631.454299 
L 1210.414071 628.257211 
L 1210.52941 626.544485 
L 1210.898004 622.20558 
L 1212.229157 622.091398 
L 1212.30306 621.173916 
L 1212.341573 620.937496 
L 1216.288174 620.819286 
L 1216.362529 619.400764 
L 1217.196685 616.800142 
L 1217.336281 615.854461 
L 1217.658613 613.726679 
L 1217.899167 612.071737 
L 1218.098488 611.362476 
L 1218.537156 608.998274 
L 1218.660925 608.052593 
L 1218.824038 607.343332 
L 1220.273537 604.38808 
L 1221.132953 601.905667 
L 1222.137583 596.586212 
L 1224.15148 596.468002 
L 1224.493236 594.93127 
L 1225.938235 587.247613 
L 1226.094524 585.947301 
L 1226.133875 585.710881 
L 1228.066579 585.592671 
L 1228.107472 584.393133 
L 1228.888703 584.269111 
L 1228.994454 581.416596 
L 1229.141929 577.819948 
L 1229.428117 569.634473 
L 1229.766661 565.665757 
L 1230.008993 558.96855 
L 1230.398612 558.844528 
L 1230.809529 547.558493 
L 1231.201142 547.434471 
L 1231.29514 546.069571 
L 1231.440835 545.572611 
L 1235.917758 545.44837 
L 1235.992213 544.081728 
L 1236.930996 541.348443 
L 1237.300853 539.236359 
L 1237.654484 536.751555 
L 1237.768005 536.378834 
L 1238.252828 534.14251 
L 1240.516121 534.01827 
L 1240.560221 533.645549 
L 1240.63965 532.651627 
L 1240.711927 532.278907 
L 1240.826609 531.781946 
L 1242.243654 529.172901 
L 1242.867841 527.682019 
L 1243.198248 526.812337 
L 1244.125184 522.463929 
L 1244.393369 521.097287 
L 1244.911649 518.860963 
L 1245.278109 517.24584 
L 1245.529939 516.127678 
L 1246.208011 513.518633 
L 1246.460195 512.400471 
L 1246.604391 510.785349 
L 1246.859934 508.797505 
L 1249.073563 508.673265 
L 1249.150143 507.549994 
L 1250.306542 507.424476 
L 1250.417687 505.039643 
L 1250.553154 502.905846 
L 1250.870917 497.257557 
L 1251.00735 495.374795 
L 1251.106449 493.240997 
L 1251.660598 488.847884 
L 1252.244241 488.722366 
L 1252.574716 483.450631 
L 1252.995109 475.166475 
L 1253.118841 471.651984 
L 1253.165121 470.020257 
L 1253.737878 469.894739 
L 1253.76938 468.811178 
L 1255.093116 468.659187 
L 1255.192479 465.923346 
L 1255.359266 462.883522 
L 1256.098176 450.268254 
L 1256.538258 446.772457 
L 1256.739681 444.948563 
L 1256.993566 440.69281 
L 1257.109704 437.652986 
L 1257.779099 437.500995 
L 1257.90786 434.765154 
L 1258.376918 423.365815 
L 1259.031259 423.213824 
L 1259.045939 421.681446 
L 1259.393794 421.526339 
L 1259.502952 415.632249 
L 1259.777084 405.550253 
L 1260.045184 397.329549 
L 1260.549393 383.835185 
L 1260.762658 375.769588 
L 1261.465097 375.614481 
L 1261.49475 374.683835 
L 1261.849335 374.528727 
L 1261.852246 374.37362 
L 1264.580774 374.215417 
L 1264.603648 373.899012 
L 1267.206845 373.74081 
L 1267.308668 372.949798 
L 1267.556291 370.734965 
L 1268.129121 366.938108 
L 1268.659836 364.723275 
L 1269.560976 359.977204 
L 1269.817052 358.553382 
L 1269.913442 357.762371 
L 1270.072397 356.813156 
L 1270.47696 354.756526 
L 1271.718412 349.377645 
L 1272.409682 347.795621 
L 1273.257627 345.897193 
L 1274.579382 343.04955 
L 1274.90881 340.043705 
L 1275.858178 336.721455 
L 1276.406783 332.766396 
L 1277.154979 329.444146 
L 1277.623529 327.70392 
L 1277.626447 326.596504 
L 1282.958172 326.438301 
L 1283.055253 325.963694 
L 1283.179157 325.319898 
L 1283.187539 323.458824 
L 1284.046489 323.289635 
L 1284.164839 319.736674 
L 1284.995626 300.956738 
L 1285.141574 298.24972 
L 1285.356512 290.805422 
L 1285.790435 290.636233 
L 1285.900924 286.237329 
L 1286.161275 276.593578 
L 1286.180638 275.240069 
L 1286.605665 275.070881 
L 1286.63576 270.93515 
L 1287.771478 270.610199 
L 1287.88043 266.060888 
L 1288.842065 240.714723 
L 1290.052611 240.389772 
L 1290.509255 229.016493 
L 1291.190544 219.267968 
L 1292.16048 207.894689 
L 1292.325557 203.020427 
L 1292.795781 195.546558 
L 1293.245701 183.198426 
L 1293.546938 176.69941 
L 1293.549165 175.399607 
L 1295.895429 175.074656 
L 1296 172.8 
L 1296 172.8 
" clip-path="url(#p08d19b969a)" style="fill: none; stroke: #627313; stroke-width: 5; stroke-linecap: square"/>
   </g>
   <g id="line2d_14">
    <path d="M 181.807692 1281.6 
L 182.767486 1281.6 
L 183.995421 1281.6 
L 188.191093 1281.6 
L 190.995252 1281.6 
L 208.739615 1281.488098 
L 217.669557 1280.737773 
L 228.773138 1279.706632 
L 240.466102 1278.511682 
L 259.00603 1277.132934 
L 271.167672 1274.11135 
L 293.204124 1269.320338 
L 297.602724 1262.044558 
L 320.581929 1254.049199 
L 459.898839 1243.655891 
L 475.142914 1233.148295 
L 496.090801 1220.602482 
L 506.162095 1207.688046 
L 527.153733 1192.968343 
L 533.308992 1177.787267 
L 557.411974 1139.777838 
L 699.412439 1100.714619 
L 721.901737 1060.81258 
L 733.464596 1020.400446 
L 775.57264 963.593006 
L 811.75363 900.867122 
L 892.658365 830.481887 
L 1021.931241 661.503236 
L 1120.890949 463.976499 
L 1296 172.8 
" clip-path="url(#p08d19b969a)" style="fill: none; stroke: #215caf; stroke-width: 5; stroke-linecap: square"/>
   </g>
   <g id="line2d_15">
    <path d="M 180 1281.6 
L 1296 172.8 
" clip-path="url(#p08d19b969a)" style="fill: none; stroke-dasharray: 18.5,8; stroke-dashoffset: 0; stroke: #a9a9a9; stroke-width: 5"/>
   </g>
   <g id="patch_3">
    <path d="M 1296 1281.6 
L 1296 172.8 
" style="fill: none; stroke: #000000; stroke-width: 0.8; stroke-linejoin: miter; stroke-linecap: square"/>
   </g>
   <g id="patch_4">
    <path d="M 180 1281.6 
L 1296 1281.6 
" style="fill: none; stroke: #000000; stroke-width: 0.8; stroke-linejoin: miter; stroke-linecap: square"/>
   </g>
   <g id="text_15">
    <g id="patch_5">
     <path d="M 849.120551 938.105423 
L 936.704366 758.53199 
L 894.719449 738.054577 
L 807.135634 917.62801 
z
" style="fill: #ffffff; stroke: #ffffff; stroke-linejoin: miter"/>
    </g>
    <!-- Countries -->
    <g style="fill: #215caf" transform="translate(839.802016 929.110062) rotate(-64) scale(0.4 -0.4)">
     <defs>
      <path id="DejaVuSans-43" d="M 4122 4306 
L 4122 3641 
Q 3803 3938 3442 4084 
Q 3081 4231 2675 4231 
Q 1875 4231 1450 3742 
Q 1025 3253 1025 2328 
Q 1025 1406 1450 917 
Q 1875 428 2675 428 
Q 3081 428 3442 575 
Q 3803 722 4122 1019 
L 4122 359 
Q 3791 134 3420 21 
Q 3050 -91 2638 -91 
Q 1578 -91 968 557 
Q 359 1206 359 2328 
Q 359 3453 968 4101 
Q 1578 4750 2638 4750 
Q 3056 4750 3426 4639 
Q 3797 4528 4122 4306 
z
" transform="scale(0.015625)"/>
      <path id="DejaVuSans-6f" d="M 1959 3097 
Q 1497 3097 1228 2736 
Q 959 2375 959 1747 
Q 959 1119 1226 758 
Q 1494 397 1959 397 
Q 2419 397 2687 759 
Q 2956 1122 2956 1747 
Q 2956 2369 2687 2733 
Q 2419 3097 1959 3097 
z
M 1959 3584 
Q 2709 3584 3137 3096 
Q 3566 2609 3566 1747 
Q 3566 888 3137 398 
Q 2709 -91 1959 -91 
Q 1206 -91 779 398 
Q 353 888 353 1747 
Q 353 2609 779 3096 
Q 1206 3584 1959 3584 
z
" transform="scale(0.015625)"/>
      <path id="DejaVuSans-75" d="M 544 1381 
L 544 3500 
L 1119 3500 
L 1119 1403 
Q 1119 906 1312 657 
Q 1506 409 1894 409 
Q 2359 409 2629 706 
Q 2900 1003 2900 1516 
L 2900 3500 
L 3475 3500 
L 3475 0 
L 2900 0 
L 2900 538 
Q 2691 219 2414 64 
Q 2138 -91 1772 -91 
Q 1169 -91 856 284 
Q 544 659 544 1381 
z
M 1991 3584 
L 1991 3584 
z
" transform="scale(0.015625)"/>
      <path id="DejaVuSans-6e" d="M 3513 2113 
L 3513 0 
L 2938 0 
L 2938 2094 
Q 2938 2591 2744 2837 
Q 2550 3084 2163 3084 
Q 1697 3084 1428 2787 
Q 1159 2491 1159 1978 
L 1159 0 
L 581 0 
L 581 3500 
L 1159 3500 
L 1159 2956 
Q 1366 3272 1645 3428 
Q 1925 3584 2291 3584 
Q 2894 3584 3203 3211 
Q 3513 2838 3513 2113 
z
" transform="scale(0.015625)"/>
      <path id="DejaVuSans-74" d="M 1172 4494 
L 1172 3500 
L 2356 3500 
L 2356 3053 
L 1172 3053 
L 1172 1153 
Q 1172 725 1289 603 
Q 1406 481 1766 481 
L 2356 481 
L 2356 0 
L 1766 0 
Q 1100 0 847 248 
Q 594 497 594 1153 
L 594 3053 
L 172 3053 
L 172 3500 
L 594 3500 
L 594 4494 
L 1172 4494 
z
" transform="scale(0.015625)"/>
      <path id="DejaVuSans-72" d="M 2631 2963 
Q 2534 3019 2420 3045 
Q 2306 3072 2169 3072 
Q 1681 3072 1420 2755 
Q 1159 2438 1159 1844 
L 1159 0 
L 581 0 
L 581 3500 
L 1159 3500 
L 1159 2956 
Q 1341 3275 1631 3429 
Q 1922 3584 2338 3584 
Q 2397 3584 2469 3576 
Q 2541 3569 2628 3553 
L 2631 2963 
z
" transform="scale(0.015625)"/>
      <path id="DejaVuSans-69" d="M 603 3500 
L 1178 3500 
L 1178 0 
L 603 0 
L 603 3500 
z
M 603 4863 
L 1178 4863 
L 1178 4134 
L 603 4134 
L 603 4863 
z
" transform="scale(0.015625)"/>
      <path id="DejaVuSans-65" d="M 3597 1894 
L 3597 1613 
L 953 1613 
Q 991 1019 1311 708 
Q 1631 397 2203 397 
Q 2534 397 2845 478 
Q 3156 559 3463 722 
L 3463 178 
Q 3153 47 2828 -22 
Q 2503 -91 2169 -91 
Q 1331 -91 842 396 
Q 353 884 353 1716 
Q 353 2575 817 3079 
Q 1281 3584 2069 3584 
Q 2775 3584 3186 3129 
Q 3597 2675 3597 1894 
z
M 3022 2063 
Q 3016 2534 2758 2815 
Q 2500 3097 2075 3097 
Q 1594 3097 1305 2825 
Q 1016 2553 972 2059 
L 3022 2063 
z
" transform="scale(0.015625)"/>
      <path id="DejaVuSans-73" d="M 2834 3397 
L 2834 2853 
Q 2591 2978 2328 3040 
Q 2066 3103 1784 3103 
Q 1356 3103 1142 2972 
Q 928 2841 928 2578 
Q 928 2378 1081 2264 
Q 1234 2150 1697 2047 
L 1894 2003 
Q 2506 1872 2764 1633 
Q 3022 1394 3022 966 
Q 3022 478 2636 193 
Q 2250 -91 1575 -91 
Q 1294 -91 989 -36 
Q 684 19 347 128 
L 347 722 
Q 666 556 975 473 
Q 1284 391 1588 391 
Q 1994 391 2212 530 
Q 2431 669 2431 922 
Q 2431 1156 2273 1281 
Q 2116 1406 1581 1522 
L 1381 1569 
Q 847 1681 609 1914 
Q 372 2147 372 2553 
Q 372 3047 722 3315 
Q 1072 3584 1716 3584 
Q 2034 3584 2315 3537 
Q 2597 3491 2834 3397 
z
" transform="scale(0.015625)"/>
     </defs>
     <use xlink:href="#DejaVuSans-43"/>
     <use xlink:href="#DejaVuSans-6f" x="69.824219"/>
     <use xlink:href="#DejaVuSans-75" x="131.005859"/>
     <use xlink:href="#DejaVuSans-6e" x="194.384766"/>
     <use xlink:href="#DejaVuSans-74" x="257.763672"/>
     <use xlink:href="#DejaVuSans-72" x="296.972656"/>
     <use xlink:href="#DejaVuSans-69" x="338.085938"/>
     <use xlink:href="#DejaVuSans-65" x="365.869141"/>
     <use xlink:href="#DejaVuSans-73" x="427.392578"/>
    </g>
   </g>
   <g id="text_16">
    <g id="patch_6">
     <path d="M 1152.027541 924.188219 
L 1194.933269 764.061865 
L 1149.812459 751.971781 
L 1106.906731 912.098135 
z
" style="fill: #ffffff; stroke: #ffffff; stroke-linejoin: miter"/>
    </g>
    <!-- Regions -->
    <g style="fill: #627313" transform="translate(1141.163819 917.136189) rotate(-75) scale(0.4 -0.4)">
     <defs>
      <path id="DejaVuSans-52" d="M 2841 2188 
Q 3044 2119 3236 1894 
Q 3428 1669 3622 1275 
L 4263 0 
L 3584 0 
L 2988 1197 
Q 2756 1666 2539 1819 
Q 2322 1972 1947 1972 
L 1259 1972 
L 1259 0 
L 628 0 
L 628 4666 
L 2053 4666 
Q 2853 4666 3247 4331 
Q 3641 3997 3641 3322 
Q 3641 2881 3436 2590 
Q 3231 2300 2841 2188 
z
M 1259 4147 
L 1259 2491 
L 2053 2491 
Q 2509 2491 2742 2702 
Q 2975 2913 2975 3322 
Q 2975 3731 2742 3939 
Q 2509 4147 2053 4147 
L 1259 4147 
z
" transform="scale(0.015625)"/>
      <path id="DejaVuSans-67" d="M 2906 1791 
Q 2906 2416 2648 2759 
Q 2391 3103 1925 3103 
Q 1463 3103 1205 2759 
Q 947 2416 947 1791 
Q 947 1169 1205 825 
Q 1463 481 1925 481 
Q 2391 481 2648 825 
Q 2906 1169 2906 1791 
z
M 3481 434 
Q 3481 -459 3084 -895 
Q 2688 -1331 1869 -1331 
Q 1566 -1331 1297 -1286 
Q 1028 -1241 775 -1147 
L 775 -588 
Q 1028 -725 1275 -790 
Q 1522 -856 1778 -856 
Q 2344 -856 2625 -561 
Q 2906 -266 2906 331 
L 2906 616 
Q 2728 306 2450 153 
Q 2172 0 1784 0 
Q 1141 0 747 490 
Q 353 981 353 1791 
Q 353 2603 747 3093 
Q 1141 3584 1784 3584 
Q 2172 3584 2450 3431 
Q 2728 3278 2906 2969 
L 2906 3500 
L 3481 3500 
L 3481 434 
z
" transform="scale(0.015625)"/>
     </defs>
     <use xlink:href="#DejaVuSans-52"/>
     <use xlink:href="#DejaVuSans-65" x="64.982422"/>
     <use xlink:href="#DejaVuSans-67" x="126.505859"/>
     <use xlink:href="#DejaVuSans-69" x="189.982422"/>
     <use xlink:href="#DejaVuSans-6f" x="217.765625"/>
     <use xlink:href="#DejaVuSans-6e" x="278.947266"/>
     <use xlink:href="#DejaVuSans-73" x="342.326172"/>
    </g>
   </g>
  </g>
 </g>
 <defs>
  <clipPath id="p08d19b969a">
   <rect x="180" y="172.8" width="1116" height="1108.8"/>
  </clipPath>
 </defs>
</svg>
