<?xml version="1.0" encoding="utf-8" standalone="no"?>
<!DOCTYPE svg PUBLIC "-//W3C//DTD SVG 1.1//EN"
  "http://www.w3.org/Graphics/SVG/1.1/DTD/svg11.dtd">
<svg xmlns:xlink="http://www.w3.org/1999/xlink" width="460.8pt" height="345.6pt" viewBox="0 0 460.8 345.6" xmlns="http://www.w3.org/2000/svg" version="1.1">
 <metadata>
  <rdf:RDF xmlns:dc="http://purl.org/dc/elements/1.1/" xmlns:cc="http://creativecommons.org/ns#" xmlns:rdf="http://www.w3.org/1999/02/22-rdf-syntax-ns#">
   <cc:Work>
    <dc:type rdf:resource="http://purl.org/dc/dcmitype/StillImage"/>
    <dc:date>2023-08-28T09:53:09.194067</dc:date>
    <dc:format>image/svg+xml</dc:format>
    <dc:creator>
     <cc:Agent>
      <dc:title>Matplotlib v3.7.1, https://matplotlib.org/</dc:title>
     </cc:Agent>
    </dc:creator>
   </cc:Work>
  </rdf:RDF>
 </metadata>
 <defs>
  <style type="text/css">*{stroke-linejoin: round; stroke-linecap: butt}</style>
 </defs>
 <g id="figure_1">
  <g id="patch_1">
   <path d="M 0 345.6 
L 460.8 345.6 
L 460.8 0 
L 0 0 
L 0 345.6 
z
" style="fill: none"/>
  </g>
  <g id="axes_1">
   <g id="patch_2">
    <path d="M 57.6 307.584 
L 414.72 307.584 
L 414.72 41.472 
L 57.6 41.472 
L 57.6 307.584 
z
" style="fill: none"/>
   </g>
   <g id="PolyCollection_1">
    <defs>
     <path id="me60e64ba9d" d="M 57.6 -41.19484 
L 57.6 -41.19484 
L 83.108571 -90.337889 
L 108.617143 -156.174915 
L 134.125714 -165.076232 
L 159.634286 -169.221751 
L 185.142857 -169.068061 
L 210.651429 -168.91363 
L 236.16 -168.778476 
L 261.668571 -169.181216 
L 287.177143 -169.85766 
L 312.685714 -170.603438 
L 338.194286 -173.153216 
L 363.702857 -172.328604 
L 389.211429 -202.98648 
L 414.72 -212.409566 
L 414.72 -212.409566 
L 414.72 -299.437863 
L 389.211429 -300.011402 
L 363.702857 -291.316107 
L 338.194286 -289.409095 
L 312.685714 -290.026774 
L 287.177143 -289.456654 
L 261.668571 -287.313961 
L 236.16 -281.787001 
L 210.651429 -260.236967 
L 185.142857 -260.653797 
L 159.634286 -260.524289 
L 134.125714 -229.367025 
L 108.617143 -183.237591 
L 83.108571 -155.192534 
L 57.6 -43.999628 
z
" style="stroke: #a30774; stroke-opacity: 0.2"/>
    </defs>
    <g clip-path="url(#pb118f09aa9)">
     <use xlink:href="#me60e64ba9d" x="0" y="345.6" style="fill: #a30774; fill-opacity: 0.2; stroke: #a30774; stroke-opacity: 0.2"/>
    </g>
   </g>
   <g id="PolyCollection_2">
    <path d="M 57.6 304.40516 
L 57.6 304.40516 
L 58.832154 302.031378 
L 57.6 304.792005 
z
" clip-path="url(#pb118f09aa9)" style="fill: #a30774; fill-opacity: 0.2; stroke: #a30774; stroke-opacity: 0.2"/>
    <path d="M 87.488666 243.957189 
L 108.617143 189.425085 
L 124.664479 183.825304 
L 108.617143 226.190699 
z
" clip-path="url(#pb118f09aa9)" style="fill: #a30774; fill-opacity: 0.2; stroke: #a30774; stroke-opacity: 0.2"/>
    <path d="M 382.183844 151.059733 
L 389.211429 142.61352 
L 400.041146 138.612929 
L 389.211429 153.550487 
z
" clip-path="url(#pb118f09aa9)" style="fill: #a30774; fill-opacity: 0.2; stroke: #a30774; stroke-opacity: 0.2"/>
   </g>
   <g id="PolyCollection_3"/>
   <g id="PolyCollection_4">
    <defs>
     <path id="m15da144bf2" d="M 57.6 -41.89882 
L 57.6 -41.89882 
L 83.108571 -44.095471 
L 108.617143 -81.904394 
L 134.125714 -89.949944 
L 159.634286 -96.353661 
L 185.142857 -96.226628 
L 210.651429 -96.090936 
L 236.16 -95.910887 
L 261.668571 -101.421527 
L 287.177143 -101.311927 
L 312.685714 -104.954862 
L 338.194286 -104.584398 
L 363.702857 -106.623922 
L 389.211429 -88.786941 
L 414.72 -81.984229 
L 414.72 -81.984229 
L 414.72 -74.137164 
L 389.211429 -73.774311 
L 363.702857 -67.773524 
L 338.194286 -60.949515 
L 312.685714 -60.69645 
L 287.177143 -39.643043 
L 261.668571 -39.701175 
L 236.16 -39.759291 
L 210.651429 -39.817895 
L 185.142857 -39.876955 
L 159.634286 -39.93603 
L 134.125714 -39.850241 
L 108.617143 -39.764467 
L 83.108571 -39.677466 
L 57.6 -39.204332 
z
" style="stroke: #215caf; stroke-opacity: 0.2"/>
    </defs>
    <g clip-path="url(#pb118f09aa9)">
     <use xlink:href="#m15da144bf2" x="0" y="345.6" style="fill: #215caf; fill-opacity: 0.2; stroke: #215caf; stroke-opacity: 0.2"/>
    </g>
   </g>
   <g id="PolyCollection_5">
    <path d="M 57.6 303.70118 
L 57.6 303.70118 
L 83.108571 301.504529 
L 83.668769 300.674202 
L 83.108571 300.689903 
L 57.6 302.595885 
z
" clip-path="url(#pb118f09aa9)" style="fill: #215caf; fill-opacity: 0.2; stroke: #215caf; stroke-opacity: 0.2"/>
    <path d="M 291.266754 243.704026 
L 312.685714 240.645138 
L 338.194286 241.015602 
L 363.702857 238.976078 
L 389.211429 256.813059 
L 414.72 263.615771 
L 414.72 263.615771 
L 414.72 205.076882 
L 389.211429 204.224297 
L 363.702857 203.530889 
L 338.194286 232.666765 
L 312.685714 232.235911 
z
" clip-path="url(#pb118f09aa9)" style="fill: #215caf; fill-opacity: 0.2; stroke: #215caf; stroke-opacity: 0.2"/>
   </g>
   <g id="matplotlib.axis_1">
    <g id="xtick_1">
     <g id="line2d_1">
      <defs>
       <path id="m86a3291fc6" d="M 0 0 
L 0 3.5 
" style="stroke: #000000; stroke-width: 0.8"/>
      </defs>
      <g>
       <use xlink:href="#m86a3291fc6" x="95.862857" y="307.584" style="stroke: #000000; stroke-width: 0.8"/>
      </g>
     </g>
     <g id="text_1">
      <!-- 2025 -->
      <g transform="translate(83.137857 322.182437) scale(0.1 -0.1)">
       <defs>
        <path id="DejaVuSans-32" d="M 1228 531 
L 3431 531 
L 3431 0 
L 469 0 
L 469 531 
Q 828 903 1448 1529 
Q 2069 2156 2228 2338 
Q 2531 2678 2651 2914 
Q 2772 3150 2772 3378 
Q 2772 3750 2511 3984 
Q 2250 4219 1831 4219 
Q 1534 4219 1204 4116 
Q 875 4013 500 3803 
L 500 4441 
Q 881 4594 1212 4672 
Q 1544 4750 1819 4750 
Q 2544 4750 2975 4387 
Q 3406 4025 3406 3419 
Q 3406 3131 3298 2873 
Q 3191 2616 2906 2266 
Q 2828 2175 2409 1742 
Q 1991 1309 1228 531 
z
" transform="scale(0.015625)"/>
        <path id="DejaVuSans-30" d="M 2034 4250 
Q 1547 4250 1301 3770 
Q 1056 3291 1056 2328 
Q 1056 1369 1301 889 
Q 1547 409 2034 409 
Q 2525 409 2770 889 
Q 3016 1369 3016 2328 
Q 3016 3291 2770 3770 
Q 2525 4250 2034 4250 
z
M 2034 4750 
Q 2819 4750 3233 4129 
Q 3647 3509 3647 2328 
Q 3647 1150 3233 529 
Q 2819 -91 2034 -91 
Q 1250 -91 836 529 
Q 422 1150 422 2328 
Q 422 3509 836 4129 
Q 1250 4750 2034 4750 
z
" transform="scale(0.015625)"/>
        <path id="DejaVuSans-35" d="M 691 4666 
L 3169 4666 
L 3169 4134 
L 1269 4134 
L 1269 2991 
Q 1406 3038 1543 3061 
Q 1681 3084 1819 3084 
Q 2600 3084 3056 2656 
Q 3513 2228 3513 1497 
Q 3513 744 3044 326 
Q 2575 -91 1722 -91 
Q 1428 -91 1123 -41 
Q 819 9 494 109 
L 494 744 
Q 775 591 1075 516 
Q 1375 441 1709 441 
Q 2250 441 2565 725 
Q 2881 1009 2881 1497 
Q 2881 1984 2565 2268 
Q 2250 2553 1709 2553 
Q 1456 2553 1204 2497 
Q 953 2441 691 2322 
L 691 4666 
z
" transform="scale(0.015625)"/>
       </defs>
       <use xlink:href="#DejaVuSans-32"/>
       <use xlink:href="#DejaVuSans-30" x="63.623047"/>
       <use xlink:href="#DejaVuSans-32" x="127.246094"/>
       <use xlink:href="#DejaVuSans-35" x="190.869141"/>
      </g>
     </g>
    </g>
    <g id="xtick_2">
     <g id="line2d_2">
      <g>
       <use xlink:href="#m86a3291fc6" x="159.634286" y="307.584" style="stroke: #000000; stroke-width: 0.8"/>
      </g>
     </g>
     <g id="text_2">
      <!-- 2030 -->
      <g transform="translate(146.909286 322.182437) scale(0.1 -0.1)">
       <defs>
        <path id="DejaVuSans-33" d="M 2597 2516 
Q 3050 2419 3304 2112 
Q 3559 1806 3559 1356 
Q 3559 666 3084 287 
Q 2609 -91 1734 -91 
Q 1441 -91 1130 -33 
Q 819 25 488 141 
L 488 750 
Q 750 597 1062 519 
Q 1375 441 1716 441 
Q 2309 441 2620 675 
Q 2931 909 2931 1356 
Q 2931 1769 2642 2001 
Q 2353 2234 1838 2234 
L 1294 2234 
L 1294 2753 
L 1863 2753 
Q 2328 2753 2575 2939 
Q 2822 3125 2822 3475 
Q 2822 3834 2567 4026 
Q 2313 4219 1838 4219 
Q 1578 4219 1281 4162 
Q 984 4106 628 3988 
L 628 4550 
Q 988 4650 1302 4700 
Q 1616 4750 1894 4750 
Q 2613 4750 3031 4423 
Q 3450 4097 3450 3541 
Q 3450 3153 3228 2886 
Q 3006 2619 2597 2516 
z
" transform="scale(0.015625)"/>
       </defs>
       <use xlink:href="#DejaVuSans-32"/>
       <use xlink:href="#DejaVuSans-30" x="63.623047"/>
       <use xlink:href="#DejaVuSans-33" x="127.246094"/>
       <use xlink:href="#DejaVuSans-30" x="190.869141"/>
      </g>
     </g>
    </g>
    <g id="xtick_3">
     <g id="line2d_3">
      <g>
       <use xlink:href="#m86a3291fc6" x="223.405714" y="307.584" style="stroke: #000000; stroke-width: 0.8"/>
      </g>
     </g>
     <g id="text_3">
      <!-- 2035 -->
      <g transform="translate(210.680714 322.182437) scale(0.1 -0.1)">
       <use xlink:href="#DejaVuSans-32"/>
       <use xlink:href="#DejaVuSans-30" x="63.623047"/>
       <use xlink:href="#DejaVuSans-33" x="127.246094"/>
       <use xlink:href="#DejaVuSans-35" x="190.869141"/>
      </g>
     </g>
    </g>
    <g id="xtick_4">
     <g id="line2d_4">
      <g>
       <use xlink:href="#m86a3291fc6" x="287.177143" y="307.584" style="stroke: #000000; stroke-width: 0.8"/>
      </g>
     </g>
     <g id="text_4">
      <!-- 2040 -->
      <g transform="translate(274.452143 322.182437) scale(0.1 -0.1)">
       <defs>
        <path id="DejaVuSans-34" d="M 2419 4116 
L 825 1625 
L 2419 1625 
L 2419 4116 
z
M 2253 4666 
L 3047 4666 
L 3047 1625 
L 3713 1625 
L 3713 1100 
L 3047 1100 
L 3047 0 
L 2419 0 
L 2419 1100 
L 313 1100 
L 313 1709 
L 2253 4666 
z
" transform="scale(0.015625)"/>
       </defs>
       <use xlink:href="#DejaVuSans-32"/>
       <use xlink:href="#DejaVuSans-30" x="63.623047"/>
       <use xlink:href="#DejaVuSans-34" x="127.246094"/>
       <use xlink:href="#DejaVuSans-30" x="190.869141"/>
      </g>
     </g>
    </g>
    <g id="xtick_5">
     <g id="line2d_5">
      <g>
       <use xlink:href="#m86a3291fc6" x="350.948571" y="307.584" style="stroke: #000000; stroke-width: 0.8"/>
      </g>
     </g>
     <g id="text_5">
      <!-- 2045 -->
      <g transform="translate(338.223571 322.182437) scale(0.1 -0.1)">
       <use xlink:href="#DejaVuSans-32"/>
       <use xlink:href="#DejaVuSans-30" x="63.623047"/>
       <use xlink:href="#DejaVuSans-34" x="127.246094"/>
       <use xlink:href="#DejaVuSans-35" x="190.869141"/>
      </g>
     </g>
    </g>
    <g id="xtick_6">
     <g id="line2d_6">
      <g>
       <use xlink:href="#m86a3291fc6" x="414.72" y="307.584" style="stroke: #000000; stroke-width: 0.8"/>
      </g>
     </g>
     <g id="text_6">
      <!-- 2050 -->
      <g transform="translate(401.995 322.182437) scale(0.1 -0.1)">
       <use xlink:href="#DejaVuSans-32"/>
       <use xlink:href="#DejaVuSans-30" x="63.623047"/>
       <use xlink:href="#DejaVuSans-35" x="127.246094"/>
       <use xlink:href="#DejaVuSans-30" x="190.869141"/>
      </g>
     </g>
    </g>
    <g id="text_7">
     <!-- Time -->
     <g transform="translate(223.926406 335.860562) scale(0.1 -0.1)">
      <defs>
       <path id="DejaVuSans-54" d="M -19 4666 
L 3928 4666 
L 3928 4134 
L 2272 4134 
L 2272 0 
L 1638 0 
L 1638 4134 
L -19 4134 
L -19 4666 
z
" transform="scale(0.015625)"/>
       <path id="DejaVuSans-69" d="M 603 3500 
L 1178 3500 
L 1178 0 
L 603 0 
L 603 3500 
z
M 603 4863 
L 1178 4863 
L 1178 4134 
L 603 4134 
L 603 4863 
z
" transform="scale(0.015625)"/>
       <path id="DejaVuSans-6d" d="M 3328 2828 
Q 3544 3216 3844 3400 
Q 4144 3584 4550 3584 
Q 5097 3584 5394 3201 
Q 5691 2819 5691 2113 
L 5691 0 
L 5113 0 
L 5113 2094 
Q 5113 2597 4934 2840 
Q 4756 3084 4391 3084 
Q 3944 3084 3684 2787 
Q 3425 2491 3425 1978 
L 3425 0 
L 2847 0 
L 2847 2094 
Q 2847 2600 2669 2842 
Q 2491 3084 2119 3084 
Q 1678 3084 1418 2786 
Q 1159 2488 1159 1978 
L 1159 0 
L 581 0 
L 581 3500 
L 1159 3500 
L 1159 2956 
Q 1356 3278 1631 3431 
Q 1906 3584 2284 3584 
Q 2666 3584 2933 3390 
Q 3200 3197 3328 2828 
z
" transform="scale(0.015625)"/>
       <path id="DejaVuSans-65" d="M 3597 1894 
L 3597 1613 
L 953 1613 
Q 991 1019 1311 708 
Q 1631 397 2203 397 
Q 2534 397 2845 478 
Q 3156 559 3463 722 
L 3463 178 
Q 3153 47 2828 -22 
Q 2503 -91 2169 -91 
Q 1331 -91 842 396 
Q 353 884 353 1716 
Q 353 2575 817 3079 
Q 1281 3584 2069 3584 
Q 2775 3584 3186 3129 
Q 3597 2675 3597 1894 
z
M 3022 2063 
Q 3016 2534 2758 2815 
Q 2500 3097 2075 3097 
Q 1594 3097 1305 2825 
Q 1016 2553 972 2059 
L 3022 2063 
z
" transform="scale(0.015625)"/>
      </defs>
      <use xlink:href="#DejaVuSans-54"/>
      <use xlink:href="#DejaVuSans-69" x="57.958984"/>
      <use xlink:href="#DejaVuSans-6d" x="85.742188"/>
      <use xlink:href="#DejaVuSans-65" x="183.154297"/>
     </g>
    </g>
   </g>
   <g id="matplotlib.axis_2">
    <g id="ytick_1">
     <g id="line2d_7">
      <defs>
       <path id="ma2921b3547" d="M 0 0 
L -3.5 0 
" style="stroke: #000000; stroke-width: 0.8"/>
      </defs>
      <g>
       <use xlink:href="#ma2921b3547" x="57.6" y="307.584" style="stroke: #000000; stroke-width: 0.8"/>
      </g>
     </g>
     <g id="text_8">
      <!-- 0 -->
      <g transform="translate(44.2375 311.383219) scale(0.1 -0.1)">
       <use xlink:href="#DejaVuSans-30"/>
      </g>
     </g>
    </g>
    <g id="ytick_2">
     <g id="line2d_8">
      <g>
       <use xlink:href="#ma2921b3547" x="57.6" y="269.568" style="stroke: #000000; stroke-width: 0.8"/>
      </g>
     </g>
     <g id="text_9">
      <!-- 2000 -->
      <g transform="translate(25.15 273.367219) scale(0.1 -0.1)">
       <use xlink:href="#DejaVuSans-32"/>
       <use xlink:href="#DejaVuSans-30" x="63.623047"/>
       <use xlink:href="#DejaVuSans-30" x="127.246094"/>
       <use xlink:href="#DejaVuSans-30" x="190.869141"/>
      </g>
     </g>
    </g>
    <g id="ytick_3">
     <g id="line2d_9">
      <g>
       <use xlink:href="#ma2921b3547" x="57.6" y="231.552" style="stroke: #000000; stroke-width: 0.8"/>
      </g>
     </g>
     <g id="text_10">
      <!-- 4000 -->
      <g transform="translate(25.15 235.351219) scale(0.1 -0.1)">
       <use xlink:href="#DejaVuSans-34"/>
       <use xlink:href="#DejaVuSans-30" x="63.623047"/>
       <use xlink:href="#DejaVuSans-30" x="127.246094"/>
       <use xlink:href="#DejaVuSans-30" x="190.869141"/>
      </g>
     </g>
    </g>
    <g id="ytick_4">
     <g id="line2d_10">
      <g>
       <use xlink:href="#ma2921b3547" x="57.6" y="193.536" style="stroke: #000000; stroke-width: 0.8"/>
      </g>
     </g>
     <g id="text_11">
      <!-- 6000 -->
      <g transform="translate(25.15 197.335219) scale(0.1 -0.1)">
       <defs>
        <path id="DejaVuSans-36" d="M 2113 2584 
Q 1688 2584 1439 2293 
Q 1191 2003 1191 1497 
Q 1191 994 1439 701 
Q 1688 409 2113 409 
Q 2538 409 2786 701 
Q 3034 994 3034 1497 
Q 3034 2003 2786 2293 
Q 2538 2584 2113 2584 
z
M 3366 4563 
L 3366 3988 
Q 3128 4100 2886 4159 
Q 2644 4219 2406 4219 
Q 1781 4219 1451 3797 
Q 1122 3375 1075 2522 
Q 1259 2794 1537 2939 
Q 1816 3084 2150 3084 
Q 2853 3084 3261 2657 
Q 3669 2231 3669 1497 
Q 3669 778 3244 343 
Q 2819 -91 2113 -91 
Q 1303 -91 875 529 
Q 447 1150 447 2328 
Q 447 3434 972 4092 
Q 1497 4750 2381 4750 
Q 2619 4750 2861 4703 
Q 3103 4656 3366 4563 
z
" transform="scale(0.015625)"/>
       </defs>
       <use xlink:href="#DejaVuSans-36"/>
       <use xlink:href="#DejaVuSans-30" x="63.623047"/>
       <use xlink:href="#DejaVuSans-30" x="127.246094"/>
       <use xlink:href="#DejaVuSans-30" x="190.869141"/>
      </g>
     </g>
    </g>
    <g id="ytick_5">
     <g id="line2d_11">
      <g>
       <use xlink:href="#ma2921b3547" x="57.6" y="155.52" style="stroke: #000000; stroke-width: 0.8"/>
      </g>
     </g>
     <g id="text_12">
      <!-- 8000 -->
      <g transform="translate(25.15 159.319219) scale(0.1 -0.1)">
       <defs>
        <path id="DejaVuSans-38" d="M 2034 2216 
Q 1584 2216 1326 1975 
Q 1069 1734 1069 1313 
Q 1069 891 1326 650 
Q 1584 409 2034 409 
Q 2484 409 2743 651 
Q 3003 894 3003 1313 
Q 3003 1734 2745 1975 
Q 2488 2216 2034 2216 
z
M 1403 2484 
Q 997 2584 770 2862 
Q 544 3141 544 3541 
Q 544 4100 942 4425 
Q 1341 4750 2034 4750 
Q 2731 4750 3128 4425 
Q 3525 4100 3525 3541 
Q 3525 3141 3298 2862 
Q 3072 2584 2669 2484 
Q 3125 2378 3379 2068 
Q 3634 1759 3634 1313 
Q 3634 634 3220 271 
Q 2806 -91 2034 -91 
Q 1263 -91 848 271 
Q 434 634 434 1313 
Q 434 1759 690 2068 
Q 947 2378 1403 2484 
z
M 1172 3481 
Q 1172 3119 1398 2916 
Q 1625 2713 2034 2713 
Q 2441 2713 2670 2916 
Q 2900 3119 2900 3481 
Q 2900 3844 2670 4047 
Q 2441 4250 2034 4250 
Q 1625 4250 1398 4047 
Q 1172 3844 1172 3481 
z
" transform="scale(0.015625)"/>
       </defs>
       <use xlink:href="#DejaVuSans-38"/>
       <use xlink:href="#DejaVuSans-30" x="63.623047"/>
       <use xlink:href="#DejaVuSans-30" x="127.246094"/>
       <use xlink:href="#DejaVuSans-30" x="190.869141"/>
      </g>
     </g>
    </g>
    <g id="ytick_6">
     <g id="line2d_12">
      <g>
       <use xlink:href="#ma2921b3547" x="57.6" y="117.504" style="stroke: #000000; stroke-width: 0.8"/>
      </g>
     </g>
     <g id="text_13">
      <!-- 10000 -->
      <g transform="translate(18.7875 121.303219) scale(0.1 -0.1)">
       <defs>
        <path id="DejaVuSans-31" d="M 794 531 
L 1825 531 
L 1825 4091 
L 703 3866 
L 703 4441 
L 1819 4666 
L 2450 4666 
L 2450 531 
L 3481 531 
L 3481 0 
L 794 0 
L 794 531 
z
" transform="scale(0.015625)"/>
       </defs>
       <use xlink:href="#DejaVuSans-31"/>
       <use xlink:href="#DejaVuSans-30" x="63.623047"/>
       <use xlink:href="#DejaVuSans-30" x="127.246094"/>
       <use xlink:href="#DejaVuSans-30" x="190.869141"/>
       <use xlink:href="#DejaVuSans-30" x="254.492188"/>
      </g>
     </g>
    </g>
    <g id="ytick_7">
     <g id="line2d_13">
      <g>
       <use xlink:href="#ma2921b3547" x="57.6" y="79.488" style="stroke: #000000; stroke-width: 0.8"/>
      </g>
     </g>
     <g id="text_14">
      <!-- 12000 -->
      <g transform="translate(18.7875 83.287219) scale(0.1 -0.1)">
       <use xlink:href="#DejaVuSans-31"/>
       <use xlink:href="#DejaVuSans-32" x="63.623047"/>
       <use xlink:href="#DejaVuSans-30" x="127.246094"/>
       <use xlink:href="#DejaVuSans-30" x="190.869141"/>
       <use xlink:href="#DejaVuSans-30" x="254.492188"/>
      </g>
     </g>
    </g>
    <g id="ytick_8">
     <g id="line2d_14">
      <g>
       <use xlink:href="#ma2921b3547" x="57.6" y="41.472" style="stroke: #000000; stroke-width: 0.8"/>
      </g>
     </g>
     <g id="text_15">
      <!-- 14000 -->
      <g transform="translate(18.7875 45.271219) scale(0.1 -0.1)">
       <use xlink:href="#DejaVuSans-31"/>
       <use xlink:href="#DejaVuSans-34" x="63.623047"/>
       <use xlink:href="#DejaVuSans-30" x="127.246094"/>
       <use xlink:href="#DejaVuSans-30" x="190.869141"/>
       <use xlink:href="#DejaVuSans-30" x="254.492188"/>
      </g>
     </g>
    </g>
    <g id="text_16">
     <!-- Jobs [FTE] -->
     <g transform="translate(12.707812 199.333469) rotate(-90) scale(0.1 -0.1)">
      <defs>
       <path id="DejaVuSans-4a" d="M 628 4666 
L 1259 4666 
L 1259 325 
Q 1259 -519 939 -900 
Q 619 -1281 -91 -1281 
L -331 -1281 
L -331 -750 
L -134 -750 
Q 284 -750 456 -515 
Q 628 -281 628 325 
L 628 4666 
z
" transform="scale(0.015625)"/>
       <path id="DejaVuSans-6f" d="M 1959 3097 
Q 1497 3097 1228 2736 
Q 959 2375 959 1747 
Q 959 1119 1226 758 
Q 1494 397 1959 397 
Q 2419 397 2687 759 
Q 2956 1122 2956 1747 
Q 2956 2369 2687 2733 
Q 2419 3097 1959 3097 
z
M 1959 3584 
Q 2709 3584 3137 3096 
Q 3566 2609 3566 1747 
Q 3566 888 3137 398 
Q 2709 -91 1959 -91 
Q 1206 -91 779 398 
Q 353 888 353 1747 
Q 353 2609 779 3096 
Q 1206 3584 1959 3584 
z
" transform="scale(0.015625)"/>
       <path id="DejaVuSans-62" d="M 3116 1747 
Q 3116 2381 2855 2742 
Q 2594 3103 2138 3103 
Q 1681 3103 1420 2742 
Q 1159 2381 1159 1747 
Q 1159 1113 1420 752 
Q 1681 391 2138 391 
Q 2594 391 2855 752 
Q 3116 1113 3116 1747 
z
M 1159 2969 
Q 1341 3281 1617 3432 
Q 1894 3584 2278 3584 
Q 2916 3584 3314 3078 
Q 3713 2572 3713 1747 
Q 3713 922 3314 415 
Q 2916 -91 2278 -91 
Q 1894 -91 1617 61 
Q 1341 213 1159 525 
L 1159 0 
L 581 0 
L 581 4863 
L 1159 4863 
L 1159 2969 
z
" transform="scale(0.015625)"/>
       <path id="DejaVuSans-73" d="M 2834 3397 
L 2834 2853 
Q 2591 2978 2328 3040 
Q 2066 3103 1784 3103 
Q 1356 3103 1142 2972 
Q 928 2841 928 2578 
Q 928 2378 1081 2264 
Q 1234 2150 1697 2047 
L 1894 2003 
Q 2506 1872 2764 1633 
Q 3022 1394 3022 966 
Q 3022 478 2636 193 
Q 2250 -91 1575 -91 
Q 1294 -91 989 -36 
Q 684 19 347 128 
L 347 722 
Q 666 556 975 473 
Q 1284 391 1588 391 
Q 1994 391 2212 530 
Q 2431 669 2431 922 
Q 2431 1156 2273 1281 
Q 2116 1406 1581 1522 
L 1381 1569 
Q 847 1681 609 1914 
Q 372 2147 372 2553 
Q 372 3047 722 3315 
Q 1072 3584 1716 3584 
Q 2034 3584 2315 3537 
Q 2597 3491 2834 3397 
z
" transform="scale(0.015625)"/>
       <path id="DejaVuSans-20" transform="scale(0.015625)"/>
       <path id="DejaVuSans-5b" d="M 550 4863 
L 1875 4863 
L 1875 4416 
L 1125 4416 
L 1125 -397 
L 1875 -397 
L 1875 -844 
L 550 -844 
L 550 4863 
z
" transform="scale(0.015625)"/>
       <path id="DejaVuSans-46" d="M 628 4666 
L 3309 4666 
L 3309 4134 
L 1259 4134 
L 1259 2759 
L 3109 2759 
L 3109 2228 
L 1259 2228 
L 1259 0 
L 628 0 
L 628 4666 
z
" transform="scale(0.015625)"/>
       <path id="DejaVuSans-45" d="M 628 4666 
L 3578 4666 
L 3578 4134 
L 1259 4134 
L 1259 2753 
L 3481 2753 
L 3481 2222 
L 1259 2222 
L 1259 531 
L 3634 531 
L 3634 0 
L 628 0 
L 628 4666 
z
" transform="scale(0.015625)"/>
       <path id="DejaVuSans-5d" d="M 1947 4863 
L 1947 -844 
L 622 -844 
L 622 -397 
L 1369 -397 
L 1369 4416 
L 622 4416 
L 622 4863 
L 1947 4863 
z
" transform="scale(0.015625)"/>
      </defs>
      <use xlink:href="#DejaVuSans-4a"/>
      <use xlink:href="#DejaVuSans-6f" x="29.492188"/>
      <use xlink:href="#DejaVuSans-62" x="90.673828"/>
      <use xlink:href="#DejaVuSans-73" x="154.150391"/>
      <use xlink:href="#DejaVuSans-20" x="206.25"/>
      <use xlink:href="#DejaVuSans-5b" x="238.037109"/>
      <use xlink:href="#DejaVuSans-46" x="277.050781"/>
      <use xlink:href="#DejaVuSans-54" x="332.820312"/>
      <use xlink:href="#DejaVuSans-45" x="393.904297"/>
      <use xlink:href="#DejaVuSans-5d" x="457.087891"/>
     </g>
    </g>
   </g>
   <g id="line2d_15">
    <path d="M 57.6 306.878591 
L 83.108571 306.593571 
L 108.617143 306.537865 
L 134.125714 306.482983 
L 159.634286 306.428095 
L 185.142857 306.458438 
L 210.651429 306.488787 
L 236.16 306.518675 
L 261.668571 306.548105 
L 287.177143 306.577544 
L 312.685714 306.606636 
L 338.194286 306.635727 
L 363.702857 306.664765 
L 389.211429 306.69375 
L 414.72 306.72273 
" clip-path="url(#pb118f09aa9)" style="fill: none; stroke: #6f6f6f; stroke-width: 1.5; stroke-linecap: square"/>
   </g>
   <g id="line2d_16">
    <path d="M 57.6 305.55463 
L 83.108571 303.615626 
L 108.617143 302.709354 
L 134.125714 302.180039 
L 159.634286 302.113353 
L 185.142857 302.21193 
L 210.651429 302.366531 
L 236.16 288.77408 
L 261.668571 261.544361 
L 287.177143 261.679587 
L 312.685714 261.818276 
L 338.194286 258.300367 
L 363.702857 258.656917 
L 389.211429 245.230818 
L 414.72 245.585333 
" clip-path="url(#pb118f09aa9)" style="fill: none; stroke: #6f6f6f; stroke-width: 1.5; stroke-linecap: square"/>
   </g>
   <g id="line2d_17">
    <path d="M 57.6 307.115637 
L 83.108571 307.06771 
L 108.617143 305.159262 
L 134.125714 303.512773 
L 159.634286 298.482981 
L 185.142857 298.500002 
L 210.651429 298.506817 
L 236.16 298.293073 
L 261.668571 298.293073 
L 287.177143 298.293073 
L 312.685714 298.293073 
L 338.194286 298.293073 
L 363.702857 296.321373 
L 389.211429 296.98385 
L 414.72 296.908711 
" clip-path="url(#pb118f09aa9)" style="fill: none; stroke: #6f6f6f; stroke-width: 1.5; stroke-linecap: square"/>
   </g>
   <g id="line2d_18">
    <path d="M 57.6 307.531084 
L 83.108571 307.508263 
L 108.617143 307.502677 
L 134.125714 307.497186 
L 159.634286 307.491695 
L 185.142857 307.49391 
L 210.651429 307.497529 
L 236.16 307.499648 
L 261.668571 307.501673 
L 287.177143 307.503697 
L 312.685714 307.505528 
L 338.194286 307.507358 
L 363.702857 307.509359 
L 389.211429 307.498487 
L 414.72 307.500661 
" clip-path="url(#pb118f09aa9)" style="fill: none; stroke: #6f6f6f; stroke-width: 1.5; stroke-linecap: square"/>
   </g>
   <g id="line2d_19">
    <path d="M 57.6 307.584 
L 83.108571 307.584 
L 108.617143 307.584 
L 134.125714 307.584 
L 159.634286 307.584 
L 185.142857 307.584 
L 210.651429 307.584 
L 236.16 307.584 
L 261.668571 307.584 
L 287.177143 307.584 
L 312.685714 307.584 
L 338.194286 307.584 
L 363.702857 307.584 
L 389.211429 307.584 
L 414.72 307.584 
" clip-path="url(#pb118f09aa9)" style="fill: none; stroke: #6f6f6f; stroke-width: 1.5; stroke-linecap: square"/>
   </g>
   <g id="line2d_20">
    <path d="M 57.6 306.922026 
L 83.108571 306.688284 
L 108.617143 304.920508 
L 134.125714 300.355824 
L 159.634286 284.527186 
L 185.142857 284.579304 
L 210.651429 284.707489 
L 236.16 282.884187 
L 261.668571 282.290608 
L 287.177143 276.626248 
L 312.685714 276.639697 
L 338.194286 266.206766 
L 363.702857 246.208176 
L 389.211429 239.102154 
L 414.72 239.196898 
" clip-path="url(#pb118f09aa9)" style="fill: none; stroke: #6f6f6f; stroke-width: 1.5; stroke-linecap: square"/>
   </g>
   <g id="line2d_21">
    <path d="M 57.6 301.600372 
L 83.108571 190.407466 
L 108.617143 162.362409 
L 134.125714 116.232975 
L 159.634286 85.075711 
L 185.142857 84.946203 
L 210.651429 85.363033 
L 236.16 63.812999 
L 261.668571 58.286039 
L 287.177143 56.143346 
L 312.685714 55.573226 
L 338.194286 56.190905 
L 363.702857 54.283893 
L 389.211429 45.588598 
L 414.72 46.162137 
" clip-path="url(#pb118f09aa9)" style="fill: none; stroke: #6f6f6f; stroke-width: 1.5; stroke-linecap: square"/>
   </g>
   <g id="line2d_22">
    <path d="M 57.6 307.478674 
L 83.108571 307.440975 
L 108.617143 307.432578 
L 134.125714 307.424884 
L 159.634286 307.424383 
L 185.142857 307.437253 
L 210.651429 307.450067 
L 236.16 307.465736 
L 261.668571 307.475129 
L 287.177143 307.487566 
L 312.685714 307.499336 
L 338.194286 303.861312 
L 363.702857 303.861312 
L 389.211429 296.277483 
L 414.72 295.037306 
" clip-path="url(#pb118f09aa9)" style="fill: none; stroke: #6f6f6f; stroke-width: 1.5; stroke-linecap: square"/>
   </g>
   <g id="line2d_23">
    <path d="M 57.6 307.584 
L 83.108571 307.584 
L 108.617143 307.584 
L 134.125714 307.584 
L 159.634286 307.584 
L 185.142857 307.584 
L 210.651429 307.584 
L 236.16 307.584 
L 261.668571 307.584 
L 287.177143 307.584 
L 312.685714 307.584 
L 338.194286 307.584 
L 363.702857 307.584 
L 389.211429 307.584 
L 414.72 307.584 
" clip-path="url(#pb118f09aa9)" style="fill: none; stroke: #6f6f6f; stroke-width: 1.5; stroke-linecap: square"/>
   </g>
   <g id="line2d_24">
    <path d="M 57.6 306.266182 
L 83.108571 305.774874 
L 108.617143 303.292951 
L 134.125714 302.690559 
L 159.634286 301.824034 
L 185.142857 301.950076 
L 210.651429 302.085134 
L 236.16 302.207493 
L 261.668571 300.760972 
L 287.177143 300.879838 
L 312.685714 301.005008 
L 338.194286 299.503889 
L 363.702857 299.682756 
L 389.211429 299.560852 
L 414.72 299.732621 
" clip-path="url(#pb118f09aa9)" style="fill: none; stroke: #6f6f6f; stroke-width: 1.5; stroke-linecap: square"/>
   </g>
   <g id="line2d_25">
    <path d="M 57.6 304.792005 
L 83.108571 247.640318 
L 108.617143 226.190699 
L 134.125714 158.847389 
L 159.634286 144.206019 
L 185.142857 144.430557 
L 210.651429 144.65509 
L 236.16 140.168331 
L 261.668571 138.795573 
L 287.177143 138.963519 
L 312.685714 138.875789 
L 338.194286 131.714401 
L 363.702857 144.509604 
L 389.211429 153.550487 
L 414.72 118.366212 
" clip-path="url(#pb118f09aa9)" style="fill: none; stroke: #6f6f6f; stroke-width: 1.5; stroke-linecap: square"/>
   </g>
   <g id="line2d_26">
    <path d="M 57.6 307.010739 
L 83.108571 306.763515 
L 108.617143 306.703004 
L 134.125714 306.643517 
L 159.634286 306.584031 
L 185.142857 306.64735 
L 210.651429 306.710677 
L 236.16 306.774548 
L 261.668571 306.834857 
L 287.177143 306.896437 
L 312.685714 306.959534 
L 338.194286 307.022631 
L 363.702857 307.085559 
L 389.211429 307.148309 
L 414.72 305.041009 
" clip-path="url(#pb118f09aa9)" style="fill: none; stroke: #6f6f6f; stroke-width: 1.5; stroke-linecap: square"/>
   </g>
   <g id="line2d_27">
    <path d="M 57.6 304.567559 
L 83.108571 303.831143 
L 108.617143 292.567409 
L 134.125714 289.157588 
L 159.634286 276.045554 
L 185.142857 276.047662 
L 210.651429 275.627109 
L 236.16 275.99292 
L 261.668571 276.178443 
L 287.177143 276.368403 
L 312.685714 276.582329 
L 338.194286 267.958368 
L 363.702857 268.000504 
L 389.211429 268.28973 
L 414.72 263.720138 
" clip-path="url(#pb118f09aa9)" style="fill: none; stroke: #6f6f6f; stroke-width: 1.5; stroke-linecap: square"/>
   </g>
   <g id="line2d_28">
    <path d="M 57.6 307.057967 
L 83.108571 306.886486 
L 108.617143 306.673658 
L 134.125714 306.721606 
L 159.634286 306.835956 
L 185.142857 306.951976 
L 210.651429 306.991416 
L 236.16 307.087667 
L 261.668571 307.098807 
L 287.177143 307.113555 
L 312.685714 307.127556 
L 338.194286 307.13535 
L 363.702857 307.143527 
L 389.211429 307.383452 
L 414.72 307.429409 
" clip-path="url(#pb118f09aa9)" style="fill: none; stroke: #6f6f6f; stroke-width: 1.5; stroke-linecap: square"/>
   </g>
   <g id="line2d_29">
    <path d="M 57.6 306.885112 
L 83.108571 306.601864 
L 108.617143 306.304628 
L 134.125714 305.988191 
L 159.634286 305.680203 
L 185.142857 305.631802 
L 210.651429 305.606593 
L 236.16 305.64762 
L 261.668571 305.688086 
L 287.177143 305.728589 
L 312.685714 305.821414 
L 338.194286 298.110275 
L 363.702857 298.203015 
L 389.211429 262.649624 
L 414.72 253.415539 
" clip-path="url(#pb118f09aa9)" style="fill: none; stroke: #6f6f6f; stroke-width: 1.5; stroke-linecap: square"/>
   </g>
   <g id="line2d_30">
    <path d="M 57.6 307.54719 
L 83.108571 307.534179 
L 108.617143 307.531244 
L 134.125714 299.069047 
L 159.634286 299.069108 
L 185.142857 299.071419 
L 210.651429 299.072918 
L 236.16 299.072766 
L 261.668571 295.589241 
L 287.177143 295.588584 
L 312.685714 293.81096 
L 338.194286 293.763419 
L 363.702857 293.725037 
L 389.211429 292.919628 
L 414.72 290.607789 
" clip-path="url(#pb118f09aa9)" style="fill: none; stroke: #6f6f6f; stroke-width: 1.5; stroke-linecap: square"/>
   </g>
   <g id="line2d_31">
    <path d="M 57.6 304.40516 
L 83.108571 255.262111 
L 108.617143 189.425085 
L 134.125714 180.523768 
L 159.634286 176.378249 
L 185.142857 176.531939 
L 210.651429 176.68637 
L 236.16 176.821524 
L 261.668571 176.418784 
L 287.177143 175.74234 
L 312.685714 174.996562 
L 338.194286 172.446784 
L 363.702857 173.271396 
L 389.211429 142.61352 
L 414.72 133.190434 
" clip-path="url(#pb118f09aa9)" style="fill: none; stroke: #6f6f6f; stroke-width: 1.5; stroke-linecap: square"/>
   </g>
   <g id="line2d_32">
    <path d="M 57.6 306.395668 
L 83.108571 305.922534 
L 108.617143 305.835533 
L 134.125714 305.749759 
L 159.634286 305.66397 
L 185.142857 305.723045 
L 210.651429 305.782105 
L 236.16 305.840709 
L 261.668571 305.898825 
L 287.177143 305.956957 
L 312.685714 284.90355 
L 338.194286 284.650485 
L 363.702857 277.826476 
L 389.211429 271.825689 
L 414.72 271.462836 
" clip-path="url(#pb118f09aa9)" style="fill: none; stroke: #6f6f6f; stroke-width: 1.5; stroke-linecap: square"/>
   </g>
   <g id="line2d_33">
    <path d="M 57.6 307.584 
L 83.108571 307.584 
L 108.617143 307.584 
L 134.125714 307.584 
L 159.634286 307.584 
L 185.142857 307.584 
L 210.651429 307.584 
L 236.16 307.584 
L 261.668571 307.584 
L 287.177143 307.584 
L 312.685714 307.584 
L 338.194286 307.584 
L 363.702857 307.584 
L 389.211429 307.584 
L 414.72 307.584 
" clip-path="url(#pb118f09aa9)" style="fill: none; stroke: #6f6f6f; stroke-width: 1.5; stroke-linecap: square"/>
   </g>
   <g id="line2d_34">
    <path d="M 57.6 307.584 
L 83.108571 307.584 
L 108.617143 307.584 
L 134.125714 307.584 
L 159.634286 307.584 
L 185.142857 307.584 
L 210.651429 307.584 
L 236.16 307.584 
L 261.668571 307.584 
L 287.177143 307.584 
L 312.685714 307.584 
L 338.194286 307.584 
L 363.702857 307.584 
L 389.211429 307.584 
L 414.72 307.584 
" clip-path="url(#pb118f09aa9)" style="fill: none; stroke: #6f6f6f; stroke-width: 1.5; stroke-linecap: square"/>
   </g>
   <g id="line2d_35">
    <path d="M 57.6 307.584 
L 83.108571 307.584 
L 108.617143 307.584 
L 134.125714 307.584 
L 159.634286 307.584 
L 185.142857 307.584 
L 210.651429 307.584 
L 236.16 307.584 
L 261.668571 307.584 
L 287.177143 307.584 
L 312.685714 307.584 
L 338.194286 307.584 
L 363.702857 307.584 
L 389.211429 307.584 
L 414.72 307.584 
" clip-path="url(#pb118f09aa9)" style="fill: none; stroke: #6f6f6f; stroke-width: 1.5; stroke-linecap: square"/>
   </g>
   <g id="line2d_36">
    <path d="M 57.6 302.595885 
L 83.108571 300.689903 
L 108.617143 299.974963 
L 134.125714 286.351613 
L 159.634286 283.368304 
L 185.142857 283.958172 
L 210.651429 284.351709 
L 236.16 284.807949 
L 261.668571 285.080294 
L 287.177143 245.893681 
L 312.685714 232.235911 
L 338.194286 232.666765 
L 363.702857 203.530889 
L 389.211429 204.224297 
L 414.72 205.076882 
" clip-path="url(#pb118f09aa9)" style="fill: none; stroke: #6f6f6f; stroke-width: 1.5; stroke-linecap: square"/>
   </g>
   <g id="line2d_37">
    <path d="M 57.6 306.884371 
L 83.108571 306.600257 
L 108.617143 306.557473 
L 134.125714 306.551763 
L 159.634286 306.558348 
L 185.142857 306.611223 
L 210.651429 306.780286 
L 236.16 306.83783 
L 261.668571 306.872437 
L 287.177143 306.91826 
L 312.685714 306.965097 
L 338.194286 307.011941 
L 363.702857 307.069004 
L 389.211429 307.170448 
L 414.72 307.210065 
" clip-path="url(#pb118f09aa9)" style="fill: none; stroke: #6f6f6f; stroke-width: 1.5; stroke-linecap: square"/>
   </g>
   <g id="line2d_38">
    <path d="M 57.6 303.70118 
L 83.108571 301.504529 
L 108.617143 263.695606 
L 134.125714 255.650056 
L 159.634286 249.246339 
L 185.142857 249.373372 
L 210.651429 249.509064 
L 236.16 249.689113 
L 261.668571 244.178473 
L 287.177143 244.288073 
L 312.685714 240.645138 
L 338.194286 241.015602 
L 363.702857 238.976078 
L 389.211429 256.813059 
L 414.72 263.615771 
" clip-path="url(#pb118f09aa9)" style="fill: none; stroke: #6f6f6f; stroke-width: 1.5; stroke-linecap: square"/>
   </g>
   <g id="line2d_39">
    <path d="M 57.6 307.229172 
L 83.108571 305.087274 
L 108.617143 305.04982 
L 134.125714 305.013 
L 159.634286 302.837468 
L 185.142857 302.880634 
L 210.651429 302.923806 
L 236.16 302.967425 
L 261.668571 303.008236 
L 287.177143 303.050134 
L 312.685714 303.093301 
L 338.194286 303.136467 
L 363.702857 305.168222 
L 389.211429 305.210811 
L 414.72 305.245722 
" clip-path="url(#pb118f09aa9)" style="fill: none; stroke: #6f6f6f; stroke-width: 1.5; stroke-linecap: square"/>
   </g>
   <g id="line2d_40">
    <path d="M 57.6 306.714387 
L 83.108571 280.212827 
L 108.617143 269.759237 
L 134.125714 267.673753 
L 159.634286 266.385073 
L 185.142857 263.196163 
L 210.651429 259.715227 
L 236.16 259.321314 
L 261.668571 258.761508 
L 287.177143 259.965104 
L 312.685714 261.531637 
L 338.194286 263.214747 
L 363.702857 266.316752 
L 389.211429 257.404128 
L 414.72 258.697338 
" clip-path="url(#pb118f09aa9)" style="fill: none; stroke: #6f6f6f; stroke-width: 1.5; stroke-linecap: square"/>
   </g>
   <g id="line2d_41">
    <path d="M 57.6 306.988204 
L 83.108571 306.892099 
L 108.617143 304.061462 
L 134.125714 303.640493 
L 159.634286 303.155661 
L 185.142857 303.189827 
L 210.651429 300.286517 
L 236.16 294.65493 
L 261.668571 294.711361 
L 287.177143 294.767819 
L 312.685714 289.828214 
L 338.194286 289.575055 
L 363.702857 289.34811 
L 389.211429 286.738833 
L 414.72 286.593524 
" clip-path="url(#pb118f09aa9)" style="fill: none; stroke: #6f6f6f; stroke-width: 1.5; stroke-linecap: square"/>
   </g>
   <g id="line2d_42">
    <path d="M 57.6 307.584 
L 83.108571 302.467178 
L 108.617143 302.467178 
L 134.125714 302.467178 
L 159.634286 302.200302 
L 185.142857 302.200302 
L 210.651429 301.735545 
L 236.16 301.735545 
L 261.668571 301.735545 
L 287.177143 301.735545 
L 312.685714 301.735545 
L 338.194286 301.735545 
L 363.702857 301.735545 
L 389.211429 301.735545 
L 414.72 301.735545 
" clip-path="url(#pb118f09aa9)" style="fill: none; stroke: #6f6f6f; stroke-width: 1.5; stroke-linecap: square"/>
   </g>
   <g id="line2d_43">
    <path d="M 57.6 306.690981 
L 83.108571 288.350816 
L 108.617143 288.176844 
L 134.125714 276.252793 
L 159.634286 274.554695 
L 185.142857 274.618941 
L 210.651429 273.749072 
L 236.16 273.824508 
L 261.668571 273.875343 
L 287.177143 273.938112 
L 312.685714 274.037084 
L 338.194286 274.136104 
L 363.702857 274.847219 
L 389.211429 274.686405 
L 414.72 274.595113 
" clip-path="url(#pb118f09aa9)" style="fill: none; stroke: #6f6f6f; stroke-width: 1.5; stroke-linecap: square"/>
   </g>
   <g id="line2d_44">
    <path d="M 57.6 305.09732 
L 83.108571 304.194604 
L 108.617143 300.234828 
L 134.125714 299.4094 
L 159.634286 298.331159 
L 185.142857 298.546539 
L 210.651429 298.725519 
L 236.16 298.959834 
L 261.668571 299.125603 
L 287.177143 299.318221 
L 312.685714 299.554888 
L 338.194286 299.808812 
L 363.702857 298.071509 
L 389.211429 300.503705 
L 414.72 301.379598 
" clip-path="url(#pb118f09aa9)" style="fill: none; stroke: #6f6f6f; stroke-width: 1.5; stroke-linecap: square"/>
   </g>
   <g id="line2d_45">
    <path d="M 414.72 46.162137 
L 417.270857 46.162137 
L 419.821714 46.162137 
" clip-path="url(#pb118f09aa9)" style="fill: none; stroke-dasharray: 5.55,2.4; stroke-dashoffset: 0; stroke: #a30774; stroke-width: 1.5"/>
   </g>
   <g id="line2d_46">
    <path d="M 414.72 118.366212 
L 417.270857 118.366212 
L 419.821714 118.366212 
" clip-path="url(#pb118f09aa9)" style="fill: none; stroke-dasharray: 5.55,2.4; stroke-dashoffset: 0; stroke: #a30774; stroke-width: 1.5"/>
   </g>
   <g id="line2d_47">
    <path d="M 414.72 133.190434 
L 417.270857 133.190434 
L 419.821714 133.190434 
" clip-path="url(#pb118f09aa9)" style="fill: none; stroke-dasharray: 5.55,2.4; stroke-dashoffset: 0; stroke: #a30774; stroke-width: 1.5"/>
   </g>
   <g id="line2d_48">
    <path d="M 414.72 205.076882 
L 417.270857 205.076882 
L 419.821714 205.076882 
" clip-path="url(#pb118f09aa9)" style="fill: none; stroke-dasharray: 5.55,2.4; stroke-dashoffset: 0; stroke: #215caf; stroke-width: 1.5"/>
   </g>
   <g id="line2d_49">
    <path d="M 414.72 239.196898 
L 417.270857 239.196898 
L 419.821714 239.196898 
" clip-path="url(#pb118f09aa9)" style="fill: none; stroke-dasharray: 5.55,2.4; stroke-dashoffset: 0; stroke: #215caf; stroke-width: 1.5"/>
   </g>
   <g id="line2d_50">
    <path d="M 414.72 245.585333 
L 417.270857 245.585333 
L 419.821714 245.585333 
" clip-path="url(#pb118f09aa9)" style="fill: none; stroke-dasharray: 5.55,2.4; stroke-dashoffset: 0; stroke: #215caf; stroke-width: 1.5"/>
   </g>
   <g id="line2d_51">
    <path d="M 414.72 253.415539 
L 417.270857 253.415539 
L 419.821714 253.415539 
" clip-path="url(#pb118f09aa9)" style="fill: none; stroke-dasharray: 5.55,2.4; stroke-dashoffset: 0; stroke: #215caf; stroke-width: 1.5"/>
   </g>
   <g id="line2d_52">
    <path d="M 414.72 258.697338 
L 417.270857 258.697338 
L 419.821714 258.697338 
" clip-path="url(#pb118f09aa9)" style="fill: none; stroke-dasharray: 5.55,2.4; stroke-dashoffset: 0; stroke: #215caf; stroke-width: 1.5"/>
   </g>
   <g id="line2d_53">
    <path d="M 414.72 263.615771 
L 417.270857 263.615771 
L 419.821714 263.615771 
" clip-path="url(#pb118f09aa9)" style="fill: none; stroke-dasharray: 5.55,2.4; stroke-dashoffset: 0; stroke: #215caf; stroke-width: 1.5"/>
   </g>
   <g id="line2d_54">
    <path d="M 414.72 263.720138 
L 417.270857 263.720138 
L 419.821714 263.720138 
" clip-path="url(#pb118f09aa9)" style="fill: none; stroke-dasharray: 5.55,2.4; stroke-dashoffset: 0; stroke: #215caf; stroke-width: 1.5"/>
   </g>
   <g id="line2d_55">
    <path d="M 414.72 271.462836 
L 417.270857 271.462836 
L 419.821714 271.462836 
" clip-path="url(#pb118f09aa9)" style="fill: none; stroke-dasharray: 5.55,2.4; stroke-dashoffset: 0; stroke: #215caf; stroke-width: 1.5"/>
   </g>
   <g id="line2d_56">
    <path d="M 414.72 274.595113 
L 417.270857 274.595113 
L 419.821714 274.595113 
" clip-path="url(#pb118f09aa9)" style="fill: none; stroke-dasharray: 5.55,2.4; stroke-dashoffset: 0; stroke: #215caf; stroke-width: 1.5"/>
   </g>
   <g id="line2d_57">
    <path d="M 57.6 302.595885 
L 83.108571 300.689903 
L 108.617143 299.974963 
L 134.125714 286.351613 
L 159.634286 283.368304 
L 185.142857 283.958172 
L 210.651429 284.351709 
L 236.16 284.807949 
L 261.668571 285.080294 
L 287.177143 245.893681 
L 312.685714 232.235911 
L 338.194286 232.666765 
L 363.702857 203.530889 
L 389.211429 204.224297 
L 414.72 205.076882 
" clip-path="url(#pb118f09aa9)" style="fill: none; stroke: #215caf; stroke-width: 1.2; stroke-linecap: square"/>
   </g>
   <g id="line2d_58">
    <path d="M 57.6 306.922026 
L 83.108571 306.688284 
L 108.617143 304.920508 
L 134.125714 300.355824 
L 159.634286 284.527186 
L 185.142857 284.579304 
L 210.651429 284.707489 
L 236.16 282.884187 
L 261.668571 282.290608 
L 287.177143 276.626248 
L 312.685714 276.639697 
L 338.194286 266.206766 
L 363.702857 246.208176 
L 389.211429 239.102154 
L 414.72 239.196898 
" clip-path="url(#pb118f09aa9)" style="fill: none; stroke: #215caf; stroke-width: 1.2; stroke-linecap: square"/>
   </g>
   <g id="line2d_59">
    <path d="M 57.6 305.55463 
L 83.108571 303.615626 
L 108.617143 302.709354 
L 134.125714 302.180039 
L 159.634286 302.113353 
L 185.142857 302.21193 
L 210.651429 302.366531 
L 236.16 288.77408 
L 261.668571 261.544361 
L 287.177143 261.679587 
L 312.685714 261.818276 
L 338.194286 258.300367 
L 363.702857 258.656917 
L 389.211429 245.230818 
L 414.72 245.585333 
" clip-path="url(#pb118f09aa9)" style="fill: none; stroke: #215caf; stroke-width: 1.2; stroke-linecap: square"/>
   </g>
   <g id="line2d_60">
    <path d="M 57.6 306.885112 
L 83.108571 306.601864 
L 108.617143 306.304628 
L 134.125714 305.988191 
L 159.634286 305.680203 
L 185.142857 305.631802 
L 210.651429 305.606593 
L 236.16 305.64762 
L 261.668571 305.688086 
L 287.177143 305.728589 
L 312.685714 305.821414 
L 338.194286 298.110275 
L 363.702857 298.203015 
L 389.211429 262.649624 
L 414.72 253.415539 
" clip-path="url(#pb118f09aa9)" style="fill: none; stroke: #215caf; stroke-width: 1.2; stroke-linecap: square"/>
   </g>
   <g id="line2d_61">
    <path d="M 57.6 306.714387 
L 83.108571 280.212827 
L 108.617143 269.759237 
L 134.125714 267.673753 
L 159.634286 266.385073 
L 185.142857 263.196163 
L 210.651429 259.715227 
L 236.16 259.321314 
L 261.668571 258.761508 
L 287.177143 259.965104 
L 312.685714 261.531637 
L 338.194286 263.214747 
L 363.702857 266.316752 
L 389.211429 257.404128 
L 414.72 258.697338 
" clip-path="url(#pb118f09aa9)" style="fill: none; stroke: #215caf; stroke-width: 1.2; stroke-linecap: square"/>
   </g>
   <g id="line2d_62">
    <path d="M 57.6 303.70118 
L 83.108571 301.504529 
L 108.617143 263.695606 
L 134.125714 255.650056 
L 159.634286 249.246339 
L 185.142857 249.373372 
L 210.651429 249.509064 
L 236.16 249.689113 
L 261.668571 244.178473 
L 287.177143 244.288073 
L 312.685714 240.645138 
L 338.194286 241.015602 
L 363.702857 238.976078 
L 389.211429 256.813059 
L 414.72 263.615771 
" clip-path="url(#pb118f09aa9)" style="fill: none; stroke: #215caf; stroke-width: 1.2; stroke-linecap: square"/>
   </g>
   <g id="line2d_63">
    <path d="M 57.6 304.567559 
L 83.108571 303.831143 
L 108.617143 292.567409 
L 134.125714 289.157588 
L 159.634286 276.045554 
L 185.142857 276.047662 
L 210.651429 275.627109 
L 236.16 275.99292 
L 261.668571 276.178443 
L 287.177143 276.368403 
L 312.685714 276.582329 
L 338.194286 267.958368 
L 363.702857 268.000504 
L 389.211429 268.28973 
L 414.72 263.720138 
" clip-path="url(#pb118f09aa9)" style="fill: none; stroke: #215caf; stroke-width: 1.2; stroke-linecap: square"/>
   </g>
   <g id="line2d_64">
    <path d="M 57.6 306.395668 
L 83.108571 305.922534 
L 108.617143 305.835533 
L 134.125714 305.749759 
L 159.634286 305.66397 
L 185.142857 305.723045 
L 210.651429 305.782105 
L 236.16 305.840709 
L 261.668571 305.898825 
L 287.177143 305.956957 
L 312.685714 284.90355 
L 338.194286 284.650485 
L 363.702857 277.826476 
L 389.211429 271.825689 
L 414.72 271.462836 
" clip-path="url(#pb118f09aa9)" style="fill: none; stroke: #215caf; stroke-width: 1.2; stroke-linecap: square"/>
   </g>
   <g id="line2d_65">
    <path d="M 57.6 306.690981 
L 83.108571 288.350816 
L 108.617143 288.176844 
L 134.125714 276.252793 
L 159.634286 274.554695 
L 185.142857 274.618941 
L 210.651429 273.749072 
L 236.16 273.824508 
L 261.668571 273.875343 
L 287.177143 273.938112 
L 312.685714 274.037084 
L 338.194286 274.136104 
L 363.702857 274.847219 
L 389.211429 274.686405 
L 414.72 274.595113 
" clip-path="url(#pb118f09aa9)" style="fill: none; stroke: #215caf; stroke-width: 1.2; stroke-linecap: square"/>
   </g>
   <g id="patch_3">
    <path d="M 57.6 307.584 
L 57.6 41.472 
" style="fill: none; stroke: #000000; stroke-width: 0.8; stroke-linejoin: miter; stroke-linecap: square"/>
   </g>
   <g id="patch_4">
    <path d="M 57.6 307.584 
L 414.72 307.584 
" style="fill: none; stroke: #000000; stroke-width: 0.8; stroke-linejoin: miter; stroke-linecap: square"/>
   </g>
   <g id="text_17">
    <!-- DE -->
    <g transform="translate(421.097143 48.921512) scale(0.1 -0.1)">
     <defs>
      <path id="DejaVuSans-Bold-44" d="M 1791 3756 
L 1791 909 
L 2222 909 
Q 2959 909 3348 1275 
Q 3738 1641 3738 2338 
Q 3738 3031 3350 3393 
Q 2963 3756 2222 3756 
L 1791 3756 
z
M 588 4666 
L 1856 4666 
Q 2919 4666 3439 4514 
Q 3959 4363 4331 4000 
Q 4659 3684 4818 3271 
Q 4978 2859 4978 2338 
Q 4978 1809 4818 1395 
Q 4659 981 4331 666 
Q 3956 303 3431 151 
Q 2906 0 1856 0 
L 588 0 
L 588 4666 
z
" transform="scale(0.015625)"/>
      <path id="DejaVuSans-Bold-45" d="M 588 4666 
L 3834 4666 
L 3834 3756 
L 1791 3756 
L 1791 2888 
L 3713 2888 
L 3713 1978 
L 1791 1978 
L 1791 909 
L 3903 909 
L 3903 0 
L 588 0 
L 588 4666 
z
" transform="scale(0.015625)"/>
     </defs>
     <use xlink:href="#DejaVuSans-Bold-44"/>
     <use xlink:href="#DejaVuSans-Bold-45" x="83.007812"/>
    </g>
   </g>
   <g id="text_18">
    <!-- ES -->
    <g transform="translate(421.097143 121.125587) scale(0.1 -0.1)">
     <defs>
      <path id="DejaVuSans-Bold-53" d="M 3834 4519 
L 3834 3531 
Q 3450 3703 3084 3790 
Q 2719 3878 2394 3878 
Q 1963 3878 1756 3759 
Q 1550 3641 1550 3391 
Q 1550 3203 1689 3098 
Q 1828 2994 2194 2919 
L 2706 2816 
Q 3484 2659 3812 2340 
Q 4141 2022 4141 1434 
Q 4141 663 3683 286 
Q 3225 -91 2284 -91 
Q 1841 -91 1394 -6 
Q 947 78 500 244 
L 500 1259 
Q 947 1022 1364 901 
Q 1781 781 2169 781 
Q 2563 781 2772 912 
Q 2981 1044 2981 1288 
Q 2981 1506 2839 1625 
Q 2697 1744 2272 1838 
L 1806 1941 
Q 1106 2091 782 2419 
Q 459 2747 459 3303 
Q 459 4000 909 4375 
Q 1359 4750 2203 4750 
Q 2588 4750 2994 4692 
Q 3400 4634 3834 4519 
z
" transform="scale(0.015625)"/>
     </defs>
     <use xlink:href="#DejaVuSans-Bold-45"/>
     <use xlink:href="#DejaVuSans-Bold-53" x="68.310547"/>
    </g>
   </g>
   <g id="text_19">
    <!-- IT -->
    <g transform="translate(421.097143 135.949809) scale(0.1 -0.1)">
     <defs>
      <path id="DejaVuSans-Bold-49" d="M 588 4666 
L 1791 4666 
L 1791 0 
L 588 0 
L 588 4666 
z
" transform="scale(0.015625)"/>
      <path id="DejaVuSans-Bold-54" d="M 31 4666 
L 4331 4666 
L 4331 3756 
L 2784 3756 
L 2784 0 
L 1581 0 
L 1581 3756 
L 31 3756 
L 31 4666 
z
" transform="scale(0.015625)"/>
     </defs>
     <use xlink:href="#DejaVuSans-Bold-49"/>
     <use xlink:href="#DejaVuSans-Bold-54" x="37.207031"/>
    </g>
   </g>
   <g id="text_20">
    <!-- NL -->
    <g transform="translate(421.097143 207.836257) scale(0.1 -0.1)">
     <defs>
      <path id="DejaVuSans-Bold-4e" d="M 588 4666 
L 1931 4666 
L 3628 1466 
L 3628 4666 
L 4769 4666 
L 4769 0 
L 3425 0 
L 1728 3200 
L 1728 0 
L 588 0 
L 588 4666 
z
" transform="scale(0.015625)"/>
      <path id="DejaVuSans-Bold-4c" d="M 588 4666 
L 1791 4666 
L 1791 909 
L 3903 909 
L 3903 0 
L 588 0 
L 588 4666 
z
" transform="scale(0.015625)"/>
     </defs>
     <use xlink:href="#DejaVuSans-Bold-4e"/>
     <use xlink:href="#DejaVuSans-Bold-4c" x="83.691406"/>
    </g>
   </g>
   <g id="text_21">
    <!-- CZ -->
    <g transform="translate(421.097143 241.956273) scale(0.1 -0.1)">
     <defs>
      <path id="DejaVuSans-Bold-43" d="M 4288 256 
Q 3956 84 3597 -3 
Q 3238 -91 2847 -91 
Q 1681 -91 1000 561 
Q 319 1213 319 2328 
Q 319 3447 1000 4098 
Q 1681 4750 2847 4750 
Q 3238 4750 3597 4662 
Q 3956 4575 4288 4403 
L 4288 3438 
Q 3953 3666 3628 3772 
Q 3303 3878 2944 3878 
Q 2300 3878 1931 3465 
Q 1563 3053 1563 2328 
Q 1563 1606 1931 1193 
Q 2300 781 2944 781 
Q 3303 781 3628 887 
Q 3953 994 4288 1222 
L 4288 256 
z
" transform="scale(0.015625)"/>
      <path id="DejaVuSans-Bold-5a" d="M 359 4666 
L 4281 4666 
L 4281 3938 
L 1778 909 
L 4353 909 
L 4353 0 
L 288 0 
L 288 728 
L 2791 3756 
L 359 3756 
L 359 4666 
z
" transform="scale(0.015625)"/>
     </defs>
     <use xlink:href="#DejaVuSans-Bold-43"/>
     <use xlink:href="#DejaVuSans-Bold-5a" x="73.388672"/>
    </g>
   </g>
   <g id="text_22">
    <!-- BE -->
    <g transform="translate(421.097143 248.344708) scale(0.1 -0.1)">
     <defs>
      <path id="DejaVuSans-Bold-42" d="M 2456 2859 
Q 2741 2859 2887 2984 
Q 3034 3109 3034 3353 
Q 3034 3594 2887 3720 
Q 2741 3847 2456 3847 
L 1791 3847 
L 1791 2859 
L 2456 2859 
z
M 2497 819 
Q 2859 819 3042 972 
Q 3225 1125 3225 1434 
Q 3225 1738 3044 1889 
Q 2863 2041 2497 2041 
L 1791 2041 
L 1791 819 
L 2497 819 
z
M 3616 2497 
Q 4003 2384 4215 2081 
Q 4428 1778 4428 1338 
Q 4428 663 3972 331 
Q 3516 0 2584 0 
L 588 0 
L 588 4666 
L 2394 4666 
Q 3366 4666 3802 4372 
Q 4238 4078 4238 3431 
Q 4238 3091 4078 2852 
Q 3919 2613 3616 2497 
z
" transform="scale(0.015625)"/>
     </defs>
     <use xlink:href="#DejaVuSans-Bold-42"/>
     <use xlink:href="#DejaVuSans-Bold-45" x="76.220703"/>
    </g>
   </g>
   <g id="text_23">
    <!-- HU -->
    <g transform="translate(421.097143 256.174914) scale(0.1 -0.1)">
     <defs>
      <path id="DejaVuSans-Bold-48" d="M 588 4666 
L 1791 4666 
L 1791 2888 
L 3566 2888 
L 3566 4666 
L 4769 4666 
L 4769 0 
L 3566 0 
L 3566 1978 
L 1791 1978 
L 1791 0 
L 588 0 
L 588 4666 
z
" transform="scale(0.015625)"/>
      <path id="DejaVuSans-Bold-55" d="M 588 4666 
L 1791 4666 
L 1791 1869 
Q 1791 1291 1980 1042 
Q 2169 794 2597 794 
Q 3028 794 3217 1042 
Q 3406 1291 3406 1869 
L 3406 4666 
L 4609 4666 
L 4609 1869 
Q 4609 878 4112 393 
Q 3616 -91 2597 -91 
Q 1581 -91 1084 393 
Q 588 878 588 1869 
L 588 4666 
z
" transform="scale(0.015625)"/>
     </defs>
     <use xlink:href="#DejaVuSans-Bold-48"/>
     <use xlink:href="#DejaVuSans-Bold-55" x="83.691406"/>
    </g>
   </g>
   <g id="text_24">
    <!-- RO -->
    <g transform="translate(421.097143 261.456713) scale(0.1 -0.1)">
     <defs>
      <path id="DejaVuSans-Bold-52" d="M 2297 2597 
Q 2675 2597 2839 2737 
Q 3003 2878 3003 3200 
Q 3003 3519 2839 3656 
Q 2675 3794 2297 3794 
L 1791 3794 
L 1791 2597 
L 2297 2597 
z
M 1791 1766 
L 1791 0 
L 588 0 
L 588 4666 
L 2425 4666 
Q 3347 4666 3776 4356 
Q 4206 4047 4206 3378 
Q 4206 2916 3982 2619 
Q 3759 2322 3309 2181 
Q 3556 2125 3751 1926 
Q 3947 1728 4147 1325 
L 4800 0 
L 3519 0 
L 2950 1159 
Q 2778 1509 2601 1637 
Q 2425 1766 2131 1766 
L 1791 1766 
z
" transform="scale(0.015625)"/>
      <path id="DejaVuSans-Bold-4f" d="M 2719 3878 
Q 2169 3878 1866 3472 
Q 1563 3066 1563 2328 
Q 1563 1594 1866 1187 
Q 2169 781 2719 781 
Q 3272 781 3575 1187 
Q 3878 1594 3878 2328 
Q 3878 3066 3575 3472 
Q 3272 3878 2719 3878 
z
M 2719 4750 
Q 3844 4750 4481 4106 
Q 5119 3463 5119 2328 
Q 5119 1197 4481 553 
Q 3844 -91 2719 -91 
Q 1597 -91 958 553 
Q 319 1197 319 2328 
Q 319 3463 958 4106 
Q 1597 4750 2719 4750 
z
" transform="scale(0.015625)"/>
     </defs>
     <use xlink:href="#DejaVuSans-Bold-52"/>
     <use xlink:href="#DejaVuSans-Bold-4f" x="77.001953"/>
    </g>
   </g>
   <g id="text_25">
    <!-- PL -->
    <g transform="translate(421.097143 266.375146) scale(0.1 -0.1)">
     <defs>
      <path id="DejaVuSans-Bold-50" d="M 588 4666 
L 2584 4666 
Q 3475 4666 3951 4270 
Q 4428 3875 4428 3144 
Q 4428 2409 3951 2014 
Q 3475 1619 2584 1619 
L 1791 1619 
L 1791 0 
L 588 0 
L 588 4666 
z
M 1791 3794 
L 1791 2491 
L 2456 2491 
Q 2806 2491 2997 2661 
Q 3188 2831 3188 3144 
Q 3188 3456 2997 3625 
Q 2806 3794 2456 3794 
L 1791 3794 
z
" transform="scale(0.015625)"/>
     </defs>
     <use xlink:href="#DejaVuSans-Bold-50"/>
     <use xlink:href="#DejaVuSans-Bold-4c" x="73.291016"/>
    </g>
   </g>
   <g id="text_26">
    <!-- FR -->
    <g transform="translate(421.097143 266.479513) scale(0.1 -0.1)">
     <defs>
      <path id="DejaVuSans-Bold-46" d="M 588 4666 
L 3834 4666 
L 3834 3756 
L 1791 3756 
L 1791 2888 
L 3713 2888 
L 3713 1978 
L 1791 1978 
L 1791 0 
L 588 0 
L 588 4666 
z
" transform="scale(0.015625)"/>
     </defs>
     <use xlink:href="#DejaVuSans-Bold-46"/>
     <use xlink:href="#DejaVuSans-Bold-52" x="68.310547"/>
    </g>
   </g>
   <g id="text_27">
    <!-- LT -->
    <g transform="translate(421.097143 274.222211) scale(0.1 -0.1)">
     <use xlink:href="#DejaVuSans-Bold-4c"/>
     <use xlink:href="#DejaVuSans-Bold-54" x="47.220703"/>
    </g>
   </g>
   <g id="text_28">
    <!-- SK -->
    <g transform="translate(421.097143 277.354488) scale(0.1 -0.1)">
     <defs>
      <path id="DejaVuSans-Bold-4b" d="M 588 4666 
L 1791 4666 
L 1791 2963 
L 3525 4666 
L 4922 4666 
L 2675 2456 
L 5153 0 
L 3647 0 
L 1791 1838 
L 1791 0 
L 588 0 
L 588 4666 
z
" transform="scale(0.015625)"/>
     </defs>
     <use xlink:href="#DejaVuSans-Bold-53"/>
     <use xlink:href="#DejaVuSans-Bold-4b" x="72.021484"/>
    </g>
   </g>
   <g id="line2d_66">
    <path d="M 57.6 301.600372 
L 83.108571 190.407466 
L 108.617143 162.362409 
L 134.125714 116.232975 
L 159.634286 85.075711 
L 185.142857 84.946203 
L 210.651429 85.363033 
L 236.16 63.812999 
L 261.668571 58.286039 
L 287.177143 56.143346 
L 312.685714 55.573226 
L 338.194286 56.190905 
L 363.702857 54.283893 
L 389.211429 45.588598 
L 414.72 46.162137 
" clip-path="url(#pb118f09aa9)" style="fill: none; stroke: #a30774; stroke-width: 1.2; stroke-linecap: square"/>
   </g>
   <g id="line2d_67">
    <path d="M 57.6 304.792005 
L 83.108571 247.640318 
L 108.617143 226.190699 
L 134.125714 158.847389 
L 159.634286 144.206019 
L 185.142857 144.430557 
L 210.651429 144.65509 
L 236.16 140.168331 
L 261.668571 138.795573 
L 287.177143 138.963519 
L 312.685714 138.875789 
L 338.194286 131.714401 
L 363.702857 144.509604 
L 389.211429 153.550487 
L 414.72 118.366212 
" clip-path="url(#pb118f09aa9)" style="fill: none; stroke: #a30774; stroke-width: 1.2; stroke-linecap: square"/>
   </g>
   <g id="line2d_68">
    <path d="M 57.6 304.40516 
L 83.108571 255.262111 
L 108.617143 189.425085 
L 134.125714 180.523768 
L 159.634286 176.378249 
L 185.142857 176.531939 
L 210.651429 176.68637 
L 236.16 176.821524 
L 261.668571 176.418784 
L 287.177143 175.74234 
L 312.685714 174.996562 
L 338.194286 172.446784 
L 363.702857 173.271396 
L 389.211429 142.61352 
L 414.72 133.190434 
" clip-path="url(#pb118f09aa9)" style="fill: none; stroke: #a30774; stroke-width: 1.2; stroke-linecap: square"/>
   </g>
  </g>
 </g>
 <defs>
  <clipPath id="pb118f09aa9">
   <rect x="57.6" y="41.472" width="357.12" height="266.112"/>
  </clipPath>
 </defs>
</svg>
