<?xml version="1.0" encoding="utf-8" standalone="no"?>
<!DOCTYPE svg PUBLIC "-//W3C//DTD SVG 1.1//EN"
  "http://www.w3.org/Graphics/SVG/1.1/DTD/svg11.dtd">
<svg xmlns:xlink="http://www.w3.org/1999/xlink" width="1440pt" height="720pt" viewBox="0 0 1440 720" xmlns="http://www.w3.org/2000/svg" version="1.1">
 <metadata>
  <rdf:RDF xmlns:dc="http://purl.org/dc/elements/1.1/" xmlns:cc="http://creativecommons.org/ns#" xmlns:rdf="http://www.w3.org/1999/02/22-rdf-syntax-ns#">
   <cc:Work>
    <dc:type rdf:resource="http://purl.org/dc/dcmitype/StillImage"/>
    <dc:date>2024-05-14T17:55:39.342033</dc:date>
    <dc:format>image/svg+xml</dc:format>
    <dc:creator>
     <cc:Agent>
      <dc:title>Matplotlib v3.8.4, https://matplotlib.org/</dc:title>
     </cc:Agent>
    </dc:creator>
   </cc:Work>
  </rdf:RDF>
 </metadata>
 <defs>
  <style type="text/css">*{stroke-linejoin: round; stroke-linecap: butt}</style>
 </defs>
 <g id="figure_1">
  <g id="patch_1">
   <path d="M 0 720 
L 1440 720 
L 1440 0 
L 0 0 
z
" style="fill: #ffffff"/>
  </g>
  <g id="axes_1">
   <g id="patch_2">
    <path d="M 180 640.8 
L 1296 640.8 
L 1296 86.4 
L 180 86.4 
z
" style="fill: #ffffff"/>
   </g>
   <g id="patch_3">
    <path d="M 230.727273 640.8 
L 244.026558 640.8 
L 244.026558 637.535281 
L 230.727273 637.535281 
z
" clip-path="url(#p002e869255)" style="fill: #17becf"/>
   </g>
   <g id="patch_4">
    <path d="M 268.72523 640.8 
L 282.024515 640.8 
L 282.024515 636.834477 
L 268.72523 636.834477 
z
" clip-path="url(#p002e869255)" style="fill: #17becf"/>
   </g>
   <g id="patch_5">
    <path d="M 306.723187 640.8 
L 320.022472 640.8 
L 320.022472 635.45361 
L 306.723187 635.45361 
z
" clip-path="url(#p002e869255)" style="fill: #17becf"/>
   </g>
   <g id="patch_6">
    <path d="M 344.721144 640.8 
L 358.020429 640.8 
L 358.020429 634.483967 
L 344.721144 634.483967 
z
" clip-path="url(#p002e869255)" style="fill: #17becf"/>
   </g>
   <g id="patch_7">
    <path d="M 382.719101 640.8 
L 396.018386 640.8 
L 396.018386 629.946071 
L 382.719101 629.946071 
z
" clip-path="url(#p002e869255)" style="fill: #17becf"/>
   </g>
   <g id="patch_8">
    <path d="M 420.717058 640.8 
L 434.016343 640.8 
L 434.016343 625.912255 
L 420.717058 625.912255 
z
" clip-path="url(#p002e869255)" style="fill: #17becf"/>
   </g>
   <g id="patch_9">
    <path d="M 458.715015 640.8 
L 472.0143 640.8 
L 472.0143 574.156731 
L 458.715015 574.156731 
z
" clip-path="url(#p002e869255)" style="fill: #17becf"/>
   </g>
   <g id="patch_10">
    <path d="M 496.712972 640.8 
L 510.012257 640.8 
L 510.012257 570.83038 
L 496.712972 570.83038 
z
" clip-path="url(#p002e869255)" style="fill: #17becf"/>
   </g>
   <g id="patch_11">
    <path d="M 534.71093 640.8 
L 548.010215 640.8 
L 548.010215 566.117091 
L 534.71093 566.117091 
z
" clip-path="url(#p002e869255)" style="fill: #17becf"/>
   </g>
   <g id="patch_12">
    <path d="M 572.708887 640.8 
L 586.008172 640.8 
L 586.008172 546.94351 
L 572.708887 546.94351 
z
" clip-path="url(#p002e869255)" style="fill: #17becf"/>
   </g>
   <g id="patch_13">
    <path d="M 610.706844 640.8 
L 624.006129 640.8 
L 624.006129 523.69209 
L 610.706844 523.69209 
z
" clip-path="url(#p002e869255)" style="fill: #17becf"/>
   </g>
   <g id="patch_14">
    <path d="M 648.704801 640.8 
L 662.004086 640.8 
L 662.004086 510.1443 
L 648.704801 510.1443 
z
" clip-path="url(#p002e869255)" style="fill: #17becf"/>
   </g>
   <g id="patch_15">
    <path d="M 686.702758 640.8 
L 700.002043 640.8 
L 700.002043 485.948877 
L 686.702758 485.948877 
z
" clip-path="url(#p002e869255)" style="fill: #17becf"/>
   </g>
   <g id="patch_16">
    <path d="M 724.700715 640.8 
L 738 640.8 
L 738 475.261301 
L 724.700715 475.261301 
z
" clip-path="url(#p002e869255)" style="fill: #17becf"/>
   </g>
   <g id="patch_17">
    <path d="M 762.698672 640.8 
L 775.997957 640.8 
L 775.997957 449.236943 
L 762.698672 449.236943 
z
" clip-path="url(#p002e869255)" style="fill: #17becf"/>
   </g>
   <g id="patch_18">
    <path d="M 800.696629 640.8 
L 813.995914 640.8 
L 813.995914 438.319526 
L 800.696629 438.319526 
z
" clip-path="url(#p002e869255)" style="fill: #17becf"/>
   </g>
   <g id="patch_19">
    <path d="M 838.694586 640.8 
L 851.993871 640.8 
L 851.993871 432.027433 
L 838.694586 432.027433 
z
" clip-path="url(#p002e869255)" style="fill: #17becf"/>
   </g>
   <g id="patch_20">
    <path d="M 876.692543 640.8 
L 889.991828 640.8 
L 889.991828 418.246338 
L 876.692543 418.246338 
z
" clip-path="url(#p002e869255)" style="fill: #17becf"/>
   </g>
   <g id="patch_21">
    <path d="M 914.690501 640.8 
L 927.989785 640.8 
L 927.989785 406.387698 
L 914.690501 406.387698 
z
" clip-path="url(#p002e869255)" style="fill: #17becf"/>
   </g>
   <g id="patch_22">
    <path d="M 952.688458 640.8 
L 965.987743 640.8 
L 965.987743 395.451146 
L 952.688458 395.451146 
z
" clip-path="url(#p002e869255)" style="fill: #17becf"/>
   </g>
   <g id="patch_23">
    <path d="M 990.686415 640.8 
L 1003.9857 640.8 
L 1003.9857 375.994305 
L 990.686415 375.994305 
z
" clip-path="url(#p002e869255)" style="fill: #17becf"/>
   </g>
   <g id="patch_24">
    <path d="M 1028.684372 640.8 
L 1041.983657 640.8 
L 1041.983657 366.795996 
L 1028.684372 366.795996 
z
" clip-path="url(#p002e869255)" style="fill: #17becf"/>
   </g>
   <g id="patch_25">
    <path d="M 1066.682329 640.8 
L 1079.981614 640.8 
L 1079.981614 355.51527 
L 1066.682329 355.51527 
z
" clip-path="url(#p002e869255)" style="fill: #17becf"/>
   </g>
   <g id="patch_26">
    <path d="M 1104.680286 640.8 
L 1117.979571 640.8 
L 1117.979571 339.180454 
L 1104.680286 339.180454 
z
" clip-path="url(#p002e869255)" style="fill: #17becf"/>
   </g>
   <g id="patch_27">
    <path d="M 1142.678243 640.8 
L 1155.977528 640.8 
L 1155.977528 334.152738 
L 1142.678243 334.152738 
z
" clip-path="url(#p002e869255)" style="fill: #17becf"/>
   </g>
   <g id="patch_28">
    <path d="M 1180.6762 640.8 
L 1193.975485 640.8 
L 1193.975485 297.448701 
L 1180.6762 297.448701 
z
" clip-path="url(#p002e869255)" style="fill: #17becf"/>
   </g>
   <g id="patch_29">
    <path d="M 1218.674157 640.8 
L 1231.973442 640.8 
L 1231.973442 279.100537 
L 1218.674157 279.100537 
z
" clip-path="url(#p002e869255)" style="fill: #17becf"/>
   </g>
   <g id="patch_30">
    <path d="M 230.727273 640.8 
L 244.026558 640.8 
L 244.026558 640.612363 
L 230.727273 640.612363 
z
" clip-path="url(#p002e869255)" style="fill: #e377c2"/>
   </g>
   <g id="patch_31">
    <path d="M 268.72523 640.8 
L 282.024515 640.8 
L 282.024515 640.461743 
L 268.72523 640.461743 
z
" clip-path="url(#p002e869255)" style="fill: #e377c2"/>
   </g>
   <g id="patch_32">
    <path d="M 306.723187 640.8 
L 320.022472 640.8 
L 320.022472 640.508265 
L 306.723187 640.508265 
z
" clip-path="url(#p002e869255)" style="fill: #e377c2"/>
   </g>
   <g id="patch_33">
    <path d="M 344.721144 640.8 
L 358.020429 640.8 
L 358.020429 640.364991 
L 344.721144 640.364991 
z
" clip-path="url(#p002e869255)" style="fill: #e377c2"/>
   </g>
   <g id="patch_34">
    <path d="M 382.719101 640.8 
L 396.018386 640.8 
L 396.018386 640.422821 
L 382.719101 640.422821 
z
" clip-path="url(#p002e869255)" style="fill: #e377c2"/>
   </g>
   <g id="patch_35">
    <path d="M 420.717058 640.8 
L 434.016343 640.8 
L 434.016343 640.335076 
L 420.717058 640.335076 
z
" clip-path="url(#p002e869255)" style="fill: #e377c2"/>
   </g>
   <g id="patch_36">
    <path d="M 458.715015 640.8 
L 472.0143 640.8 
L 472.0143 639.753082 
L 458.715015 639.753082 
z
" clip-path="url(#p002e869255)" style="fill: #e377c2"/>
   </g>
   <g id="patch_37">
    <path d="M 496.712972 640.8 
L 510.012257 640.8 
L 510.012257 639.921781 
L 496.712972 639.921781 
z
" clip-path="url(#p002e869255)" style="fill: #e377c2"/>
   </g>
   <g id="patch_38">
    <path d="M 534.71093 640.8 
L 548.010215 640.8 
L 548.010215 639.934995 
L 534.71093 639.934995 
z
" clip-path="url(#p002e869255)" style="fill: #e377c2"/>
   </g>
   <g id="patch_39">
    <path d="M 572.708887 640.8 
L 586.008172 640.8 
L 586.008172 639.802155 
L 572.708887 639.802155 
z
" clip-path="url(#p002e869255)" style="fill: #e377c2"/>
   </g>
   <g id="patch_40">
    <path d="M 610.706844 640.8 
L 624.006129 640.8 
L 624.006129 639.811035 
L 610.706844 639.811035 
z
" clip-path="url(#p002e869255)" style="fill: #e377c2"/>
   </g>
   <g id="patch_41">
    <path d="M 648.704801 640.8 
L 662.004086 640.8 
L 662.004086 639.862403 
L 648.704801 639.862403 
z
" clip-path="url(#p002e869255)" style="fill: #e377c2"/>
   </g>
   <g id="patch_42">
    <path d="M 686.702758 640.8 
L 700.002043 640.8 
L 700.002043 639.564722 
L 686.702758 639.564722 
z
" clip-path="url(#p002e869255)" style="fill: #e377c2"/>
   </g>
   <g id="patch_43">
    <path d="M 724.700715 640.8 
L 738 640.8 
L 738 639.615 
L 724.700715 639.615 
z
" clip-path="url(#p002e869255)" style="fill: #e377c2"/>
   </g>
   <g id="patch_44">
    <path d="M 762.698672 640.8 
L 775.997957 640.8 
L 775.997957 639.650003 
L 762.698672 639.650003 
z
" clip-path="url(#p002e869255)" style="fill: #e377c2"/>
   </g>
   <g id="patch_45">
    <path d="M 800.696629 640.8 
L 813.995914 640.8 
L 813.995914 639.671542 
L 800.696629 639.671542 
z
" clip-path="url(#p002e869255)" style="fill: #e377c2"/>
   </g>
   <g id="patch_46">
    <path d="M 838.694586 640.8 
L 851.993871 640.8 
L 851.993871 639.714892 
L 838.694586 639.714892 
z
" clip-path="url(#p002e869255)" style="fill: #e377c2"/>
   </g>
   <g id="patch_47">
    <path d="M 876.692543 640.8 
L 889.991828 640.8 
L 889.991828 639.730298 
L 876.692543 639.730298 
z
" clip-path="url(#p002e869255)" style="fill: #e377c2"/>
   </g>
   <g id="patch_48">
    <path d="M 914.690501 640.8 
L 927.989785 640.8 
L 927.989785 639.788773 
L 914.690501 639.788773 
z
" clip-path="url(#p002e869255)" style="fill: #e377c2"/>
   </g>
   <g id="patch_49">
    <path d="M 952.688458 640.8 
L 965.987743 640.8 
L 965.987743 639.813016 
L 952.688458 639.813016 
z
" clip-path="url(#p002e869255)" style="fill: #e377c2"/>
   </g>
   <g id="patch_50">
    <path d="M 990.686415 640.8 
L 1003.9857 640.8 
L 1003.9857 639.819563 
L 990.686415 639.819563 
z
" clip-path="url(#p002e869255)" style="fill: #e377c2"/>
   </g>
   <g id="patch_51">
    <path d="M 1028.684372 640.8 
L 1041.983657 640.8 
L 1041.983657 639.936282 
L 1028.684372 639.936282 
z
" clip-path="url(#p002e869255)" style="fill: #e377c2"/>
   </g>
   <g id="patch_52">
    <path d="M 1066.682329 640.8 
L 1079.981614 640.8 
L 1079.981614 640.144589 
L 1066.682329 640.144589 
z
" clip-path="url(#p002e869255)" style="fill: #e377c2"/>
   </g>
   <g id="patch_53">
    <path d="M 1104.680286 640.8 
L 1117.979571 640.8 
L 1117.979571 640.156725 
L 1104.680286 640.156725 
z
" clip-path="url(#p002e869255)" style="fill: #e377c2"/>
   </g>
   <g id="patch_54">
    <path d="M 1142.678243 640.8 
L 1155.977528 640.8 
L 1155.977528 640.280942 
L 1142.678243 640.280942 
z
" clip-path="url(#p002e869255)" style="fill: #e377c2"/>
   </g>
   <g id="patch_55">
    <path d="M 1180.6762 640.8 
L 1193.975485 640.8 
L 1193.975485 640.344473 
L 1180.6762 640.344473 
z
" clip-path="url(#p002e869255)" style="fill: #e377c2"/>
   </g>
   <g id="patch_56">
    <path d="M 1218.674157 640.8 
L 1231.973442 640.8 
L 1231.973442 640.455114 
L 1218.674157 640.455114 
z
" clip-path="url(#p002e869255)" style="fill: #e377c2"/>
   </g>
   <g id="patch_57">
    <path d="M 230.727273 640.8 
L 244.026558 640.8 
L 244.026558 640.8 
L 230.727273 640.8 
z
" clip-path="url(#p002e869255)" style="fill: #1f77b4"/>
   </g>
   <g id="patch_58">
    <path d="M 268.72523 640.8 
L 282.024515 640.8 
L 282.024515 640.8 
L 268.72523 640.8 
z
" clip-path="url(#p002e869255)" style="fill: #1f77b4"/>
   </g>
   <g id="patch_59">
    <path d="M 306.723187 640.8 
L 320.022472 640.8 
L 320.022472 640.8 
L 306.723187 640.8 
z
" clip-path="url(#p002e869255)" style="fill: #1f77b4"/>
   </g>
   <g id="patch_60">
    <path d="M 344.721144 640.8 
L 358.020429 640.8 
L 358.020429 640.8 
L 344.721144 640.8 
z
" clip-path="url(#p002e869255)" style="fill: #1f77b4"/>
   </g>
   <g id="patch_61">
    <path d="M 382.719101 640.8 
L 396.018386 640.8 
L 396.018386 640.8 
L 382.719101 640.8 
z
" clip-path="url(#p002e869255)" style="fill: #1f77b4"/>
   </g>
   <g id="patch_62">
    <path d="M 420.717058 640.8 
L 434.016343 640.8 
L 434.016343 640.8 
L 420.717058 640.8 
z
" clip-path="url(#p002e869255)" style="fill: #1f77b4"/>
   </g>
   <g id="patch_63">
    <path d="M 458.715015 640.8 
L 472.0143 640.8 
L 472.0143 640.8 
L 458.715015 640.8 
z
" clip-path="url(#p002e869255)" style="fill: #1f77b4"/>
   </g>
   <g id="patch_64">
    <path d="M 496.712972 640.8 
L 510.012257 640.8 
L 510.012257 640.8 
L 496.712972 640.8 
z
" clip-path="url(#p002e869255)" style="fill: #1f77b4"/>
   </g>
   <g id="patch_65">
    <path d="M 534.71093 640.8 
L 548.010215 640.8 
L 548.010215 640.8 
L 534.71093 640.8 
z
" clip-path="url(#p002e869255)" style="fill: #1f77b4"/>
   </g>
   <g id="patch_66">
    <path d="M 572.708887 640.8 
L 586.008172 640.8 
L 586.008172 640.8 
L 572.708887 640.8 
z
" clip-path="url(#p002e869255)" style="fill: #1f77b4"/>
   </g>
   <g id="patch_67">
    <path d="M 610.706844 640.8 
L 624.006129 640.8 
L 624.006129 639.997469 
L 610.706844 639.997469 
z
" clip-path="url(#p002e869255)" style="fill: #1f77b4"/>
   </g>
   <g id="patch_68">
    <path d="M 648.704801 640.8 
L 662.004086 640.8 
L 662.004086 637.980663 
L 648.704801 637.980663 
z
" clip-path="url(#p002e869255)" style="fill: #1f77b4"/>
   </g>
   <g id="patch_69">
    <path d="M 686.702758 640.8 
L 700.002043 640.8 
L 700.002043 635.548399 
L 686.702758 635.548399 
z
" clip-path="url(#p002e869255)" style="fill: #1f77b4"/>
   </g>
   <g id="patch_70">
    <path d="M 724.700715 640.8 
L 738 640.8 
L 738 633.238553 
L 724.700715 633.238553 
z
" clip-path="url(#p002e869255)" style="fill: #1f77b4"/>
   </g>
   <g id="patch_71">
    <path d="M 762.698672 640.8 
L 775.997957 640.8 
L 775.997957 631.379379 
L 762.698672 631.379379 
z
" clip-path="url(#p002e869255)" style="fill: #1f77b4"/>
   </g>
   <g id="patch_72">
    <path d="M 800.696629 640.8 
L 813.995914 640.8 
L 813.995914 628.341123 
L 800.696629 628.341123 
z
" clip-path="url(#p002e869255)" style="fill: #1f77b4"/>
   </g>
   <g id="patch_73">
    <path d="M 838.694586 640.8 
L 851.993871 640.8 
L 851.993871 628.275557 
L 838.694586 628.275557 
z
" clip-path="url(#p002e869255)" style="fill: #1f77b4"/>
   </g>
   <g id="patch_74">
    <path d="M 876.692543 640.8 
L 889.991828 640.8 
L 889.991828 626.814193 
L 876.692543 626.814193 
z
" clip-path="url(#p002e869255)" style="fill: #1f77b4"/>
   </g>
   <g id="patch_75">
    <path d="M 914.690501 640.8 
L 927.989785 640.8 
L 927.989785 625.832121 
L 914.690501 625.832121 
z
" clip-path="url(#p002e869255)" style="fill: #1f77b4"/>
   </g>
   <g id="patch_76">
    <path d="M 952.688458 640.8 
L 965.987743 640.8 
L 965.987743 625.619043 
L 952.688458 625.619043 
z
" clip-path="url(#p002e869255)" style="fill: #1f77b4"/>
   </g>
   <g id="patch_77">
    <path d="M 990.686415 640.8 
L 1003.9857 640.8 
L 1003.9857 625.547882 
L 990.686415 625.547882 
z
" clip-path="url(#p002e869255)" style="fill: #1f77b4"/>
   </g>
   <g id="patch_78">
    <path d="M 1028.684372 640.8 
L 1041.983657 640.8 
L 1041.983657 625.510116 
L 1028.684372 625.510116 
z
" clip-path="url(#p002e869255)" style="fill: #1f77b4"/>
   </g>
   <g id="patch_79">
    <path d="M 1066.682329 640.8 
L 1079.981614 640.8 
L 1079.981614 625.341103 
L 1066.682329 625.341103 
z
" clip-path="url(#p002e869255)" style="fill: #1f77b4"/>
   </g>
   <g id="patch_80">
    <path d="M 1104.680286 640.8 
L 1117.979571 640.8 
L 1117.979571 624.924122 
L 1104.680286 624.924122 
z
" clip-path="url(#p002e869255)" style="fill: #1f77b4"/>
   </g>
   <g id="patch_81">
    <path d="M 1142.678243 640.8 
L 1155.977528 640.8 
L 1155.977528 624.549122 
L 1142.678243 624.549122 
z
" clip-path="url(#p002e869255)" style="fill: #1f77b4"/>
   </g>
   <g id="patch_82">
    <path d="M 1180.6762 640.8 
L 1193.975485 640.8 
L 1193.975485 623.14436 
L 1180.6762 623.14436 
z
" clip-path="url(#p002e869255)" style="fill: #1f77b4"/>
   </g>
   <g id="patch_83">
    <path d="M 1218.674157 640.8 
L 1231.973442 640.8 
L 1231.973442 621.709066 
L 1218.674157 621.709066 
z
" clip-path="url(#p002e869255)" style="fill: #1f77b4"/>
   </g>
   <g id="patch_84">
    <path d="M 244.026558 640.8 
L 257.325843 640.8 
L 257.325843 638.876417 
L 244.026558 638.876417 
z
" clip-path="url(#p002e869255)" style="fill: #e377c2"/>
   </g>
   <g id="patch_85">
    <path d="M 282.024515 640.8 
L 295.3238 640.8 
L 295.3238 638.876417 
L 282.024515 638.876417 
z
" clip-path="url(#p002e869255)" style="fill: #e377c2"/>
   </g>
   <g id="patch_86">
    <path d="M 320.022472 640.8 
L 333.321757 640.8 
L 333.321757 638.851024 
L 320.022472 638.851024 
z
" clip-path="url(#p002e869255)" style="fill: #e377c2"/>
   </g>
   <g id="patch_87">
    <path d="M 358.020429 640.8 
L 371.319714 640.8 
L 371.319714 638.807498 
L 358.020429 638.807498 
z
" clip-path="url(#p002e869255)" style="fill: #e377c2"/>
   </g>
   <g id="patch_88">
    <path d="M 396.018386 640.8 
L 409.317671 640.8 
L 409.317671 638.617911 
L 396.018386 638.617911 
z
" clip-path="url(#p002e869255)" style="fill: #e377c2"/>
   </g>
   <g id="patch_89">
    <path d="M 434.016343 640.8 
L 447.315628 640.8 
L 447.315628 637.641559 
L 434.016343 637.641559 
z
" clip-path="url(#p002e869255)" style="fill: #e377c2"/>
   </g>
   <g id="patch_90">
    <path d="M 472.0143 640.8 
L 485.313585 640.8 
L 485.313585 623.609377 
L 472.0143 623.609377 
z
" clip-path="url(#p002e869255)" style="fill: #e377c2"/>
   </g>
   <g id="patch_91">
    <path d="M 510.012257 640.8 
L 523.311542 640.8 
L 523.311542 623.609377 
L 510.012257 623.609377 
z
" clip-path="url(#p002e869255)" style="fill: #e377c2"/>
   </g>
   <g id="patch_92">
    <path d="M 548.010215 640.8 
L 561.309499 640.8 
L 561.309499 623.515065 
L 548.010215 623.515065 
z
" clip-path="url(#p002e869255)" style="fill: #e377c2"/>
   </g>
   <g id="patch_93">
    <path d="M 586.008172 640.8 
L 599.307457 640.8 
L 599.307457 622.516493 
L 586.008172 622.516493 
z
" clip-path="url(#p002e869255)" style="fill: #e377c2"/>
   </g>
   <g id="patch_94">
    <path d="M 624.006129 640.8 
L 637.305414 640.8 
L 637.305414 620.121876 
L 624.006129 620.121876 
z
" clip-path="url(#p002e869255)" style="fill: #e377c2"/>
   </g>
   <g id="patch_95">
    <path d="M 662.004086 640.8 
L 675.303371 640.8 
L 675.303371 620.029941 
L 662.004086 620.029941 
z
" clip-path="url(#p002e869255)" style="fill: #e377c2"/>
   </g>
   <g id="patch_96">
    <path d="M 700.002043 640.8 
L 713.301328 640.8 
L 713.301328 620.011777 
L 700.002043 620.011777 
z
" clip-path="url(#p002e869255)" style="fill: #e377c2"/>
   </g>
   <g id="patch_97">
    <path d="M 738 640.8 
L 751.299285 640.8 
L 751.299285 619.853926 
L 738 619.853926 
z
" clip-path="url(#p002e869255)" style="fill: #e377c2"/>
   </g>
   <g id="patch_98">
    <path d="M 775.997957 640.8 
L 789.297242 640.8 
L 789.297242 619.298327 
L 775.997957 619.298327 
z
" clip-path="url(#p002e869255)" style="fill: #e377c2"/>
   </g>
   <g id="patch_99">
    <path d="M 813.995914 640.8 
L 827.295199 640.8 
L 827.295199 608.480238 
L 813.995914 608.480238 
z
" clip-path="url(#p002e869255)" style="fill: #e377c2"/>
   </g>
   <g id="patch_100">
    <path d="M 851.993871 640.8 
L 865.293156 640.8 
L 865.293156 604.280023 
L 851.993871 604.280023 
z
" clip-path="url(#p002e869255)" style="fill: #e377c2"/>
   </g>
   <g id="patch_101">
    <path d="M 889.991828 640.8 
L 903.291113 640.8 
L 903.291113 596.369931 
L 889.991828 596.369931 
z
" clip-path="url(#p002e869255)" style="fill: #e377c2"/>
   </g>
   <g id="patch_102">
    <path d="M 927.989785 640.8 
L 941.28907 640.8 
L 941.28907 591.174504 
L 927.989785 591.174504 
z
" clip-path="url(#p002e869255)" style="fill: #e377c2"/>
   </g>
   <g id="patch_103">
    <path d="M 965.987743 640.8 
L 979.287028 640.8 
L 979.287028 586.751613 
L 965.987743 586.751613 
z
" clip-path="url(#p002e869255)" style="fill: #e377c2"/>
   </g>
   <g id="patch_104">
    <path d="M 1003.9857 640.8 
L 1017.284985 640.8 
L 1017.284985 582.379183 
L 1003.9857 582.379183 
z
" clip-path="url(#p002e869255)" style="fill: #e377c2"/>
   </g>
   <g id="patch_105">
    <path d="M 1041.983657 640.8 
L 1055.282942 640.8 
L 1055.282942 580.14753 
L 1041.983657 580.14753 
z
" clip-path="url(#p002e869255)" style="fill: #e377c2"/>
   </g>
   <g id="patch_106">
    <path d="M 1079.981614 640.8 
L 1093.280899 640.8 
L 1093.280899 580.109668 
L 1079.981614 580.109668 
z
" clip-path="url(#p002e869255)" style="fill: #e377c2"/>
   </g>
   <g id="patch_107">
    <path d="M 1117.979571 640.8 
L 1131.278856 640.8 
L 1131.278856 580.091701 
L 1117.979571 580.091701 
z
" clip-path="url(#p002e869255)" style="fill: #e377c2"/>
   </g>
   <g id="patch_108">
    <path d="M 1155.977528 640.8 
L 1169.276813 640.8 
L 1169.276813 580.27607 
L 1155.977528 580.27607 
z
" clip-path="url(#p002e869255)" style="fill: #e377c2"/>
   </g>
   <g id="patch_109">
    <path d="M 1193.975485 640.8 
L 1207.27477 640.8 
L 1207.27477 581.240324 
L 1193.975485 581.240324 
z
" clip-path="url(#p002e869255)" style="fill: #e377c2"/>
   </g>
   <g id="patch_110">
    <path d="M 1231.973442 640.8 
L 1245.272727 640.8 
L 1245.272727 582.393022 
L 1231.973442 582.393022 
z
" clip-path="url(#p002e869255)" style="fill: #e377c2"/>
   </g>
   <g id="patch_111">
    <path d="M 244.026558 638.876417 
L 257.325843 638.876417 
L 257.325843 638.876417 
L 244.026558 638.876417 
z
" clip-path="url(#p002e869255)" style="fill: #1f77b4"/>
   </g>
   <g id="patch_112">
    <path d="M 282.024515 638.876417 
L 295.3238 638.876417 
L 295.3238 638.876417 
L 282.024515 638.876417 
z
" clip-path="url(#p002e869255)" style="fill: #1f77b4"/>
   </g>
   <g id="patch_113">
    <path d="M 320.022472 638.851024 
L 333.321757 638.851024 
L 333.321757 638.851024 
L 320.022472 638.851024 
z
" clip-path="url(#p002e869255)" style="fill: #1f77b4"/>
   </g>
   <g id="patch_114">
    <path d="M 358.020429 638.807498 
L 371.319714 638.807498 
L 371.319714 638.807498 
L 358.020429 638.807498 
z
" clip-path="url(#p002e869255)" style="fill: #1f77b4"/>
   </g>
   <g id="patch_115">
    <path d="M 396.018386 638.617911 
L 409.317671 638.617911 
L 409.317671 638.617911 
L 396.018386 638.617911 
z
" clip-path="url(#p002e869255)" style="fill: #1f77b4"/>
   </g>
   <g id="patch_116">
    <path d="M 434.016343 637.641559 
L 447.315628 637.641559 
L 447.315628 637.641559 
L 434.016343 637.641559 
z
" clip-path="url(#p002e869255)" style="fill: #1f77b4"/>
   </g>
   <g id="patch_117">
    <path d="M 472.0143 623.609377 
L 485.313585 623.609377 
L 485.313585 623.609377 
L 472.0143 623.609377 
z
" clip-path="url(#p002e869255)" style="fill: #1f77b4"/>
   </g>
   <g id="patch_118">
    <path d="M 510.012257 623.609377 
L 523.311542 623.609377 
L 523.311542 623.609377 
L 510.012257 623.609377 
z
" clip-path="url(#p002e869255)" style="fill: #1f77b4"/>
   </g>
   <g id="patch_119">
    <path d="M 548.010215 623.515065 
L 561.309499 623.515065 
L 561.309499 623.515065 
L 548.010215 623.515065 
z
" clip-path="url(#p002e869255)" style="fill: #1f77b4"/>
   </g>
   <g id="patch_120">
    <path d="M 586.008172 622.516493 
L 599.307457 622.516493 
L 599.307457 622.516493 
L 586.008172 622.516493 
z
" clip-path="url(#p002e869255)" style="fill: #1f77b4"/>
   </g>
   <g id="patch_121">
    <path d="M 624.006129 620.121876 
L 637.305414 620.121876 
L 637.305414 620.121876 
L 624.006129 620.121876 
z
" clip-path="url(#p002e869255)" style="fill: #1f77b4"/>
   </g>
   <g id="patch_122">
    <path d="M 662.004086 620.029941 
L 675.303371 620.029941 
L 675.303371 620.029941 
L 662.004086 620.029941 
z
" clip-path="url(#p002e869255)" style="fill: #1f77b4"/>
   </g>
   <g id="patch_123">
    <path d="M 700.002043 620.011777 
L 713.301328 620.011777 
L 713.301328 620.011777 
L 700.002043 620.011777 
z
" clip-path="url(#p002e869255)" style="fill: #1f77b4"/>
   </g>
   <g id="patch_124">
    <path d="M 738 619.853926 
L 751.299285 619.853926 
L 751.299285 619.853926 
L 738 619.853926 
z
" clip-path="url(#p002e869255)" style="fill: #1f77b4"/>
   </g>
   <g id="patch_125">
    <path d="M 775.997957 619.298327 
L 789.297242 619.298327 
L 789.297242 619.298327 
L 775.997957 619.298327 
z
" clip-path="url(#p002e869255)" style="fill: #1f77b4"/>
   </g>
   <g id="patch_126">
    <path d="M 813.995914 608.480238 
L 827.295199 608.480238 
L 827.295199 608.480238 
L 813.995914 608.480238 
z
" clip-path="url(#p002e869255)" style="fill: #1f77b4"/>
   </g>
   <g id="patch_127">
    <path d="M 851.993871 604.280023 
L 865.293156 604.280023 
L 865.293156 603.880219 
L 851.993871 603.880219 
z
" clip-path="url(#p002e869255)" style="fill: #1f77b4"/>
   </g>
   <g id="patch_128">
    <path d="M 889.991828 596.369931 
L 903.291113 596.369931 
L 903.291113 595.908102 
L 889.991828 595.908102 
z
" clip-path="url(#p002e869255)" style="fill: #1f77b4"/>
   </g>
   <g id="patch_129">
    <path d="M 927.989785 591.174504 
L 941.28907 591.174504 
L 941.28907 590.387152 
L 927.989785 590.387152 
z
" clip-path="url(#p002e869255)" style="fill: #1f77b4"/>
   </g>
   <g id="patch_130">
    <path d="M 965.987743 586.751613 
L 979.287028 586.751613 
L 979.287028 585.871038 
L 965.987743 585.871038 
z
" clip-path="url(#p002e869255)" style="fill: #1f77b4"/>
   </g>
   <g id="patch_131">
    <path d="M 1003.9857 582.379183 
L 1017.284985 582.379183 
L 1017.284985 581.172531 
L 1003.9857 581.172531 
z
" clip-path="url(#p002e869255)" style="fill: #1f77b4"/>
   </g>
   <g id="patch_132">
    <path d="M 1041.983657 580.14753 
L 1055.282942 580.14753 
L 1055.282942 578.750915 
L 1041.983657 578.750915 
z
" clip-path="url(#p002e869255)" style="fill: #1f77b4"/>
   </g>
   <g id="patch_133">
    <path d="M 1079.981614 580.109668 
L 1093.280899 580.109668 
L 1093.280899 578.107713 
L 1079.981614 578.107713 
z
" clip-path="url(#p002e869255)" style="fill: #1f77b4"/>
   </g>
   <g id="patch_134">
    <path d="M 1117.979571 580.091701 
L 1131.278856 580.091701 
L 1131.278856 575.654529 
L 1117.979571 575.654529 
z
" clip-path="url(#p002e869255)" style="fill: #1f77b4"/>
   </g>
   <g id="patch_135">
    <path d="M 1155.977528 580.27607 
L 1169.276813 580.27607 
L 1169.276813 571.847904 
L 1155.977528 571.847904 
z
" clip-path="url(#p002e869255)" style="fill: #1f77b4"/>
   </g>
   <g id="patch_136">
    <path d="M 1193.975485 581.240324 
L 1207.27477 581.240324 
L 1207.27477 567.224293 
L 1193.975485 567.224293 
z
" clip-path="url(#p002e869255)" style="fill: #1f77b4"/>
   </g>
   <g id="patch_137">
    <path d="M 1231.973442 582.393022 
L 1245.272727 582.393022 
L 1245.272727 558.494967 
L 1231.973442 558.494967 
z
" clip-path="url(#p002e869255)" style="fill: #1f77b4"/>
   </g>
   <g id="patch_138">
    <path d="M 244.026558 638.876417 
L 257.325843 638.876417 
L 257.325843 638.135878 
L 244.026558 638.135878 
z
" clip-path="url(#p002e869255)" style="fill: #2ca02c"/>
   </g>
   <g id="patch_139">
    <path d="M 282.024515 638.876417 
L 295.3238 638.876417 
L 295.3238 637.611844 
L 282.024515 637.611844 
z
" clip-path="url(#p002e869255)" style="fill: #2ca02c"/>
   </g>
   <g id="patch_140">
    <path d="M 320.022472 638.851024 
L 333.321757 638.851024 
L 333.321757 636.803506 
L 320.022472 636.803506 
z
" clip-path="url(#p002e869255)" style="fill: #2ca02c"/>
   </g>
   <g id="patch_141">
    <path d="M 358.020429 638.807498 
L 371.319714 638.807498 
L 371.319714 636.155895 
L 358.020429 636.155895 
z
" clip-path="url(#p002e869255)" style="fill: #2ca02c"/>
   </g>
   <g id="patch_142">
    <path d="M 396.018386 638.617911 
L 409.317671 638.617911 
L 409.317671 634.529684 
L 396.018386 634.529684 
z
" clip-path="url(#p002e869255)" style="fill: #2ca02c"/>
   </g>
   <g id="patch_143">
    <path d="M 434.016343 637.641559 
L 447.315628 637.641559 
L 447.315628 632.739179 
L 434.016343 632.739179 
z
" clip-path="url(#p002e869255)" style="fill: #2ca02c"/>
   </g>
   <g id="patch_144">
    <path d="M 472.0143 623.609377 
L 485.313585 623.609377 
L 485.313585 607.093378 
L 472.0143 607.093378 
z
" clip-path="url(#p002e869255)" style="fill: #2ca02c"/>
   </g>
   <g id="patch_145">
    <path d="M 510.012257 623.609377 
L 523.311542 623.609377 
L 523.311542 607.093378 
L 510.012257 607.093378 
z
" clip-path="url(#p002e869255)" style="fill: #2ca02c"/>
   </g>
   <g id="patch_146">
    <path d="M 548.010215 623.515065 
L 561.309499 623.515065 
L 561.309499 606.999065 
L 548.010215 606.999065 
z
" clip-path="url(#p002e869255)" style="fill: #2ca02c"/>
   </g>
   <g id="patch_147">
    <path d="M 586.008172 622.516493 
L 599.307457 622.516493 
L 599.307457 606.000493 
L 586.008172 606.000493 
z
" clip-path="url(#p002e869255)" style="fill: #2ca02c"/>
   </g>
   <g id="patch_148">
    <path d="M 624.006129 620.121876 
L 637.305414 620.121876 
L 637.305414 603.605877 
L 624.006129 603.605877 
z
" clip-path="url(#p002e869255)" style="fill: #2ca02c"/>
   </g>
   <g id="patch_149">
    <path d="M 662.004086 620.029941 
L 675.303371 620.029941 
L 675.303371 603.443241 
L 662.004086 603.443241 
z
" clip-path="url(#p002e869255)" style="fill: #2ca02c"/>
   </g>
   <g id="patch_150">
    <path d="M 700.002043 620.011777 
L 713.301328 620.011777 
L 713.301328 602.950492 
L 700.002043 602.950492 
z
" clip-path="url(#p002e869255)" style="fill: #2ca02c"/>
   </g>
   <g id="patch_151">
    <path d="M 738 619.853926 
L 751.299285 619.853926 
L 751.299285 602.000114 
L 738 602.000114 
z
" clip-path="url(#p002e869255)" style="fill: #2ca02c"/>
   </g>
   <g id="patch_152">
    <path d="M 775.997957 619.298327 
L 789.297242 619.298327 
L 789.297242 601.444514 
L 775.997957 601.444514 
z
" clip-path="url(#p002e869255)" style="fill: #2ca02c"/>
   </g>
   <g id="patch_153">
    <path d="M 813.995914 608.480238 
L 827.295199 608.480238 
L 827.295199 590.626426 
L 813.995914 590.626426 
z
" clip-path="url(#p002e869255)" style="fill: #2ca02c"/>
   </g>
   <g id="patch_154">
    <path d="M 851.993871 603.880219 
L 865.293156 603.880219 
L 865.293156 585.955198 
L 851.993871 585.955198 
z
" clip-path="url(#p002e869255)" style="fill: #2ca02c"/>
   </g>
   <g id="patch_155">
    <path d="M 889.991828 595.908102 
L 903.291113 595.908102 
L 903.291113 577.989575 
L 889.991828 577.989575 
z
" clip-path="url(#p002e869255)" style="fill: #2ca02c"/>
   </g>
   <g id="patch_156">
    <path d="M 927.989785 590.387152 
L 941.28907 590.387152 
L 941.28907 572.493271 
L 927.989785 572.493271 
z
" clip-path="url(#p002e869255)" style="fill: #2ca02c"/>
   </g>
   <g id="patch_157">
    <path d="M 965.987743 585.871038 
L 979.287028 585.871038 
L 979.287028 568.125617 
L 965.987743 568.125617 
z
" clip-path="url(#p002e869255)" style="fill: #2ca02c"/>
   </g>
   <g id="patch_158">
    <path d="M 1003.9857 581.172531 
L 1017.284985 581.172531 
L 1017.284985 563.988049 
L 1003.9857 563.988049 
z
" clip-path="url(#p002e869255)" style="fill: #2ca02c"/>
   </g>
   <g id="patch_159">
    <path d="M 1041.983657 578.750915 
L 1055.282942 578.750915 
L 1055.282942 562.090469 
L 1041.983657 562.090469 
z
" clip-path="url(#p002e869255)" style="fill: #2ca02c"/>
   </g>
   <g id="patch_160">
    <path d="M 1079.981614 578.107713 
L 1093.280899 578.107713 
L 1093.280899 562.138997 
L 1079.981614 562.138997 
z
" clip-path="url(#p002e869255)" style="fill: #2ca02c"/>
   </g>
   <g id="patch_161">
    <path d="M 1117.979571 575.654529 
L 1131.278856 575.654529 
L 1131.278856 560.220128 
L 1117.979571 560.220128 
z
" clip-path="url(#p002e869255)" style="fill: #2ca02c"/>
   </g>
   <g id="patch_162">
    <path d="M 1155.977528 571.847904 
L 1169.276813 571.847904 
L 1169.276813 556.928579 
L 1155.977528 556.928579 
z
" clip-path="url(#p002e869255)" style="fill: #2ca02c"/>
   </g>
   <g id="patch_163">
    <path d="M 1193.975485 567.224293 
L 1207.27477 567.224293 
L 1207.27477 552.745124 
L 1193.975485 552.745124 
z
" clip-path="url(#p002e869255)" style="fill: #2ca02c"/>
   </g>
   <g id="patch_164">
    <path d="M 1231.973442 558.494967 
L 1245.272727 558.494967 
L 1245.272727 544.424664 
L 1231.973442 544.424664 
z
" clip-path="url(#p002e869255)" style="fill: #2ca02c"/>
   </g>
   <g id="patch_165">
    <path d="M 244.026558 638.135878 
L 257.325843 638.135878 
L 257.325843 637.425864 
L 244.026558 637.425864 
z
" clip-path="url(#p002e869255)" style="fill: #bcbd22"/>
   </g>
   <g id="patch_166">
    <path d="M 282.024515 637.611844 
L 295.3238 637.611844 
L 295.3238 636.758344 
L 282.024515 636.758344 
z
" clip-path="url(#p002e869255)" style="fill: #bcbd22"/>
   </g>
   <g id="patch_167">
    <path d="M 320.022472 636.803506 
L 333.321757 636.803506 
L 333.321757 635.604368 
L 320.022472 635.604368 
z
" clip-path="url(#p002e869255)" style="fill: #bcbd22"/>
   </g>
   <g id="patch_168">
    <path d="M 358.020429 636.155895 
L 371.319714 636.155895 
L 371.319714 634.41941 
L 358.020429 634.41941 
z
" clip-path="url(#p002e869255)" style="fill: #bcbd22"/>
   </g>
   <g id="patch_169">
    <path d="M 396.018386 634.529684 
L 409.317671 634.529684 
L 409.317671 632.335742 
L 396.018386 632.335742 
z
" clip-path="url(#p002e869255)" style="fill: #bcbd22"/>
   </g>
   <g id="patch_170">
    <path d="M 434.016343 632.739179 
L 447.315628 632.739179 
L 447.315628 630.108641 
L 434.016343 630.108641 
z
" clip-path="url(#p002e869255)" style="fill: #bcbd22"/>
   </g>
   <g id="patch_171">
    <path d="M 472.0143 607.093378 
L 485.313585 607.093378 
L 485.313585 568.032479 
L 472.0143 568.032479 
z
" clip-path="url(#p002e869255)" style="fill: #bcbd22"/>
   </g>
   <g id="patch_172">
    <path d="M 510.012257 607.093378 
L 523.311542 607.093378 
L 523.311542 568.004498 
L 510.012257 568.004498 
z
" clip-path="url(#p002e869255)" style="fill: #bcbd22"/>
   </g>
   <g id="patch_173">
    <path d="M 548.010215 606.999065 
L 561.309499 606.999065 
L 561.309499 567.031031 
L 548.010215 567.031031 
z
" clip-path="url(#p002e869255)" style="fill: #bcbd22"/>
   </g>
   <g id="patch_174">
    <path d="M 586.008172 606.000493 
L 599.307457 606.000493 
L 599.307457 564.54453 
L 586.008172 564.54453 
z
" clip-path="url(#p002e869255)" style="fill: #bcbd22"/>
   </g>
   <g id="patch_175">
    <path d="M 624.006129 603.605877 
L 637.305414 603.605877 
L 637.305414 559.760966 
L 624.006129 559.760966 
z
" clip-path="url(#p002e869255)" style="fill: #bcbd22"/>
   </g>
   <g id="patch_176">
    <path d="M 662.004086 603.443241 
L 675.303371 603.443241 
L 675.303371 557.361155 
L 662.004086 557.361155 
z
" clip-path="url(#p002e869255)" style="fill: #bcbd22"/>
   </g>
   <g id="patch_177">
    <path d="M 700.002043 602.950492 
L 713.301328 602.950492 
L 713.301328 551.315425 
L 700.002043 551.315425 
z
" clip-path="url(#p002e869255)" style="fill: #bcbd22"/>
   </g>
   <g id="patch_178">
    <path d="M 738 602.000114 
L 751.299285 602.000114 
L 751.299285 539.428169 
L 738 539.428169 
z
" clip-path="url(#p002e869255)" style="fill: #bcbd22"/>
   </g>
   <g id="patch_179">
    <path d="M 775.997957 601.444514 
L 789.297242 601.444514 
L 789.297242 526.943409 
L 775.997957 526.943409 
z
" clip-path="url(#p002e869255)" style="fill: #bcbd22"/>
   </g>
   <g id="patch_180">
    <path d="M 813.995914 590.626426 
L 827.295199 590.626426 
L 827.295199 501.730112 
L 813.995914 501.730112 
z
" clip-path="url(#p002e869255)" style="fill: #bcbd22"/>
   </g>
   <g id="patch_181">
    <path d="M 851.993871 585.955198 
L 865.293156 585.955198 
L 865.293156 492.211057 
L 851.993871 492.211057 
z
" clip-path="url(#p002e869255)" style="fill: #bcbd22"/>
   </g>
   <g id="patch_182">
    <path d="M 889.991828 577.989575 
L 903.291113 577.989575 
L 903.291113 480.635316 
L 889.991828 480.635316 
z
" clip-path="url(#p002e869255)" style="fill: #bcbd22"/>
   </g>
   <g id="patch_183">
    <path d="M 927.989785 572.493271 
L 941.28907 572.493271 
L 941.28907 471.346137 
L 927.989785 471.346137 
z
" clip-path="url(#p002e869255)" style="fill: #bcbd22"/>
   </g>
   <g id="patch_184">
    <path d="M 965.987743 568.125617 
L 979.287028 568.125617 
L 979.287028 462.510535 
L 965.987743 462.510535 
z
" clip-path="url(#p002e869255)" style="fill: #bcbd22"/>
   </g>
   <g id="patch_185">
    <path d="M 1003.9857 563.988049 
L 1017.284985 563.988049 
L 1017.284985 453.864883 
L 1003.9857 453.864883 
z
" clip-path="url(#p002e869255)" style="fill: #bcbd22"/>
   </g>
   <g id="patch_186">
    <path d="M 1041.983657 562.090469 
L 1055.282942 562.090469 
L 1055.282942 447.426198 
L 1041.983657 447.426198 
z
" clip-path="url(#p002e869255)" style="fill: #bcbd22"/>
   </g>
   <g id="patch_187">
    <path d="M 1079.981614 562.138997 
L 1093.280899 562.138997 
L 1093.280899 442.338617 
L 1079.981614 442.338617 
z
" clip-path="url(#p002e869255)" style="fill: #bcbd22"/>
   </g>
   <g id="patch_188">
    <path d="M 1117.979571 560.220128 
L 1131.278856 560.220128 
L 1131.278856 434.822042 
L 1117.979571 434.822042 
z
" clip-path="url(#p002e869255)" style="fill: #bcbd22"/>
   </g>
   <g id="patch_189">
    <path d="M 1155.977528 556.928579 
L 1169.276813 556.928579 
L 1169.276813 425.216274 
L 1155.977528 425.216274 
z
" clip-path="url(#p002e869255)" style="fill: #bcbd22"/>
   </g>
   <g id="patch_190">
    <path d="M 1193.975485 552.745124 
L 1207.27477 552.745124 
L 1207.27477 412.524612 
L 1193.975485 412.524612 
z
" clip-path="url(#p002e869255)" style="fill: #bcbd22"/>
   </g>
   <g id="patch_191">
    <path d="M 1231.973442 544.424664 
L 1245.272727 544.424664 
L 1245.272727 396.291725 
L 1231.973442 396.291725 
z
" clip-path="url(#p002e869255)" style="fill: #bcbd22"/>
   </g>
   <g id="patch_192">
    <path d="M 244.026558 637.425864 
L 257.325843 637.425864 
L 257.325843 636.74494 
L 244.026558 636.74494 
z
" clip-path="url(#p002e869255)" style="fill: #d62728"/>
   </g>
   <g id="patch_193">
    <path d="M 282.024515 636.758344 
L 295.3238 636.758344 
L 295.3238 636.07742 
L 282.024515 636.07742 
z
" clip-path="url(#p002e869255)" style="fill: #d62728"/>
   </g>
   <g id="patch_194">
    <path d="M 320.022472 635.604368 
L 333.321757 635.604368 
L 333.321757 634.91278 
L 320.022472 634.91278 
z
" clip-path="url(#p002e869255)" style="fill: #d62728"/>
   </g>
   <g id="patch_195">
    <path d="M 358.020429 634.41941 
L 371.319714 634.41941 
L 371.319714 633.726671 
L 358.020429 633.726671 
z
" clip-path="url(#p002e869255)" style="fill: #d62728"/>
   </g>
   <g id="patch_196">
    <path d="M 396.018386 632.335742 
L 409.317671 632.335742 
L 409.317671 631.171563 
L 396.018386 631.171563 
z
" clip-path="url(#p002e869255)" style="fill: #d62728"/>
   </g>
   <g id="patch_197">
    <path d="M 434.016343 630.108641 
L 447.315628 630.108641 
L 447.315628 628.299522 
L 434.016343 628.299522 
z
" clip-path="url(#p002e869255)" style="fill: #d62728"/>
   </g>
   <g id="patch_198">
    <path d="M 472.0143 568.032479 
L 485.313585 568.032479 
L 485.313585 540.585692 
L 472.0143 540.585692 
z
" clip-path="url(#p002e869255)" style="fill: #d62728"/>
   </g>
   <g id="patch_199">
    <path d="M 510.012257 568.004498 
L 523.311542 568.004498 
L 523.311542 540.574646 
L 510.012257 540.574646 
z
" clip-path="url(#p002e869255)" style="fill: #d62728"/>
   </g>
   <g id="patch_200">
    <path d="M 548.010215 567.031031 
L 561.309499 567.031031 
L 561.309499 539.584243 
L 548.010215 539.584243 
z
" clip-path="url(#p002e869255)" style="fill: #d62728"/>
   </g>
   <g id="patch_201">
    <path d="M 586.008172 564.54453 
L 599.307457 564.54453 
L 599.307457 537.097743 
L 586.008172 537.097743 
z
" clip-path="url(#p002e869255)" style="fill: #d62728"/>
   </g>
   <g id="patch_202">
    <path d="M 624.006129 559.760966 
L 637.305414 559.760966 
L 637.305414 532.314178 
L 624.006129 532.314178 
z
" clip-path="url(#p002e869255)" style="fill: #d62728"/>
   </g>
   <g id="patch_203">
    <path d="M 662.004086 557.361155 
L 675.303371 557.361155 
L 675.303371 530.00213 
L 662.004086 530.00213 
z
" clip-path="url(#p002e869255)" style="fill: #d62728"/>
   </g>
   <g id="patch_204">
    <path d="M 700.002043 551.315425 
L 713.301328 551.315425 
L 713.301328 524.028648 
L 700.002043 524.028648 
z
" clip-path="url(#p002e869255)" style="fill: #d62728"/>
   </g>
   <g id="patch_205">
    <path d="M 738 539.428169 
L 751.299285 539.428169 
L 751.299285 512.152774 
L 738 512.152774 
z
" clip-path="url(#p002e869255)" style="fill: #d62728"/>
   </g>
   <g id="patch_206">
    <path d="M 775.997957 526.943409 
L 789.297242 526.943409 
L 789.297242 499.728589 
L 775.997957 499.728589 
z
" clip-path="url(#p002e869255)" style="fill: #d62728"/>
   </g>
   <g id="patch_207">
    <path d="M 813.995914 501.730112 
L 827.295199 501.730112 
L 827.295199 474.564165 
L 813.995914 474.564165 
z
" clip-path="url(#p002e869255)" style="fill: #d62728"/>
   </g>
   <g id="patch_208">
    <path d="M 851.993871 492.211057 
L 865.293156 492.211057 
L 865.293156 465.136542 
L 851.993871 465.136542 
z
" clip-path="url(#p002e869255)" style="fill: #d62728"/>
   </g>
   <g id="patch_209">
    <path d="M 889.991828 480.635316 
L 903.291113 480.635316 
L 903.291113 453.580357 
L 889.991828 453.580357 
z
" clip-path="url(#p002e869255)" style="fill: #d62728"/>
   </g>
   <g id="patch_210">
    <path d="M 927.989785 471.346137 
L 941.28907 471.346137 
L 941.28907 444.229966 
L 927.989785 444.229966 
z
" clip-path="url(#p002e869255)" style="fill: #d62728"/>
   </g>
   <g id="patch_211">
    <path d="M 965.987743 462.510535 
L 979.287028 462.510535 
L 979.287028 435.443606 
L 965.987743 435.443606 
z
" clip-path="url(#p002e869255)" style="fill: #d62728"/>
   </g>
   <g id="patch_212">
    <path d="M 1003.9857 453.864883 
L 1017.284985 453.864883 
L 1017.284985 427.315482 
L 1003.9857 427.315482 
z
" clip-path="url(#p002e869255)" style="fill: #d62728"/>
   </g>
   <g id="patch_213">
    <path d="M 1041.983657 447.426198 
L 1055.282942 447.426198 
L 1055.282942 420.889113 
L 1041.983657 420.889113 
z
" clip-path="url(#p002e869255)" style="fill: #d62728"/>
   </g>
   <g id="patch_214">
    <path d="M 1079.981614 442.338617 
L 1093.280899 442.338617 
L 1093.280899 415.824526 
L 1079.981614 415.824526 
z
" clip-path="url(#p002e869255)" style="fill: #d62728"/>
   </g>
   <g id="patch_215">
    <path d="M 1117.979571 434.822042 
L 1131.278856 434.822042 
L 1131.278856 408.329891 
L 1117.979571 408.329891 
z
" clip-path="url(#p002e869255)" style="fill: #d62728"/>
   </g>
   <g id="patch_216">
    <path d="M 1155.977528 425.216274 
L 1169.276813 425.216274 
L 1169.276813 399.712914 
L 1155.977528 399.712914 
z
" clip-path="url(#p002e869255)" style="fill: #d62728"/>
   </g>
   <g id="patch_217">
    <path d="M 1193.975485 412.524612 
L 1207.27477 412.524612 
L 1207.27477 388.031934 
L 1193.975485 388.031934 
z
" clip-path="url(#p002e869255)" style="fill: #d62728"/>
   </g>
   <g id="patch_218">
    <path d="M 1231.973442 396.291725 
L 1245.272727 396.291725 
L 1245.272727 369.62614 
L 1231.973442 369.62614 
z
" clip-path="url(#p002e869255)" style="fill: #d62728"/>
   </g>
   <g id="matplotlib.axis_1">
    <g id="xtick_1">
     <g id="line2d_1">
      <defs>
       <path id="m6e7c1af3cd" d="M 0 0 
L 0 3.5 
" style="stroke: #000000; stroke-width: 0.8"/>
      </defs>
      <g>
       <use xlink:href="#m6e7c1af3cd" x="244.026558" y="640.8" style="stroke: #000000; stroke-width: 0.8"/>
      </g>
     </g>
     <g id="text_1">
      <!-- 2024 -->
      <g transform="translate(228.756558 656.918125) scale(0.12 -0.12)">
       <defs>
        <path id="DejaVuSans-32" d="M 1228 531 
L 3431 531 
L 3431 0 
L 469 0 
L 469 531 
Q 828 903 1448 1529 
Q 2069 2156 2228 2338 
Q 2531 2678 2651 2914 
Q 2772 3150 2772 3378 
Q 2772 3750 2511 3984 
Q 2250 4219 1831 4219 
Q 1534 4219 1204 4116 
Q 875 4013 500 3803 
L 500 4441 
Q 881 4594 1212 4672 
Q 1544 4750 1819 4750 
Q 2544 4750 2975 4387 
Q 3406 4025 3406 3419 
Q 3406 3131 3298 2873 
Q 3191 2616 2906 2266 
Q 2828 2175 2409 1742 
Q 1991 1309 1228 531 
z
" transform="scale(0.015625)"/>
        <path id="DejaVuSans-30" d="M 2034 4250 
Q 1547 4250 1301 3770 
Q 1056 3291 1056 2328 
Q 1056 1369 1301 889 
Q 1547 409 2034 409 
Q 2525 409 2770 889 
Q 3016 1369 3016 2328 
Q 3016 3291 2770 3770 
Q 2525 4250 2034 4250 
z
M 2034 4750 
Q 2819 4750 3233 4129 
Q 3647 3509 3647 2328 
Q 3647 1150 3233 529 
Q 2819 -91 2034 -91 
Q 1250 -91 836 529 
Q 422 1150 422 2328 
Q 422 3509 836 4129 
Q 1250 4750 2034 4750 
z
" transform="scale(0.015625)"/>
        <path id="DejaVuSans-34" d="M 2419 4116 
L 825 1625 
L 2419 1625 
L 2419 4116 
z
M 2253 4666 
L 3047 4666 
L 3047 1625 
L 3713 1625 
L 3713 1100 
L 3047 1100 
L 3047 0 
L 2419 0 
L 2419 1100 
L 313 1100 
L 313 1709 
L 2253 4666 
z
" transform="scale(0.015625)"/>
       </defs>
       <use xlink:href="#DejaVuSans-32"/>
       <use xlink:href="#DejaVuSans-30" x="63.623047"/>
       <use xlink:href="#DejaVuSans-32" x="127.246094"/>
       <use xlink:href="#DejaVuSans-34" x="190.869141"/>
      </g>
     </g>
    </g>
    <g id="xtick_2">
     <g id="line2d_2">
      <g>
       <use xlink:href="#m6e7c1af3cd" x="282.024515" y="640.8" style="stroke: #000000; stroke-width: 0.8"/>
      </g>
     </g>
     <g id="text_2">
      <!-- 2025 -->
      <g transform="translate(266.754515 656.918125) scale(0.12 -0.12)">
       <defs>
        <path id="DejaVuSans-35" d="M 691 4666 
L 3169 4666 
L 3169 4134 
L 1269 4134 
L 1269 2991 
Q 1406 3038 1543 3061 
Q 1681 3084 1819 3084 
Q 2600 3084 3056 2656 
Q 3513 2228 3513 1497 
Q 3513 744 3044 326 
Q 2575 -91 1722 -91 
Q 1428 -91 1123 -41 
Q 819 9 494 109 
L 494 744 
Q 775 591 1075 516 
Q 1375 441 1709 441 
Q 2250 441 2565 725 
Q 2881 1009 2881 1497 
Q 2881 1984 2565 2268 
Q 2250 2553 1709 2553 
Q 1456 2553 1204 2497 
Q 953 2441 691 2322 
L 691 4666 
z
" transform="scale(0.015625)"/>
       </defs>
       <use xlink:href="#DejaVuSans-32"/>
       <use xlink:href="#DejaVuSans-30" x="63.623047"/>
       <use xlink:href="#DejaVuSans-32" x="127.246094"/>
       <use xlink:href="#DejaVuSans-35" x="190.869141"/>
      </g>
     </g>
    </g>
    <g id="xtick_3">
     <g id="line2d_3">
      <g>
       <use xlink:href="#m6e7c1af3cd" x="320.022472" y="640.8" style="stroke: #000000; stroke-width: 0.8"/>
      </g>
     </g>
     <g id="text_3">
      <!-- 2026 -->
      <g transform="translate(304.752472 656.918125) scale(0.12 -0.12)">
       <defs>
        <path id="DejaVuSans-36" d="M 2113 2584 
Q 1688 2584 1439 2293 
Q 1191 2003 1191 1497 
Q 1191 994 1439 701 
Q 1688 409 2113 409 
Q 2538 409 2786 701 
Q 3034 994 3034 1497 
Q 3034 2003 2786 2293 
Q 2538 2584 2113 2584 
z
M 3366 4563 
L 3366 3988 
Q 3128 4100 2886 4159 
Q 2644 4219 2406 4219 
Q 1781 4219 1451 3797 
Q 1122 3375 1075 2522 
Q 1259 2794 1537 2939 
Q 1816 3084 2150 3084 
Q 2853 3084 3261 2657 
Q 3669 2231 3669 1497 
Q 3669 778 3244 343 
Q 2819 -91 2113 -91 
Q 1303 -91 875 529 
Q 447 1150 447 2328 
Q 447 3434 972 4092 
Q 1497 4750 2381 4750 
Q 2619 4750 2861 4703 
Q 3103 4656 3366 4563 
z
" transform="scale(0.015625)"/>
       </defs>
       <use xlink:href="#DejaVuSans-32"/>
       <use xlink:href="#DejaVuSans-30" x="63.623047"/>
       <use xlink:href="#DejaVuSans-32" x="127.246094"/>
       <use xlink:href="#DejaVuSans-36" x="190.869141"/>
      </g>
     </g>
    </g>
    <g id="xtick_4">
     <g id="line2d_4">
      <g>
       <use xlink:href="#m6e7c1af3cd" x="358.020429" y="640.8" style="stroke: #000000; stroke-width: 0.8"/>
      </g>
     </g>
     <g id="text_4">
      <!-- 2027 -->
      <g transform="translate(342.750429 656.918125) scale(0.12 -0.12)">
       <defs>
        <path id="DejaVuSans-37" d="M 525 4666 
L 3525 4666 
L 3525 4397 
L 1831 0 
L 1172 0 
L 2766 4134 
L 525 4134 
L 525 4666 
z
" transform="scale(0.015625)"/>
       </defs>
       <use xlink:href="#DejaVuSans-32"/>
       <use xlink:href="#DejaVuSans-30" x="63.623047"/>
       <use xlink:href="#DejaVuSans-32" x="127.246094"/>
       <use xlink:href="#DejaVuSans-37" x="190.869141"/>
      </g>
     </g>
    </g>
    <g id="xtick_5">
     <g id="line2d_5">
      <g>
       <use xlink:href="#m6e7c1af3cd" x="396.018386" y="640.8" style="stroke: #000000; stroke-width: 0.8"/>
      </g>
     </g>
     <g id="text_5">
      <!-- 2028 -->
      <g transform="translate(380.748386 656.918125) scale(0.12 -0.12)">
       <defs>
        <path id="DejaVuSans-38" d="M 2034 2216 
Q 1584 2216 1326 1975 
Q 1069 1734 1069 1313 
Q 1069 891 1326 650 
Q 1584 409 2034 409 
Q 2484 409 2743 651 
Q 3003 894 3003 1313 
Q 3003 1734 2745 1975 
Q 2488 2216 2034 2216 
z
M 1403 2484 
Q 997 2584 770 2862 
Q 544 3141 544 3541 
Q 544 4100 942 4425 
Q 1341 4750 2034 4750 
Q 2731 4750 3128 4425 
Q 3525 4100 3525 3541 
Q 3525 3141 3298 2862 
Q 3072 2584 2669 2484 
Q 3125 2378 3379 2068 
Q 3634 1759 3634 1313 
Q 3634 634 3220 271 
Q 2806 -91 2034 -91 
Q 1263 -91 848 271 
Q 434 634 434 1313 
Q 434 1759 690 2068 
Q 947 2378 1403 2484 
z
M 1172 3481 
Q 1172 3119 1398 2916 
Q 1625 2713 2034 2713 
Q 2441 2713 2670 2916 
Q 2900 3119 2900 3481 
Q 2900 3844 2670 4047 
Q 2441 4250 2034 4250 
Q 1625 4250 1398 4047 
Q 1172 3844 1172 3481 
z
" transform="scale(0.015625)"/>
       </defs>
       <use xlink:href="#DejaVuSans-32"/>
       <use xlink:href="#DejaVuSans-30" x="63.623047"/>
       <use xlink:href="#DejaVuSans-32" x="127.246094"/>
       <use xlink:href="#DejaVuSans-38" x="190.869141"/>
      </g>
     </g>
    </g>
    <g id="xtick_6">
     <g id="line2d_6">
      <g>
       <use xlink:href="#m6e7c1af3cd" x="434.016343" y="640.8" style="stroke: #000000; stroke-width: 0.8"/>
      </g>
     </g>
     <g id="text_6">
      <!-- 2029 -->
      <g transform="translate(418.746343 656.918125) scale(0.12 -0.12)">
       <defs>
        <path id="DejaVuSans-39" d="M 703 97 
L 703 672 
Q 941 559 1184 500 
Q 1428 441 1663 441 
Q 2288 441 2617 861 
Q 2947 1281 2994 2138 
Q 2813 1869 2534 1725 
Q 2256 1581 1919 1581 
Q 1219 1581 811 2004 
Q 403 2428 403 3163 
Q 403 3881 828 4315 
Q 1253 4750 1959 4750 
Q 2769 4750 3195 4129 
Q 3622 3509 3622 2328 
Q 3622 1225 3098 567 
Q 2575 -91 1691 -91 
Q 1453 -91 1209 -44 
Q 966 3 703 97 
z
M 1959 2075 
Q 2384 2075 2632 2365 
Q 2881 2656 2881 3163 
Q 2881 3666 2632 3958 
Q 2384 4250 1959 4250 
Q 1534 4250 1286 3958 
Q 1038 3666 1038 3163 
Q 1038 2656 1286 2365 
Q 1534 2075 1959 2075 
z
" transform="scale(0.015625)"/>
       </defs>
       <use xlink:href="#DejaVuSans-32"/>
       <use xlink:href="#DejaVuSans-30" x="63.623047"/>
       <use xlink:href="#DejaVuSans-32" x="127.246094"/>
       <use xlink:href="#DejaVuSans-39" x="190.869141"/>
      </g>
     </g>
    </g>
    <g id="xtick_7">
     <g id="line2d_7">
      <g>
       <use xlink:href="#m6e7c1af3cd" x="472.0143" y="640.8" style="stroke: #000000; stroke-width: 0.8"/>
      </g>
     </g>
     <g id="text_7">
      <!-- 2030 -->
      <g transform="translate(456.7443 656.918125) scale(0.12 -0.12)">
       <defs>
        <path id="DejaVuSans-33" d="M 2597 2516 
Q 3050 2419 3304 2112 
Q 3559 1806 3559 1356 
Q 3559 666 3084 287 
Q 2609 -91 1734 -91 
Q 1441 -91 1130 -33 
Q 819 25 488 141 
L 488 750 
Q 750 597 1062 519 
Q 1375 441 1716 441 
Q 2309 441 2620 675 
Q 2931 909 2931 1356 
Q 2931 1769 2642 2001 
Q 2353 2234 1838 2234 
L 1294 2234 
L 1294 2753 
L 1863 2753 
Q 2328 2753 2575 2939 
Q 2822 3125 2822 3475 
Q 2822 3834 2567 4026 
Q 2313 4219 1838 4219 
Q 1578 4219 1281 4162 
Q 984 4106 628 3988 
L 628 4550 
Q 988 4650 1302 4700 
Q 1616 4750 1894 4750 
Q 2613 4750 3031 4423 
Q 3450 4097 3450 3541 
Q 3450 3153 3228 2886 
Q 3006 2619 2597 2516 
z
" transform="scale(0.015625)"/>
       </defs>
       <use xlink:href="#DejaVuSans-32"/>
       <use xlink:href="#DejaVuSans-30" x="63.623047"/>
       <use xlink:href="#DejaVuSans-33" x="127.246094"/>
       <use xlink:href="#DejaVuSans-30" x="190.869141"/>
      </g>
     </g>
    </g>
    <g id="xtick_8">
     <g id="line2d_8">
      <g>
       <use xlink:href="#m6e7c1af3cd" x="510.012257" y="640.8" style="stroke: #000000; stroke-width: 0.8"/>
      </g>
     </g>
     <g id="text_8">
      <!-- 2031 -->
      <g transform="translate(494.742257 656.918125) scale(0.12 -0.12)">
       <defs>
        <path id="DejaVuSans-31" d="M 794 531 
L 1825 531 
L 1825 4091 
L 703 3866 
L 703 4441 
L 1819 4666 
L 2450 4666 
L 2450 531 
L 3481 531 
L 3481 0 
L 794 0 
L 794 531 
z
" transform="scale(0.015625)"/>
       </defs>
       <use xlink:href="#DejaVuSans-32"/>
       <use xlink:href="#DejaVuSans-30" x="63.623047"/>
       <use xlink:href="#DejaVuSans-33" x="127.246094"/>
       <use xlink:href="#DejaVuSans-31" x="190.869141"/>
      </g>
     </g>
    </g>
    <g id="xtick_9">
     <g id="line2d_9">
      <g>
       <use xlink:href="#m6e7c1af3cd" x="548.010215" y="640.8" style="stroke: #000000; stroke-width: 0.8"/>
      </g>
     </g>
     <g id="text_9">
      <!-- 2032 -->
      <g transform="translate(532.740215 656.918125) scale(0.12 -0.12)">
       <use xlink:href="#DejaVuSans-32"/>
       <use xlink:href="#DejaVuSans-30" x="63.623047"/>
       <use xlink:href="#DejaVuSans-33" x="127.246094"/>
       <use xlink:href="#DejaVuSans-32" x="190.869141"/>
      </g>
     </g>
    </g>
    <g id="xtick_10">
     <g id="line2d_10">
      <g>
       <use xlink:href="#m6e7c1af3cd" x="586.008172" y="640.8" style="stroke: #000000; stroke-width: 0.8"/>
      </g>
     </g>
     <g id="text_10">
      <!-- 2033 -->
      <g transform="translate(570.738172 656.918125) scale(0.12 -0.12)">
       <use xlink:href="#DejaVuSans-32"/>
       <use xlink:href="#DejaVuSans-30" x="63.623047"/>
       <use xlink:href="#DejaVuSans-33" x="127.246094"/>
       <use xlink:href="#DejaVuSans-33" x="190.869141"/>
      </g>
     </g>
    </g>
    <g id="xtick_11">
     <g id="line2d_11">
      <g>
       <use xlink:href="#m6e7c1af3cd" x="624.006129" y="640.8" style="stroke: #000000; stroke-width: 0.8"/>
      </g>
     </g>
     <g id="text_11">
      <!-- 2034 -->
      <g transform="translate(608.736129 656.918125) scale(0.12 -0.12)">
       <use xlink:href="#DejaVuSans-32"/>
       <use xlink:href="#DejaVuSans-30" x="63.623047"/>
       <use xlink:href="#DejaVuSans-33" x="127.246094"/>
       <use xlink:href="#DejaVuSans-34" x="190.869141"/>
      </g>
     </g>
    </g>
    <g id="xtick_12">
     <g id="line2d_12">
      <g>
       <use xlink:href="#m6e7c1af3cd" x="662.004086" y="640.8" style="stroke: #000000; stroke-width: 0.8"/>
      </g>
     </g>
     <g id="text_12">
      <!-- 2035 -->
      <g transform="translate(646.734086 656.918125) scale(0.12 -0.12)">
       <use xlink:href="#DejaVuSans-32"/>
       <use xlink:href="#DejaVuSans-30" x="63.623047"/>
       <use xlink:href="#DejaVuSans-33" x="127.246094"/>
       <use xlink:href="#DejaVuSans-35" x="190.869141"/>
      </g>
     </g>
    </g>
    <g id="xtick_13">
     <g id="line2d_13">
      <g>
       <use xlink:href="#m6e7c1af3cd" x="700.002043" y="640.8" style="stroke: #000000; stroke-width: 0.8"/>
      </g>
     </g>
     <g id="text_13">
      <!-- 2036 -->
      <g transform="translate(684.732043 656.918125) scale(0.12 -0.12)">
       <use xlink:href="#DejaVuSans-32"/>
       <use xlink:href="#DejaVuSans-30" x="63.623047"/>
       <use xlink:href="#DejaVuSans-33" x="127.246094"/>
       <use xlink:href="#DejaVuSans-36" x="190.869141"/>
      </g>
     </g>
    </g>
    <g id="xtick_14">
     <g id="line2d_14">
      <g>
       <use xlink:href="#m6e7c1af3cd" x="738" y="640.8" style="stroke: #000000; stroke-width: 0.8"/>
      </g>
     </g>
     <g id="text_14">
      <!-- 2037 -->
      <g transform="translate(722.73 656.918125) scale(0.12 -0.12)">
       <use xlink:href="#DejaVuSans-32"/>
       <use xlink:href="#DejaVuSans-30" x="63.623047"/>
       <use xlink:href="#DejaVuSans-33" x="127.246094"/>
       <use xlink:href="#DejaVuSans-37" x="190.869141"/>
      </g>
     </g>
    </g>
    <g id="xtick_15">
     <g id="line2d_15">
      <g>
       <use xlink:href="#m6e7c1af3cd" x="775.997957" y="640.8" style="stroke: #000000; stroke-width: 0.8"/>
      </g>
     </g>
     <g id="text_15">
      <!-- 2038 -->
      <g transform="translate(760.727957 656.918125) scale(0.12 -0.12)">
       <use xlink:href="#DejaVuSans-32"/>
       <use xlink:href="#DejaVuSans-30" x="63.623047"/>
       <use xlink:href="#DejaVuSans-33" x="127.246094"/>
       <use xlink:href="#DejaVuSans-38" x="190.869141"/>
      </g>
     </g>
    </g>
    <g id="xtick_16">
     <g id="line2d_16">
      <g>
       <use xlink:href="#m6e7c1af3cd" x="813.995914" y="640.8" style="stroke: #000000; stroke-width: 0.8"/>
      </g>
     </g>
     <g id="text_16">
      <!-- 2039 -->
      <g transform="translate(798.725914 656.918125) scale(0.12 -0.12)">
       <use xlink:href="#DejaVuSans-32"/>
       <use xlink:href="#DejaVuSans-30" x="63.623047"/>
       <use xlink:href="#DejaVuSans-33" x="127.246094"/>
       <use xlink:href="#DejaVuSans-39" x="190.869141"/>
      </g>
     </g>
    </g>
    <g id="xtick_17">
     <g id="line2d_17">
      <g>
       <use xlink:href="#m6e7c1af3cd" x="851.993871" y="640.8" style="stroke: #000000; stroke-width: 0.8"/>
      </g>
     </g>
     <g id="text_17">
      <!-- 2040 -->
      <g transform="translate(836.723871 656.918125) scale(0.12 -0.12)">
       <use xlink:href="#DejaVuSans-32"/>
       <use xlink:href="#DejaVuSans-30" x="63.623047"/>
       <use xlink:href="#DejaVuSans-34" x="127.246094"/>
       <use xlink:href="#DejaVuSans-30" x="190.869141"/>
      </g>
     </g>
    </g>
    <g id="xtick_18">
     <g id="line2d_18">
      <g>
       <use xlink:href="#m6e7c1af3cd" x="889.991828" y="640.8" style="stroke: #000000; stroke-width: 0.8"/>
      </g>
     </g>
     <g id="text_18">
      <!-- 2041 -->
      <g transform="translate(874.721828 656.918125) scale(0.12 -0.12)">
       <use xlink:href="#DejaVuSans-32"/>
       <use xlink:href="#DejaVuSans-30" x="63.623047"/>
       <use xlink:href="#DejaVuSans-34" x="127.246094"/>
       <use xlink:href="#DejaVuSans-31" x="190.869141"/>
      </g>
     </g>
    </g>
    <g id="xtick_19">
     <g id="line2d_19">
      <g>
       <use xlink:href="#m6e7c1af3cd" x="927.989785" y="640.8" style="stroke: #000000; stroke-width: 0.8"/>
      </g>
     </g>
     <g id="text_19">
      <!-- 2042 -->
      <g transform="translate(912.719785 656.918125) scale(0.12 -0.12)">
       <use xlink:href="#DejaVuSans-32"/>
       <use xlink:href="#DejaVuSans-30" x="63.623047"/>
       <use xlink:href="#DejaVuSans-34" x="127.246094"/>
       <use xlink:href="#DejaVuSans-32" x="190.869141"/>
      </g>
     </g>
    </g>
    <g id="xtick_20">
     <g id="line2d_20">
      <g>
       <use xlink:href="#m6e7c1af3cd" x="965.987743" y="640.8" style="stroke: #000000; stroke-width: 0.8"/>
      </g>
     </g>
     <g id="text_20">
      <!-- 2043 -->
      <g transform="translate(950.717743 656.918125) scale(0.12 -0.12)">
       <use xlink:href="#DejaVuSans-32"/>
       <use xlink:href="#DejaVuSans-30" x="63.623047"/>
       <use xlink:href="#DejaVuSans-34" x="127.246094"/>
       <use xlink:href="#DejaVuSans-33" x="190.869141"/>
      </g>
     </g>
    </g>
    <g id="xtick_21">
     <g id="line2d_21">
      <g>
       <use xlink:href="#m6e7c1af3cd" x="1003.9857" y="640.8" style="stroke: #000000; stroke-width: 0.8"/>
      </g>
     </g>
     <g id="text_21">
      <!-- 2044 -->
      <g transform="translate(988.7157 656.918125) scale(0.12 -0.12)">
       <use xlink:href="#DejaVuSans-32"/>
       <use xlink:href="#DejaVuSans-30" x="63.623047"/>
       <use xlink:href="#DejaVuSans-34" x="127.246094"/>
       <use xlink:href="#DejaVuSans-34" x="190.869141"/>
      </g>
     </g>
    </g>
    <g id="xtick_22">
     <g id="line2d_22">
      <g>
       <use xlink:href="#m6e7c1af3cd" x="1041.983657" y="640.8" style="stroke: #000000; stroke-width: 0.8"/>
      </g>
     </g>
     <g id="text_22">
      <!-- 2045 -->
      <g transform="translate(1026.713657 656.918125) scale(0.12 -0.12)">
       <use xlink:href="#DejaVuSans-32"/>
       <use xlink:href="#DejaVuSans-30" x="63.623047"/>
       <use xlink:href="#DejaVuSans-34" x="127.246094"/>
       <use xlink:href="#DejaVuSans-35" x="190.869141"/>
      </g>
     </g>
    </g>
    <g id="xtick_23">
     <g id="line2d_23">
      <g>
       <use xlink:href="#m6e7c1af3cd" x="1079.981614" y="640.8" style="stroke: #000000; stroke-width: 0.8"/>
      </g>
     </g>
     <g id="text_23">
      <!-- 2046 -->
      <g transform="translate(1064.711614 656.918125) scale(0.12 -0.12)">
       <use xlink:href="#DejaVuSans-32"/>
       <use xlink:href="#DejaVuSans-30" x="63.623047"/>
       <use xlink:href="#DejaVuSans-34" x="127.246094"/>
       <use xlink:href="#DejaVuSans-36" x="190.869141"/>
      </g>
     </g>
    </g>
    <g id="xtick_24">
     <g id="line2d_24">
      <g>
       <use xlink:href="#m6e7c1af3cd" x="1117.979571" y="640.8" style="stroke: #000000; stroke-width: 0.8"/>
      </g>
     </g>
     <g id="text_24">
      <!-- 2047 -->
      <g transform="translate(1102.709571 656.918125) scale(0.12 -0.12)">
       <use xlink:href="#DejaVuSans-32"/>
       <use xlink:href="#DejaVuSans-30" x="63.623047"/>
       <use xlink:href="#DejaVuSans-34" x="127.246094"/>
       <use xlink:href="#DejaVuSans-37" x="190.869141"/>
      </g>
     </g>
    </g>
    <g id="xtick_25">
     <g id="line2d_25">
      <g>
       <use xlink:href="#m6e7c1af3cd" x="1155.977528" y="640.8" style="stroke: #000000; stroke-width: 0.8"/>
      </g>
     </g>
     <g id="text_25">
      <!-- 2048 -->
      <g transform="translate(1140.707528 656.918125) scale(0.12 -0.12)">
       <use xlink:href="#DejaVuSans-32"/>
       <use xlink:href="#DejaVuSans-30" x="63.623047"/>
       <use xlink:href="#DejaVuSans-34" x="127.246094"/>
       <use xlink:href="#DejaVuSans-38" x="190.869141"/>
      </g>
     </g>
    </g>
    <g id="xtick_26">
     <g id="line2d_26">
      <g>
       <use xlink:href="#m6e7c1af3cd" x="1193.975485" y="640.8" style="stroke: #000000; stroke-width: 0.8"/>
      </g>
     </g>
     <g id="text_26">
      <!-- 2049 -->
      <g transform="translate(1178.705485 656.918125) scale(0.12 -0.12)">
       <use xlink:href="#DejaVuSans-32"/>
       <use xlink:href="#DejaVuSans-30" x="63.623047"/>
       <use xlink:href="#DejaVuSans-34" x="127.246094"/>
       <use xlink:href="#DejaVuSans-39" x="190.869141"/>
      </g>
     </g>
    </g>
    <g id="xtick_27">
     <g id="line2d_27">
      <g>
       <use xlink:href="#m6e7c1af3cd" x="1231.973442" y="640.8" style="stroke: #000000; stroke-width: 0.8"/>
      </g>
     </g>
     <g id="text_27">
      <!-- 2050 -->
      <g transform="translate(1216.703442 656.918125) scale(0.12 -0.12)">
       <use xlink:href="#DejaVuSans-32"/>
       <use xlink:href="#DejaVuSans-30" x="63.623047"/>
       <use xlink:href="#DejaVuSans-35" x="127.246094"/>
       <use xlink:href="#DejaVuSans-30" x="190.869141"/>
      </g>
     </g>
    </g>
    <g id="text_28">
     <!-- Year -->
     <g transform="translate(714.7075 680.130313) scale(0.22 -0.22)">
      <defs>
       <path id="DejaVuSans-59" d="M -13 4666 
L 666 4666 
L 1959 2747 
L 3244 4666 
L 3922 4666 
L 2272 2222 
L 2272 0 
L 1638 0 
L 1638 2222 
L -13 4666 
z
" transform="scale(0.015625)"/>
       <path id="DejaVuSans-65" d="M 3597 1894 
L 3597 1613 
L 953 1613 
Q 991 1019 1311 708 
Q 1631 397 2203 397 
Q 2534 397 2845 478 
Q 3156 559 3463 722 
L 3463 178 
Q 3153 47 2828 -22 
Q 2503 -91 2169 -91 
Q 1331 -91 842 396 
Q 353 884 353 1716 
Q 353 2575 817 3079 
Q 1281 3584 2069 3584 
Q 2775 3584 3186 3129 
Q 3597 2675 3597 1894 
z
M 3022 2063 
Q 3016 2534 2758 2815 
Q 2500 3097 2075 3097 
Q 1594 3097 1305 2825 
Q 1016 2553 972 2059 
L 3022 2063 
z
" transform="scale(0.015625)"/>
       <path id="DejaVuSans-61" d="M 2194 1759 
Q 1497 1759 1228 1600 
Q 959 1441 959 1056 
Q 959 750 1161 570 
Q 1363 391 1709 391 
Q 2188 391 2477 730 
Q 2766 1069 2766 1631 
L 2766 1759 
L 2194 1759 
z
M 3341 1997 
L 3341 0 
L 2766 0 
L 2766 531 
Q 2569 213 2275 61 
Q 1981 -91 1556 -91 
Q 1019 -91 701 211 
Q 384 513 384 1019 
Q 384 1609 779 1909 
Q 1175 2209 1959 2209 
L 2766 2209 
L 2766 2266 
Q 2766 2663 2505 2880 
Q 2244 3097 1772 3097 
Q 1472 3097 1187 3025 
Q 903 2953 641 2809 
L 641 3341 
Q 956 3463 1253 3523 
Q 1550 3584 1831 3584 
Q 2591 3584 2966 3190 
Q 3341 2797 3341 1997 
z
" transform="scale(0.015625)"/>
       <path id="DejaVuSans-72" d="M 2631 2963 
Q 2534 3019 2420 3045 
Q 2306 3072 2169 3072 
Q 1681 3072 1420 2755 
Q 1159 2438 1159 1844 
L 1159 0 
L 581 0 
L 581 3500 
L 1159 3500 
L 1159 2956 
Q 1341 3275 1631 3429 
Q 1922 3584 2338 3584 
Q 2397 3584 2469 3576 
Q 2541 3569 2628 3553 
L 2631 2963 
z
" transform="scale(0.015625)"/>
      </defs>
      <use xlink:href="#DejaVuSans-59"/>
      <use xlink:href="#DejaVuSans-65" x="47.833984"/>
      <use xlink:href="#DejaVuSans-61" x="109.357422"/>
      <use xlink:href="#DejaVuSans-72" x="170.636719"/>
     </g>
    </g>
   </g>
   <g id="matplotlib.axis_2">
    <g id="ytick_1">
     <g id="line2d_28">
      <defs>
       <path id="m41479c81a4" d="M 0 0 
L -3.5 0 
" style="stroke: #000000; stroke-width: 0.8"/>
      </defs>
      <g>
       <use xlink:href="#m41479c81a4" x="180" y="640.8" style="stroke: #000000; stroke-width: 0.8"/>
      </g>
     </g>
     <g id="text_29">
      <!-- 0 -->
      <g transform="translate(159.0025 649.158281) scale(0.22 -0.22)">
       <use xlink:href="#DejaVuSans-30"/>
      </g>
     </g>
    </g>
    <g id="ytick_2">
     <g id="line2d_29">
      <g>
       <use xlink:href="#m41479c81a4" x="180" y="566.616735" style="stroke: #000000; stroke-width: 0.8"/>
      </g>
     </g>
     <g id="text_30">
      <!-- 100000 -->
      <g transform="translate(89.015 574.975016) scale(0.22 -0.22)">
       <use xlink:href="#DejaVuSans-31"/>
       <use xlink:href="#DejaVuSans-30" x="63.623047"/>
       <use xlink:href="#DejaVuSans-30" x="127.246094"/>
       <use xlink:href="#DejaVuSans-30" x="190.869141"/>
       <use xlink:href="#DejaVuSans-30" x="254.492188"/>
       <use xlink:href="#DejaVuSans-30" x="318.115234"/>
      </g>
     </g>
    </g>
    <g id="ytick_3">
     <g id="line2d_30">
      <g>
       <use xlink:href="#m41479c81a4" x="180" y="492.433469" style="stroke: #000000; stroke-width: 0.8"/>
      </g>
     </g>
     <g id="text_31">
      <!-- 200000 -->
      <g transform="translate(89.015 500.79175) scale(0.22 -0.22)">
       <use xlink:href="#DejaVuSans-32"/>
       <use xlink:href="#DejaVuSans-30" x="63.623047"/>
       <use xlink:href="#DejaVuSans-30" x="127.246094"/>
       <use xlink:href="#DejaVuSans-30" x="190.869141"/>
       <use xlink:href="#DejaVuSans-30" x="254.492188"/>
       <use xlink:href="#DejaVuSans-30" x="318.115234"/>
      </g>
     </g>
    </g>
    <g id="ytick_4">
     <g id="line2d_31">
      <g>
       <use xlink:href="#m41479c81a4" x="180" y="418.250204" style="stroke: #000000; stroke-width: 0.8"/>
      </g>
     </g>
     <g id="text_32">
      <!-- 300000 -->
      <g transform="translate(89.015 426.608485) scale(0.22 -0.22)">
       <use xlink:href="#DejaVuSans-33"/>
       <use xlink:href="#DejaVuSans-30" x="63.623047"/>
       <use xlink:href="#DejaVuSans-30" x="127.246094"/>
       <use xlink:href="#DejaVuSans-30" x="190.869141"/>
       <use xlink:href="#DejaVuSans-30" x="254.492188"/>
       <use xlink:href="#DejaVuSans-30" x="318.115234"/>
      </g>
     </g>
    </g>
    <g id="ytick_5">
     <g id="line2d_32">
      <g>
       <use xlink:href="#m41479c81a4" x="180" y="344.066938" style="stroke: #000000; stroke-width: 0.8"/>
      </g>
     </g>
     <g id="text_33">
      <!-- 400000 -->
      <g transform="translate(89.015 352.42522) scale(0.22 -0.22)">
       <use xlink:href="#DejaVuSans-34"/>
       <use xlink:href="#DejaVuSans-30" x="63.623047"/>
       <use xlink:href="#DejaVuSans-30" x="127.246094"/>
       <use xlink:href="#DejaVuSans-30" x="190.869141"/>
       <use xlink:href="#DejaVuSans-30" x="254.492188"/>
       <use xlink:href="#DejaVuSans-30" x="318.115234"/>
      </g>
     </g>
    </g>
    <g id="ytick_6">
     <g id="line2d_33">
      <g>
       <use xlink:href="#m41479c81a4" x="180" y="269.883673" style="stroke: #000000; stroke-width: 0.8"/>
      </g>
     </g>
     <g id="text_34">
      <!-- 500000 -->
      <g transform="translate(89.015 278.241954) scale(0.22 -0.22)">
       <use xlink:href="#DejaVuSans-35"/>
       <use xlink:href="#DejaVuSans-30" x="63.623047"/>
       <use xlink:href="#DejaVuSans-30" x="127.246094"/>
       <use xlink:href="#DejaVuSans-30" x="190.869141"/>
       <use xlink:href="#DejaVuSans-30" x="254.492188"/>
       <use xlink:href="#DejaVuSans-30" x="318.115234"/>
      </g>
     </g>
    </g>
    <g id="ytick_7">
     <g id="line2d_34">
      <g>
       <use xlink:href="#m41479c81a4" x="180" y="195.700408" style="stroke: #000000; stroke-width: 0.8"/>
      </g>
     </g>
     <g id="text_35">
      <!-- 600000 -->
      <g transform="translate(89.015 204.058689) scale(0.22 -0.22)">
       <use xlink:href="#DejaVuSans-36"/>
       <use xlink:href="#DejaVuSans-30" x="63.623047"/>
       <use xlink:href="#DejaVuSans-30" x="127.246094"/>
       <use xlink:href="#DejaVuSans-30" x="190.869141"/>
       <use xlink:href="#DejaVuSans-30" x="254.492188"/>
       <use xlink:href="#DejaVuSans-30" x="318.115234"/>
      </g>
     </g>
    </g>
    <g id="ytick_8">
     <g id="line2d_35">
      <g>
       <use xlink:href="#m41479c81a4" x="180" y="121.517142" style="stroke: #000000; stroke-width: 0.8"/>
      </g>
     </g>
     <g id="text_36">
      <!-- 700000 -->
      <g transform="translate(89.015 129.875423) scale(0.22 -0.22)">
       <use xlink:href="#DejaVuSans-37"/>
       <use xlink:href="#DejaVuSans-30" x="63.623047"/>
       <use xlink:href="#DejaVuSans-30" x="127.246094"/>
       <use xlink:href="#DejaVuSans-30" x="190.869141"/>
       <use xlink:href="#DejaVuSans-30" x="254.492188"/>
       <use xlink:href="#DejaVuSans-30" x="318.115234"/>
      </g>
     </g>
    </g>
    <g id="text_37">
     <!-- Biomass Usage [GWh p. a.] -->
     <g transform="translate(80.439687 513.7775) rotate(-90) scale(0.22 -0.22)">
      <defs>
       <path id="DejaVuSans-42" d="M 1259 2228 
L 1259 519 
L 2272 519 
Q 2781 519 3026 730 
Q 3272 941 3272 1375 
Q 3272 1813 3026 2020 
Q 2781 2228 2272 2228 
L 1259 2228 
z
M 1259 4147 
L 1259 2741 
L 2194 2741 
Q 2656 2741 2882 2914 
Q 3109 3088 3109 3444 
Q 3109 3797 2882 3972 
Q 2656 4147 2194 4147 
L 1259 4147 
z
M 628 4666 
L 2241 4666 
Q 2963 4666 3353 4366 
Q 3744 4066 3744 3513 
Q 3744 3084 3544 2831 
Q 3344 2578 2956 2516 
Q 3422 2416 3680 2098 
Q 3938 1781 3938 1306 
Q 3938 681 3513 340 
Q 3088 0 2303 0 
L 628 0 
L 628 4666 
z
" transform="scale(0.015625)"/>
       <path id="DejaVuSans-69" d="M 603 3500 
L 1178 3500 
L 1178 0 
L 603 0 
L 603 3500 
z
M 603 4863 
L 1178 4863 
L 1178 4134 
L 603 4134 
L 603 4863 
z
" transform="scale(0.015625)"/>
       <path id="DejaVuSans-6f" d="M 1959 3097 
Q 1497 3097 1228 2736 
Q 959 2375 959 1747 
Q 959 1119 1226 758 
Q 1494 397 1959 397 
Q 2419 397 2687 759 
Q 2956 1122 2956 1747 
Q 2956 2369 2687 2733 
Q 2419 3097 1959 3097 
z
M 1959 3584 
Q 2709 3584 3137 3096 
Q 3566 2609 3566 1747 
Q 3566 888 3137 398 
Q 2709 -91 1959 -91 
Q 1206 -91 779 398 
Q 353 888 353 1747 
Q 353 2609 779 3096 
Q 1206 3584 1959 3584 
z
" transform="scale(0.015625)"/>
       <path id="DejaVuSans-6d" d="M 3328 2828 
Q 3544 3216 3844 3400 
Q 4144 3584 4550 3584 
Q 5097 3584 5394 3201 
Q 5691 2819 5691 2113 
L 5691 0 
L 5113 0 
L 5113 2094 
Q 5113 2597 4934 2840 
Q 4756 3084 4391 3084 
Q 3944 3084 3684 2787 
Q 3425 2491 3425 1978 
L 3425 0 
L 2847 0 
L 2847 2094 
Q 2847 2600 2669 2842 
Q 2491 3084 2119 3084 
Q 1678 3084 1418 2786 
Q 1159 2488 1159 1978 
L 1159 0 
L 581 0 
L 581 3500 
L 1159 3500 
L 1159 2956 
Q 1356 3278 1631 3431 
Q 1906 3584 2284 3584 
Q 2666 3584 2933 3390 
Q 3200 3197 3328 2828 
z
" transform="scale(0.015625)"/>
       <path id="DejaVuSans-73" d="M 2834 3397 
L 2834 2853 
Q 2591 2978 2328 3040 
Q 2066 3103 1784 3103 
Q 1356 3103 1142 2972 
Q 928 2841 928 2578 
Q 928 2378 1081 2264 
Q 1234 2150 1697 2047 
L 1894 2003 
Q 2506 1872 2764 1633 
Q 3022 1394 3022 966 
Q 3022 478 2636 193 
Q 2250 -91 1575 -91 
Q 1294 -91 989 -36 
Q 684 19 347 128 
L 347 722 
Q 666 556 975 473 
Q 1284 391 1588 391 
Q 1994 391 2212 530 
Q 2431 669 2431 922 
Q 2431 1156 2273 1281 
Q 2116 1406 1581 1522 
L 1381 1569 
Q 847 1681 609 1914 
Q 372 2147 372 2553 
Q 372 3047 722 3315 
Q 1072 3584 1716 3584 
Q 2034 3584 2315 3537 
Q 2597 3491 2834 3397 
z
" transform="scale(0.015625)"/>
       <path id="DejaVuSans-20" transform="scale(0.015625)"/>
       <path id="DejaVuSans-55" d="M 556 4666 
L 1191 4666 
L 1191 1831 
Q 1191 1081 1462 751 
Q 1734 422 2344 422 
Q 2950 422 3222 751 
Q 3494 1081 3494 1831 
L 3494 4666 
L 4128 4666 
L 4128 1753 
Q 4128 841 3676 375 
Q 3225 -91 2344 -91 
Q 1459 -91 1007 375 
Q 556 841 556 1753 
L 556 4666 
z
" transform="scale(0.015625)"/>
       <path id="DejaVuSans-67" d="M 2906 1791 
Q 2906 2416 2648 2759 
Q 2391 3103 1925 3103 
Q 1463 3103 1205 2759 
Q 947 2416 947 1791 
Q 947 1169 1205 825 
Q 1463 481 1925 481 
Q 2391 481 2648 825 
Q 2906 1169 2906 1791 
z
M 3481 434 
Q 3481 -459 3084 -895 
Q 2688 -1331 1869 -1331 
Q 1566 -1331 1297 -1286 
Q 1028 -1241 775 -1147 
L 775 -588 
Q 1028 -725 1275 -790 
Q 1522 -856 1778 -856 
Q 2344 -856 2625 -561 
Q 2906 -266 2906 331 
L 2906 616 
Q 2728 306 2450 153 
Q 2172 0 1784 0 
Q 1141 0 747 490 
Q 353 981 353 1791 
Q 353 2603 747 3093 
Q 1141 3584 1784 3584 
Q 2172 3584 2450 3431 
Q 2728 3278 2906 2969 
L 2906 3500 
L 3481 3500 
L 3481 434 
z
" transform="scale(0.015625)"/>
       <path id="DejaVuSans-5b" d="M 550 4863 
L 1875 4863 
L 1875 4416 
L 1125 4416 
L 1125 -397 
L 1875 -397 
L 1875 -844 
L 550 -844 
L 550 4863 
z
" transform="scale(0.015625)"/>
       <path id="DejaVuSans-47" d="M 3809 666 
L 3809 1919 
L 2778 1919 
L 2778 2438 
L 4434 2438 
L 4434 434 
Q 4069 175 3628 42 
Q 3188 -91 2688 -91 
Q 1594 -91 976 548 
Q 359 1188 359 2328 
Q 359 3472 976 4111 
Q 1594 4750 2688 4750 
Q 3144 4750 3555 4637 
Q 3966 4525 4313 4306 
L 4313 3634 
Q 3963 3931 3569 4081 
Q 3175 4231 2741 4231 
Q 1884 4231 1454 3753 
Q 1025 3275 1025 2328 
Q 1025 1384 1454 906 
Q 1884 428 2741 428 
Q 3075 428 3337 486 
Q 3600 544 3809 666 
z
" transform="scale(0.015625)"/>
       <path id="DejaVuSans-57" d="M 213 4666 
L 850 4666 
L 1831 722 
L 2809 4666 
L 3519 4666 
L 4500 722 
L 5478 4666 
L 6119 4666 
L 4947 0 
L 4153 0 
L 3169 4050 
L 2175 0 
L 1381 0 
L 213 4666 
z
" transform="scale(0.015625)"/>
       <path id="DejaVuSans-68" d="M 3513 2113 
L 3513 0 
L 2938 0 
L 2938 2094 
Q 2938 2591 2744 2837 
Q 2550 3084 2163 3084 
Q 1697 3084 1428 2787 
Q 1159 2491 1159 1978 
L 1159 0 
L 581 0 
L 581 4863 
L 1159 4863 
L 1159 2956 
Q 1366 3272 1645 3428 
Q 1925 3584 2291 3584 
Q 2894 3584 3203 3211 
Q 3513 2838 3513 2113 
z
" transform="scale(0.015625)"/>
       <path id="DejaVuSans-70" d="M 1159 525 
L 1159 -1331 
L 581 -1331 
L 581 3500 
L 1159 3500 
L 1159 2969 
Q 1341 3281 1617 3432 
Q 1894 3584 2278 3584 
Q 2916 3584 3314 3078 
Q 3713 2572 3713 1747 
Q 3713 922 3314 415 
Q 2916 -91 2278 -91 
Q 1894 -91 1617 61 
Q 1341 213 1159 525 
z
M 3116 1747 
Q 3116 2381 2855 2742 
Q 2594 3103 2138 3103 
Q 1681 3103 1420 2742 
Q 1159 2381 1159 1747 
Q 1159 1113 1420 752 
Q 1681 391 2138 391 
Q 2594 391 2855 752 
Q 3116 1113 3116 1747 
z
" transform="scale(0.015625)"/>
       <path id="DejaVuSans-2e" d="M 684 794 
L 1344 794 
L 1344 0 
L 684 0 
L 684 794 
z
" transform="scale(0.015625)"/>
       <path id="DejaVuSans-5d" d="M 1947 4863 
L 1947 -844 
L 622 -844 
L 622 -397 
L 1369 -397 
L 1369 4416 
L 622 4416 
L 622 4863 
L 1947 4863 
z
" transform="scale(0.015625)"/>
      </defs>
      <use xlink:href="#DejaVuSans-42"/>
      <use xlink:href="#DejaVuSans-69" x="68.603516"/>
      <use xlink:href="#DejaVuSans-6f" x="96.386719"/>
      <use xlink:href="#DejaVuSans-6d" x="157.568359"/>
      <use xlink:href="#DejaVuSans-61" x="254.980469"/>
      <use xlink:href="#DejaVuSans-73" x="316.259766"/>
      <use xlink:href="#DejaVuSans-73" x="368.359375"/>
      <use xlink:href="#DejaVuSans-20" x="420.458984"/>
      <use xlink:href="#DejaVuSans-55" x="452.246094"/>
      <use xlink:href="#DejaVuSans-73" x="525.439453"/>
      <use xlink:href="#DejaVuSans-61" x="577.539062"/>
      <use xlink:href="#DejaVuSans-67" x="638.818359"/>
      <use xlink:href="#DejaVuSans-65" x="702.294922"/>
      <use xlink:href="#DejaVuSans-20" x="763.818359"/>
      <use xlink:href="#DejaVuSans-5b" x="795.605469"/>
      <use xlink:href="#DejaVuSans-47" x="834.619141"/>
      <use xlink:href="#DejaVuSans-57" x="912.109375"/>
      <use xlink:href="#DejaVuSans-68" x="1010.986328"/>
      <use xlink:href="#DejaVuSans-20" x="1074.365234"/>
      <use xlink:href="#DejaVuSans-70" x="1106.152344"/>
      <use xlink:href="#DejaVuSans-2e" x="1169.628906"/>
      <use xlink:href="#DejaVuSans-20" x="1201.416016"/>
      <use xlink:href="#DejaVuSans-61" x="1233.203125"/>
      <use xlink:href="#DejaVuSans-2e" x="1294.482422"/>
      <use xlink:href="#DejaVuSans-5d" x="1326.269531"/>
     </g>
    </g>
   </g>
   <g id="line2d_36">
    <path d="M 244.026558 116.482007 
L 282.024515 115.868166 
L 320.022472 115.254516 
L 358.020429 114.640977 
L 396.018386 114.027071 
L 434.016343 113.413438 
L 472.0143 112.8 
L 510.012257 113.854642 
L 548.010215 114.909625 
L 586.008172 115.96441 
L 624.006129 117.019269 
L 662.004086 118.074303 
L 700.002043 119.129242 
L 738 120.184148 
L 775.997957 121.239048 
L 813.995914 122.293792 
L 851.993871 123.348657 
L 889.991828 124.037781 
L 927.989785 124.726675 
L 965.987743 125.415642 
L 1003.9857 126.104697 
L 1041.983657 126.79369 
L 1079.981614 127.482447 
L 1117.979571 128.171835 
L 1155.977528 128.861079 
L 1193.975485 129.549952 
L 1231.973442 130.238987 
" clip-path="url(#p002e869255)" style="fill: none; stroke-dasharray: 7.4,3.2; stroke-dashoffset: 0; stroke: #ff0000; stroke-width: 2"/>
   </g>
   <g id="patch_219">
    <path d="M 180 640.8 
L 180 86.4 
" style="fill: none; stroke: #000000; stroke-width: 0.8; stroke-linejoin: miter; stroke-linecap: square"/>
   </g>
   <g id="patch_220">
    <path d="M 1296 640.8 
L 1296 86.4 
" style="fill: none; stroke: #000000; stroke-width: 0.8; stroke-linejoin: miter; stroke-linecap: square"/>
   </g>
   <g id="patch_221">
    <path d="M 180 640.8 
L 1296 640.8 
" style="fill: none; stroke: #000000; stroke-width: 0.8; stroke-linejoin: miter; stroke-linecap: square"/>
   </g>
   <g id="patch_222">
    <path d="M 180 86.4 
L 1296 86.4 
" style="fill: none; stroke: #000000; stroke-width: 0.8; stroke-linejoin: miter; stroke-linecap: square"/>
   </g>
   <g id="text_38">
    <!-- Biomass usage by industry per year -->
    <g transform="translate(500.051438 80.4) scale(0.264 -0.264)">
     <defs>
      <path id="DejaVuSans-75" d="M 544 1381 
L 544 3500 
L 1119 3500 
L 1119 1403 
Q 1119 906 1312 657 
Q 1506 409 1894 409 
Q 2359 409 2629 706 
Q 2900 1003 2900 1516 
L 2900 3500 
L 3475 3500 
L 3475 0 
L 2900 0 
L 2900 538 
Q 2691 219 2414 64 
Q 2138 -91 1772 -91 
Q 1169 -91 856 284 
Q 544 659 544 1381 
z
M 1991 3584 
L 1991 3584 
z
" transform="scale(0.015625)"/>
      <path id="DejaVuSans-62" d="M 3116 1747 
Q 3116 2381 2855 2742 
Q 2594 3103 2138 3103 
Q 1681 3103 1420 2742 
Q 1159 2381 1159 1747 
Q 1159 1113 1420 752 
Q 1681 391 2138 391 
Q 2594 391 2855 752 
Q 3116 1113 3116 1747 
z
M 1159 2969 
Q 1341 3281 1617 3432 
Q 1894 3584 2278 3584 
Q 2916 3584 3314 3078 
Q 3713 2572 3713 1747 
Q 3713 922 3314 415 
Q 2916 -91 2278 -91 
Q 1894 -91 1617 61 
Q 1341 213 1159 525 
L 1159 0 
L 581 0 
L 581 4863 
L 1159 4863 
L 1159 2969 
z
" transform="scale(0.015625)"/>
      <path id="DejaVuSans-79" d="M 2059 -325 
Q 1816 -950 1584 -1140 
Q 1353 -1331 966 -1331 
L 506 -1331 
L 506 -850 
L 844 -850 
Q 1081 -850 1212 -737 
Q 1344 -625 1503 -206 
L 1606 56 
L 191 3500 
L 800 3500 
L 1894 763 
L 2988 3500 
L 3597 3500 
L 2059 -325 
z
" transform="scale(0.015625)"/>
      <path id="DejaVuSans-6e" d="M 3513 2113 
L 3513 0 
L 2938 0 
L 2938 2094 
Q 2938 2591 2744 2837 
Q 2550 3084 2163 3084 
Q 1697 3084 1428 2787 
Q 1159 2491 1159 1978 
L 1159 0 
L 581 0 
L 581 3500 
L 1159 3500 
L 1159 2956 
Q 1366 3272 1645 3428 
Q 1925 3584 2291 3584 
Q 2894 3584 3203 3211 
Q 3513 2838 3513 2113 
z
" transform="scale(0.015625)"/>
      <path id="DejaVuSans-64" d="M 2906 2969 
L 2906 4863 
L 3481 4863 
L 3481 0 
L 2906 0 
L 2906 525 
Q 2725 213 2448 61 
Q 2172 -91 1784 -91 
Q 1150 -91 751 415 
Q 353 922 353 1747 
Q 353 2572 751 3078 
Q 1150 3584 1784 3584 
Q 2172 3584 2448 3432 
Q 2725 3281 2906 2969 
z
M 947 1747 
Q 947 1113 1208 752 
Q 1469 391 1925 391 
Q 2381 391 2643 752 
Q 2906 1113 2906 1747 
Q 2906 2381 2643 2742 
Q 2381 3103 1925 3103 
Q 1469 3103 1208 2742 
Q 947 2381 947 1747 
z
" transform="scale(0.015625)"/>
      <path id="DejaVuSans-74" d="M 1172 4494 
L 1172 3500 
L 2356 3500 
L 2356 3053 
L 1172 3053 
L 1172 1153 
Q 1172 725 1289 603 
Q 1406 481 1766 481 
L 2356 481 
L 2356 0 
L 1766 0 
Q 1100 0 847 248 
Q 594 497 594 1153 
L 594 3053 
L 172 3053 
L 172 3500 
L 594 3500 
L 594 4494 
L 1172 4494 
z
" transform="scale(0.015625)"/>
     </defs>
     <use xlink:href="#DejaVuSans-42"/>
     <use xlink:href="#DejaVuSans-69" x="68.603516"/>
     <use xlink:href="#DejaVuSans-6f" x="96.386719"/>
     <use xlink:href="#DejaVuSans-6d" x="157.568359"/>
     <use xlink:href="#DejaVuSans-61" x="254.980469"/>
     <use xlink:href="#DejaVuSans-73" x="316.259766"/>
     <use xlink:href="#DejaVuSans-73" x="368.359375"/>
     <use xlink:href="#DejaVuSans-20" x="420.458984"/>
     <use xlink:href="#DejaVuSans-75" x="452.246094"/>
     <use xlink:href="#DejaVuSans-73" x="515.625"/>
     <use xlink:href="#DejaVuSans-61" x="567.724609"/>
     <use xlink:href="#DejaVuSans-67" x="629.003906"/>
     <use xlink:href="#DejaVuSans-65" x="692.480469"/>
     <use xlink:href="#DejaVuSans-20" x="754.003906"/>
     <use xlink:href="#DejaVuSans-62" x="785.791016"/>
     <use xlink:href="#DejaVuSans-79" x="849.267578"/>
     <use xlink:href="#DejaVuSans-20" x="908.447266"/>
     <use xlink:href="#DejaVuSans-69" x="940.234375"/>
     <use xlink:href="#DejaVuSans-6e" x="968.017578"/>
     <use xlink:href="#DejaVuSans-64" x="1031.396484"/>
     <use xlink:href="#DejaVuSans-75" x="1094.873047"/>
     <use xlink:href="#DejaVuSans-73" x="1158.251953"/>
     <use xlink:href="#DejaVuSans-74" x="1210.351562"/>
     <use xlink:href="#DejaVuSans-72" x="1249.560547"/>
     <use xlink:href="#DejaVuSans-79" x="1290.673828"/>
     <use xlink:href="#DejaVuSans-20" x="1349.853516"/>
     <use xlink:href="#DejaVuSans-70" x="1381.640625"/>
     <use xlink:href="#DejaVuSans-65" x="1445.117188"/>
     <use xlink:href="#DejaVuSans-72" x="1506.640625"/>
     <use xlink:href="#DejaVuSans-20" x="1547.753906"/>
     <use xlink:href="#DejaVuSans-79" x="1579.541016"/>
     <use xlink:href="#DejaVuSans-65" x="1638.720703"/>
     <use xlink:href="#DejaVuSans-61" x="1700.244141"/>
     <use xlink:href="#DejaVuSans-72" x="1761.523438"/>
    </g>
   </g>
   <g id="legend_1">
    <g id="line2d_37">
     <path d="M 199.8 231.885312 
L 221.8 231.885312 
L 243.8 231.885312 
" style="fill: none; stroke-dasharray: 7.4,3.2; stroke-dashoffset: 0; stroke: #ff0000; stroke-width: 2"/>
    </g>
    <g id="text_39">
     <!-- Capacity Limit for Biomass -->
     <g transform="translate(261.4 239.585312) scale(0.22 -0.22)">
      <defs>
       <path id="DejaVuSans-43" d="M 4122 4306 
L 4122 3641 
Q 3803 3938 3442 4084 
Q 3081 4231 2675 4231 
Q 1875 4231 1450 3742 
Q 1025 3253 1025 2328 
Q 1025 1406 1450 917 
Q 1875 428 2675 428 
Q 3081 428 3442 575 
Q 3803 722 4122 1019 
L 4122 359 
Q 3791 134 3420 21 
Q 3050 -91 2638 -91 
Q 1578 -91 968 557 
Q 359 1206 359 2328 
Q 359 3453 968 4101 
Q 1578 4750 2638 4750 
Q 3056 4750 3426 4639 
Q 3797 4528 4122 4306 
z
" transform="scale(0.015625)"/>
       <path id="DejaVuSans-63" d="M 3122 3366 
L 3122 2828 
Q 2878 2963 2633 3030 
Q 2388 3097 2138 3097 
Q 1578 3097 1268 2742 
Q 959 2388 959 1747 
Q 959 1106 1268 751 
Q 1578 397 2138 397 
Q 2388 397 2633 464 
Q 2878 531 3122 666 
L 3122 134 
Q 2881 22 2623 -34 
Q 2366 -91 2075 -91 
Q 1284 -91 818 406 
Q 353 903 353 1747 
Q 353 2603 823 3093 
Q 1294 3584 2113 3584 
Q 2378 3584 2631 3529 
Q 2884 3475 3122 3366 
z
" transform="scale(0.015625)"/>
       <path id="DejaVuSans-4c" d="M 628 4666 
L 1259 4666 
L 1259 531 
L 3531 531 
L 3531 0 
L 628 0 
L 628 4666 
z
" transform="scale(0.015625)"/>
       <path id="DejaVuSans-66" d="M 2375 4863 
L 2375 4384 
L 1825 4384 
Q 1516 4384 1395 4259 
Q 1275 4134 1275 3809 
L 1275 3500 
L 2222 3500 
L 2222 3053 
L 1275 3053 
L 1275 0 
L 697 0 
L 697 3053 
L 147 3053 
L 147 3500 
L 697 3500 
L 697 3744 
Q 697 4328 969 4595 
Q 1241 4863 1831 4863 
L 2375 4863 
z
" transform="scale(0.015625)"/>
      </defs>
      <use xlink:href="#DejaVuSans-43"/>
      <use xlink:href="#DejaVuSans-61" x="69.824219"/>
      <use xlink:href="#DejaVuSans-70" x="131.103516"/>
      <use xlink:href="#DejaVuSans-61" x="194.580078"/>
      <use xlink:href="#DejaVuSans-63" x="255.859375"/>
      <use xlink:href="#DejaVuSans-69" x="310.839844"/>
      <use xlink:href="#DejaVuSans-74" x="338.623047"/>
      <use xlink:href="#DejaVuSans-79" x="377.832031"/>
      <use xlink:href="#DejaVuSans-20" x="437.011719"/>
      <use xlink:href="#DejaVuSans-4c" x="468.798828"/>
      <use xlink:href="#DejaVuSans-69" x="524.511719"/>
      <use xlink:href="#DejaVuSans-6d" x="552.294922"/>
      <use xlink:href="#DejaVuSans-69" x="649.707031"/>
      <use xlink:href="#DejaVuSans-74" x="677.490234"/>
      <use xlink:href="#DejaVuSans-20" x="716.699219"/>
      <use xlink:href="#DejaVuSans-66" x="748.486328"/>
      <use xlink:href="#DejaVuSans-6f" x="783.691406"/>
      <use xlink:href="#DejaVuSans-72" x="844.873047"/>
      <use xlink:href="#DejaVuSans-20" x="885.986328"/>
      <use xlink:href="#DejaVuSans-42" x="917.773438"/>
      <use xlink:href="#DejaVuSans-69" x="986.376953"/>
      <use xlink:href="#DejaVuSans-6f" x="1014.160156"/>
      <use xlink:href="#DejaVuSans-6d" x="1075.341797"/>
      <use xlink:href="#DejaVuSans-61" x="1172.753906"/>
      <use xlink:href="#DejaVuSans-73" x="1234.033203"/>
      <use xlink:href="#DejaVuSans-73" x="1286.132812"/>
     </g>
    </g>
    <g id="patch_223">
     <path d="M 199.8 271.877187 
L 243.8 271.877187 
L 243.8 256.477188 
L 199.8 256.477188 
z
" style="fill: #17becf"/>
    </g>
    <g id="text_40">
     <!-- Hydrogen_integrated -->
     <g transform="translate(261.4 271.877187) scale(0.22 -0.22)">
      <defs>
       <path id="DejaVuSans-48" d="M 628 4666 
L 1259 4666 
L 1259 2753 
L 3553 2753 
L 3553 4666 
L 4184 4666 
L 4184 0 
L 3553 0 
L 3553 2222 
L 1259 2222 
L 1259 0 
L 628 0 
L 628 4666 
z
" transform="scale(0.015625)"/>
       <path id="DejaVuSans-5f" d="M 3263 -1063 
L 3263 -1509 
L -63 -1509 
L -63 -1063 
L 3263 -1063 
z
" transform="scale(0.015625)"/>
      </defs>
      <use xlink:href="#DejaVuSans-48"/>
      <use xlink:href="#DejaVuSans-79" x="75.195312"/>
      <use xlink:href="#DejaVuSans-64" x="134.375"/>
      <use xlink:href="#DejaVuSans-72" x="197.851562"/>
      <use xlink:href="#DejaVuSans-6f" x="236.714844"/>
      <use xlink:href="#DejaVuSans-67" x="297.896484"/>
      <use xlink:href="#DejaVuSans-65" x="361.373047"/>
      <use xlink:href="#DejaVuSans-6e" x="422.896484"/>
      <use xlink:href="#DejaVuSans-5f" x="486.275391"/>
      <use xlink:href="#DejaVuSans-69" x="536.275391"/>
      <use xlink:href="#DejaVuSans-6e" x="564.058594"/>
      <use xlink:href="#DejaVuSans-74" x="627.4375"/>
      <use xlink:href="#DejaVuSans-65" x="666.646484"/>
      <use xlink:href="#DejaVuSans-67" x="728.169922"/>
      <use xlink:href="#DejaVuSans-72" x="791.646484"/>
      <use xlink:href="#DejaVuSans-61" x="832.759766"/>
      <use xlink:href="#DejaVuSans-74" x="894.039062"/>
      <use xlink:href="#DejaVuSans-65" x="933.248047"/>
      <use xlink:href="#DejaVuSans-64" x="994.771484"/>
     </g>
    </g>
    <g id="patch_224">
     <path d="M 199.8 304.780937 
L 243.8 304.780937 
L 243.8 289.380938 
L 199.8 289.380938 
z
" style="fill: #e377c2"/>
    </g>
    <g id="text_41">
     <!-- Ammonia_integrated -->
     <g transform="translate(261.4 304.780937) scale(0.22 -0.22)">
      <defs>
       <path id="DejaVuSans-41" d="M 2188 4044 
L 1331 1722 
L 3047 1722 
L 2188 4044 
z
M 1831 4666 
L 2547 4666 
L 4325 0 
L 3669 0 
L 3244 1197 
L 1141 1197 
L 716 0 
L 50 0 
L 1831 4666 
z
" transform="scale(0.015625)"/>
      </defs>
      <use xlink:href="#DejaVuSans-41"/>
      <use xlink:href="#DejaVuSans-6d" x="68.408203"/>
      <use xlink:href="#DejaVuSans-6d" x="165.820312"/>
      <use xlink:href="#DejaVuSans-6f" x="263.232422"/>
      <use xlink:href="#DejaVuSans-6e" x="324.414062"/>
      <use xlink:href="#DejaVuSans-69" x="387.792969"/>
      <use xlink:href="#DejaVuSans-61" x="415.576172"/>
      <use xlink:href="#DejaVuSans-5f" x="476.855469"/>
      <use xlink:href="#DejaVuSans-69" x="526.855469"/>
      <use xlink:href="#DejaVuSans-6e" x="554.638672"/>
      <use xlink:href="#DejaVuSans-74" x="618.017578"/>
      <use xlink:href="#DejaVuSans-65" x="657.226562"/>
      <use xlink:href="#DejaVuSans-67" x="718.75"/>
      <use xlink:href="#DejaVuSans-72" x="782.226562"/>
      <use xlink:href="#DejaVuSans-61" x="823.339844"/>
      <use xlink:href="#DejaVuSans-74" x="884.619141"/>
      <use xlink:href="#DejaVuSans-65" x="923.828125"/>
      <use xlink:href="#DejaVuSans-64" x="985.351562"/>
     </g>
    </g>
    <g id="patch_225">
     <path d="M 199.8 337.684687 
L 243.8 337.684687 
L 243.8 322.284688 
L 199.8 322.284688 
z
" style="fill: #1f77b4"/>
    </g>
    <g id="text_42">
     <!-- Steel_integrated -->
     <g transform="translate(261.4 337.684687) scale(0.22 -0.22)">
      <defs>
       <path id="DejaVuSans-53" d="M 3425 4513 
L 3425 3897 
Q 3066 4069 2747 4153 
Q 2428 4238 2131 4238 
Q 1616 4238 1336 4038 
Q 1056 3838 1056 3469 
Q 1056 3159 1242 3001 
Q 1428 2844 1947 2747 
L 2328 2669 
Q 3034 2534 3370 2195 
Q 3706 1856 3706 1288 
Q 3706 609 3251 259 
Q 2797 -91 1919 -91 
Q 1588 -91 1214 -16 
Q 841 59 441 206 
L 441 856 
Q 825 641 1194 531 
Q 1563 422 1919 422 
Q 2459 422 2753 634 
Q 3047 847 3047 1241 
Q 3047 1584 2836 1778 
Q 2625 1972 2144 2069 
L 1759 2144 
Q 1053 2284 737 2584 
Q 422 2884 422 3419 
Q 422 4038 858 4394 
Q 1294 4750 2059 4750 
Q 2388 4750 2728 4690 
Q 3069 4631 3425 4513 
z
" transform="scale(0.015625)"/>
       <path id="DejaVuSans-6c" d="M 603 4863 
L 1178 4863 
L 1178 0 
L 603 0 
L 603 4863 
z
" transform="scale(0.015625)"/>
      </defs>
      <use xlink:href="#DejaVuSans-53"/>
      <use xlink:href="#DejaVuSans-74" x="63.476562"/>
      <use xlink:href="#DejaVuSans-65" x="102.685547"/>
      <use xlink:href="#DejaVuSans-65" x="164.208984"/>
      <use xlink:href="#DejaVuSans-6c" x="225.732422"/>
      <use xlink:href="#DejaVuSans-5f" x="253.515625"/>
      <use xlink:href="#DejaVuSans-69" x="303.515625"/>
      <use xlink:href="#DejaVuSans-6e" x="331.298828"/>
      <use xlink:href="#DejaVuSans-74" x="394.677734"/>
      <use xlink:href="#DejaVuSans-65" x="433.886719"/>
      <use xlink:href="#DejaVuSans-67" x="495.410156"/>
      <use xlink:href="#DejaVuSans-72" x="558.886719"/>
      <use xlink:href="#DejaVuSans-61" x="600"/>
      <use xlink:href="#DejaVuSans-74" x="661.279297"/>
      <use xlink:href="#DejaVuSans-65" x="700.488281"/>
      <use xlink:href="#DejaVuSans-64" x="762.011719"/>
     </g>
    </g>
    <g id="patch_226">
     <path d="M 199.8 370.588437 
L 243.8 370.588437 
L 243.8 355.188438 
L 199.8 355.188438 
z
" style="fill: #e377c2"/>
    </g>
    <g id="text_43">
     <!-- Ammonia -->
     <g transform="translate(261.4 370.588437) scale(0.22 -0.22)">
      <use xlink:href="#DejaVuSans-41"/>
      <use xlink:href="#DejaVuSans-6d" x="68.408203"/>
      <use xlink:href="#DejaVuSans-6d" x="165.820312"/>
      <use xlink:href="#DejaVuSans-6f" x="263.232422"/>
      <use xlink:href="#DejaVuSans-6e" x="324.414062"/>
      <use xlink:href="#DejaVuSans-69" x="387.792969"/>
      <use xlink:href="#DejaVuSans-61" x="415.576172"/>
     </g>
    </g>
    <g id="patch_227">
     <path d="M 199.8 402.880313 
L 243.8 402.880313 
L 243.8 387.480313 
L 199.8 387.480313 
z
" style="fill: #1f77b4"/>
    </g>
    <g id="text_44">
     <!-- Steel -->
     <g transform="translate(261.4 402.880313) scale(0.22 -0.22)">
      <use xlink:href="#DejaVuSans-53"/>
      <use xlink:href="#DejaVuSans-74" x="63.476562"/>
      <use xlink:href="#DejaVuSans-65" x="102.685547"/>
      <use xlink:href="#DejaVuSans-65" x="164.208984"/>
      <use xlink:href="#DejaVuSans-6c" x="225.732422"/>
     </g>
    </g>
    <g id="patch_228">
     <path d="M 199.8 435.172188 
L 243.8 435.172188 
L 243.8 419.772188 
L 199.8 419.772188 
z
" style="fill: #2ca02c"/>
    </g>
    <g id="text_45">
     <!-- Cement -->
     <g transform="translate(261.4 435.172188) scale(0.22 -0.22)">
      <use xlink:href="#DejaVuSans-43"/>
      <use xlink:href="#DejaVuSans-65" x="69.824219"/>
      <use xlink:href="#DejaVuSans-6d" x="131.347656"/>
      <use xlink:href="#DejaVuSans-65" x="228.759766"/>
      <use xlink:href="#DejaVuSans-6e" x="290.283203"/>
      <use xlink:href="#DejaVuSans-74" x="353.662109"/>
     </g>
    </g>
    <g id="patch_229">
     <path d="M 199.8 467.464063 
L 243.8 467.464063 
L 243.8 452.064063 
L 199.8 452.064063 
z
" style="fill: #bcbd22"/>
    </g>
    <g id="text_46">
     <!-- Methanol -->
     <g transform="translate(261.4 467.464063) scale(0.22 -0.22)">
      <defs>
       <path id="DejaVuSans-4d" d="M 628 4666 
L 1569 4666 
L 2759 1491 
L 3956 4666 
L 4897 4666 
L 4897 0 
L 4281 0 
L 4281 4097 
L 3078 897 
L 2444 897 
L 1241 4097 
L 1241 0 
L 628 0 
L 628 4666 
z
" transform="scale(0.015625)"/>
      </defs>
      <use xlink:href="#DejaVuSans-4d"/>
      <use xlink:href="#DejaVuSans-65" x="86.279297"/>
      <use xlink:href="#DejaVuSans-74" x="147.802734"/>
      <use xlink:href="#DejaVuSans-68" x="187.011719"/>
      <use xlink:href="#DejaVuSans-61" x="250.390625"/>
      <use xlink:href="#DejaVuSans-6e" x="311.669922"/>
      <use xlink:href="#DejaVuSans-6f" x="375.048828"/>
      <use xlink:href="#DejaVuSans-6c" x="436.230469"/>
     </g>
    </g>
    <g id="patch_230">
     <path d="M 199.8 499.755938 
L 243.8 499.755938 
L 243.8 484.355938 
L 199.8 484.355938 
z
" style="fill: #d62728"/>
    </g>
    <g id="text_47">
     <!-- Refining -->
     <g transform="translate(261.4 499.755938) scale(0.22 -0.22)">
      <defs>
       <path id="DejaVuSans-52" d="M 2841 2188 
Q 3044 2119 3236 1894 
Q 3428 1669 3622 1275 
L 4263 0 
L 3584 0 
L 2988 1197 
Q 2756 1666 2539 1819 
Q 2322 1972 1947 1972 
L 1259 1972 
L 1259 0 
L 628 0 
L 628 4666 
L 2053 4666 
Q 2853 4666 3247 4331 
Q 3641 3997 3641 3322 
Q 3641 2881 3436 2590 
Q 3231 2300 2841 2188 
z
M 1259 4147 
L 1259 2491 
L 2053 2491 
Q 2509 2491 2742 2702 
Q 2975 2913 2975 3322 
Q 2975 3731 2742 3939 
Q 2509 4147 2053 4147 
L 1259 4147 
z
" transform="scale(0.015625)"/>
      </defs>
      <use xlink:href="#DejaVuSans-52"/>
      <use xlink:href="#DejaVuSans-65" x="64.982422"/>
      <use xlink:href="#DejaVuSans-66" x="126.505859"/>
      <use xlink:href="#DejaVuSans-69" x="161.710938"/>
      <use xlink:href="#DejaVuSans-6e" x="189.494141"/>
      <use xlink:href="#DejaVuSans-69" x="252.873047"/>
      <use xlink:href="#DejaVuSans-6e" x="280.65625"/>
      <use xlink:href="#DejaVuSans-67" x="344.035156"/>
     </g>
    </g>
   </g>
  </g>
 </g>
 <defs>
  <clipPath id="p002e869255">
   <rect x="180" y="86.4" width="1116" height="554.4"/>
  </clipPath>
 </defs>
</svg>
