<?xml version="1.0" encoding="utf-8" standalone="no"?>
<!DOCTYPE svg PUBLIC "-//W3C//DTD SVG 1.1//EN"
  "http://www.w3.org/Graphics/SVG/1.1/DTD/svg11.dtd">
<svg xmlns:xlink="http://www.w3.org/1999/xlink" width="460.8pt" height="345.6pt" viewBox="0 0 460.8 345.6" xmlns="http://www.w3.org/2000/svg" version="1.1">
 <metadata>
  <rdf:RDF xmlns:dc="http://purl.org/dc/elements/1.1/" xmlns:cc="http://creativecommons.org/ns#" xmlns:rdf="http://www.w3.org/1999/02/22-rdf-syntax-ns#">
   <cc:Work>
    <dc:type rdf:resource="http://purl.org/dc/dcmitype/StillImage"/>
    <dc:date>2023-08-29T13:21:21.452874</dc:date>
    <dc:format>image/svg+xml</dc:format>
    <dc:creator>
     <cc:Agent>
      <dc:title>Matplotlib v3.7.1, https://matplotlib.org/</dc:title>
     </cc:Agent>
    </dc:creator>
   </cc:Work>
  </rdf:RDF>
 </metadata>
 <defs>
  <style type="text/css">*{stroke-linejoin: round; stroke-linecap: butt}</style>
 </defs>
 <g id="figure_1">
  <g id="patch_1">
   <path d="M 0 345.6 
L 460.8 345.6 
L 460.8 0 
L 0 0 
L 0 345.6 
z
" style="fill: none"/>
  </g>
  <g id="axes_1">
   <g id="patch_2">
    <path d="M 57.6 307.584 
L 414.72 307.584 
L 414.72 41.472 
L 57.6 41.472 
L 57.6 307.584 
z
" style="fill: none"/>
   </g>
   <g id="matplotlib.axis_1">
    <g id="xtick_1">
     <g id="line2d_1">
      <defs>
       <path id="medac8bd060" d="M 0 0 
L 0 3.5 
" style="stroke: #000000; stroke-width: 0.8"/>
      </defs>
      <g>
       <use xlink:href="#medac8bd060" x="95.862857" y="307.584" style="stroke: #000000; stroke-width: 0.8"/>
      </g>
     </g>
     <g id="text_1">
      <!-- 2025 -->
      <g transform="translate(83.137857 322.182437) scale(0.1 -0.1)">
       <defs>
        <path id="DejaVuSans-32" d="M 1228 531 
L 3431 531 
L 3431 0 
L 469 0 
L 469 531 
Q 828 903 1448 1529 
Q 2069 2156 2228 2338 
Q 2531 2678 2651 2914 
Q 2772 3150 2772 3378 
Q 2772 3750 2511 3984 
Q 2250 4219 1831 4219 
Q 1534 4219 1204 4116 
Q 875 4013 500 3803 
L 500 4441 
Q 881 4594 1212 4672 
Q 1544 4750 1819 4750 
Q 2544 4750 2975 4387 
Q 3406 4025 3406 3419 
Q 3406 3131 3298 2873 
Q 3191 2616 2906 2266 
Q 2828 2175 2409 1742 
Q 1991 1309 1228 531 
z
" transform="scale(0.015625)"/>
        <path id="DejaVuSans-30" d="M 2034 4250 
Q 1547 4250 1301 3770 
Q 1056 3291 1056 2328 
Q 1056 1369 1301 889 
Q 1547 409 2034 409 
Q 2525 409 2770 889 
Q 3016 1369 3016 2328 
Q 3016 3291 2770 3770 
Q 2525 4250 2034 4250 
z
M 2034 4750 
Q 2819 4750 3233 4129 
Q 3647 3509 3647 2328 
Q 3647 1150 3233 529 
Q 2819 -91 2034 -91 
Q 1250 -91 836 529 
Q 422 1150 422 2328 
Q 422 3509 836 4129 
Q 1250 4750 2034 4750 
z
" transform="scale(0.015625)"/>
        <path id="DejaVuSans-35" d="M 691 4666 
L 3169 4666 
L 3169 4134 
L 1269 4134 
L 1269 2991 
Q 1406 3038 1543 3061 
Q 1681 3084 1819 3084 
Q 2600 3084 3056 2656 
Q 3513 2228 3513 1497 
Q 3513 744 3044 326 
Q 2575 -91 1722 -91 
Q 1428 -91 1123 -41 
Q 819 9 494 109 
L 494 744 
Q 775 591 1075 516 
Q 1375 441 1709 441 
Q 2250 441 2565 725 
Q 2881 1009 2881 1497 
Q 2881 1984 2565 2268 
Q 2250 2553 1709 2553 
Q 1456 2553 1204 2497 
Q 953 2441 691 2322 
L 691 4666 
z
" transform="scale(0.015625)"/>
       </defs>
       <use xlink:href="#DejaVuSans-32"/>
       <use xlink:href="#DejaVuSans-30" x="63.623047"/>
       <use xlink:href="#DejaVuSans-32" x="127.246094"/>
       <use xlink:href="#DejaVuSans-35" x="190.869141"/>
      </g>
     </g>
    </g>
    <g id="xtick_2">
     <g id="line2d_2">
      <g>
       <use xlink:href="#medac8bd060" x="159.634286" y="307.584" style="stroke: #000000; stroke-width: 0.8"/>
      </g>
     </g>
     <g id="text_2">
      <!-- 2030 -->
      <g transform="translate(146.909286 322.182437) scale(0.1 -0.1)">
       <defs>
        <path id="DejaVuSans-33" d="M 2597 2516 
Q 3050 2419 3304 2112 
Q 3559 1806 3559 1356 
Q 3559 666 3084 287 
Q 2609 -91 1734 -91 
Q 1441 -91 1130 -33 
Q 819 25 488 141 
L 488 750 
Q 750 597 1062 519 
Q 1375 441 1716 441 
Q 2309 441 2620 675 
Q 2931 909 2931 1356 
Q 2931 1769 2642 2001 
Q 2353 2234 1838 2234 
L 1294 2234 
L 1294 2753 
L 1863 2753 
Q 2328 2753 2575 2939 
Q 2822 3125 2822 3475 
Q 2822 3834 2567 4026 
Q 2313 4219 1838 4219 
Q 1578 4219 1281 4162 
Q 984 4106 628 3988 
L 628 4550 
Q 988 4650 1302 4700 
Q 1616 4750 1894 4750 
Q 2613 4750 3031 4423 
Q 3450 4097 3450 3541 
Q 3450 3153 3228 2886 
Q 3006 2619 2597 2516 
z
" transform="scale(0.015625)"/>
       </defs>
       <use xlink:href="#DejaVuSans-32"/>
       <use xlink:href="#DejaVuSans-30" x="63.623047"/>
       <use xlink:href="#DejaVuSans-33" x="127.246094"/>
       <use xlink:href="#DejaVuSans-30" x="190.869141"/>
      </g>
     </g>
    </g>
    <g id="xtick_3">
     <g id="line2d_3">
      <g>
       <use xlink:href="#medac8bd060" x="223.405714" y="307.584" style="stroke: #000000; stroke-width: 0.8"/>
      </g>
     </g>
     <g id="text_3">
      <!-- 2035 -->
      <g transform="translate(210.680714 322.182437) scale(0.1 -0.1)">
       <use xlink:href="#DejaVuSans-32"/>
       <use xlink:href="#DejaVuSans-30" x="63.623047"/>
       <use xlink:href="#DejaVuSans-33" x="127.246094"/>
       <use xlink:href="#DejaVuSans-35" x="190.869141"/>
      </g>
     </g>
    </g>
    <g id="xtick_4">
     <g id="line2d_4">
      <g>
       <use xlink:href="#medac8bd060" x="287.177143" y="307.584" style="stroke: #000000; stroke-width: 0.8"/>
      </g>
     </g>
     <g id="text_4">
      <!-- 2040 -->
      <g transform="translate(274.452143 322.182437) scale(0.1 -0.1)">
       <defs>
        <path id="DejaVuSans-34" d="M 2419 4116 
L 825 1625 
L 2419 1625 
L 2419 4116 
z
M 2253 4666 
L 3047 4666 
L 3047 1625 
L 3713 1625 
L 3713 1100 
L 3047 1100 
L 3047 0 
L 2419 0 
L 2419 1100 
L 313 1100 
L 313 1709 
L 2253 4666 
z
" transform="scale(0.015625)"/>
       </defs>
       <use xlink:href="#DejaVuSans-32"/>
       <use xlink:href="#DejaVuSans-30" x="63.623047"/>
       <use xlink:href="#DejaVuSans-34" x="127.246094"/>
       <use xlink:href="#DejaVuSans-30" x="190.869141"/>
      </g>
     </g>
    </g>
    <g id="xtick_5">
     <g id="line2d_5">
      <g>
       <use xlink:href="#medac8bd060" x="350.948571" y="307.584" style="stroke: #000000; stroke-width: 0.8"/>
      </g>
     </g>
     <g id="text_5">
      <!-- 2045 -->
      <g transform="translate(338.223571 322.182437) scale(0.1 -0.1)">
       <use xlink:href="#DejaVuSans-32"/>
       <use xlink:href="#DejaVuSans-30" x="63.623047"/>
       <use xlink:href="#DejaVuSans-34" x="127.246094"/>
       <use xlink:href="#DejaVuSans-35" x="190.869141"/>
      </g>
     </g>
    </g>
    <g id="xtick_6">
     <g id="line2d_6">
      <g>
       <use xlink:href="#medac8bd060" x="414.72" y="307.584" style="stroke: #000000; stroke-width: 0.8"/>
      </g>
     </g>
     <g id="text_6">
      <!-- 2050 -->
      <g transform="translate(401.995 322.182437) scale(0.1 -0.1)">
       <use xlink:href="#DejaVuSans-32"/>
       <use xlink:href="#DejaVuSans-30" x="63.623047"/>
       <use xlink:href="#DejaVuSans-35" x="127.246094"/>
       <use xlink:href="#DejaVuSans-30" x="190.869141"/>
      </g>
     </g>
    </g>
    <g id="text_7">
     <!-- Time -->
     <g transform="translate(223.926406 335.860562) scale(0.1 -0.1)">
      <defs>
       <path id="DejaVuSans-54" d="M -19 4666 
L 3928 4666 
L 3928 4134 
L 2272 4134 
L 2272 0 
L 1638 0 
L 1638 4134 
L -19 4134 
L -19 4666 
z
" transform="scale(0.015625)"/>
       <path id="DejaVuSans-69" d="M 603 3500 
L 1178 3500 
L 1178 0 
L 603 0 
L 603 3500 
z
M 603 4863 
L 1178 4863 
L 1178 4134 
L 603 4134 
L 603 4863 
z
" transform="scale(0.015625)"/>
       <path id="DejaVuSans-6d" d="M 3328 2828 
Q 3544 3216 3844 3400 
Q 4144 3584 4550 3584 
Q 5097 3584 5394 3201 
Q 5691 2819 5691 2113 
L 5691 0 
L 5113 0 
L 5113 2094 
Q 5113 2597 4934 2840 
Q 4756 3084 4391 3084 
Q 3944 3084 3684 2787 
Q 3425 2491 3425 1978 
L 3425 0 
L 2847 0 
L 2847 2094 
Q 2847 2600 2669 2842 
Q 2491 3084 2119 3084 
Q 1678 3084 1418 2786 
Q 1159 2488 1159 1978 
L 1159 0 
L 581 0 
L 581 3500 
L 1159 3500 
L 1159 2956 
Q 1356 3278 1631 3431 
Q 1906 3584 2284 3584 
Q 2666 3584 2933 3390 
Q 3200 3197 3328 2828 
z
" transform="scale(0.015625)"/>
       <path id="DejaVuSans-65" d="M 3597 1894 
L 3597 1613 
L 953 1613 
Q 991 1019 1311 708 
Q 1631 397 2203 397 
Q 2534 397 2845 478 
Q 3156 559 3463 722 
L 3463 178 
Q 3153 47 2828 -22 
Q 2503 -91 2169 -91 
Q 1331 -91 842 396 
Q 353 884 353 1716 
Q 353 2575 817 3079 
Q 1281 3584 2069 3584 
Q 2775 3584 3186 3129 
Q 3597 2675 3597 1894 
z
M 3022 2063 
Q 3016 2534 2758 2815 
Q 2500 3097 2075 3097 
Q 1594 3097 1305 2825 
Q 1016 2553 972 2059 
L 3022 2063 
z
" transform="scale(0.015625)"/>
      </defs>
      <use xlink:href="#DejaVuSans-54"/>
      <use xlink:href="#DejaVuSans-69" x="57.958984"/>
      <use xlink:href="#DejaVuSans-6d" x="85.742188"/>
      <use xlink:href="#DejaVuSans-65" x="183.154297"/>
     </g>
    </g>
   </g>
   <g id="matplotlib.axis_2">
    <g id="ytick_1">
     <g id="line2d_7">
      <defs>
       <path id="m8d57d54306" d="M 0 0 
L -3.5 0 
" style="stroke: #000000; stroke-width: 0.8"/>
      </defs>
      <g>
       <use xlink:href="#m8d57d54306" x="57.6" y="307.584" style="stroke: #000000; stroke-width: 0.8"/>
      </g>
     </g>
     <g id="text_8">
      <!-- 0 -->
      <g transform="translate(44.2375 311.383219) scale(0.1 -0.1)">
       <use xlink:href="#DejaVuSans-30"/>
      </g>
     </g>
    </g>
    <g id="ytick_2">
     <g id="line2d_8">
      <g>
       <use xlink:href="#m8d57d54306" x="57.6" y="269.568" style="stroke: #000000; stroke-width: 0.8"/>
      </g>
     </g>
     <g id="text_9">
      <!-- 1000 -->
      <g transform="translate(25.15 273.367219) scale(0.1 -0.1)">
       <defs>
        <path id="DejaVuSans-31" d="M 794 531 
L 1825 531 
L 1825 4091 
L 703 3866 
L 703 4441 
L 1819 4666 
L 2450 4666 
L 2450 531 
L 3481 531 
L 3481 0 
L 794 0 
L 794 531 
z
" transform="scale(0.015625)"/>
       </defs>
       <use xlink:href="#DejaVuSans-31"/>
       <use xlink:href="#DejaVuSans-30" x="63.623047"/>
       <use xlink:href="#DejaVuSans-30" x="127.246094"/>
       <use xlink:href="#DejaVuSans-30" x="190.869141"/>
      </g>
     </g>
    </g>
    <g id="ytick_3">
     <g id="line2d_9">
      <g>
       <use xlink:href="#m8d57d54306" x="57.6" y="231.552" style="stroke: #000000; stroke-width: 0.8"/>
      </g>
     </g>
     <g id="text_10">
      <!-- 2000 -->
      <g transform="translate(25.15 235.351219) scale(0.1 -0.1)">
       <use xlink:href="#DejaVuSans-32"/>
       <use xlink:href="#DejaVuSans-30" x="63.623047"/>
       <use xlink:href="#DejaVuSans-30" x="127.246094"/>
       <use xlink:href="#DejaVuSans-30" x="190.869141"/>
      </g>
     </g>
    </g>
    <g id="ytick_4">
     <g id="line2d_10">
      <g>
       <use xlink:href="#m8d57d54306" x="57.6" y="193.536" style="stroke: #000000; stroke-width: 0.8"/>
      </g>
     </g>
     <g id="text_11">
      <!-- 3000 -->
      <g transform="translate(25.15 197.335219) scale(0.1 -0.1)">
       <use xlink:href="#DejaVuSans-33"/>
       <use xlink:href="#DejaVuSans-30" x="63.623047"/>
       <use xlink:href="#DejaVuSans-30" x="127.246094"/>
       <use xlink:href="#DejaVuSans-30" x="190.869141"/>
      </g>
     </g>
    </g>
    <g id="ytick_5">
     <g id="line2d_11">
      <g>
       <use xlink:href="#m8d57d54306" x="57.6" y="155.52" style="stroke: #000000; stroke-width: 0.8"/>
      </g>
     </g>
     <g id="text_12">
      <!-- 4000 -->
      <g transform="translate(25.15 159.319219) scale(0.1 -0.1)">
       <use xlink:href="#DejaVuSans-34"/>
       <use xlink:href="#DejaVuSans-30" x="63.623047"/>
       <use xlink:href="#DejaVuSans-30" x="127.246094"/>
       <use xlink:href="#DejaVuSans-30" x="190.869141"/>
      </g>
     </g>
    </g>
    <g id="ytick_6">
     <g id="line2d_12">
      <g>
       <use xlink:href="#m8d57d54306" x="57.6" y="117.504" style="stroke: #000000; stroke-width: 0.8"/>
      </g>
     </g>
     <g id="text_13">
      <!-- 5000 -->
      <g transform="translate(25.15 121.303219) scale(0.1 -0.1)">
       <use xlink:href="#DejaVuSans-35"/>
       <use xlink:href="#DejaVuSans-30" x="63.623047"/>
       <use xlink:href="#DejaVuSans-30" x="127.246094"/>
       <use xlink:href="#DejaVuSans-30" x="190.869141"/>
      </g>
     </g>
    </g>
    <g id="ytick_7">
     <g id="line2d_13">
      <g>
       <use xlink:href="#m8d57d54306" x="57.6" y="79.488" style="stroke: #000000; stroke-width: 0.8"/>
      </g>
     </g>
     <g id="text_14">
      <!-- 6000 -->
      <g transform="translate(25.15 83.287219) scale(0.1 -0.1)">
       <defs>
        <path id="DejaVuSans-36" d="M 2113 2584 
Q 1688 2584 1439 2293 
Q 1191 2003 1191 1497 
Q 1191 994 1439 701 
Q 1688 409 2113 409 
Q 2538 409 2786 701 
Q 3034 994 3034 1497 
Q 3034 2003 2786 2293 
Q 2538 2584 2113 2584 
z
M 3366 4563 
L 3366 3988 
Q 3128 4100 2886 4159 
Q 2644 4219 2406 4219 
Q 1781 4219 1451 3797 
Q 1122 3375 1075 2522 
Q 1259 2794 1537 2939 
Q 1816 3084 2150 3084 
Q 2853 3084 3261 2657 
Q 3669 2231 3669 1497 
Q 3669 778 3244 343 
Q 2819 -91 2113 -91 
Q 1303 -91 875 529 
Q 447 1150 447 2328 
Q 447 3434 972 4092 
Q 1497 4750 2381 4750 
Q 2619 4750 2861 4703 
Q 3103 4656 3366 4563 
z
" transform="scale(0.015625)"/>
       </defs>
       <use xlink:href="#DejaVuSans-36"/>
       <use xlink:href="#DejaVuSans-30" x="63.623047"/>
       <use xlink:href="#DejaVuSans-30" x="127.246094"/>
       <use xlink:href="#DejaVuSans-30" x="190.869141"/>
      </g>
     </g>
    </g>
    <g id="ytick_8">
     <g id="line2d_14">
      <g>
       <use xlink:href="#m8d57d54306" x="57.6" y="41.472" style="stroke: #000000; stroke-width: 0.8"/>
      </g>
     </g>
     <g id="text_15">
      <!-- 7000 -->
      <g transform="translate(25.15 45.271219) scale(0.1 -0.1)">
       <defs>
        <path id="DejaVuSans-37" d="M 525 4666 
L 3525 4666 
L 3525 4397 
L 1831 0 
L 1172 0 
L 2766 4134 
L 525 4134 
L 525 4666 
z
" transform="scale(0.015625)"/>
       </defs>
       <use xlink:href="#DejaVuSans-37"/>
       <use xlink:href="#DejaVuSans-30" x="63.623047"/>
       <use xlink:href="#DejaVuSans-30" x="127.246094"/>
       <use xlink:href="#DejaVuSans-30" x="190.869141"/>
      </g>
     </g>
    </g>
    <g id="text_16">
     <!-- Jobs [FTE] -->
     <g transform="translate(19.070312 199.333469) rotate(-90) scale(0.1 -0.1)">
      <defs>
       <path id="DejaVuSans-4a" d="M 628 4666 
L 1259 4666 
L 1259 325 
Q 1259 -519 939 -900 
Q 619 -1281 -91 -1281 
L -331 -1281 
L -331 -750 
L -134 -750 
Q 284 -750 456 -515 
Q 628 -281 628 325 
L 628 4666 
z
" transform="scale(0.015625)"/>
       <path id="DejaVuSans-6f" d="M 1959 3097 
Q 1497 3097 1228 2736 
Q 959 2375 959 1747 
Q 959 1119 1226 758 
Q 1494 397 1959 397 
Q 2419 397 2687 759 
Q 2956 1122 2956 1747 
Q 2956 2369 2687 2733 
Q 2419 3097 1959 3097 
z
M 1959 3584 
Q 2709 3584 3137 3096 
Q 3566 2609 3566 1747 
Q 3566 888 3137 398 
Q 2709 -91 1959 -91 
Q 1206 -91 779 398 
Q 353 888 353 1747 
Q 353 2609 779 3096 
Q 1206 3584 1959 3584 
z
" transform="scale(0.015625)"/>
       <path id="DejaVuSans-62" d="M 3116 1747 
Q 3116 2381 2855 2742 
Q 2594 3103 2138 3103 
Q 1681 3103 1420 2742 
Q 1159 2381 1159 1747 
Q 1159 1113 1420 752 
Q 1681 391 2138 391 
Q 2594 391 2855 752 
Q 3116 1113 3116 1747 
z
M 1159 2969 
Q 1341 3281 1617 3432 
Q 1894 3584 2278 3584 
Q 2916 3584 3314 3078 
Q 3713 2572 3713 1747 
Q 3713 922 3314 415 
Q 2916 -91 2278 -91 
Q 1894 -91 1617 61 
Q 1341 213 1159 525 
L 1159 0 
L 581 0 
L 581 4863 
L 1159 4863 
L 1159 2969 
z
" transform="scale(0.015625)"/>
       <path id="DejaVuSans-73" d="M 2834 3397 
L 2834 2853 
Q 2591 2978 2328 3040 
Q 2066 3103 1784 3103 
Q 1356 3103 1142 2972 
Q 928 2841 928 2578 
Q 928 2378 1081 2264 
Q 1234 2150 1697 2047 
L 1894 2003 
Q 2506 1872 2764 1633 
Q 3022 1394 3022 966 
Q 3022 478 2636 193 
Q 2250 -91 1575 -91 
Q 1294 -91 989 -36 
Q 684 19 347 128 
L 347 722 
Q 666 556 975 473 
Q 1284 391 1588 391 
Q 1994 391 2212 530 
Q 2431 669 2431 922 
Q 2431 1156 2273 1281 
Q 2116 1406 1581 1522 
L 1381 1569 
Q 847 1681 609 1914 
Q 372 2147 372 2553 
Q 372 3047 722 3315 
Q 1072 3584 1716 3584 
Q 2034 3584 2315 3537 
Q 2597 3491 2834 3397 
z
" transform="scale(0.015625)"/>
       <path id="DejaVuSans-20" transform="scale(0.015625)"/>
       <path id="DejaVuSans-5b" d="M 550 4863 
L 1875 4863 
L 1875 4416 
L 1125 4416 
L 1125 -397 
L 1875 -397 
L 1875 -844 
L 550 -844 
L 550 4863 
z
" transform="scale(0.015625)"/>
       <path id="DejaVuSans-46" d="M 628 4666 
L 3309 4666 
L 3309 4134 
L 1259 4134 
L 1259 2759 
L 3109 2759 
L 3109 2228 
L 1259 2228 
L 1259 0 
L 628 0 
L 628 4666 
z
" transform="scale(0.015625)"/>
       <path id="DejaVuSans-45" d="M 628 4666 
L 3578 4666 
L 3578 4134 
L 1259 4134 
L 1259 2753 
L 3481 2753 
L 3481 2222 
L 1259 2222 
L 1259 531 
L 3634 531 
L 3634 0 
L 628 0 
L 628 4666 
z
" transform="scale(0.015625)"/>
       <path id="DejaVuSans-5d" d="M 1947 4863 
L 1947 -844 
L 622 -844 
L 622 -397 
L 1369 -397 
L 1369 4416 
L 622 4416 
L 622 4863 
L 1947 4863 
z
" transform="scale(0.015625)"/>
      </defs>
      <use xlink:href="#DejaVuSans-4a"/>
      <use xlink:href="#DejaVuSans-6f" x="29.492188"/>
      <use xlink:href="#DejaVuSans-62" x="90.673828"/>
      <use xlink:href="#DejaVuSans-73" x="154.150391"/>
      <use xlink:href="#DejaVuSans-20" x="206.25"/>
      <use xlink:href="#DejaVuSans-5b" x="238.037109"/>
      <use xlink:href="#DejaVuSans-46" x="277.050781"/>
      <use xlink:href="#DejaVuSans-54" x="332.820312"/>
      <use xlink:href="#DejaVuSans-45" x="393.904297"/>
      <use xlink:href="#DejaVuSans-5d" x="457.087891"/>
     </g>
    </g>
   </g>
   <g id="line2d_15">
    <path d="M 57.6 307.584 
L 83.108571 306.788305 
L 108.617143 306.658145 
L 134.125714 304.761963 
L 159.634286 304.563366 
L 185.142857 304.563365 
L 210.651429 301.029092 
L 236.16 302.000485 
L 261.668571 303.800089 
L 287.177143 304.75658 
L 312.685714 304.75658 
L 338.194286 304.75658 
L 363.702857 304.75658 
L 389.211429 304.75658 
L 414.72 304.75658 
" clip-path="url(#p76e503b7c7)" style="fill: none; stroke: #6f6f6f; stroke-width: 1.5; stroke-linecap: square"/>
   </g>
   <g id="line2d_16">
    <path d="M 57.6 307.584 
L 83.108571 305.359167 
L 108.617143 304.89414 
L 134.125714 304.894139 
L 159.634286 304.894139 
L 185.142857 302.467198 
L 210.651429 297.860906 
L 236.16 299.036715 
L 261.668571 299.036715 
L 287.177143 299.036715 
L 312.685714 299.036715 
L 338.194286 299.229947 
L 363.702857 299.036715 
L 389.211429 300.085739 
L 414.72 300.550767 
" clip-path="url(#p76e503b7c7)" style="fill: none; stroke: #6f6f6f; stroke-width: 1.5; stroke-linecap: square"/>
   </g>
   <g id="line2d_17">
    <path d="M 57.6 307.584 
L 83.108571 307.578713 
L 108.617143 307.015879 
L 134.125714 306.299729 
L 159.634286 305.583579 
L 185.142857 304.816705 
L 210.651429 304.049784 
L 236.16 304.052413 
L 261.668571 304.055043 
L 287.177143 304.057672 
L 312.685714 304.060301 
L 338.194286 304.06293 
L 363.702857 304.065574 
L 389.211429 304.068231 
L 414.72 304.070889 
" clip-path="url(#p76e503b7c7)" style="fill: none; stroke: #6f6f6f; stroke-width: 1.5; stroke-linecap: square"/>
   </g>
   <g id="line2d_18">
    <path d="M 57.6 307.584 
L 83.108571 307.525972 
L 108.617143 307.525972 
L 134.125714 307.540479 
L 159.634286 307.554986 
L 185.142857 307.569493 
L 210.651429 307.525972 
L 236.16 307.584 
L 261.668571 307.584 
L 287.177143 307.584 
L 312.685714 307.584 
L 338.194286 307.584 
L 363.702857 307.584 
L 389.211429 307.584 
L 414.72 307.584 
" clip-path="url(#p76e503b7c7)" style="fill: none; stroke: #6f6f6f; stroke-width: 1.5; stroke-linecap: square"/>
   </g>
   <g id="line2d_19">
    <path d="M 57.6 307.584 
L 83.108571 307.584 
L 108.617143 307.584 
L 134.125714 307.584 
L 159.634286 307.584 
L 185.142857 307.584 
L 210.651429 307.584 
L 236.16 307.584 
L 261.668571 307.584 
L 287.177143 307.584 
L 312.685714 307.584 
L 338.194286 307.584 
L 363.702857 307.584 
L 389.211429 307.584 
L 414.72 307.584 
" clip-path="url(#p76e503b7c7)" style="fill: none; stroke: #6f6f6f; stroke-width: 1.5; stroke-linecap: square"/>
   </g>
   <g id="line2d_20">
    <path d="M 57.6 307.584 
L 83.108571 306.855177 
L 108.617143 306.855177 
L 134.125714 306.581474 
L 159.634286 306.293932 
L 185.142857 305.982627 
L 210.651429 304.495764 
L 236.16 305.245365 
L 261.668571 306.159742 
L 287.177143 306.159742 
L 312.685714 306.159742 
L 338.194286 306.254958 
L 363.702857 306.182319 
L 389.211429 306.211835 
L 414.72 306.229818 
" clip-path="url(#p76e503b7c7)" style="fill: none; stroke: #6f6f6f; stroke-width: 1.5; stroke-linecap: square"/>
   </g>
   <g id="line2d_21">
    <path d="M 57.6 307.584 
L 83.108571 301.0301 
L 108.617143 301.023643 
L 134.125714 301.603445 
L 159.634286 300.472748 
L 185.142857 288.314614 
L 210.651429 261.15855 
L 236.16 267.71245 
L 261.668571 268.393278 
L 287.177143 268.393278 
L 312.685714 268.394147 
L 338.194286 269.055288 
L 363.702857 272.727705 
L 389.211429 274.133427 
L 414.72 273.250606 
" clip-path="url(#p76e503b7c7)" style="fill: none; stroke: #6f6f6f; stroke-width: 1.5; stroke-linecap: square"/>
   </g>
   <g id="line2d_22">
    <path d="M 57.6 307.584 
L 83.108571 307.459192 
L 108.617143 302.778978 
L 134.125714 270.002748 
L 159.634286 242.650363 
L 185.142857 215.037433 
L 210.651429 205.547505 
L 236.16 205.672313 
L 261.668571 205.675198 
L 287.177143 205.678083 
L 312.685714 205.680967 
L 338.194286 207.354061 
L 363.702857 207.429868 
L 389.211429 209.649716 
L 414.72 215.932632 
" clip-path="url(#p76e503b7c7)" style="fill: none; stroke: #6f6f6f; stroke-width: 1.5; stroke-linecap: square"/>
   </g>
   <g id="line2d_23">
    <path d="M 57.6 307.584 
L 83.108571 307.584 
L 108.617143 307.584 
L 134.125714 307.584 
L 159.634286 307.584 
L 185.142857 307.584 
L 210.651429 307.584 
L 236.16 307.584 
L 261.668571 307.584 
L 287.177143 307.584 
L 312.685714 307.584 
L 338.194286 307.584 
L 363.702857 307.584 
L 389.211429 307.584 
L 414.72 307.584 
" clip-path="url(#p76e503b7c7)" style="fill: none; stroke: #6f6f6f; stroke-width: 1.5; stroke-linecap: square"/>
   </g>
   <g id="line2d_24">
    <path d="M 57.6 307.584 
L 83.108571 306.021826 
L 108.617143 304.967702 
L 134.125714 292.15185 
L 159.634286 279.336246 
L 185.142857 264.666238 
L 210.651429 249.996358 
L 236.16 252.153002 
L 261.668571 252.183312 
L 287.177143 254.202927 
L 312.685714 256.878043 
L 338.194286 259.553159 
L 363.702857 262.21867 
L 389.211429 264.628986 
L 414.72 267.230678 
" clip-path="url(#p76e503b7c7)" style="fill: none; stroke: #6f6f6f; stroke-width: 1.5; stroke-linecap: square"/>
   </g>
   <g id="line2d_25">
    <path d="M 57.6 307.584 
L 83.108571 304.303478 
L 108.617143 302.663461 
L 134.125714 282.910262 
L 159.634286 263.157091 
L 185.142857 240.481283 
L 210.651429 217.000355 
L 236.16 221.100445 
L 261.668571 221.987741 
L 287.177143 224.575292 
L 312.685714 228.944445 
L 338.194286 234.266361 
L 363.702857 238.430667 
L 389.211429 244.159268 
L 414.72 246.717456 
" clip-path="url(#p76e503b7c7)" style="fill: none; stroke: #6f6f6f; stroke-width: 1.5; stroke-linecap: square"/>
   </g>
   <g id="line2d_26">
    <path d="M 57.6 307.584 
L 83.108571 306.906824 
L 108.617143 306.645636 
L 134.125714 302.364896 
L 159.634286 298.084156 
L 185.142857 293.457415 
L 210.651429 288.830424 
L 236.16 290.139716 
L 261.668571 291.438238 
L 287.177143 292.736746 
L 312.685714 294.056822 
L 338.194286 295.376882 
L 363.702857 296.69632 
L 389.211429 298.0154 
L 414.72 299.334481 
" clip-path="url(#p76e503b7c7)" style="fill: none; stroke: #6f6f6f; stroke-width: 1.5; stroke-linecap: square"/>
   </g>
   <g id="line2d_27">
    <path d="M 57.6 307.584 
L 83.108571 304.047258 
L 108.617143 300.680569 
L 134.125714 231.93433 
L 159.634286 171.20276 
L 185.142857 107.452133 
L 210.651429 27.022931 
L 236.16 32.192479 
L 261.668571 55.089557 
L 287.177143 79.311336 
L 312.685714 98.104705 
L 338.194286 107.316475 
L 363.702857 118.5271 
L 389.211429 128.867416 
L 414.72 135.948138 
" clip-path="url(#p76e503b7c7)" style="fill: none; stroke: #6f6f6f; stroke-width: 1.5; stroke-linecap: square"/>
   </g>
   <g id="line2d_28">
    <path d="M 57.6 307.584 
L 83.108571 306.959023 
L 108.617143 306.534925 
L 134.125714 302.46425 
L 159.634286 298.393756 
L 185.142857 293.344799 
L 210.651429 288.295917 
L 236.16 288.641938 
L 261.668571 289.000722 
L 287.177143 289.289406 
L 312.685714 289.653204 
L 338.194286 290.044693 
L 363.702857 290.451676 
L 389.211429 290.730632 
L 414.72 291.073631 
" clip-path="url(#p76e503b7c7)" style="fill: none; stroke: #6f6f6f; stroke-width: 1.5; stroke-linecap: square"/>
   </g>
   <g id="line2d_29">
    <path d="M 57.6 307.584 
L 83.108571 306.753956 
L 108.617143 304.91632 
L 134.125714 293.454255 
L 159.634286 280.295072 
L 185.142857 264.038953 
L 210.651429 249.75923 
L 236.16 249.767355 
L 261.668571 249.77513 
L 287.177143 249.782994 
L 312.685714 250.151677 
L 338.194286 251.468321 
L 363.702857 251.446226 
L 389.211429 252.472408 
L 414.72 254.221366 
" clip-path="url(#p76e503b7c7)" style="fill: none; stroke: #6f6f6f; stroke-width: 1.5; stroke-linecap: square"/>
   </g>
   <g id="line2d_30">
    <path d="M 57.6 307.584 
L 83.108571 307.540381 
L 108.617143 307.424014 
L 134.125714 307.243205 
L 159.634286 306.970218 
L 185.142857 306.642769 
L 210.651429 306.315302 
L 236.16 306.359077 
L 261.668571 306.39409 
L 287.177143 306.429103 
L 312.685714 306.481622 
L 338.194286 306.534141 
L 363.702857 306.580704 
L 389.211429 306.621295 
L 414.72 306.661903 
" clip-path="url(#p76e503b7c7)" style="fill: none; stroke: #6f6f6f; stroke-width: 1.5; stroke-linecap: square"/>
   </g>
   <g id="line2d_31">
    <path d="M 57.6 307.584 
L 83.108571 303.790426 
L 108.617143 298.330763 
L 134.125714 260.318612 
L 159.634286 216.01047 
L 185.142857 169.188773 
L 210.651429 127.351418 
L 236.16 127.561361 
L 261.668571 127.40846 
L 287.177143 127.459062 
L 312.685714 128.338577 
L 338.194286 132.766694 
L 363.702857 139.779691 
L 389.211429 143.311704 
L 414.72 146.373997 
" clip-path="url(#p76e503b7c7)" style="fill: none; stroke: #6f6f6f; stroke-width: 1.5; stroke-linecap: square"/>
   </g>
   <g id="line2d_32">
    <path d="M 57.6 307.584 
L 83.108571 306.707522 
L 108.617143 305.196253 
L 134.125714 295.962725 
L 159.634286 286.729198 
L 185.142857 275.366915 
L 210.651429 264.004632 
L 236.16 264.88111 
L 261.668571 266.708209 
L 287.177143 267.502208 
L 312.685714 268.351367 
L 338.194286 269.151135 
L 363.702857 270.156822 
L 389.211429 270.156822 
L 414.72 271.016456 
" clip-path="url(#p76e503b7c7)" style="fill: none; stroke: #6f6f6f; stroke-width: 1.5; stroke-linecap: square"/>
   </g>
   <g id="line2d_33">
    <path d="M 57.6 307.584 
L 83.108571 307.584 
L 108.617143 307.584 
L 134.125714 307.584 
L 159.634286 307.584 
L 185.142857 307.584 
L 210.651429 307.584 
L 236.16 307.584 
L 261.668571 307.584 
L 287.177143 307.584 
L 312.685714 307.584 
L 338.194286 307.584 
L 363.702857 307.584 
L 389.211429 307.584 
L 414.72 307.584 
" clip-path="url(#p76e503b7c7)" style="fill: none; stroke: #6f6f6f; stroke-width: 1.5; stroke-linecap: square"/>
   </g>
   <g id="line2d_34">
    <path d="M 57.6 307.584 
L 83.108571 307.584 
L 108.617143 307.584 
L 134.125714 307.584 
L 159.634286 307.584 
L 185.142857 307.584 
L 210.651429 307.584 
L 236.16 307.584 
L 261.668571 307.584 
L 287.177143 307.584 
L 312.685714 307.584 
L 338.194286 307.584 
L 363.702857 307.584 
L 389.211429 307.584 
L 414.72 307.584 
" clip-path="url(#p76e503b7c7)" style="fill: none; stroke: #6f6f6f; stroke-width: 1.5; stroke-linecap: square"/>
   </g>
   <g id="line2d_35">
    <path d="M 57.6 307.584 
L 83.108571 307.584 
L 108.617143 307.584 
L 134.125714 307.584 
L 159.634286 307.584 
L 185.142857 307.584 
L 210.651429 307.584 
L 236.16 307.584 
L 261.668571 307.584 
L 287.177143 307.584 
L 312.685714 307.584 
L 338.194286 307.584 
L 363.702857 307.584 
L 389.211429 307.584 
L 414.72 307.584 
" clip-path="url(#p76e503b7c7)" style="fill: none; stroke: #6f6f6f; stroke-width: 1.5; stroke-linecap: square"/>
   </g>
   <g id="line2d_36">
    <path d="M 57.6 307.584 
L 83.108571 301.760711 
L 108.617143 296.54651 
L 134.125714 272.021957 
L 159.634286 245.793843 
L 185.142857 210.169113 
L 210.651429 188.227605 
L 236.16 196.895153 
L 261.668571 196.895153 
L 287.177143 196.897351 
L 312.685714 196.903686 
L 338.194286 200.536252 
L 363.702857 203.003396 
L 389.211429 208.248053 
L 414.72 218.361447 
" clip-path="url(#p76e503b7c7)" style="fill: none; stroke: #6f6f6f; stroke-width: 1.5; stroke-linecap: square"/>
   </g>
   <g id="line2d_37">
    <path d="M 57.6 307.584 
L 83.108571 306.816882 
L 108.617143 306.816882 
L 134.125714 307.008662 
L 159.634286 307.200441 
L 185.142857 307.392221 
L 210.651429 306.56561 
L 236.16 307.584 
L 261.668571 307.584 
L 287.177143 307.584 
L 312.685714 307.584 
L 338.194286 307.584 
L 363.702857 307.584 
L 389.211429 307.584 
L 414.72 307.584 
" clip-path="url(#p76e503b7c7)" style="fill: none; stroke: #6f6f6f; stroke-width: 1.5; stroke-linecap: square"/>
   </g>
   <g id="line2d_38">
    <path d="M 57.6 307.584 
L 83.108571 303.039897 
L 108.617143 301.036749 
L 134.125714 278.184888 
L 159.634286 253.924423 
L 185.142857 224.205767 
L 210.651429 194.473093 
L 236.16 197.639666 
L 261.668571 197.654901 
L 287.177143 197.670137 
L 312.685714 198.474874 
L 338.194286 202.213591 
L 363.702857 204.138189 
L 389.211429 206.731107 
L 414.72 208.386949 
" clip-path="url(#p76e503b7c7)" style="fill: none; stroke: #6f6f6f; stroke-width: 1.5; stroke-linecap: square"/>
   </g>
   <g id="line2d_39">
    <path d="M 57.6 307.584 
L 83.108571 307.16354 
L 108.617143 306.903814 
L 134.125714 302.875984 
L 159.634286 298.848154 
L 185.142857 294.525999 
L 210.651429 291.008537 
L 236.16 291.852289 
L 261.668571 292.69604 
L 287.177143 293.966442 
L 312.685714 295.241276 
L 338.194286 296.516201 
L 363.702857 297.796269 
L 389.211429 299.081833 
L 414.72 300.367397 
" clip-path="url(#p76e503b7c7)" style="fill: none; stroke: #6f6f6f; stroke-width: 1.5; stroke-linecap: square"/>
   </g>
   <g id="line2d_40">
    <path d="M 57.6 307.584 
L 83.108571 306.58275 
L 108.617143 304.157908 
L 134.125714 296.597623 
L 159.634286 289.037678 
L 185.142857 278.062177 
L 210.651429 267.08305 
L 236.16 265.793877 
L 261.668571 266.373194 
L 287.177143 266.376706 
L 312.685714 266.380637 
L 338.194286 266.384568 
L 363.702857 266.388371 
L 389.211429 266.392045 
L 414.72 266.39572 
" clip-path="url(#p76e503b7c7)" style="fill: none; stroke: #6f6f6f; stroke-width: 1.5; stroke-linecap: square"/>
   </g>
   <g id="line2d_41">
    <path d="M 57.6 307.584 
L 83.108571 306.878001 
L 108.617143 306.277957 
L 134.125714 300.362167 
L 159.634286 292.142914 
L 185.142857 280.744929 
L 210.651429 270.14242 
L 236.16 270.993195 
L 261.668571 273.672061 
L 287.177143 279.141149 
L 312.685714 286.791222 
L 338.194286 289.016585 
L 363.702857 289.764333 
L 389.211429 289.956488 
L 414.72 290.427735 
" clip-path="url(#p76e503b7c7)" style="fill: none; stroke: #6f6f6f; stroke-width: 1.5; stroke-linecap: square"/>
   </g>
   <g id="line2d_42">
    <path d="M 57.6 307.584 
L 83.108571 307.584 
L 108.617143 307.584 
L 134.125714 307.584 
L 159.634286 307.584 
L 185.142857 307.584 
L 210.651429 307.56857 
L 236.16 307.56857 
L 261.668571 307.56857 
L 287.177143 307.584 
L 312.685714 307.584 
L 338.194286 307.584 
L 363.702857 307.584 
L 389.211429 307.584 
L 414.72 307.584 
" clip-path="url(#p76e503b7c7)" style="fill: none; stroke: #6f6f6f; stroke-width: 1.5; stroke-linecap: square"/>
   </g>
   <g id="line2d_43">
    <path d="M 57.6 307.584 
L 83.108571 306.523681 
L 108.617143 305.880204 
L 134.125714 299.027851 
L 159.634286 292.175733 
L 185.142857 284.072269 
L 210.651429 275.968603 
L 236.16 277.236792 
L 261.668571 278.948308 
L 287.177143 278.959622 
L 312.685714 280.057664 
L 338.194286 280.924237 
L 363.702857 281.911797 
L 389.211429 282.816561 
L 414.72 281.911899 
" clip-path="url(#p76e503b7c7)" style="fill: none; stroke: #6f6f6f; stroke-width: 1.5; stroke-linecap: square"/>
   </g>
   <g id="line2d_44">
    <path d="M 57.6 307.584 
L 83.108571 304.650485 
L 108.617143 300.116331 
L 134.125714 284.083954 
L 159.634286 265.145117 
L 185.142857 243.254364 
L 210.651429 221.363497 
L 236.16 225.153094 
L 261.668571 228.372459 
L 287.177143 228.951636 
L 312.685714 232.844427 
L 338.194286 237.555935 
L 363.702857 242.061318 
L 389.211429 244.378889 
L 414.72 248.175632 
" clip-path="url(#p76e503b7c7)" style="fill: none; stroke: #6f6f6f; stroke-width: 1.5; stroke-linecap: square"/>
   </g>
   <g id="line2d_45">
    <path d="M 414.72 135.948138 
L 417.270857 135.948138 
L 419.821714 135.948138 
" clip-path="url(#p76e503b7c7)" style="fill: none; stroke-dasharray: 5.55,2.4; stroke-dashoffset: 0; stroke: #a30774; stroke-width: 1.5"/>
   </g>
   <g id="line2d_46">
    <path d="M 414.72 146.373997 
L 417.270857 146.373997 
L 419.821714 146.373997 
" clip-path="url(#p76e503b7c7)" style="fill: none; stroke-dasharray: 5.55,2.4; stroke-dashoffset: 0; stroke: #a30774; stroke-width: 1.5"/>
   </g>
   <g id="line2d_47">
    <path d="M 414.72 208.386949 
L 417.270857 208.386949 
L 419.821714 208.386949 
" clip-path="url(#p76e503b7c7)" style="fill: none; stroke-dasharray: 5.55,2.4; stroke-dashoffset: 0; stroke: #a30774; stroke-width: 1.5"/>
   </g>
   <g id="line2d_48">
    <path d="M 414.72 215.932632 
L 417.270857 215.932632 
L 419.821714 215.932632 
" clip-path="url(#p76e503b7c7)" style="fill: none; stroke-dasharray: 5.55,2.4; stroke-dashoffset: 0; stroke: #215caf; stroke-width: 1.5"/>
   </g>
   <g id="line2d_49">
    <path d="M 414.72 218.361447 
L 417.270857 218.361447 
L 419.821714 218.361447 
" clip-path="url(#p76e503b7c7)" style="fill: none; stroke-dasharray: 5.55,2.4; stroke-dashoffset: 0; stroke: #215caf; stroke-width: 1.5"/>
   </g>
   <g id="line2d_50">
    <path d="M 414.72 246.717456 
L 417.270857 246.717456 
L 419.821714 246.717456 
" clip-path="url(#p76e503b7c7)" style="fill: none; stroke-dasharray: 5.55,2.4; stroke-dashoffset: 0; stroke: #215caf; stroke-width: 1.5"/>
   </g>
   <g id="line2d_51">
    <path d="M 414.72 248.175632 
L 417.270857 248.175632 
L 419.821714 248.175632 
" clip-path="url(#p76e503b7c7)" style="fill: none; stroke-dasharray: 5.55,2.4; stroke-dashoffset: 0; stroke: #215caf; stroke-width: 1.5"/>
   </g>
   <g id="line2d_52">
    <path d="M 414.72 254.221366 
L 417.270857 254.221366 
L 419.821714 254.221366 
" clip-path="url(#p76e503b7c7)" style="fill: none; stroke-dasharray: 5.55,2.4; stroke-dashoffset: 0; stroke: #215caf; stroke-width: 1.5"/>
   </g>
   <g id="line2d_53">
    <path d="M 57.6 307.584 
L 83.108571 307.459192 
L 108.617143 302.778978 
L 134.125714 270.002748 
L 159.634286 242.650363 
L 185.142857 215.037433 
L 210.651429 205.547505 
L 236.16 205.672313 
L 261.668571 205.675198 
L 287.177143 205.678083 
L 312.685714 205.680967 
L 338.194286 207.354061 
L 363.702857 207.429868 
L 389.211429 209.649716 
L 414.72 215.932632 
" clip-path="url(#p76e503b7c7)" style="fill: none; stroke: #215caf; stroke-width: 1.2; stroke-linecap: square"/>
   </g>
   <g id="line2d_54">
    <path d="M 57.6 307.584 
L 83.108571 301.760711 
L 108.617143 296.54651 
L 134.125714 272.021957 
L 159.634286 245.793843 
L 185.142857 210.169113 
L 210.651429 188.227605 
L 236.16 196.895153 
L 261.668571 196.895153 
L 287.177143 196.897351 
L 312.685714 196.903686 
L 338.194286 200.536252 
L 363.702857 203.003396 
L 389.211429 208.248053 
L 414.72 218.361447 
" clip-path="url(#p76e503b7c7)" style="fill: none; stroke: #215caf; stroke-width: 1.2; stroke-linecap: square"/>
   </g>
   <g id="line2d_55">
    <path d="M 57.6 307.584 
L 83.108571 304.303478 
L 108.617143 302.663461 
L 134.125714 282.910262 
L 159.634286 263.157091 
L 185.142857 240.481283 
L 210.651429 217.000355 
L 236.16 221.100445 
L 261.668571 221.987741 
L 287.177143 224.575292 
L 312.685714 228.944445 
L 338.194286 234.266361 
L 363.702857 238.430667 
L 389.211429 244.159268 
L 414.72 246.717456 
" clip-path="url(#p76e503b7c7)" style="fill: none; stroke: #215caf; stroke-width: 1.2; stroke-linecap: square"/>
   </g>
   <g id="line2d_56">
    <path d="M 57.6 307.584 
L 83.108571 304.650485 
L 108.617143 300.116331 
L 134.125714 284.083954 
L 159.634286 265.145117 
L 185.142857 243.254364 
L 210.651429 221.363497 
L 236.16 225.153094 
L 261.668571 228.372459 
L 287.177143 228.951636 
L 312.685714 232.844427 
L 338.194286 237.555935 
L 363.702857 242.061318 
L 389.211429 244.378889 
L 414.72 248.175632 
" clip-path="url(#p76e503b7c7)" style="fill: none; stroke: #215caf; stroke-width: 1.2; stroke-linecap: square"/>
   </g>
   <g id="line2d_57">
    <path d="M 57.6 307.584 
L 83.108571 306.753956 
L 108.617143 304.91632 
L 134.125714 293.454255 
L 159.634286 280.295072 
L 185.142857 264.038953 
L 210.651429 249.75923 
L 236.16 249.767355 
L 261.668571 249.77513 
L 287.177143 249.782994 
L 312.685714 250.151677 
L 338.194286 251.468321 
L 363.702857 251.446226 
L 389.211429 252.472408 
L 414.72 254.221366 
" clip-path="url(#p76e503b7c7)" style="fill: none; stroke: #215caf; stroke-width: 1.2; stroke-linecap: square"/>
   </g>
   <g id="patch_3">
    <path d="M 57.6 307.584 
L 57.6 41.472 
" style="fill: none; stroke: #000000; stroke-width: 0.8; stroke-linejoin: miter; stroke-linecap: square"/>
   </g>
   <g id="patch_4">
    <path d="M 57.6 307.584 
L 414.72 307.584 
" style="fill: none; stroke: #000000; stroke-width: 0.8; stroke-linejoin: miter; stroke-linecap: square"/>
   </g>
   <g id="text_17">
    <!-- FR -->
    <g transform="translate(421.097143 138.707513) scale(0.1 -0.1)">
     <defs>
      <path id="DejaVuSans-Bold-46" d="M 588 4666 
L 3834 4666 
L 3834 3756 
L 1791 3756 
L 1791 2888 
L 3713 2888 
L 3713 1978 
L 1791 1978 
L 1791 0 
L 588 0 
L 588 4666 
z
" transform="scale(0.015625)"/>
      <path id="DejaVuSans-Bold-52" d="M 2297 2597 
Q 2675 2597 2839 2737 
Q 3003 2878 3003 3200 
Q 3003 3519 2839 3656 
Q 2675 3794 2297 3794 
L 1791 3794 
L 1791 2597 
L 2297 2597 
z
M 1791 1766 
L 1791 0 
L 588 0 
L 588 4666 
L 2425 4666 
Q 3347 4666 3776 4356 
Q 4206 4047 4206 3378 
Q 4206 2916 3982 2619 
Q 3759 2322 3309 2181 
Q 3556 2125 3751 1926 
Q 3947 1728 4147 1325 
L 4800 0 
L 3519 0 
L 2950 1159 
Q 2778 1509 2601 1637 
Q 2425 1766 2131 1766 
L 1791 1766 
z
" transform="scale(0.015625)"/>
     </defs>
     <use xlink:href="#DejaVuSans-Bold-46"/>
     <use xlink:href="#DejaVuSans-Bold-52" x="68.310547"/>
    </g>
   </g>
   <g id="text_18">
    <!-- IT -->
    <g transform="translate(421.097143 149.133372) scale(0.1 -0.1)">
     <defs>
      <path id="DejaVuSans-Bold-49" d="M 588 4666 
L 1791 4666 
L 1791 0 
L 588 0 
L 588 4666 
z
" transform="scale(0.015625)"/>
      <path id="DejaVuSans-Bold-54" d="M 31 4666 
L 4331 4666 
L 4331 3756 
L 2784 3756 
L 2784 0 
L 1581 0 
L 1581 3756 
L 31 3756 
L 31 4666 
z
" transform="scale(0.015625)"/>
     </defs>
     <use xlink:href="#DejaVuSans-Bold-49"/>
     <use xlink:href="#DejaVuSans-Bold-54" x="37.207031"/>
    </g>
   </g>
   <g id="text_19">
    <!-- PL -->
    <g transform="translate(421.097143 211.146324) scale(0.1 -0.1)">
     <defs>
      <path id="DejaVuSans-Bold-50" d="M 588 4666 
L 2584 4666 
Q 3475 4666 3951 4270 
Q 4428 3875 4428 3144 
Q 4428 2409 3951 2014 
Q 3475 1619 2584 1619 
L 1791 1619 
L 1791 0 
L 588 0 
L 588 4666 
z
M 1791 3794 
L 1791 2491 
L 2456 2491 
Q 2806 2491 2997 2661 
Q 3188 2831 3188 3144 
Q 3188 3456 2997 3625 
Q 2806 3794 2456 3794 
L 1791 3794 
z
" transform="scale(0.015625)"/>
      <path id="DejaVuSans-Bold-4c" d="M 588 4666 
L 1791 4666 
L 1791 909 
L 3903 909 
L 3903 0 
L 588 0 
L 588 4666 
z
" transform="scale(0.015625)"/>
     </defs>
     <use xlink:href="#DejaVuSans-Bold-50"/>
     <use xlink:href="#DejaVuSans-Bold-4c" x="73.291016"/>
    </g>
   </g>
   <g id="text_20">
    <!-- DK -->
    <g transform="translate(421.097143 218.692007) scale(0.1 -0.1)">
     <defs>
      <path id="DejaVuSans-Bold-44" d="M 1791 3756 
L 1791 909 
L 2222 909 
Q 2959 909 3348 1275 
Q 3738 1641 3738 2338 
Q 3738 3031 3350 3393 
Q 2963 3756 2222 3756 
L 1791 3756 
z
M 588 4666 
L 1856 4666 
Q 2919 4666 3439 4514 
Q 3959 4363 4331 4000 
Q 4659 3684 4818 3271 
Q 4978 2859 4978 2338 
Q 4978 1809 4818 1395 
Q 4659 981 4331 666 
Q 3956 303 3431 151 
Q 2906 0 1856 0 
L 588 0 
L 588 4666 
z
" transform="scale(0.015625)"/>
      <path id="DejaVuSans-Bold-4b" d="M 588 4666 
L 1791 4666 
L 1791 2963 
L 3525 4666 
L 4922 4666 
L 2675 2456 
L 5153 0 
L 3647 0 
L 1791 1838 
L 1791 0 
L 588 0 
L 588 4666 
z
" transform="scale(0.015625)"/>
     </defs>
     <use xlink:href="#DejaVuSans-Bold-44"/>
     <use xlink:href="#DejaVuSans-Bold-4b" x="83.007812"/>
    </g>
   </g>
   <g id="text_21">
    <!-- NL -->
    <g transform="translate(421.097143 221.120822) scale(0.1 -0.1)">
     <defs>
      <path id="DejaVuSans-Bold-4e" d="M 588 4666 
L 1931 4666 
L 3628 1466 
L 3628 4666 
L 4769 4666 
L 4769 0 
L 3425 0 
L 1728 3200 
L 1728 0 
L 588 0 
L 588 4666 
z
" transform="scale(0.015625)"/>
     </defs>
     <use xlink:href="#DejaVuSans-Bold-4e"/>
     <use xlink:href="#DejaVuSans-Bold-4c" x="83.691406"/>
    </g>
   </g>
   <g id="text_22">
    <!-- ES -->
    <g transform="translate(421.097143 249.476831) scale(0.1 -0.1)">
     <defs>
      <path id="DejaVuSans-Bold-45" d="M 588 4666 
L 3834 4666 
L 3834 3756 
L 1791 3756 
L 1791 2888 
L 3713 2888 
L 3713 1978 
L 1791 1978 
L 1791 909 
L 3903 909 
L 3903 0 
L 588 0 
L 588 4666 
z
" transform="scale(0.015625)"/>
      <path id="DejaVuSans-Bold-53" d="M 3834 4519 
L 3834 3531 
Q 3450 3703 3084 3790 
Q 2719 3878 2394 3878 
Q 1963 3878 1756 3759 
Q 1550 3641 1550 3391 
Q 1550 3203 1689 3098 
Q 1828 2994 2194 2919 
L 2706 2816 
Q 3484 2659 3812 2340 
Q 4141 2022 4141 1434 
Q 4141 663 3683 286 
Q 3225 -91 2284 -91 
Q 1841 -91 1394 -6 
Q 947 78 500 244 
L 500 1259 
Q 947 1022 1364 901 
Q 1781 781 2169 781 
Q 2563 781 2772 912 
Q 2981 1044 2981 1288 
Q 2981 1506 2839 1625 
Q 2697 1744 2272 1838 
L 1806 1941 
Q 1106 2091 782 2419 
Q 459 2747 459 3303 
Q 459 4000 909 4375 
Q 1359 4750 2203 4750 
Q 2588 4750 2994 4692 
Q 3400 4634 3834 4519 
z
" transform="scale(0.015625)"/>
     </defs>
     <use xlink:href="#DejaVuSans-Bold-45"/>
     <use xlink:href="#DejaVuSans-Bold-53" x="68.310547"/>
    </g>
   </g>
   <g id="text_23">
    <!-- UK -->
    <g transform="translate(421.097143 250.935007) scale(0.1 -0.1)">
     <defs>
      <path id="DejaVuSans-Bold-55" d="M 588 4666 
L 1791 4666 
L 1791 1869 
Q 1791 1291 1980 1042 
Q 2169 794 2597 794 
Q 3028 794 3217 1042 
Q 3406 1291 3406 1869 
L 3406 4666 
L 4609 4666 
L 4609 1869 
Q 4609 878 4112 393 
Q 3616 -91 2597 -91 
Q 1581 -91 1084 393 
Q 588 878 588 1869 
L 588 4666 
z
" transform="scale(0.015625)"/>
     </defs>
     <use xlink:href="#DejaVuSans-Bold-55"/>
     <use xlink:href="#DejaVuSans-Bold-4b" x="81.201172"/>
    </g>
   </g>
   <g id="text_24">
    <!-- HU -->
    <g transform="translate(421.097143 256.980741) scale(0.1 -0.1)">
     <defs>
      <path id="DejaVuSans-Bold-48" d="M 588 4666 
L 1791 4666 
L 1791 2888 
L 3566 2888 
L 3566 4666 
L 4769 4666 
L 4769 0 
L 3566 0 
L 3566 1978 
L 1791 1978 
L 1791 0 
L 588 0 
L 588 4666 
z
" transform="scale(0.015625)"/>
     </defs>
     <use xlink:href="#DejaVuSans-Bold-48"/>
     <use xlink:href="#DejaVuSans-Bold-55" x="83.691406"/>
    </g>
   </g>
   <g id="line2d_58">
    <path d="M 57.6 307.584 
L 83.108571 304.047258 
L 108.617143 300.680569 
L 134.125714 231.93433 
L 159.634286 171.20276 
L 185.142857 107.452133 
L 210.651429 27.022931 
L 236.16 32.192479 
L 261.668571 55.089557 
L 287.177143 79.311336 
L 312.685714 98.104705 
L 338.194286 107.316475 
L 363.702857 118.5271 
L 389.211429 128.867416 
L 414.72 135.948138 
" clip-path="url(#p76e503b7c7)" style="fill: none; stroke: #a30774; stroke-width: 1.2; stroke-linecap: square"/>
   </g>
   <g id="line2d_59">
    <path d="M 57.6 307.584 
L 83.108571 303.790426 
L 108.617143 298.330763 
L 134.125714 260.318612 
L 159.634286 216.01047 
L 185.142857 169.188773 
L 210.651429 127.351418 
L 236.16 127.561361 
L 261.668571 127.40846 
L 287.177143 127.459062 
L 312.685714 128.338577 
L 338.194286 132.766694 
L 363.702857 139.779691 
L 389.211429 143.311704 
L 414.72 146.373997 
" clip-path="url(#p76e503b7c7)" style="fill: none; stroke: #a30774; stroke-width: 1.2; stroke-linecap: square"/>
   </g>
   <g id="line2d_60">
    <path d="M 57.6 307.584 
L 83.108571 303.039897 
L 108.617143 301.036749 
L 134.125714 278.184888 
L 159.634286 253.924423 
L 185.142857 224.205767 
L 210.651429 194.473093 
L 236.16 197.639666 
L 261.668571 197.654901 
L 287.177143 197.670137 
L 312.685714 198.474874 
L 338.194286 202.213591 
L 363.702857 204.138189 
L 389.211429 206.731107 
L 414.72 208.386949 
" clip-path="url(#p76e503b7c7)" style="fill: none; stroke: #a30774; stroke-width: 1.2; stroke-linecap: square"/>
   </g>
  </g>
 </g>
 <defs>
  <clipPath id="p76e503b7c7">
   <rect x="57.6" y="41.472" width="357.12" height="266.112"/>
  </clipPath>
 </defs>
</svg>
