<?xml version="1.0" encoding="utf-8" standalone="no"?>
<!DOCTYPE svg PUBLIC "-//W3C//DTD SVG 1.1//EN"
  "http://www.w3.org/Graphics/SVG/1.1/DTD/svg11.dtd">
<svg xmlns:xlink="http://www.w3.org/1999/xlink" width="460.8pt" height="345.6pt" viewBox="0 0 460.8 345.6" xmlns="http://www.w3.org/2000/svg" version="1.1">
 <metadata>
  <rdf:RDF xmlns:dc="http://purl.org/dc/elements/1.1/" xmlns:cc="http://creativecommons.org/ns#" xmlns:rdf="http://www.w3.org/1999/02/22-rdf-syntax-ns#">
   <cc:Work>
    <dc:type rdf:resource="http://purl.org/dc/dcmitype/StillImage"/>
    <dc:date>2023-08-29T13:21:06.096528</dc:date>
    <dc:format>image/svg+xml</dc:format>
    <dc:creator>
     <cc:Agent>
      <dc:title>Matplotlib v3.7.1, https://matplotlib.org/</dc:title>
     </cc:Agent>
    </dc:creator>
   </cc:Work>
  </rdf:RDF>
 </metadata>
 <defs>
  <style type="text/css">*{stroke-linejoin: round; stroke-linecap: butt}</style>
 </defs>
 <g id="figure_1">
  <g id="patch_1">
   <path d="M 0 345.6 
L 460.8 345.6 
L 460.8 0 
L 0 0 
L 0 345.6 
z
" style="fill: none"/>
  </g>
  <g id="axes_1">
   <g id="patch_2">
    <path d="M 57.6 307.584 
L 414.72 307.584 
L 414.72 41.472 
L 57.6 41.472 
L 57.6 307.584 
z
" style="fill: none"/>
   </g>
   <g id="matplotlib.axis_1">
    <g id="xtick_1">
     <g id="line2d_1">
      <defs>
       <path id="m5a07fffb6a" d="M 0 0 
L 0 3.5 
" style="stroke: #000000; stroke-width: 0.8"/>
      </defs>
      <g>
       <use xlink:href="#m5a07fffb6a" x="95.862857" y="307.584" style="stroke: #000000; stroke-width: 0.8"/>
      </g>
     </g>
     <g id="text_1">
      <!-- 2025 -->
      <g transform="translate(83.137857 322.182437) scale(0.1 -0.1)">
       <defs>
        <path id="DejaVuSans-32" d="M 1228 531 
L 3431 531 
L 3431 0 
L 469 0 
L 469 531 
Q 828 903 1448 1529 
Q 2069 2156 2228 2338 
Q 2531 2678 2651 2914 
Q 2772 3150 2772 3378 
Q 2772 3750 2511 3984 
Q 2250 4219 1831 4219 
Q 1534 4219 1204 4116 
Q 875 4013 500 3803 
L 500 4441 
Q 881 4594 1212 4672 
Q 1544 4750 1819 4750 
Q 2544 4750 2975 4387 
Q 3406 4025 3406 3419 
Q 3406 3131 3298 2873 
Q 3191 2616 2906 2266 
Q 2828 2175 2409 1742 
Q 1991 1309 1228 531 
z
" transform="scale(0.015625)"/>
        <path id="DejaVuSans-30" d="M 2034 4250 
Q 1547 4250 1301 3770 
Q 1056 3291 1056 2328 
Q 1056 1369 1301 889 
Q 1547 409 2034 409 
Q 2525 409 2770 889 
Q 3016 1369 3016 2328 
Q 3016 3291 2770 3770 
Q 2525 4250 2034 4250 
z
M 2034 4750 
Q 2819 4750 3233 4129 
Q 3647 3509 3647 2328 
Q 3647 1150 3233 529 
Q 2819 -91 2034 -91 
Q 1250 -91 836 529 
Q 422 1150 422 2328 
Q 422 3509 836 4129 
Q 1250 4750 2034 4750 
z
" transform="scale(0.015625)"/>
        <path id="DejaVuSans-35" d="M 691 4666 
L 3169 4666 
L 3169 4134 
L 1269 4134 
L 1269 2991 
Q 1406 3038 1543 3061 
Q 1681 3084 1819 3084 
Q 2600 3084 3056 2656 
Q 3513 2228 3513 1497 
Q 3513 744 3044 326 
Q 2575 -91 1722 -91 
Q 1428 -91 1123 -41 
Q 819 9 494 109 
L 494 744 
Q 775 591 1075 516 
Q 1375 441 1709 441 
Q 2250 441 2565 725 
Q 2881 1009 2881 1497 
Q 2881 1984 2565 2268 
Q 2250 2553 1709 2553 
Q 1456 2553 1204 2497 
Q 953 2441 691 2322 
L 691 4666 
z
" transform="scale(0.015625)"/>
       </defs>
       <use xlink:href="#DejaVuSans-32"/>
       <use xlink:href="#DejaVuSans-30" x="63.623047"/>
       <use xlink:href="#DejaVuSans-32" x="127.246094"/>
       <use xlink:href="#DejaVuSans-35" x="190.869141"/>
      </g>
     </g>
    </g>
    <g id="xtick_2">
     <g id="line2d_2">
      <g>
       <use xlink:href="#m5a07fffb6a" x="159.634286" y="307.584" style="stroke: #000000; stroke-width: 0.8"/>
      </g>
     </g>
     <g id="text_2">
      <!-- 2030 -->
      <g transform="translate(146.909286 322.182437) scale(0.1 -0.1)">
       <defs>
        <path id="DejaVuSans-33" d="M 2597 2516 
Q 3050 2419 3304 2112 
Q 3559 1806 3559 1356 
Q 3559 666 3084 287 
Q 2609 -91 1734 -91 
Q 1441 -91 1130 -33 
Q 819 25 488 141 
L 488 750 
Q 750 597 1062 519 
Q 1375 441 1716 441 
Q 2309 441 2620 675 
Q 2931 909 2931 1356 
Q 2931 1769 2642 2001 
Q 2353 2234 1838 2234 
L 1294 2234 
L 1294 2753 
L 1863 2753 
Q 2328 2753 2575 2939 
Q 2822 3125 2822 3475 
Q 2822 3834 2567 4026 
Q 2313 4219 1838 4219 
Q 1578 4219 1281 4162 
Q 984 4106 628 3988 
L 628 4550 
Q 988 4650 1302 4700 
Q 1616 4750 1894 4750 
Q 2613 4750 3031 4423 
Q 3450 4097 3450 3541 
Q 3450 3153 3228 2886 
Q 3006 2619 2597 2516 
z
" transform="scale(0.015625)"/>
       </defs>
       <use xlink:href="#DejaVuSans-32"/>
       <use xlink:href="#DejaVuSans-30" x="63.623047"/>
       <use xlink:href="#DejaVuSans-33" x="127.246094"/>
       <use xlink:href="#DejaVuSans-30" x="190.869141"/>
      </g>
     </g>
    </g>
    <g id="xtick_3">
     <g id="line2d_3">
      <g>
       <use xlink:href="#m5a07fffb6a" x="223.405714" y="307.584" style="stroke: #000000; stroke-width: 0.8"/>
      </g>
     </g>
     <g id="text_3">
      <!-- 2035 -->
      <g transform="translate(210.680714 322.182437) scale(0.1 -0.1)">
       <use xlink:href="#DejaVuSans-32"/>
       <use xlink:href="#DejaVuSans-30" x="63.623047"/>
       <use xlink:href="#DejaVuSans-33" x="127.246094"/>
       <use xlink:href="#DejaVuSans-35" x="190.869141"/>
      </g>
     </g>
    </g>
    <g id="xtick_4">
     <g id="line2d_4">
      <g>
       <use xlink:href="#m5a07fffb6a" x="287.177143" y="307.584" style="stroke: #000000; stroke-width: 0.8"/>
      </g>
     </g>
     <g id="text_4">
      <!-- 2040 -->
      <g transform="translate(274.452143 322.182437) scale(0.1 -0.1)">
       <defs>
        <path id="DejaVuSans-34" d="M 2419 4116 
L 825 1625 
L 2419 1625 
L 2419 4116 
z
M 2253 4666 
L 3047 4666 
L 3047 1625 
L 3713 1625 
L 3713 1100 
L 3047 1100 
L 3047 0 
L 2419 0 
L 2419 1100 
L 313 1100 
L 313 1709 
L 2253 4666 
z
" transform="scale(0.015625)"/>
       </defs>
       <use xlink:href="#DejaVuSans-32"/>
       <use xlink:href="#DejaVuSans-30" x="63.623047"/>
       <use xlink:href="#DejaVuSans-34" x="127.246094"/>
       <use xlink:href="#DejaVuSans-30" x="190.869141"/>
      </g>
     </g>
    </g>
    <g id="xtick_5">
     <g id="line2d_5">
      <g>
       <use xlink:href="#m5a07fffb6a" x="350.948571" y="307.584" style="stroke: #000000; stroke-width: 0.8"/>
      </g>
     </g>
     <g id="text_5">
      <!-- 2045 -->
      <g transform="translate(338.223571 322.182437) scale(0.1 -0.1)">
       <use xlink:href="#DejaVuSans-32"/>
       <use xlink:href="#DejaVuSans-30" x="63.623047"/>
       <use xlink:href="#DejaVuSans-34" x="127.246094"/>
       <use xlink:href="#DejaVuSans-35" x="190.869141"/>
      </g>
     </g>
    </g>
    <g id="xtick_6">
     <g id="line2d_6">
      <g>
       <use xlink:href="#m5a07fffb6a" x="414.72" y="307.584" style="stroke: #000000; stroke-width: 0.8"/>
      </g>
     </g>
     <g id="text_6">
      <!-- 2050 -->
      <g transform="translate(401.995 322.182437) scale(0.1 -0.1)">
       <use xlink:href="#DejaVuSans-32"/>
       <use xlink:href="#DejaVuSans-30" x="63.623047"/>
       <use xlink:href="#DejaVuSans-35" x="127.246094"/>
       <use xlink:href="#DejaVuSans-30" x="190.869141"/>
      </g>
     </g>
    </g>
    <g id="text_7">
     <!-- Time -->
     <g transform="translate(223.926406 335.860562) scale(0.1 -0.1)">
      <defs>
       <path id="DejaVuSans-54" d="M -19 4666 
L 3928 4666 
L 3928 4134 
L 2272 4134 
L 2272 0 
L 1638 0 
L 1638 4134 
L -19 4134 
L -19 4666 
z
" transform="scale(0.015625)"/>
       <path id="DejaVuSans-69" d="M 603 3500 
L 1178 3500 
L 1178 0 
L 603 0 
L 603 3500 
z
M 603 4863 
L 1178 4863 
L 1178 4134 
L 603 4134 
L 603 4863 
z
" transform="scale(0.015625)"/>
       <path id="DejaVuSans-6d" d="M 3328 2828 
Q 3544 3216 3844 3400 
Q 4144 3584 4550 3584 
Q 5097 3584 5394 3201 
Q 5691 2819 5691 2113 
L 5691 0 
L 5113 0 
L 5113 2094 
Q 5113 2597 4934 2840 
Q 4756 3084 4391 3084 
Q 3944 3084 3684 2787 
Q 3425 2491 3425 1978 
L 3425 0 
L 2847 0 
L 2847 2094 
Q 2847 2600 2669 2842 
Q 2491 3084 2119 3084 
Q 1678 3084 1418 2786 
Q 1159 2488 1159 1978 
L 1159 0 
L 581 0 
L 581 3500 
L 1159 3500 
L 1159 2956 
Q 1356 3278 1631 3431 
Q 1906 3584 2284 3584 
Q 2666 3584 2933 3390 
Q 3200 3197 3328 2828 
z
" transform="scale(0.015625)"/>
       <path id="DejaVuSans-65" d="M 3597 1894 
L 3597 1613 
L 953 1613 
Q 991 1019 1311 708 
Q 1631 397 2203 397 
Q 2534 397 2845 478 
Q 3156 559 3463 722 
L 3463 178 
Q 3153 47 2828 -22 
Q 2503 -91 2169 -91 
Q 1331 -91 842 396 
Q 353 884 353 1716 
Q 353 2575 817 3079 
Q 1281 3584 2069 3584 
Q 2775 3584 3186 3129 
Q 3597 2675 3597 1894 
z
M 3022 2063 
Q 3016 2534 2758 2815 
Q 2500 3097 2075 3097 
Q 1594 3097 1305 2825 
Q 1016 2553 972 2059 
L 3022 2063 
z
" transform="scale(0.015625)"/>
      </defs>
      <use xlink:href="#DejaVuSans-54"/>
      <use xlink:href="#DejaVuSans-69" x="57.958984"/>
      <use xlink:href="#DejaVuSans-6d" x="85.742188"/>
      <use xlink:href="#DejaVuSans-65" x="183.154297"/>
     </g>
    </g>
   </g>
   <g id="matplotlib.axis_2">
    <g id="ytick_1">
     <g id="line2d_7">
      <defs>
       <path id="m2567f5a859" d="M 0 0 
L -3.5 0 
" style="stroke: #000000; stroke-width: 0.8"/>
      </defs>
      <g>
       <use xlink:href="#m2567f5a859" x="57.6" y="307.584" style="stroke: #000000; stroke-width: 0.8"/>
      </g>
     </g>
     <g id="text_8">
      <!-- 0 -->
      <g transform="translate(44.2375 311.383219) scale(0.1 -0.1)">
       <use xlink:href="#DejaVuSans-30"/>
      </g>
     </g>
    </g>
    <g id="ytick_2">
     <g id="line2d_8">
      <g>
       <use xlink:href="#m2567f5a859" x="57.6" y="274.32" style="stroke: #000000; stroke-width: 0.8"/>
      </g>
     </g>
     <g id="text_9">
      <!-- 500 -->
      <g transform="translate(31.5125 278.119219) scale(0.1 -0.1)">
       <use xlink:href="#DejaVuSans-35"/>
       <use xlink:href="#DejaVuSans-30" x="63.623047"/>
       <use xlink:href="#DejaVuSans-30" x="127.246094"/>
      </g>
     </g>
    </g>
    <g id="ytick_3">
     <g id="line2d_9">
      <g>
       <use xlink:href="#m2567f5a859" x="57.6" y="241.056" style="stroke: #000000; stroke-width: 0.8"/>
      </g>
     </g>
     <g id="text_10">
      <!-- 1000 -->
      <g transform="translate(25.15 244.855219) scale(0.1 -0.1)">
       <defs>
        <path id="DejaVuSans-31" d="M 794 531 
L 1825 531 
L 1825 4091 
L 703 3866 
L 703 4441 
L 1819 4666 
L 2450 4666 
L 2450 531 
L 3481 531 
L 3481 0 
L 794 0 
L 794 531 
z
" transform="scale(0.015625)"/>
       </defs>
       <use xlink:href="#DejaVuSans-31"/>
       <use xlink:href="#DejaVuSans-30" x="63.623047"/>
       <use xlink:href="#DejaVuSans-30" x="127.246094"/>
       <use xlink:href="#DejaVuSans-30" x="190.869141"/>
      </g>
     </g>
    </g>
    <g id="ytick_4">
     <g id="line2d_10">
      <g>
       <use xlink:href="#m2567f5a859" x="57.6" y="207.792" style="stroke: #000000; stroke-width: 0.8"/>
      </g>
     </g>
     <g id="text_11">
      <!-- 1500 -->
      <g transform="translate(25.15 211.591219) scale(0.1 -0.1)">
       <use xlink:href="#DejaVuSans-31"/>
       <use xlink:href="#DejaVuSans-35" x="63.623047"/>
       <use xlink:href="#DejaVuSans-30" x="127.246094"/>
       <use xlink:href="#DejaVuSans-30" x="190.869141"/>
      </g>
     </g>
    </g>
    <g id="ytick_5">
     <g id="line2d_11">
      <g>
       <use xlink:href="#m2567f5a859" x="57.6" y="174.528" style="stroke: #000000; stroke-width: 0.8"/>
      </g>
     </g>
     <g id="text_12">
      <!-- 2000 -->
      <g transform="translate(25.15 178.327219) scale(0.1 -0.1)">
       <use xlink:href="#DejaVuSans-32"/>
       <use xlink:href="#DejaVuSans-30" x="63.623047"/>
       <use xlink:href="#DejaVuSans-30" x="127.246094"/>
       <use xlink:href="#DejaVuSans-30" x="190.869141"/>
      </g>
     </g>
    </g>
    <g id="ytick_6">
     <g id="line2d_12">
      <g>
       <use xlink:href="#m2567f5a859" x="57.6" y="141.264" style="stroke: #000000; stroke-width: 0.8"/>
      </g>
     </g>
     <g id="text_13">
      <!-- 2500 -->
      <g transform="translate(25.15 145.063219) scale(0.1 -0.1)">
       <use xlink:href="#DejaVuSans-32"/>
       <use xlink:href="#DejaVuSans-35" x="63.623047"/>
       <use xlink:href="#DejaVuSans-30" x="127.246094"/>
       <use xlink:href="#DejaVuSans-30" x="190.869141"/>
      </g>
     </g>
    </g>
    <g id="ytick_7">
     <g id="line2d_13">
      <g>
       <use xlink:href="#m2567f5a859" x="57.6" y="108" style="stroke: #000000; stroke-width: 0.8"/>
      </g>
     </g>
     <g id="text_14">
      <!-- 3000 -->
      <g transform="translate(25.15 111.799219) scale(0.1 -0.1)">
       <use xlink:href="#DejaVuSans-33"/>
       <use xlink:href="#DejaVuSans-30" x="63.623047"/>
       <use xlink:href="#DejaVuSans-30" x="127.246094"/>
       <use xlink:href="#DejaVuSans-30" x="190.869141"/>
      </g>
     </g>
    </g>
    <g id="ytick_8">
     <g id="line2d_14">
      <g>
       <use xlink:href="#m2567f5a859" x="57.6" y="74.736" style="stroke: #000000; stroke-width: 0.8"/>
      </g>
     </g>
     <g id="text_15">
      <!-- 3500 -->
      <g transform="translate(25.15 78.535219) scale(0.1 -0.1)">
       <use xlink:href="#DejaVuSans-33"/>
       <use xlink:href="#DejaVuSans-35" x="63.623047"/>
       <use xlink:href="#DejaVuSans-30" x="127.246094"/>
       <use xlink:href="#DejaVuSans-30" x="190.869141"/>
      </g>
     </g>
    </g>
    <g id="ytick_9">
     <g id="line2d_15">
      <g>
       <use xlink:href="#m2567f5a859" x="57.6" y="41.472" style="stroke: #000000; stroke-width: 0.8"/>
      </g>
     </g>
     <g id="text_16">
      <!-- 4000 -->
      <g transform="translate(25.15 45.271219) scale(0.1 -0.1)">
       <use xlink:href="#DejaVuSans-34"/>
       <use xlink:href="#DejaVuSans-30" x="63.623047"/>
       <use xlink:href="#DejaVuSans-30" x="127.246094"/>
       <use xlink:href="#DejaVuSans-30" x="190.869141"/>
      </g>
     </g>
    </g>
    <g id="text_17">
     <!-- Jobs [FTE] -->
     <g transform="translate(19.070312 199.333469) rotate(-90) scale(0.1 -0.1)">
      <defs>
       <path id="DejaVuSans-4a" d="M 628 4666 
L 1259 4666 
L 1259 325 
Q 1259 -519 939 -900 
Q 619 -1281 -91 -1281 
L -331 -1281 
L -331 -750 
L -134 -750 
Q 284 -750 456 -515 
Q 628 -281 628 325 
L 628 4666 
z
" transform="scale(0.015625)"/>
       <path id="DejaVuSans-6f" d="M 1959 3097 
Q 1497 3097 1228 2736 
Q 959 2375 959 1747 
Q 959 1119 1226 758 
Q 1494 397 1959 397 
Q 2419 397 2687 759 
Q 2956 1122 2956 1747 
Q 2956 2369 2687 2733 
Q 2419 3097 1959 3097 
z
M 1959 3584 
Q 2709 3584 3137 3096 
Q 3566 2609 3566 1747 
Q 3566 888 3137 398 
Q 2709 -91 1959 -91 
Q 1206 -91 779 398 
Q 353 888 353 1747 
Q 353 2609 779 3096 
Q 1206 3584 1959 3584 
z
" transform="scale(0.015625)"/>
       <path id="DejaVuSans-62" d="M 3116 1747 
Q 3116 2381 2855 2742 
Q 2594 3103 2138 3103 
Q 1681 3103 1420 2742 
Q 1159 2381 1159 1747 
Q 1159 1113 1420 752 
Q 1681 391 2138 391 
Q 2594 391 2855 752 
Q 3116 1113 3116 1747 
z
M 1159 2969 
Q 1341 3281 1617 3432 
Q 1894 3584 2278 3584 
Q 2916 3584 3314 3078 
Q 3713 2572 3713 1747 
Q 3713 922 3314 415 
Q 2916 -91 2278 -91 
Q 1894 -91 1617 61 
Q 1341 213 1159 525 
L 1159 0 
L 581 0 
L 581 4863 
L 1159 4863 
L 1159 2969 
z
" transform="scale(0.015625)"/>
       <path id="DejaVuSans-73" d="M 2834 3397 
L 2834 2853 
Q 2591 2978 2328 3040 
Q 2066 3103 1784 3103 
Q 1356 3103 1142 2972 
Q 928 2841 928 2578 
Q 928 2378 1081 2264 
Q 1234 2150 1697 2047 
L 1894 2003 
Q 2506 1872 2764 1633 
Q 3022 1394 3022 966 
Q 3022 478 2636 193 
Q 2250 -91 1575 -91 
Q 1294 -91 989 -36 
Q 684 19 347 128 
L 347 722 
Q 666 556 975 473 
Q 1284 391 1588 391 
Q 1994 391 2212 530 
Q 2431 669 2431 922 
Q 2431 1156 2273 1281 
Q 2116 1406 1581 1522 
L 1381 1569 
Q 847 1681 609 1914 
Q 372 2147 372 2553 
Q 372 3047 722 3315 
Q 1072 3584 1716 3584 
Q 2034 3584 2315 3537 
Q 2597 3491 2834 3397 
z
" transform="scale(0.015625)"/>
       <path id="DejaVuSans-20" transform="scale(0.015625)"/>
       <path id="DejaVuSans-5b" d="M 550 4863 
L 1875 4863 
L 1875 4416 
L 1125 4416 
L 1125 -397 
L 1875 -397 
L 1875 -844 
L 550 -844 
L 550 4863 
z
" transform="scale(0.015625)"/>
       <path id="DejaVuSans-46" d="M 628 4666 
L 3309 4666 
L 3309 4134 
L 1259 4134 
L 1259 2759 
L 3109 2759 
L 3109 2228 
L 1259 2228 
L 1259 0 
L 628 0 
L 628 4666 
z
" transform="scale(0.015625)"/>
       <path id="DejaVuSans-45" d="M 628 4666 
L 3578 4666 
L 3578 4134 
L 1259 4134 
L 1259 2753 
L 3481 2753 
L 3481 2222 
L 1259 2222 
L 1259 531 
L 3634 531 
L 3634 0 
L 628 0 
L 628 4666 
z
" transform="scale(0.015625)"/>
       <path id="DejaVuSans-5d" d="M 1947 4863 
L 1947 -844 
L 622 -844 
L 622 -397 
L 1369 -397 
L 1369 4416 
L 622 4416 
L 622 4863 
L 1947 4863 
z
" transform="scale(0.015625)"/>
      </defs>
      <use xlink:href="#DejaVuSans-4a"/>
      <use xlink:href="#DejaVuSans-6f" x="29.492188"/>
      <use xlink:href="#DejaVuSans-62" x="90.673828"/>
      <use xlink:href="#DejaVuSans-73" x="154.150391"/>
      <use xlink:href="#DejaVuSans-20" x="206.25"/>
      <use xlink:href="#DejaVuSans-5b" x="238.037109"/>
      <use xlink:href="#DejaVuSans-46" x="277.050781"/>
      <use xlink:href="#DejaVuSans-54" x="332.820312"/>
      <use xlink:href="#DejaVuSans-45" x="393.904297"/>
      <use xlink:href="#DejaVuSans-5d" x="457.087891"/>
     </g>
    </g>
   </g>
   <g id="line2d_16">
    <path d="M 57.6 307.584 
L 83.108571 306.810326 
L 108.617143 306.683769 
L 134.125714 304.840066 
L 159.634286 304.646964 
L 185.142857 304.646964 
L 210.651429 301.210505 
L 236.16 302.155013 
L 261.668571 303.904813 
L 287.177143 304.834831 
L 312.685714 304.834831 
L 338.194286 304.834831 
L 363.702857 304.834831 
L 389.211429 304.834831 
L 414.72 304.834831 
" clip-path="url(#p7fb63ad726)" style="fill: none; stroke: #6f6f6f; stroke-width: 1.5; stroke-linecap: square"/>
   </g>
   <g id="line2d_17">
    <path d="M 57.6 307.584 
L 83.108571 305.420741 
L 108.617143 304.968584 
L 134.125714 304.968584 
L 159.634286 304.968584 
L 185.142857 302.60881 
L 210.651429 298.130001 
L 236.16 299.273269 
L 261.668571 299.273269 
L 287.177143 299.273269 
L 312.685714 299.273269 
L 338.194286 299.461153 
L 363.702857 299.273269 
L 389.211429 300.29326 
L 414.72 300.745418 
" clip-path="url(#p7fb63ad726)" style="fill: none; stroke: #6f6f6f; stroke-width: 1.5; stroke-linecap: square"/>
   </g>
   <g id="line2d_18">
    <path d="M 57.6 307.584 
L 83.108571 307.578859 
L 108.617143 307.031602 
L 134.125714 306.335272 
L 159.634286 305.638942 
L 185.142857 304.893292 
L 210.651429 304.147597 
L 236.16 304.150153 
L 261.668571 304.15271 
L 287.177143 304.155266 
L 312.685714 304.157823 
L 338.194286 304.160379 
L 363.702857 304.162949 
L 389.211429 304.165533 
L 414.72 304.168118 
" clip-path="url(#p7fb63ad726)" style="fill: none; stroke: #6f6f6f; stroke-width: 1.5; stroke-linecap: square"/>
   </g>
   <g id="line2d_19">
    <path d="M 57.6 307.584 
L 83.108571 307.527578 
L 108.617143 307.527578 
L 134.125714 307.541683 
L 159.634286 307.555789 
L 185.142857 307.569894 
L 210.651429 307.527578 
L 236.16 307.584 
L 261.668571 307.584 
L 287.177143 307.584 
L 312.685714 307.584 
L 338.194286 307.584 
L 363.702857 307.584 
L 389.211429 307.584 
L 414.72 307.584 
" clip-path="url(#p7fb63ad726)" style="fill: none; stroke: #6f6f6f; stroke-width: 1.5; stroke-linecap: square"/>
   </g>
   <g id="line2d_20">
    <path d="M 57.6 307.584 
L 83.108571 307.584 
L 108.617143 307.584 
L 134.125714 307.584 
L 159.634286 307.584 
L 185.142857 307.584 
L 210.651429 307.584 
L 236.16 307.584 
L 261.668571 307.584 
L 287.177143 307.584 
L 312.685714 307.584 
L 338.194286 307.584 
L 363.702857 307.584 
L 389.211429 307.584 
L 414.72 307.584 
" clip-path="url(#p7fb63ad726)" style="fill: none; stroke: #6f6f6f; stroke-width: 1.5; stroke-linecap: square"/>
   </g>
   <g id="line2d_21">
    <path d="M 57.6 307.584 
L 83.108571 306.875348 
L 108.617143 306.875348 
L 134.125714 306.609219 
L 159.634286 306.329636 
L 185.142857 306.026946 
L 210.651429 304.581233 
L 236.16 305.310089 
L 261.668571 306.19916 
L 287.177143 306.19916 
L 312.685714 306.19916 
L 338.194286 306.29174 
L 363.702857 306.221112 
L 389.211429 306.249811 
L 414.72 306.267296 
" clip-path="url(#p7fb63ad726)" style="fill: none; stroke: #6f6f6f; stroke-width: 1.5; stroke-linecap: square"/>
   </g>
   <g id="line2d_22">
    <path d="M 57.6 307.584 
L 83.108571 301.211485 
L 108.617143 301.205207 
L 134.125714 301.768962 
L 159.634286 300.669558 
L 185.142857 288.847912 
L 210.651429 262.443416 
L 236.16 268.815931 
L 261.668571 269.477916 
L 287.177143 269.477916 
L 312.685714 269.478762 
L 338.194286 270.121605 
L 363.702857 273.692385 
L 389.211429 275.059202 
L 414.72 274.200813 
" clip-path="url(#p7fb63ad726)" style="fill: none; stroke: #6f6f6f; stroke-width: 1.5; stroke-linecap: square"/>
   </g>
   <g id="line2d_23">
    <path d="M 57.6 307.584 
L 83.108571 307.462646 
L 108.617143 302.911961 
L 134.125714 271.042843 
L 159.634286 244.44746 
L 185.142857 217.598743 
L 210.651429 208.371457 
L 236.16 208.492811 
L 261.668571 208.495616 
L 287.177143 208.498421 
L 312.685714 208.501225 
L 338.194286 210.128015 
L 363.702857 210.201724 
L 389.211429 212.360135 
L 414.72 218.469166 
" clip-path="url(#p7fb63ad726)" style="fill: none; stroke: #6f6f6f; stroke-width: 1.5; stroke-linecap: square"/>
   </g>
   <g id="line2d_24">
    <path d="M 57.6 307.584 
L 83.108571 307.584 
L 108.617143 307.584 
L 134.125714 307.584 
L 159.634286 307.584 
L 185.142857 307.584 
L 210.651429 307.584 
L 236.16 307.584 
L 261.668571 307.584 
L 287.177143 307.584 
L 312.685714 307.584 
L 338.194286 307.584 
L 363.702857 307.584 
L 389.211429 307.584 
L 414.72 307.584 
" clip-path="url(#p7fb63ad726)" style="fill: none; stroke: #6f6f6f; stroke-width: 1.5; stroke-linecap: square"/>
   </g>
   <g id="line2d_25">
    <path d="M 57.6 307.584 
L 83.108571 306.065061 
L 108.617143 305.04011 
L 134.125714 292.578948 
L 159.634286 280.118028 
L 185.142857 265.854026 
L 210.651429 251.590148 
L 236.16 253.687105 
L 261.668571 253.716576 
L 287.177143 255.680296 
L 312.685714 258.281376 
L 338.194286 260.882456 
L 363.702857 263.474197 
L 389.211429 265.817805 
L 414.72 268.347492 
" clip-path="url(#p7fb63ad726)" style="fill: none; stroke: #6f6f6f; stroke-width: 1.5; stroke-linecap: square"/>
   </g>
   <g id="line2d_26">
    <path d="M 57.6 307.584 
L 83.108571 304.39427 
L 108.617143 302.799642 
L 134.125714 283.59313 
L 159.634286 264.386645 
L 185.142857 242.338411 
L 210.651429 219.507339 
L 236.16 223.493955 
L 261.668571 224.356694 
L 287.177143 226.872632 
L 312.685714 231.120865 
L 338.194286 236.295492 
L 363.702857 240.344548 
L 389.211429 245.914605 
L 414.72 248.401992 
" clip-path="url(#p7fb63ad726)" style="fill: none; stroke: #6f6f6f; stroke-width: 1.5; stroke-linecap: square"/>
   </g>
   <g id="line2d_27">
    <path d="M 57.6 307.584 
L 83.108571 306.925566 
L 108.617143 306.671606 
L 134.125714 302.509339 
L 159.634286 298.347073 
L 185.142857 293.848381 
L 210.651429 289.349446 
L 236.16 290.622502 
L 261.668571 291.885087 
L 287.177143 293.147657 
L 312.685714 294.431198 
L 338.194286 295.714725 
L 363.702857 296.997646 
L 389.211429 298.28022 
L 414.72 299.562794 
" clip-path="url(#p7fb63ad726)" style="fill: none; stroke: #6f6f6f; stroke-width: 1.5; stroke-linecap: square"/>
   </g>
   <g id="line2d_28">
    <path d="M 57.6 307.584 
L 83.108571 304.14514 
L 108.617143 300.871627 
L 134.125714 234.028003 
L 159.634286 174.977233 
L 185.142857 112.990962 
L 210.651429 34.78771 
L 236.16 39.814187 
L 261.668571 62.077567 
L 287.177143 85.628987 
L 312.685714 103.902233 
L 338.194286 112.859059 
L 363.702857 123.759419 
L 389.211429 133.813558 
L 414.72 140.698314 
" clip-path="url(#p7fb63ad726)" style="fill: none; stroke: #6f6f6f; stroke-width: 1.5; stroke-linecap: square"/>
   </g>
   <g id="line2d_29">
    <path d="M 57.6 307.584 
L 83.108571 306.976319 
L 108.617143 306.563959 
L 134.125714 302.605944 
L 159.634286 298.648105 
L 185.142857 293.738882 
L 210.651429 288.829732 
L 236.16 289.166177 
L 261.668571 289.515031 
L 287.177143 289.795725 
L 312.685714 290.149455 
L 338.194286 290.53011 
L 363.702857 290.925828 
L 389.211429 291.197064 
L 414.72 291.530571 
" clip-path="url(#p7fb63ad726)" style="fill: none; stroke: #6f6f6f; stroke-width: 1.5; stroke-linecap: square"/>
   </g>
   <g id="line2d_30">
    <path d="M 57.6 307.584 
L 83.108571 306.776928 
L 108.617143 304.99015 
L 134.125714 293.845308 
L 159.634286 281.050318 
L 185.142857 265.244101 
L 210.651429 251.359582 
L 236.16 251.367482 
L 261.668571 251.375042 
L 287.177143 251.382689 
L 312.685714 251.741168 
L 338.194286 253.021373 
L 363.702857 252.99989 
L 389.211429 253.997671 
L 414.72 255.698225 
" clip-path="url(#p7fb63ad726)" style="fill: none; stroke: #6f6f6f; stroke-width: 1.5; stroke-linecap: square"/>
   </g>
   <g id="line2d_31">
    <path d="M 57.6 307.584 
L 83.108571 307.541588 
L 108.617143 307.428442 
L 134.125714 307.252637 
L 159.634286 306.987205 
L 185.142857 306.668819 
L 210.651429 306.350415 
L 236.16 306.392978 
L 261.668571 306.427022 
L 287.177143 306.461066 
L 312.685714 306.512131 
L 338.194286 306.563197 
L 363.702857 306.608472 
L 389.211429 306.647938 
L 414.72 306.687423 
" clip-path="url(#p7fb63ad726)" style="fill: none; stroke: #6f6f6f; stroke-width: 1.5; stroke-linecap: square"/>
   </g>
   <g id="line2d_32">
    <path d="M 57.6 307.584 
L 83.108571 303.895416 
L 108.617143 298.586855 
L 134.125714 261.626724 
L 159.634286 218.54485 
L 185.142857 173.018985 
L 210.651429 132.339516 
L 236.16 132.543649 
L 261.668571 132.39498 
L 287.177143 132.444181 
L 312.685714 133.299355 
L 338.194286 137.60492 
L 363.702857 144.423826 
L 389.211429 147.858087 
L 414.72 150.835628 
" clip-path="url(#p7fb63ad726)" style="fill: none; stroke: #6f6f6f; stroke-width: 1.5; stroke-linecap: square"/>
   </g>
   <g id="line2d_33">
    <path d="M 57.6 307.584 
L 83.108571 306.731779 
L 108.617143 305.262336 
L 134.125714 296.284354 
L 159.634286 287.306373 
L 185.142857 276.258552 
L 210.651429 265.21073 
L 236.16 266.062951 
L 261.668571 267.839483 
L 287.177143 268.611508 
L 312.685714 269.437165 
L 338.194286 270.214799 
L 363.702857 271.192653 
L 389.211429 271.192653 
L 414.72 272.028495 
" clip-path="url(#p7fb63ad726)" style="fill: none; stroke: #6f6f6f; stroke-width: 1.5; stroke-linecap: square"/>
   </g>
   <g id="line2d_34">
    <path d="M 57.6 307.584 
L 83.108571 307.584 
L 108.617143 307.584 
L 134.125714 307.584 
L 159.634286 307.584 
L 185.142857 307.584 
L 210.651429 307.584 
L 236.16 307.584 
L 261.668571 307.584 
L 287.177143 307.584 
L 312.685714 307.584 
L 338.194286 307.584 
L 363.702857 307.584 
L 389.211429 307.584 
L 414.72 307.584 
" clip-path="url(#p7fb63ad726)" style="fill: none; stroke: #6f6f6f; stroke-width: 1.5; stroke-linecap: square"/>
   </g>
   <g id="line2d_35">
    <path d="M 57.6 307.584 
L 83.108571 307.584 
L 108.617143 307.584 
L 134.125714 307.584 
L 159.634286 307.584 
L 185.142857 307.584 
L 210.651429 307.584 
L 236.16 307.584 
L 261.668571 307.584 
L 287.177143 307.584 
L 312.685714 307.584 
L 338.194286 307.584 
L 363.702857 307.584 
L 389.211429 307.584 
L 414.72 307.584 
" clip-path="url(#p7fb63ad726)" style="fill: none; stroke: #6f6f6f; stroke-width: 1.5; stroke-linecap: square"/>
   </g>
   <g id="line2d_36">
    <path d="M 57.6 307.584 
L 83.108571 307.584 
L 108.617143 307.584 
L 134.125714 307.584 
L 159.634286 307.584 
L 185.142857 307.584 
L 210.651429 307.584 
L 236.16 307.584 
L 261.668571 307.584 
L 287.177143 307.584 
L 312.685714 307.584 
L 338.194286 307.584 
L 363.702857 307.584 
L 389.211429 307.584 
L 414.72 307.584 
" clip-path="url(#p7fb63ad726)" style="fill: none; stroke: #6f6f6f; stroke-width: 1.5; stroke-linecap: square"/>
   </g>
   <g id="line2d_37">
    <path d="M 57.6 307.584 
L 83.108571 301.921875 
L 108.617143 296.851982 
L 134.125714 273.006169 
L 159.634286 247.503941 
L 185.142857 212.865158 
L 210.651429 191.5309 
L 236.16 199.958566 
L 261.668571 199.958566 
L 287.177143 199.960703 
L 312.685714 199.966863 
L 338.194286 203.498894 
L 363.702857 205.897758 
L 389.211429 210.997264 
L 414.72 220.830762 
" clip-path="url(#p7fb63ad726)" style="fill: none; stroke: #6f6f6f; stroke-width: 1.5; stroke-linecap: square"/>
   </g>
   <g id="line2d_38">
    <path d="M 57.6 307.584 
L 83.108571 306.838113 
L 108.617143 306.838113 
L 134.125714 307.024585 
L 159.634286 307.211056 
L 185.142857 307.397528 
L 210.651429 306.593795 
L 236.16 307.584 
L 261.668571 307.584 
L 287.177143 307.584 
L 312.685714 307.584 
L 338.194286 307.584 
L 363.702857 307.584 
L 389.211429 307.584 
L 414.72 307.584 
" clip-path="url(#p7fb63ad726)" style="fill: none; stroke: #6f6f6f; stroke-width: 1.5; stroke-linecap: square"/>
   </g>
   <g id="line2d_39">
    <path d="M 57.6 307.584 
L 83.108571 303.16566 
L 108.617143 301.21795 
L 134.125714 278.998535 
L 159.634286 255.4095 
L 185.142857 226.513334 
L 210.651429 197.603539 
L 236.16 200.682474 
L 261.668571 200.697288 
L 287.177143 200.712102 
L 312.685714 201.494567 
L 338.194286 205.129812 
L 363.702857 207.001144 
L 389.211429 209.522302 
L 414.72 211.132316 
" clip-path="url(#p7fb63ad726)" style="fill: none; stroke: #6f6f6f; stroke-width: 1.5; stroke-linecap: square"/>
   </g>
   <g id="line2d_40">
    <path d="M 57.6 307.584 
L 83.108571 307.175177 
L 108.617143 306.922639 
L 134.125714 303.006283 
L 159.634286 299.089926 
L 185.142857 294.887391 
L 210.651429 291.467278 
L 236.16 292.287678 
L 261.668571 293.108078 
L 287.177143 294.34332 
L 312.685714 295.582872 
L 338.194286 296.822512 
L 363.702857 298.067153 
L 389.211429 299.317138 
L 414.72 300.567123 
" clip-path="url(#p7fb63ad726)" style="fill: none; stroke: #6f6f6f; stroke-width: 1.5; stroke-linecap: square"/>
   </g>
   <g id="line2d_41">
    <path d="M 57.6 307.584 
L 83.108571 306.610461 
L 108.617143 304.252728 
L 134.125714 296.901681 
L 159.634286 289.550964 
L 185.142857 278.87922 
L 210.651429 268.20395 
L 236.16 266.950456 
L 261.668571 267.51374 
L 287.177143 267.517155 
L 312.685714 267.520977 
L 338.194286 267.5248 
L 363.702857 267.528497 
L 389.211429 267.53207 
L 414.72 267.535643 
" clip-path="url(#p7fb63ad726)" style="fill: none; stroke: #6f6f6f; stroke-width: 1.5; stroke-linecap: square"/>
   </g>
   <g id="line2d_42">
    <path d="M 57.6 307.584 
L 83.108571 306.89754 
L 108.617143 306.314103 
L 134.125714 300.562037 
L 159.634286 292.57026 
L 185.142857 281.487724 
L 210.651429 271.17865 
L 236.16 272.005878 
L 261.668571 274.610604 
L 287.177143 279.92833 
L 312.685714 287.366681 
L 338.194286 289.530455 
L 363.702857 290.257508 
L 389.211429 290.444346 
L 414.72 290.90255 
" clip-path="url(#p7fb63ad726)" style="fill: none; stroke: #6f6f6f; stroke-width: 1.5; stroke-linecap: square"/>
   </g>
   <g id="line2d_43">
    <path d="M 57.6 307.584 
L 83.108571 307.584 
L 108.617143 307.584 
L 134.125714 307.584 
L 159.634286 307.584 
L 185.142857 307.584 
L 210.651429 307.568997 
L 236.16 307.568997 
L 261.668571 307.568997 
L 287.177143 307.584 
L 312.685714 307.584 
L 338.194286 307.584 
L 363.702857 307.584 
L 389.211429 307.584 
L 414.72 307.584 
" clip-path="url(#p7fb63ad726)" style="fill: none; stroke: #6f6f6f; stroke-width: 1.5; stroke-linecap: square"/>
   </g>
   <g id="line2d_44">
    <path d="M 57.6 307.584 
L 83.108571 306.553027 
L 108.617143 305.927358 
L 134.125714 299.26465 
L 159.634286 292.60217 
L 185.142857 284.722977 
L 210.651429 276.843588 
L 236.16 278.076678 
L 261.668571 279.740827 
L 287.177143 279.751827 
L 312.685714 280.81948 
L 338.194286 281.66207 
L 363.702857 282.622298 
L 389.211429 283.502022 
L 414.72 282.622397 
" clip-path="url(#p7fb63ad726)" style="fill: none; stroke: #6f6f6f; stroke-width: 1.5; stroke-linecap: square"/>
   </g>
   <g id="line2d_45">
    <path d="M 57.6 307.584 
L 83.108571 304.731672 
L 108.617143 300.323006 
L 134.125714 284.734339 
L 159.634286 266.319651 
L 185.142857 245.034745 
L 210.651429 223.749727 
L 236.16 227.434444 
L 261.668571 230.56471 
L 287.177143 231.127857 
L 312.685714 234.912912 
L 338.194286 239.494024 
L 363.702857 243.874717 
L 389.211429 246.128147 
L 414.72 249.819812 
" clip-path="url(#p7fb63ad726)" style="fill: none; stroke: #6f6f6f; stroke-width: 1.5; stroke-linecap: square"/>
   </g>
   <g id="line2d_46">
    <path d="M 414.72 140.698314 
L 417.270857 140.698314 
L 419.821714 140.698314 
" clip-path="url(#p7fb63ad726)" style="fill: none; stroke-dasharray: 5.55,2.4; stroke-dashoffset: 0; stroke: #a30774; stroke-width: 1.5"/>
   </g>
   <g id="line2d_47">
    <path d="M 414.72 150.835628 
L 417.270857 150.835628 
L 419.821714 150.835628 
" clip-path="url(#p7fb63ad726)" style="fill: none; stroke-dasharray: 5.55,2.4; stroke-dashoffset: 0; stroke: #a30774; stroke-width: 1.5"/>
   </g>
   <g id="line2d_48">
    <path d="M 414.72 211.132316 
L 417.270857 211.132316 
L 419.821714 211.132316 
" clip-path="url(#p7fb63ad726)" style="fill: none; stroke-dasharray: 5.55,2.4; stroke-dashoffset: 0; stroke: #a30774; stroke-width: 1.5"/>
   </g>
   <g id="line2d_49">
    <path d="M 414.72 218.469166 
L 417.270857 218.469166 
L 419.821714 218.469166 
" clip-path="url(#p7fb63ad726)" style="fill: none; stroke-dasharray: 5.55,2.4; stroke-dashoffset: 0; stroke: #215caf; stroke-width: 1.5"/>
   </g>
   <g id="line2d_50">
    <path d="M 414.72 220.830762 
L 417.270857 220.830762 
L 419.821714 220.830762 
" clip-path="url(#p7fb63ad726)" style="fill: none; stroke-dasharray: 5.55,2.4; stroke-dashoffset: 0; stroke: #215caf; stroke-width: 1.5"/>
   </g>
   <g id="line2d_51">
    <path d="M 414.72 248.401992 
L 417.270857 248.401992 
L 419.821714 248.401992 
" clip-path="url(#p7fb63ad726)" style="fill: none; stroke-dasharray: 5.55,2.4; stroke-dashoffset: 0; stroke: #215caf; stroke-width: 1.5"/>
   </g>
   <g id="line2d_52">
    <path d="M 414.72 249.819812 
L 417.270857 249.819812 
L 419.821714 249.819812 
" clip-path="url(#p7fb63ad726)" style="fill: none; stroke-dasharray: 5.55,2.4; stroke-dashoffset: 0; stroke: #215caf; stroke-width: 1.5"/>
   </g>
   <g id="line2d_53">
    <path d="M 414.72 255.698225 
L 417.270857 255.698225 
L 419.821714 255.698225 
" clip-path="url(#p7fb63ad726)" style="fill: none; stroke-dasharray: 5.55,2.4; stroke-dashoffset: 0; stroke: #215caf; stroke-width: 1.5"/>
   </g>
   <g id="line2d_54">
    <path d="M 57.6 307.584 
L 83.108571 307.462646 
L 108.617143 302.911961 
L 134.125714 271.042843 
L 159.634286 244.44746 
L 185.142857 217.598743 
L 210.651429 208.371457 
L 236.16 208.492811 
L 261.668571 208.495616 
L 287.177143 208.498421 
L 312.685714 208.501225 
L 338.194286 210.128015 
L 363.702857 210.201724 
L 389.211429 212.360135 
L 414.72 218.469166 
" clip-path="url(#p7fb63ad726)" style="fill: none; stroke: #215caf; stroke-width: 1.2; stroke-linecap: square"/>
   </g>
   <g id="line2d_55">
    <path d="M 57.6 307.584 
L 83.108571 301.921875 
L 108.617143 296.851982 
L 134.125714 273.006169 
L 159.634286 247.503941 
L 185.142857 212.865158 
L 210.651429 191.5309 
L 236.16 199.958566 
L 261.668571 199.958566 
L 287.177143 199.960703 
L 312.685714 199.966863 
L 338.194286 203.498894 
L 363.702857 205.897758 
L 389.211429 210.997264 
L 414.72 220.830762 
" clip-path="url(#p7fb63ad726)" style="fill: none; stroke: #215caf; stroke-width: 1.2; stroke-linecap: square"/>
   </g>
   <g id="line2d_56">
    <path d="M 57.6 307.584 
L 83.108571 304.39427 
L 108.617143 302.799642 
L 134.125714 283.59313 
L 159.634286 264.386645 
L 185.142857 242.338411 
L 210.651429 219.507339 
L 236.16 223.493955 
L 261.668571 224.356694 
L 287.177143 226.872632 
L 312.685714 231.120865 
L 338.194286 236.295492 
L 363.702857 240.344548 
L 389.211429 245.914605 
L 414.72 248.401992 
" clip-path="url(#p7fb63ad726)" style="fill: none; stroke: #215caf; stroke-width: 1.2; stroke-linecap: square"/>
   </g>
   <g id="line2d_57">
    <path d="M 57.6 307.584 
L 83.108571 304.731672 
L 108.617143 300.323006 
L 134.125714 284.734339 
L 159.634286 266.319651 
L 185.142857 245.034745 
L 210.651429 223.749727 
L 236.16 227.434444 
L 261.668571 230.56471 
L 287.177143 231.127857 
L 312.685714 234.912912 
L 338.194286 239.494024 
L 363.702857 243.874717 
L 389.211429 246.128147 
L 414.72 249.819812 
" clip-path="url(#p7fb63ad726)" style="fill: none; stroke: #215caf; stroke-width: 1.2; stroke-linecap: square"/>
   </g>
   <g id="line2d_58">
    <path d="M 57.6 307.584 
L 83.108571 306.776928 
L 108.617143 304.99015 
L 134.125714 293.845308 
L 159.634286 281.050318 
L 185.142857 265.244101 
L 210.651429 251.359582 
L 236.16 251.367482 
L 261.668571 251.375042 
L 287.177143 251.382689 
L 312.685714 251.741168 
L 338.194286 253.021373 
L 363.702857 252.99989 
L 389.211429 253.997671 
L 414.72 255.698225 
" clip-path="url(#p7fb63ad726)" style="fill: none; stroke: #215caf; stroke-width: 1.2; stroke-linecap: square"/>
   </g>
   <g id="patch_3">
    <path d="M 57.6 307.584 
L 57.6 41.472 
" style="fill: none; stroke: #000000; stroke-width: 0.8; stroke-linejoin: miter; stroke-linecap: square"/>
   </g>
   <g id="patch_4">
    <path d="M 57.6 307.584 
L 414.72 307.584 
" style="fill: none; stroke: #000000; stroke-width: 0.8; stroke-linejoin: miter; stroke-linecap: square"/>
   </g>
   <g id="text_18">
    <!-- FR -->
    <g transform="translate(421.097143 143.457689) scale(0.1 -0.1)">
     <defs>
      <path id="DejaVuSans-Bold-46" d="M 588 4666 
L 3834 4666 
L 3834 3756 
L 1791 3756 
L 1791 2888 
L 3713 2888 
L 3713 1978 
L 1791 1978 
L 1791 0 
L 588 0 
L 588 4666 
z
" transform="scale(0.015625)"/>
      <path id="DejaVuSans-Bold-52" d="M 2297 2597 
Q 2675 2597 2839 2737 
Q 3003 2878 3003 3200 
Q 3003 3519 2839 3656 
Q 2675 3794 2297 3794 
L 1791 3794 
L 1791 2597 
L 2297 2597 
z
M 1791 1766 
L 1791 0 
L 588 0 
L 588 4666 
L 2425 4666 
Q 3347 4666 3776 4356 
Q 4206 4047 4206 3378 
Q 4206 2916 3982 2619 
Q 3759 2322 3309 2181 
Q 3556 2125 3751 1926 
Q 3947 1728 4147 1325 
L 4800 0 
L 3519 0 
L 2950 1159 
Q 2778 1509 2601 1637 
Q 2425 1766 2131 1766 
L 1791 1766 
z
" transform="scale(0.015625)"/>
     </defs>
     <use xlink:href="#DejaVuSans-Bold-46"/>
     <use xlink:href="#DejaVuSans-Bold-52" x="68.310547"/>
    </g>
   </g>
   <g id="text_19">
    <!-- IT -->
    <g transform="translate(421.097143 153.595003) scale(0.1 -0.1)">
     <defs>
      <path id="DejaVuSans-Bold-49" d="M 588 4666 
L 1791 4666 
L 1791 0 
L 588 0 
L 588 4666 
z
" transform="scale(0.015625)"/>
      <path id="DejaVuSans-Bold-54" d="M 31 4666 
L 4331 4666 
L 4331 3756 
L 2784 3756 
L 2784 0 
L 1581 0 
L 1581 3756 
L 31 3756 
L 31 4666 
z
" transform="scale(0.015625)"/>
     </defs>
     <use xlink:href="#DejaVuSans-Bold-49"/>
     <use xlink:href="#DejaVuSans-Bold-54" x="37.207031"/>
    </g>
   </g>
   <g id="text_20">
    <!-- PL -->
    <g transform="translate(421.097143 213.891691) scale(0.1 -0.1)">
     <defs>
      <path id="DejaVuSans-Bold-50" d="M 588 4666 
L 2584 4666 
Q 3475 4666 3951 4270 
Q 4428 3875 4428 3144 
Q 4428 2409 3951 2014 
Q 3475 1619 2584 1619 
L 1791 1619 
L 1791 0 
L 588 0 
L 588 4666 
z
M 1791 3794 
L 1791 2491 
L 2456 2491 
Q 2806 2491 2997 2661 
Q 3188 2831 3188 3144 
Q 3188 3456 2997 3625 
Q 2806 3794 2456 3794 
L 1791 3794 
z
" transform="scale(0.015625)"/>
      <path id="DejaVuSans-Bold-4c" d="M 588 4666 
L 1791 4666 
L 1791 909 
L 3903 909 
L 3903 0 
L 588 0 
L 588 4666 
z
" transform="scale(0.015625)"/>
     </defs>
     <use xlink:href="#DejaVuSans-Bold-50"/>
     <use xlink:href="#DejaVuSans-Bold-4c" x="73.291016"/>
    </g>
   </g>
   <g id="text_21">
    <!-- DK -->
    <g transform="translate(421.097143 221.228541) scale(0.1 -0.1)">
     <defs>
      <path id="DejaVuSans-Bold-44" d="M 1791 3756 
L 1791 909 
L 2222 909 
Q 2959 909 3348 1275 
Q 3738 1641 3738 2338 
Q 3738 3031 3350 3393 
Q 2963 3756 2222 3756 
L 1791 3756 
z
M 588 4666 
L 1856 4666 
Q 2919 4666 3439 4514 
Q 3959 4363 4331 4000 
Q 4659 3684 4818 3271 
Q 4978 2859 4978 2338 
Q 4978 1809 4818 1395 
Q 4659 981 4331 666 
Q 3956 303 3431 151 
Q 2906 0 1856 0 
L 588 0 
L 588 4666 
z
" transform="scale(0.015625)"/>
      <path id="DejaVuSans-Bold-4b" d="M 588 4666 
L 1791 4666 
L 1791 2963 
L 3525 4666 
L 4922 4666 
L 2675 2456 
L 5153 0 
L 3647 0 
L 1791 1838 
L 1791 0 
L 588 0 
L 588 4666 
z
" transform="scale(0.015625)"/>
     </defs>
     <use xlink:href="#DejaVuSans-Bold-44"/>
     <use xlink:href="#DejaVuSans-Bold-4b" x="83.007812"/>
    </g>
   </g>
   <g id="text_22">
    <!-- NL -->
    <g transform="translate(421.097143 223.590137) scale(0.1 -0.1)">
     <defs>
      <path id="DejaVuSans-Bold-4e" d="M 588 4666 
L 1931 4666 
L 3628 1466 
L 3628 4666 
L 4769 4666 
L 4769 0 
L 3425 0 
L 1728 3200 
L 1728 0 
L 588 0 
L 588 4666 
z
" transform="scale(0.015625)"/>
     </defs>
     <use xlink:href="#DejaVuSans-Bold-4e"/>
     <use xlink:href="#DejaVuSans-Bold-4c" x="83.691406"/>
    </g>
   </g>
   <g id="text_23">
    <!-- ES -->
    <g transform="translate(421.097143 251.161367) scale(0.1 -0.1)">
     <defs>
      <path id="DejaVuSans-Bold-45" d="M 588 4666 
L 3834 4666 
L 3834 3756 
L 1791 3756 
L 1791 2888 
L 3713 2888 
L 3713 1978 
L 1791 1978 
L 1791 909 
L 3903 909 
L 3903 0 
L 588 0 
L 588 4666 
z
" transform="scale(0.015625)"/>
      <path id="DejaVuSans-Bold-53" d="M 3834 4519 
L 3834 3531 
Q 3450 3703 3084 3790 
Q 2719 3878 2394 3878 
Q 1963 3878 1756 3759 
Q 1550 3641 1550 3391 
Q 1550 3203 1689 3098 
Q 1828 2994 2194 2919 
L 2706 2816 
Q 3484 2659 3812 2340 
Q 4141 2022 4141 1434 
Q 4141 663 3683 286 
Q 3225 -91 2284 -91 
Q 1841 -91 1394 -6 
Q 947 78 500 244 
L 500 1259 
Q 947 1022 1364 901 
Q 1781 781 2169 781 
Q 2563 781 2772 912 
Q 2981 1044 2981 1288 
Q 2981 1506 2839 1625 
Q 2697 1744 2272 1838 
L 1806 1941 
Q 1106 2091 782 2419 
Q 459 2747 459 3303 
Q 459 4000 909 4375 
Q 1359 4750 2203 4750 
Q 2588 4750 2994 4692 
Q 3400 4634 3834 4519 
z
" transform="scale(0.015625)"/>
     </defs>
     <use xlink:href="#DejaVuSans-Bold-45"/>
     <use xlink:href="#DejaVuSans-Bold-53" x="68.310547"/>
    </g>
   </g>
   <g id="text_24">
    <!-- UK -->
    <g transform="translate(421.097143 252.579187) scale(0.1 -0.1)">
     <defs>
      <path id="DejaVuSans-Bold-55" d="M 588 4666 
L 1791 4666 
L 1791 1869 
Q 1791 1291 1980 1042 
Q 2169 794 2597 794 
Q 3028 794 3217 1042 
Q 3406 1291 3406 1869 
L 3406 4666 
L 4609 4666 
L 4609 1869 
Q 4609 878 4112 393 
Q 3616 -91 2597 -91 
Q 1581 -91 1084 393 
Q 588 878 588 1869 
L 588 4666 
z
" transform="scale(0.015625)"/>
     </defs>
     <use xlink:href="#DejaVuSans-Bold-55"/>
     <use xlink:href="#DejaVuSans-Bold-4b" x="81.201172"/>
    </g>
   </g>
   <g id="text_25">
    <!-- HU -->
    <g transform="translate(421.097143 258.4576) scale(0.1 -0.1)">
     <defs>
      <path id="DejaVuSans-Bold-48" d="M 588 4666 
L 1791 4666 
L 1791 2888 
L 3566 2888 
L 3566 4666 
L 4769 4666 
L 4769 0 
L 3566 0 
L 3566 1978 
L 1791 1978 
L 1791 0 
L 588 0 
L 588 4666 
z
" transform="scale(0.015625)"/>
     </defs>
     <use xlink:href="#DejaVuSans-Bold-48"/>
     <use xlink:href="#DejaVuSans-Bold-55" x="83.691406"/>
    </g>
   </g>
   <g id="line2d_59">
    <path d="M 57.6 307.584 
L 83.108571 304.14514 
L 108.617143 300.871627 
L 134.125714 234.028003 
L 159.634286 174.977233 
L 185.142857 112.990962 
L 210.651429 34.78771 
L 236.16 39.814187 
L 261.668571 62.077567 
L 287.177143 85.628987 
L 312.685714 103.902233 
L 338.194286 112.859059 
L 363.702857 123.759419 
L 389.211429 133.813558 
L 414.72 140.698314 
" clip-path="url(#p7fb63ad726)" style="fill: none; stroke: #a30774; stroke-width: 1.2; stroke-linecap: square"/>
   </g>
   <g id="line2d_60">
    <path d="M 57.6 307.584 
L 83.108571 303.895416 
L 108.617143 298.586855 
L 134.125714 261.626724 
L 159.634286 218.54485 
L 185.142857 173.018985 
L 210.651429 132.339516 
L 236.16 132.543649 
L 261.668571 132.39498 
L 287.177143 132.444181 
L 312.685714 133.299355 
L 338.194286 137.60492 
L 363.702857 144.423826 
L 389.211429 147.858087 
L 414.72 150.835628 
" clip-path="url(#p7fb63ad726)" style="fill: none; stroke: #a30774; stroke-width: 1.2; stroke-linecap: square"/>
   </g>
   <g id="line2d_61">
    <path d="M 57.6 307.584 
L 83.108571 303.16566 
L 108.617143 301.21795 
L 134.125714 278.998535 
L 159.634286 255.4095 
L 185.142857 226.513334 
L 210.651429 197.603539 
L 236.16 200.682474 
L 261.668571 200.697288 
L 287.177143 200.712102 
L 312.685714 201.494567 
L 338.194286 205.129812 
L 363.702857 207.001144 
L 389.211429 209.522302 
L 414.72 211.132316 
" clip-path="url(#p7fb63ad726)" style="fill: none; stroke: #a30774; stroke-width: 1.2; stroke-linecap: square"/>
   </g>
  </g>
 </g>
 <defs>
  <clipPath id="p7fb63ad726">
   <rect x="57.6" y="41.472" width="357.12" height="266.112"/>
  </clipPath>
 </defs>
</svg>
