<?xml version="1.0" encoding="utf-8" standalone="no"?>
<!DOCTYPE svg PUBLIC "-//W3C//DTD SVG 1.1//EN"
  "http://www.w3.org/Graphics/SVG/1.1/DTD/svg11.dtd">
<svg xmlns:xlink="http://www.w3.org/1999/xlink" width="460.8pt" height="345.6pt" viewBox="0 0 460.8 345.6" xmlns="http://www.w3.org/2000/svg" version="1.1">
 <metadata>
  <rdf:RDF xmlns:dc="http://purl.org/dc/elements/1.1/" xmlns:cc="http://creativecommons.org/ns#" xmlns:rdf="http://www.w3.org/1999/02/22-rdf-syntax-ns#">
   <cc:Work>
    <dc:type rdf:resource="http://purl.org/dc/dcmitype/StillImage"/>
    <dc:date>2023-08-29T13:22:06.328611</dc:date>
    <dc:format>image/svg+xml</dc:format>
    <dc:creator>
     <cc:Agent>
      <dc:title>Matplotlib v3.7.1, https://matplotlib.org/</dc:title>
     </cc:Agent>
    </dc:creator>
   </cc:Work>
  </rdf:RDF>
 </metadata>
 <defs>
  <style type="text/css">*{stroke-linejoin: round; stroke-linecap: butt}</style>
 </defs>
 <g id="figure_1">
  <g id="patch_1">
   <path d="M 0 345.6 
L 460.8 345.6 
L 460.8 0 
L 0 0 
L 0 345.6 
z
" style="fill: none"/>
  </g>
  <g id="axes_1">
   <g id="patch_2">
    <path d="M 57.6 307.584 
L 414.72 307.584 
L 414.72 41.472 
L 57.6 41.472 
L 57.6 307.584 
z
" style="fill: none"/>
   </g>
   <g id="matplotlib.axis_1">
    <g id="xtick_1">
     <g id="line2d_1">
      <defs>
       <path id="m0e05792743" d="M 0 0 
L 0 3.5 
" style="stroke: #000000; stroke-width: 0.8"/>
      </defs>
      <g>
       <use xlink:href="#m0e05792743" x="95.862857" y="307.584" style="stroke: #000000; stroke-width: 0.8"/>
      </g>
     </g>
     <g id="text_1">
      <!-- 2025 -->
      <g transform="translate(83.137857 322.182437) scale(0.1 -0.1)">
       <defs>
        <path id="DejaVuSans-32" d="M 1228 531 
L 3431 531 
L 3431 0 
L 469 0 
L 469 531 
Q 828 903 1448 1529 
Q 2069 2156 2228 2338 
Q 2531 2678 2651 2914 
Q 2772 3150 2772 3378 
Q 2772 3750 2511 3984 
Q 2250 4219 1831 4219 
Q 1534 4219 1204 4116 
Q 875 4013 500 3803 
L 500 4441 
Q 881 4594 1212 4672 
Q 1544 4750 1819 4750 
Q 2544 4750 2975 4387 
Q 3406 4025 3406 3419 
Q 3406 3131 3298 2873 
Q 3191 2616 2906 2266 
Q 2828 2175 2409 1742 
Q 1991 1309 1228 531 
z
" transform="scale(0.015625)"/>
        <path id="DejaVuSans-30" d="M 2034 4250 
Q 1547 4250 1301 3770 
Q 1056 3291 1056 2328 
Q 1056 1369 1301 889 
Q 1547 409 2034 409 
Q 2525 409 2770 889 
Q 3016 1369 3016 2328 
Q 3016 3291 2770 3770 
Q 2525 4250 2034 4250 
z
M 2034 4750 
Q 2819 4750 3233 4129 
Q 3647 3509 3647 2328 
Q 3647 1150 3233 529 
Q 2819 -91 2034 -91 
Q 1250 -91 836 529 
Q 422 1150 422 2328 
Q 422 3509 836 4129 
Q 1250 4750 2034 4750 
z
" transform="scale(0.015625)"/>
        <path id="DejaVuSans-35" d="M 691 4666 
L 3169 4666 
L 3169 4134 
L 1269 4134 
L 1269 2991 
Q 1406 3038 1543 3061 
Q 1681 3084 1819 3084 
Q 2600 3084 3056 2656 
Q 3513 2228 3513 1497 
Q 3513 744 3044 326 
Q 2575 -91 1722 -91 
Q 1428 -91 1123 -41 
Q 819 9 494 109 
L 494 744 
Q 775 591 1075 516 
Q 1375 441 1709 441 
Q 2250 441 2565 725 
Q 2881 1009 2881 1497 
Q 2881 1984 2565 2268 
Q 2250 2553 1709 2553 
Q 1456 2553 1204 2497 
Q 953 2441 691 2322 
L 691 4666 
z
" transform="scale(0.015625)"/>
       </defs>
       <use xlink:href="#DejaVuSans-32"/>
       <use xlink:href="#DejaVuSans-30" x="63.623047"/>
       <use xlink:href="#DejaVuSans-32" x="127.246094"/>
       <use xlink:href="#DejaVuSans-35" x="190.869141"/>
      </g>
     </g>
    </g>
    <g id="xtick_2">
     <g id="line2d_2">
      <g>
       <use xlink:href="#m0e05792743" x="159.634286" y="307.584" style="stroke: #000000; stroke-width: 0.8"/>
      </g>
     </g>
     <g id="text_2">
      <!-- 2030 -->
      <g transform="translate(146.909286 322.182437) scale(0.1 -0.1)">
       <defs>
        <path id="DejaVuSans-33" d="M 2597 2516 
Q 3050 2419 3304 2112 
Q 3559 1806 3559 1356 
Q 3559 666 3084 287 
Q 2609 -91 1734 -91 
Q 1441 -91 1130 -33 
Q 819 25 488 141 
L 488 750 
Q 750 597 1062 519 
Q 1375 441 1716 441 
Q 2309 441 2620 675 
Q 2931 909 2931 1356 
Q 2931 1769 2642 2001 
Q 2353 2234 1838 2234 
L 1294 2234 
L 1294 2753 
L 1863 2753 
Q 2328 2753 2575 2939 
Q 2822 3125 2822 3475 
Q 2822 3834 2567 4026 
Q 2313 4219 1838 4219 
Q 1578 4219 1281 4162 
Q 984 4106 628 3988 
L 628 4550 
Q 988 4650 1302 4700 
Q 1616 4750 1894 4750 
Q 2613 4750 3031 4423 
Q 3450 4097 3450 3541 
Q 3450 3153 3228 2886 
Q 3006 2619 2597 2516 
z
" transform="scale(0.015625)"/>
       </defs>
       <use xlink:href="#DejaVuSans-32"/>
       <use xlink:href="#DejaVuSans-30" x="63.623047"/>
       <use xlink:href="#DejaVuSans-33" x="127.246094"/>
       <use xlink:href="#DejaVuSans-30" x="190.869141"/>
      </g>
     </g>
    </g>
    <g id="xtick_3">
     <g id="line2d_3">
      <g>
       <use xlink:href="#m0e05792743" x="223.405714" y="307.584" style="stroke: #000000; stroke-width: 0.8"/>
      </g>
     </g>
     <g id="text_3">
      <!-- 2035 -->
      <g transform="translate(210.680714 322.182437) scale(0.1 -0.1)">
       <use xlink:href="#DejaVuSans-32"/>
       <use xlink:href="#DejaVuSans-30" x="63.623047"/>
       <use xlink:href="#DejaVuSans-33" x="127.246094"/>
       <use xlink:href="#DejaVuSans-35" x="190.869141"/>
      </g>
     </g>
    </g>
    <g id="xtick_4">
     <g id="line2d_4">
      <g>
       <use xlink:href="#m0e05792743" x="287.177143" y="307.584" style="stroke: #000000; stroke-width: 0.8"/>
      </g>
     </g>
     <g id="text_4">
      <!-- 2040 -->
      <g transform="translate(274.452143 322.182437) scale(0.1 -0.1)">
       <defs>
        <path id="DejaVuSans-34" d="M 2419 4116 
L 825 1625 
L 2419 1625 
L 2419 4116 
z
M 2253 4666 
L 3047 4666 
L 3047 1625 
L 3713 1625 
L 3713 1100 
L 3047 1100 
L 3047 0 
L 2419 0 
L 2419 1100 
L 313 1100 
L 313 1709 
L 2253 4666 
z
" transform="scale(0.015625)"/>
       </defs>
       <use xlink:href="#DejaVuSans-32"/>
       <use xlink:href="#DejaVuSans-30" x="63.623047"/>
       <use xlink:href="#DejaVuSans-34" x="127.246094"/>
       <use xlink:href="#DejaVuSans-30" x="190.869141"/>
      </g>
     </g>
    </g>
    <g id="xtick_5">
     <g id="line2d_5">
      <g>
       <use xlink:href="#m0e05792743" x="350.948571" y="307.584" style="stroke: #000000; stroke-width: 0.8"/>
      </g>
     </g>
     <g id="text_5">
      <!-- 2045 -->
      <g transform="translate(338.223571 322.182437) scale(0.1 -0.1)">
       <use xlink:href="#DejaVuSans-32"/>
       <use xlink:href="#DejaVuSans-30" x="63.623047"/>
       <use xlink:href="#DejaVuSans-34" x="127.246094"/>
       <use xlink:href="#DejaVuSans-35" x="190.869141"/>
      </g>
     </g>
    </g>
    <g id="xtick_6">
     <g id="line2d_6">
      <g>
       <use xlink:href="#m0e05792743" x="414.72" y="307.584" style="stroke: #000000; stroke-width: 0.8"/>
      </g>
     </g>
     <g id="text_6">
      <!-- 2050 -->
      <g transform="translate(401.995 322.182437) scale(0.1 -0.1)">
       <use xlink:href="#DejaVuSans-32"/>
       <use xlink:href="#DejaVuSans-30" x="63.623047"/>
       <use xlink:href="#DejaVuSans-35" x="127.246094"/>
       <use xlink:href="#DejaVuSans-30" x="190.869141"/>
      </g>
     </g>
    </g>
    <g id="text_7">
     <!-- Time -->
     <g transform="translate(223.926406 335.860562) scale(0.1 -0.1)">
      <defs>
       <path id="DejaVuSans-54" d="M -19 4666 
L 3928 4666 
L 3928 4134 
L 2272 4134 
L 2272 0 
L 1638 0 
L 1638 4134 
L -19 4134 
L -19 4666 
z
" transform="scale(0.015625)"/>
       <path id="DejaVuSans-69" d="M 603 3500 
L 1178 3500 
L 1178 0 
L 603 0 
L 603 3500 
z
M 603 4863 
L 1178 4863 
L 1178 4134 
L 603 4134 
L 603 4863 
z
" transform="scale(0.015625)"/>
       <path id="DejaVuSans-6d" d="M 3328 2828 
Q 3544 3216 3844 3400 
Q 4144 3584 4550 3584 
Q 5097 3584 5394 3201 
Q 5691 2819 5691 2113 
L 5691 0 
L 5113 0 
L 5113 2094 
Q 5113 2597 4934 2840 
Q 4756 3084 4391 3084 
Q 3944 3084 3684 2787 
Q 3425 2491 3425 1978 
L 3425 0 
L 2847 0 
L 2847 2094 
Q 2847 2600 2669 2842 
Q 2491 3084 2119 3084 
Q 1678 3084 1418 2786 
Q 1159 2488 1159 1978 
L 1159 0 
L 581 0 
L 581 3500 
L 1159 3500 
L 1159 2956 
Q 1356 3278 1631 3431 
Q 1906 3584 2284 3584 
Q 2666 3584 2933 3390 
Q 3200 3197 3328 2828 
z
" transform="scale(0.015625)"/>
       <path id="DejaVuSans-65" d="M 3597 1894 
L 3597 1613 
L 953 1613 
Q 991 1019 1311 708 
Q 1631 397 2203 397 
Q 2534 397 2845 478 
Q 3156 559 3463 722 
L 3463 178 
Q 3153 47 2828 -22 
Q 2503 -91 2169 -91 
Q 1331 -91 842 396 
Q 353 884 353 1716 
Q 353 2575 817 3079 
Q 1281 3584 2069 3584 
Q 2775 3584 3186 3129 
Q 3597 2675 3597 1894 
z
M 3022 2063 
Q 3016 2534 2758 2815 
Q 2500 3097 2075 3097 
Q 1594 3097 1305 2825 
Q 1016 2553 972 2059 
L 3022 2063 
z
" transform="scale(0.015625)"/>
      </defs>
      <use xlink:href="#DejaVuSans-54"/>
      <use xlink:href="#DejaVuSans-69" x="57.958984"/>
      <use xlink:href="#DejaVuSans-6d" x="85.742188"/>
      <use xlink:href="#DejaVuSans-65" x="183.154297"/>
     </g>
    </g>
   </g>
   <g id="matplotlib.axis_2">
    <g id="ytick_1">
     <g id="line2d_7">
      <defs>
       <path id="m9b49cfe969" d="M 0 0 
L -3.5 0 
" style="stroke: #000000; stroke-width: 0.8"/>
      </defs>
      <g>
       <use xlink:href="#m9b49cfe969" x="57.6" y="307.584" style="stroke: #000000; stroke-width: 0.8"/>
      </g>
     </g>
     <g id="text_8">
      <!-- 0 -->
      <g transform="translate(44.2375 311.383219) scale(0.1 -0.1)">
       <use xlink:href="#DejaVuSans-30"/>
      </g>
     </g>
    </g>
    <g id="ytick_2">
     <g id="line2d_8">
      <g>
       <use xlink:href="#m9b49cfe969" x="57.6" y="259.2" style="stroke: #000000; stroke-width: 0.8"/>
      </g>
     </g>
     <g id="text_9">
      <!-- 2000 -->
      <g transform="translate(25.15 262.999219) scale(0.1 -0.1)">
       <use xlink:href="#DejaVuSans-32"/>
       <use xlink:href="#DejaVuSans-30" x="63.623047"/>
       <use xlink:href="#DejaVuSans-30" x="127.246094"/>
       <use xlink:href="#DejaVuSans-30" x="190.869141"/>
      </g>
     </g>
    </g>
    <g id="ytick_3">
     <g id="line2d_9">
      <g>
       <use xlink:href="#m9b49cfe969" x="57.6" y="210.816" style="stroke: #000000; stroke-width: 0.8"/>
      </g>
     </g>
     <g id="text_10">
      <!-- 4000 -->
      <g transform="translate(25.15 214.615219) scale(0.1 -0.1)">
       <use xlink:href="#DejaVuSans-34"/>
       <use xlink:href="#DejaVuSans-30" x="63.623047"/>
       <use xlink:href="#DejaVuSans-30" x="127.246094"/>
       <use xlink:href="#DejaVuSans-30" x="190.869141"/>
      </g>
     </g>
    </g>
    <g id="ytick_4">
     <g id="line2d_10">
      <g>
       <use xlink:href="#m9b49cfe969" x="57.6" y="162.432" style="stroke: #000000; stroke-width: 0.8"/>
      </g>
     </g>
     <g id="text_11">
      <!-- 6000 -->
      <g transform="translate(25.15 166.231219) scale(0.1 -0.1)">
       <defs>
        <path id="DejaVuSans-36" d="M 2113 2584 
Q 1688 2584 1439 2293 
Q 1191 2003 1191 1497 
Q 1191 994 1439 701 
Q 1688 409 2113 409 
Q 2538 409 2786 701 
Q 3034 994 3034 1497 
Q 3034 2003 2786 2293 
Q 2538 2584 2113 2584 
z
M 3366 4563 
L 3366 3988 
Q 3128 4100 2886 4159 
Q 2644 4219 2406 4219 
Q 1781 4219 1451 3797 
Q 1122 3375 1075 2522 
Q 1259 2794 1537 2939 
Q 1816 3084 2150 3084 
Q 2853 3084 3261 2657 
Q 3669 2231 3669 1497 
Q 3669 778 3244 343 
Q 2819 -91 2113 -91 
Q 1303 -91 875 529 
Q 447 1150 447 2328 
Q 447 3434 972 4092 
Q 1497 4750 2381 4750 
Q 2619 4750 2861 4703 
Q 3103 4656 3366 4563 
z
" transform="scale(0.015625)"/>
       </defs>
       <use xlink:href="#DejaVuSans-36"/>
       <use xlink:href="#DejaVuSans-30" x="63.623047"/>
       <use xlink:href="#DejaVuSans-30" x="127.246094"/>
       <use xlink:href="#DejaVuSans-30" x="190.869141"/>
      </g>
     </g>
    </g>
    <g id="ytick_5">
     <g id="line2d_11">
      <g>
       <use xlink:href="#m9b49cfe969" x="57.6" y="114.048" style="stroke: #000000; stroke-width: 0.8"/>
      </g>
     </g>
     <g id="text_12">
      <!-- 8000 -->
      <g transform="translate(25.15 117.847219) scale(0.1 -0.1)">
       <defs>
        <path id="DejaVuSans-38" d="M 2034 2216 
Q 1584 2216 1326 1975 
Q 1069 1734 1069 1313 
Q 1069 891 1326 650 
Q 1584 409 2034 409 
Q 2484 409 2743 651 
Q 3003 894 3003 1313 
Q 3003 1734 2745 1975 
Q 2488 2216 2034 2216 
z
M 1403 2484 
Q 997 2584 770 2862 
Q 544 3141 544 3541 
Q 544 4100 942 4425 
Q 1341 4750 2034 4750 
Q 2731 4750 3128 4425 
Q 3525 4100 3525 3541 
Q 3525 3141 3298 2862 
Q 3072 2584 2669 2484 
Q 3125 2378 3379 2068 
Q 3634 1759 3634 1313 
Q 3634 634 3220 271 
Q 2806 -91 2034 -91 
Q 1263 -91 848 271 
Q 434 634 434 1313 
Q 434 1759 690 2068 
Q 947 2378 1403 2484 
z
M 1172 3481 
Q 1172 3119 1398 2916 
Q 1625 2713 2034 2713 
Q 2441 2713 2670 2916 
Q 2900 3119 2900 3481 
Q 2900 3844 2670 4047 
Q 2441 4250 2034 4250 
Q 1625 4250 1398 4047 
Q 1172 3844 1172 3481 
z
" transform="scale(0.015625)"/>
       </defs>
       <use xlink:href="#DejaVuSans-38"/>
       <use xlink:href="#DejaVuSans-30" x="63.623047"/>
       <use xlink:href="#DejaVuSans-30" x="127.246094"/>
       <use xlink:href="#DejaVuSans-30" x="190.869141"/>
      </g>
     </g>
    </g>
    <g id="ytick_6">
     <g id="line2d_12">
      <g>
       <use xlink:href="#m9b49cfe969" x="57.6" y="65.664" style="stroke: #000000; stroke-width: 0.8"/>
      </g>
     </g>
     <g id="text_13">
      <!-- 10000 -->
      <g transform="translate(18.7875 69.463219) scale(0.1 -0.1)">
       <defs>
        <path id="DejaVuSans-31" d="M 794 531 
L 1825 531 
L 1825 4091 
L 703 3866 
L 703 4441 
L 1819 4666 
L 2450 4666 
L 2450 531 
L 3481 531 
L 3481 0 
L 794 0 
L 794 531 
z
" transform="scale(0.015625)"/>
       </defs>
       <use xlink:href="#DejaVuSans-31"/>
       <use xlink:href="#DejaVuSans-30" x="63.623047"/>
       <use xlink:href="#DejaVuSans-30" x="127.246094"/>
       <use xlink:href="#DejaVuSans-30" x="190.869141"/>
       <use xlink:href="#DejaVuSans-30" x="254.492188"/>
      </g>
     </g>
    </g>
    <g id="text_14">
     <!-- Jobs [FTE] -->
     <g transform="translate(12.707812 199.333469) rotate(-90) scale(0.1 -0.1)">
      <defs>
       <path id="DejaVuSans-4a" d="M 628 4666 
L 1259 4666 
L 1259 325 
Q 1259 -519 939 -900 
Q 619 -1281 -91 -1281 
L -331 -1281 
L -331 -750 
L -134 -750 
Q 284 -750 456 -515 
Q 628 -281 628 325 
L 628 4666 
z
" transform="scale(0.015625)"/>
       <path id="DejaVuSans-6f" d="M 1959 3097 
Q 1497 3097 1228 2736 
Q 959 2375 959 1747 
Q 959 1119 1226 758 
Q 1494 397 1959 397 
Q 2419 397 2687 759 
Q 2956 1122 2956 1747 
Q 2956 2369 2687 2733 
Q 2419 3097 1959 3097 
z
M 1959 3584 
Q 2709 3584 3137 3096 
Q 3566 2609 3566 1747 
Q 3566 888 3137 398 
Q 2709 -91 1959 -91 
Q 1206 -91 779 398 
Q 353 888 353 1747 
Q 353 2609 779 3096 
Q 1206 3584 1959 3584 
z
" transform="scale(0.015625)"/>
       <path id="DejaVuSans-62" d="M 3116 1747 
Q 3116 2381 2855 2742 
Q 2594 3103 2138 3103 
Q 1681 3103 1420 2742 
Q 1159 2381 1159 1747 
Q 1159 1113 1420 752 
Q 1681 391 2138 391 
Q 2594 391 2855 752 
Q 3116 1113 3116 1747 
z
M 1159 2969 
Q 1341 3281 1617 3432 
Q 1894 3584 2278 3584 
Q 2916 3584 3314 3078 
Q 3713 2572 3713 1747 
Q 3713 922 3314 415 
Q 2916 -91 2278 -91 
Q 1894 -91 1617 61 
Q 1341 213 1159 525 
L 1159 0 
L 581 0 
L 581 4863 
L 1159 4863 
L 1159 2969 
z
" transform="scale(0.015625)"/>
       <path id="DejaVuSans-73" d="M 2834 3397 
L 2834 2853 
Q 2591 2978 2328 3040 
Q 2066 3103 1784 3103 
Q 1356 3103 1142 2972 
Q 928 2841 928 2578 
Q 928 2378 1081 2264 
Q 1234 2150 1697 2047 
L 1894 2003 
Q 2506 1872 2764 1633 
Q 3022 1394 3022 966 
Q 3022 478 2636 193 
Q 2250 -91 1575 -91 
Q 1294 -91 989 -36 
Q 684 19 347 128 
L 347 722 
Q 666 556 975 473 
Q 1284 391 1588 391 
Q 1994 391 2212 530 
Q 2431 669 2431 922 
Q 2431 1156 2273 1281 
Q 2116 1406 1581 1522 
L 1381 1569 
Q 847 1681 609 1914 
Q 372 2147 372 2553 
Q 372 3047 722 3315 
Q 1072 3584 1716 3584 
Q 2034 3584 2315 3537 
Q 2597 3491 2834 3397 
z
" transform="scale(0.015625)"/>
       <path id="DejaVuSans-20" transform="scale(0.015625)"/>
       <path id="DejaVuSans-5b" d="M 550 4863 
L 1875 4863 
L 1875 4416 
L 1125 4416 
L 1125 -397 
L 1875 -397 
L 1875 -844 
L 550 -844 
L 550 4863 
z
" transform="scale(0.015625)"/>
       <path id="DejaVuSans-46" d="M 628 4666 
L 3309 4666 
L 3309 4134 
L 1259 4134 
L 1259 2759 
L 3109 2759 
L 3109 2228 
L 1259 2228 
L 1259 0 
L 628 0 
L 628 4666 
z
" transform="scale(0.015625)"/>
       <path id="DejaVuSans-45" d="M 628 4666 
L 3578 4666 
L 3578 4134 
L 1259 4134 
L 1259 2753 
L 3481 2753 
L 3481 2222 
L 1259 2222 
L 1259 531 
L 3634 531 
L 3634 0 
L 628 0 
L 628 4666 
z
" transform="scale(0.015625)"/>
       <path id="DejaVuSans-5d" d="M 1947 4863 
L 1947 -844 
L 622 -844 
L 622 -397 
L 1369 -397 
L 1369 4416 
L 622 4416 
L 622 4863 
L 1947 4863 
z
" transform="scale(0.015625)"/>
      </defs>
      <use xlink:href="#DejaVuSans-4a"/>
      <use xlink:href="#DejaVuSans-6f" x="29.492188"/>
      <use xlink:href="#DejaVuSans-62" x="90.673828"/>
      <use xlink:href="#DejaVuSans-73" x="154.150391"/>
      <use xlink:href="#DejaVuSans-20" x="206.25"/>
      <use xlink:href="#DejaVuSans-5b" x="238.037109"/>
      <use xlink:href="#DejaVuSans-46" x="277.050781"/>
      <use xlink:href="#DejaVuSans-54" x="332.820312"/>
      <use xlink:href="#DejaVuSans-45" x="393.904297"/>
      <use xlink:href="#DejaVuSans-5d" x="457.087891"/>
     </g>
    </g>
   </g>
   <g id="line2d_13">
    <path d="M 57.6 307.584 
L 83.108571 305.578399 
L 108.617143 304.727293 
L 134.125714 304.727293 
L 159.634286 304.727293 
L 185.142857 304.727293 
L 210.651429 301.99354 
L 236.16 303.999141 
L 261.668571 304.850247 
L 287.177143 304.850247 
L 312.685714 304.850247 
L 338.194286 304.850247 
L 363.702857 304.983245 
L 389.211429 304.983245 
L 414.72 304.850247 
" clip-path="url(#p9b4e9faded)" style="fill: none; stroke: #6f6f6f; stroke-width: 1.5; stroke-linecap: square"/>
   </g>
   <g id="line2d_14">
    <path d="M 57.6 307.584 
L 83.108571 305.848249 
L 108.617143 305.164658 
L 134.125714 304.84471 
L 159.634286 289.247094 
L 185.142857 280.079731 
L 210.651429 280.137455 
L 236.16 280.433682 
L 261.668571 280.433682 
L 287.177143 280.433682 
L 312.685714 280.433682 
L 338.194286 280.433682 
L 363.702857 280.433682 
L 389.211429 281.815482 
L 414.72 282.819022 
" clip-path="url(#p9b4e9faded)" style="fill: none; stroke: #6f6f6f; stroke-width: 1.5; stroke-linecap: square"/>
   </g>
   <g id="line2d_15">
    <path d="M 57.6 307.584 
L 83.108571 307.188025 
L 108.617143 306.338081 
L 134.125714 305.470758 
L 159.634286 304.603434 
L 185.142857 304.244539 
L 210.651429 303.637753 
L 236.16 303.953713 
L 261.668571 303.956781 
L 287.177143 303.959848 
L 312.685714 303.963008 
L 338.194286 303.966168 
L 363.702857 303.969308 
L 389.211429 303.972426 
L 414.72 303.975544 
" clip-path="url(#p9b4e9faded)" style="fill: none; stroke: #6f6f6f; stroke-width: 1.5; stroke-linecap: square"/>
   </g>
   <g id="line2d_16">
    <path d="M 57.6 307.584 
L 83.108571 307.538179 
L 108.617143 307.547073 
L 134.125714 307.556305 
L 159.634286 307.565537 
L 185.142857 307.574768 
L 210.651429 307.538179 
L 236.16 307.584 
L 261.668571 307.584 
L 287.177143 307.584 
L 312.685714 307.584 
L 338.194286 307.584 
L 363.702857 307.584 
L 389.211429 307.584 
L 414.72 307.584 
" clip-path="url(#p9b4e9faded)" style="fill: none; stroke: #6f6f6f; stroke-width: 1.5; stroke-linecap: square"/>
   </g>
   <g id="line2d_17">
    <path d="M 57.6 307.584 
L 83.108571 307.584 
L 108.617143 307.584 
L 134.125714 307.584 
L 159.634286 307.584 
L 185.142857 307.584 
L 210.651429 307.584 
L 236.16 307.584 
L 261.668571 307.584 
L 287.177143 307.584 
L 312.685714 307.584 
L 338.194286 307.584 
L 363.702857 307.584 
L 389.211429 307.584 
L 414.72 307.584 
" clip-path="url(#p9b4e9faded)" style="fill: none; stroke: #6f6f6f; stroke-width: 1.5; stroke-linecap: square"/>
   </g>
   <g id="line2d_18">
    <path d="M 57.6 307.584 
L 83.108571 307.017176 
L 108.617143 306.700433 
L 134.125714 306.636803 
L 159.634286 306.305866 
L 185.142857 305.97354 
L 210.651429 305.205421 
L 236.16 306.051491 
L 261.668571 306.088988 
L 287.177143 306.088988 
L 312.685714 306.088988 
L 338.194286 306.088988 
L 363.702857 306.288494 
L 389.211429 306.288494 
L 414.72 306.088988 
" clip-path="url(#p9b4e9faded)" style="fill: none; stroke: #6f6f6f; stroke-width: 1.5; stroke-linecap: square"/>
   </g>
   <g id="line2d_19">
    <path d="M 57.6 307.584 
L 83.108571 279.612119 
L 108.617143 279.926816 
L 134.125714 280.011343 
L 159.634286 269.420412 
L 185.142857 256.857414 
L 210.651429 244.696458 
L 236.16 252.591657 
L 261.668571 255.648818 
L 287.177143 255.650735 
L 312.685714 255.65271 
L 338.194286 255.876591 
L 363.702857 261.307834 
L 389.211429 276.548152 
L 414.72 262.073178 
" clip-path="url(#p9b4e9faded)" style="fill: none; stroke: #6f6f6f; stroke-width: 1.5; stroke-linecap: square"/>
   </g>
   <g id="line2d_20">
    <path d="M 57.6 307.584 
L 83.108571 304.042287 
L 108.617143 263.458584 
L 134.125714 234.636693 
L 159.634286 221.698826 
L 185.142857 216.164799 
L 210.651429 215.788856 
L 236.16 216.181832 
L 261.668571 216.185198 
L 287.177143 216.188563 
L 312.685714 216.19203 
L 338.194286 218.943601 
L 363.702857 219.319544 
L 389.211429 222.468281 
L 414.72 230.7272 
" clip-path="url(#p9b4e9faded)" style="fill: none; stroke: #6f6f6f; stroke-width: 1.5; stroke-linecap: square"/>
   </g>
   <g id="line2d_21">
    <path d="M 57.6 307.584 
L 83.108571 307.584 
L 108.617143 307.584 
L 134.125714 307.584 
L 159.634286 307.584 
L 185.142857 307.584 
L 210.651429 307.584 
L 236.16 307.584 
L 261.668571 307.584 
L 287.177143 307.584 
L 312.685714 307.584 
L 338.194286 307.584 
L 363.702857 307.584 
L 389.211429 307.584 
L 414.72 307.584 
" clip-path="url(#p9b4e9faded)" style="fill: none; stroke: #6f6f6f; stroke-width: 1.5; stroke-linecap: square"/>
   </g>
   <g id="line2d_22">
    <path d="M 57.6 307.584 
L 83.108571 302.953523 
L 108.617143 292.490732 
L 134.125714 277.702375 
L 159.634286 262.913859 
L 185.142857 255.014798 
L 210.651429 247.363599 
L 236.16 250.162297 
L 261.668571 250.8179 
L 287.177143 253.569937 
L 312.685714 256.52637 
L 338.194286 259.297918 
L 363.702857 262.163355 
L 389.211429 265.142521 
L 414.72 267.89655 
" clip-path="url(#p9b4e9faded)" style="fill: none; stroke: #6f6f6f; stroke-width: 1.5; stroke-linecap: square"/>
   </g>
   <g id="line2d_23">
    <path d="M 57.6 307.584 
L 83.108571 294.407465 
L 108.617143 282.455757 
L 134.125714 258.371283 
L 159.634286 234.761623 
L 185.142857 221.470189 
L 210.651429 209.298345 
L 236.16 212.787562 
L 261.668571 213.373016 
L 287.177143 216.32726 
L 312.685714 220.182774 
L 338.194286 225.008132 
L 363.702857 230.167252 
L 389.211429 234.786503 
L 414.72 242.725003 
" clip-path="url(#p9b4e9faded)" style="fill: none; stroke: #6f6f6f; stroke-width: 1.5; stroke-linecap: square"/>
   </g>
   <g id="line2d_24">
    <path d="M 57.6 307.584 
L 83.108571 306.12043 
L 108.617143 302.023115 
L 134.125714 296.841207 
L 159.634286 291.659299 
L 185.142857 289.362613 
L 210.651429 287.066086 
L 236.16 288.529656 
L 261.668571 289.969146 
L 287.177143 291.408635 
L 312.685714 292.882561 
L 338.194286 294.356487 
L 363.702857 295.827193 
L 389.211429 297.294508 
L 414.72 298.761984 
" clip-path="url(#p9b4e9faded)" style="fill: none; stroke: #6f6f6f; stroke-width: 1.5; stroke-linecap: square"/>
   </g>
   <g id="line2d_25">
    <path d="M 57.6 307.584 
L 83.108571 284.906012 
L 108.617143 249.535066 
L 134.125714 164.430659 
L 159.634286 130.354361 
L 185.142857 98.278584 
L 210.651429 38.005404 
L 236.16 47.02641 
L 261.668571 76.078544 
L 287.177143 108.310048 
L 312.685714 126.032167 
L 338.194286 129.366824 
L 363.702857 139.924689 
L 389.211429 149.891712 
L 414.72 156.118902 
" clip-path="url(#p9b4e9faded)" style="fill: none; stroke: #6f6f6f; stroke-width: 1.5; stroke-linecap: square"/>
   </g>
   <g id="line2d_26">
    <path d="M 57.6 307.584 
L 83.108571 307.138087 
L 108.617143 303.205578 
L 134.125714 298.808866 
L 159.634286 294.412039 
L 185.142857 291.30188 
L 210.651429 288.191673 
L 236.16 288.544552 
L 261.668571 289.433247 
L 287.177143 290.686957 
L 312.685714 290.870071 
L 338.194286 291.053185 
L 363.702857 291.4729 
L 389.211429 291.565934 
L 414.72 291.756363 
" clip-path="url(#p9b4e9faded)" style="fill: none; stroke: #6f6f6f; stroke-width: 1.5; stroke-linecap: square"/>
   </g>
   <g id="line2d_27">
    <path d="M 57.6 307.584 
L 83.108571 306.990578 
L 108.617143 292.566987 
L 134.125714 277.898171 
L 159.634286 261.763591 
L 185.142857 252.617231 
L 210.651429 245.126852 
L 236.16 245.40188 
L 261.668571 245.410205 
L 287.177143 245.423083 
L 312.685714 246.540089 
L 338.194286 248.656778 
L 363.702857 250.212269 
L 389.211429 250.530663 
L 414.72 252.558444 
" clip-path="url(#p9b4e9faded)" style="fill: none; stroke: #6f6f6f; stroke-width: 1.5; stroke-linecap: square"/>
   </g>
   <g id="line2d_28">
    <path d="M 57.6 307.584 
L 83.108571 306.346213 
L 108.617143 306.343862 
L 134.125714 306.33353 
L 159.634286 306.001991 
L 185.142857 305.74287 
L 210.651429 305.483737 
L 236.16 305.480934 
L 261.668571 305.483285 
L 287.177143 305.493617 
L 312.685714 305.714522 
L 338.194286 305.624823 
L 363.702857 305.883955 
L 389.211429 305.866529 
L 414.72 305.866328 
" clip-path="url(#p9b4e9faded)" style="fill: none; stroke: #6f6f6f; stroke-width: 1.5; stroke-linecap: square"/>
   </g>
   <g id="line2d_29">
    <path d="M 57.6 307.584 
L 83.108571 290.844888 
L 108.617143 252.917974 
L 134.125714 196.437984 
L 159.634286 124.850107 
L 185.142857 90.409897 
L 210.651429 73.270949 
L 236.16 75.182998 
L 261.668571 76.443221 
L 287.177143 77.913707 
L 312.685714 81.951794 
L 338.194286 103.828726 
L 363.702857 108.596229 
L 389.211429 111.25923 
L 414.72 132.650184 
" clip-path="url(#p9b4e9faded)" style="fill: none; stroke: #6f6f6f; stroke-width: 1.5; stroke-linecap: square"/>
   </g>
   <g id="line2d_30">
    <path d="M 57.6 307.584 
L 83.108571 306.20716 
L 108.617143 297.870018 
L 134.125714 288.013683 
L 159.634286 278.15698 
L 185.142857 271.70375 
L 210.651429 265.25015 
L 236.16 266.62699 
L 261.668571 269.863727 
L 287.177143 271.229478 
L 312.685714 271.575508 
L 338.194286 272.766938 
L 363.702857 274.814844 
L 389.211429 274.814844 
L 414.72 276.139569 
" clip-path="url(#p9b4e9faded)" style="fill: none; stroke: #6f6f6f; stroke-width: 1.5; stroke-linecap: square"/>
   </g>
   <g id="line2d_31">
    <path d="M 57.6 307.584 
L 83.108571 307.584 
L 108.617143 307.584 
L 134.125714 307.584 
L 159.634286 307.584 
L 185.142857 307.584 
L 210.651429 307.584 
L 236.16 307.584 
L 261.668571 307.584 
L 287.177143 307.584 
L 312.685714 307.584 
L 338.194286 307.584 
L 363.702857 307.584 
L 389.211429 307.584 
L 414.72 307.584 
" clip-path="url(#p9b4e9faded)" style="fill: none; stroke: #6f6f6f; stroke-width: 1.5; stroke-linecap: square"/>
   </g>
   <g id="line2d_32">
    <path d="M 57.6 307.584 
L 83.108571 307.584 
L 108.617143 307.584 
L 134.125714 307.584 
L 159.634286 307.584 
L 185.142857 307.584 
L 210.651429 307.584 
L 236.16 307.584 
L 261.668571 307.584 
L 287.177143 307.584 
L 312.685714 307.584 
L 338.194286 307.584 
L 363.702857 307.584 
L 389.211429 307.584 
L 414.72 307.584 
" clip-path="url(#p9b4e9faded)" style="fill: none; stroke: #6f6f6f; stroke-width: 1.5; stroke-linecap: square"/>
   </g>
   <g id="line2d_33">
    <path d="M 57.6 307.584 
L 83.108571 307.584 
L 108.617143 307.584 
L 134.125714 307.584 
L 159.634286 307.584 
L 185.142857 307.584 
L 210.651429 307.584 
L 236.16 307.584 
L 261.668571 307.584 
L 287.177143 307.584 
L 312.685714 307.584 
L 338.194286 307.584 
L 363.702857 307.584 
L 389.211429 307.584 
L 414.72 307.584 
" clip-path="url(#p9b4e9faded)" style="fill: none; stroke: #6f6f6f; stroke-width: 1.5; stroke-linecap: square"/>
   </g>
   <g id="line2d_34">
    <path d="M 57.6 307.584 
L 83.108571 296.174545 
L 108.617143 284.110131 
L 134.125714 282.198415 
L 159.634286 243.244423 
L 185.142857 232.618199 
L 210.651429 223.844599 
L 236.16 233.488315 
L 261.668571 233.488315 
L 287.177143 233.489339 
L 312.685714 233.496954 
L 338.194286 234.913314 
L 363.702857 240.679263 
L 389.211429 242.445002 
L 414.72 247.201685 
" clip-path="url(#p9b4e9faded)" style="fill: none; stroke: #6f6f6f; stroke-width: 1.5; stroke-linecap: square"/>
   </g>
   <g id="line2d_35">
    <path d="M 57.6 307.584 
L 83.108571 306.988832 
L 108.617143 307.095834 
L 134.125714 307.217876 
L 159.634286 307.339917 
L 185.142857 307.461959 
L 210.651429 306.988831 
L 236.16 307.584 
L 261.668571 307.584 
L 287.177143 307.584 
L 312.685714 307.584 
L 338.194286 307.584 
L 363.702857 307.584 
L 389.211429 307.584 
L 414.72 307.584 
" clip-path="url(#p9b4e9faded)" style="fill: none; stroke: #6f6f6f; stroke-width: 1.5; stroke-linecap: square"/>
   </g>
   <g id="line2d_36">
    <path d="M 57.6 307.584 
L 83.108571 276.728861 
L 108.617143 274.030682 
L 134.125714 254.841884 
L 159.634286 228.674073 
L 185.142857 211.595547 
L 210.651429 194.046647 
L 236.16 198.76515 
L 261.668571 199.290032 
L 287.177143 199.307807 
L 312.685714 203.433625 
L 338.194286 207.16778 
L 363.702857 210.519931 
L 389.211429 215.636916 
L 414.72 217.647766 
" clip-path="url(#p9b4e9faded)" style="fill: none; stroke: #6f6f6f; stroke-width: 1.5; stroke-linecap: square"/>
   </g>
   <g id="line2d_37">
    <path d="M 57.6 307.584 
L 83.108571 304.37741 
L 108.617143 302.496816 
L 134.125714 297.618802 
L 159.634286 292.740789 
L 185.142857 291.06317 
L 210.651429 289.141258 
L 236.16 290.470056 
L 261.668571 291.141103 
L 287.177143 293.030381 
L 312.685714 294.803845 
L 338.194286 296.235586 
L 363.702857 297.920701 
L 389.211429 299.039716 
L 414.72 300.531259 
" clip-path="url(#p9b4e9faded)" style="fill: none; stroke: #6f6f6f; stroke-width: 1.5; stroke-linecap: square"/>
   </g>
   <g id="line2d_38">
    <path d="M 57.6 307.584 
L 83.108571 303.800903 
L 108.617143 294.145881 
L 134.125714 283.811113 
L 159.634286 273.476204 
L 185.142857 266.279212 
L 210.651429 259.082165 
L 236.16 258.020931 
L 261.668571 259.403936 
L 287.177143 259.818695 
L 312.685714 259.821228 
L 338.194286 259.823761 
L 363.702857 259.826405 
L 389.211429 259.829159 
L 414.72 259.831914 
" clip-path="url(#p9b4e9faded)" style="fill: none; stroke: #6f6f6f; stroke-width: 1.5; stroke-linecap: square"/>
   </g>
   <g id="line2d_39">
    <path d="M 57.6 307.584 
L 83.108571 305.779652 
L 108.617143 300.140208 
L 134.125714 288.707352 
L 159.634286 277.274496 
L 185.142857 271.340748 
L 210.651429 264.188645 
L 236.16 266.346289 
L 261.668571 269.169768 
L 287.177143 273.789891 
L 312.685714 285.39 
L 338.194286 287.096024 
L 363.702857 289.968022 
L 389.211429 289.968022 
L 414.72 292.478135 
" clip-path="url(#p9b4e9faded)" style="fill: none; stroke: #6f6f6f; stroke-width: 1.5; stroke-linecap: square"/>
   </g>
   <g id="line2d_40">
    <path d="M 57.6 307.584 
L 83.108571 307.584 
L 108.617143 307.584 
L 134.125714 306.11837 
L 159.634286 306.11837 
L 185.142857 306.11837 
L 210.651429 303.377636 
L 236.16 303.377636 
L 261.668571 303.78351 
L 287.177143 306.11837 
L 312.685714 306.11837 
L 338.194286 306.11837 
L 363.702857 306.11837 
L 389.211429 306.11837 
L 414.72 306.11837 
" clip-path="url(#p9b4e9faded)" style="fill: none; stroke: #6f6f6f; stroke-width: 1.5; stroke-linecap: square"/>
   </g>
   <g id="line2d_41">
    <path d="M 57.6 307.584 
L 83.108571 306.82675 
L 108.617143 299.919859 
L 134.125714 292.309282 
L 159.634286 284.698555 
L 185.142857 280.316534 
L 210.651429 275.869861 
L 236.16 276.74761 
L 261.668571 280.48024 
L 287.177143 280.493439 
L 312.685714 281.874259 
L 338.194286 283.418586 
L 363.702857 285.175233 
L 389.211429 285.175233 
L 414.72 287.245198 
" clip-path="url(#p9b4e9faded)" style="fill: none; stroke: #6f6f6f; stroke-width: 1.5; stroke-linecap: square"/>
   </g>
   <g id="line2d_42">
    <path d="M 57.6 307.584 
L 83.108571 273.665178 
L 108.617143 264.524136 
L 134.125714 264.355262 
L 159.634286 242.808891 
L 185.142857 231.175912 
L 210.651429 219.543208 
L 236.16 224.237828 
L 261.668571 228.317113 
L 287.177143 230.277846 
L 312.685714 234.782348 
L 338.194286 239.59784 
L 363.702857 244.02456 
L 389.211429 249.054577 
L 414.72 253.335598 
" clip-path="url(#p9b4e9faded)" style="fill: none; stroke: #6f6f6f; stroke-width: 1.5; stroke-linecap: square"/>
   </g>
   <g id="line2d_43">
    <path d="M 414.72 132.650184 
L 417.270857 132.650184 
L 419.821714 132.650184 
" clip-path="url(#p9b4e9faded)" style="fill: none; stroke-dasharray: 5.55,2.4; stroke-dashoffset: 0; stroke: #a30774; stroke-width: 1.5"/>
   </g>
   <g id="line2d_44">
    <path d="M 414.72 156.118902 
L 417.270857 156.118902 
L 419.821714 156.118902 
" clip-path="url(#p9b4e9faded)" style="fill: none; stroke-dasharray: 5.55,2.4; stroke-dashoffset: 0; stroke: #a30774; stroke-width: 1.5"/>
   </g>
   <g id="line2d_45">
    <path d="M 414.72 217.647766 
L 417.270857 217.647766 
L 419.821714 217.647766 
" clip-path="url(#p9b4e9faded)" style="fill: none; stroke-dasharray: 5.55,2.4; stroke-dashoffset: 0; stroke: #a30774; stroke-width: 1.5"/>
   </g>
   <g id="line2d_46">
    <path d="M 414.72 230.7272 
L 417.270857 230.7272 
L 419.821714 230.7272 
" clip-path="url(#p9b4e9faded)" style="fill: none; stroke-dasharray: 5.55,2.4; stroke-dashoffset: 0; stroke: #215caf; stroke-width: 1.5"/>
   </g>
   <g id="line2d_47">
    <path d="M 414.72 242.725003 
L 417.270857 242.725003 
L 419.821714 242.725003 
" clip-path="url(#p9b4e9faded)" style="fill: none; stroke-dasharray: 5.55,2.4; stroke-dashoffset: 0; stroke: #215caf; stroke-width: 1.5"/>
   </g>
   <g id="line2d_48">
    <path d="M 414.72 247.201685 
L 417.270857 247.201685 
L 419.821714 247.201685 
" clip-path="url(#p9b4e9faded)" style="fill: none; stroke-dasharray: 5.55,2.4; stroke-dashoffset: 0; stroke: #215caf; stroke-width: 1.5"/>
   </g>
   <g id="line2d_49">
    <path d="M 414.72 252.558444 
L 417.270857 252.558444 
L 419.821714 252.558444 
" clip-path="url(#p9b4e9faded)" style="fill: none; stroke-dasharray: 5.55,2.4; stroke-dashoffset: 0; stroke: #215caf; stroke-width: 1.5"/>
   </g>
   <g id="line2d_50">
    <path d="M 414.72 253.335598 
L 417.270857 253.335598 
L 419.821714 253.335598 
" clip-path="url(#p9b4e9faded)" style="fill: none; stroke-dasharray: 5.55,2.4; stroke-dashoffset: 0; stroke: #215caf; stroke-width: 1.5"/>
   </g>
   <g id="line2d_51">
    <path d="M 57.6 307.584 
L 83.108571 304.042287 
L 108.617143 263.458584 
L 134.125714 234.636693 
L 159.634286 221.698826 
L 185.142857 216.164799 
L 210.651429 215.788856 
L 236.16 216.181832 
L 261.668571 216.185198 
L 287.177143 216.188563 
L 312.685714 216.19203 
L 338.194286 218.943601 
L 363.702857 219.319544 
L 389.211429 222.468281 
L 414.72 230.7272 
" clip-path="url(#p9b4e9faded)" style="fill: none; stroke: #215caf; stroke-width: 1.2; stroke-linecap: square"/>
   </g>
   <g id="line2d_52">
    <path d="M 57.6 307.584 
L 83.108571 294.407465 
L 108.617143 282.455757 
L 134.125714 258.371283 
L 159.634286 234.761623 
L 185.142857 221.470189 
L 210.651429 209.298345 
L 236.16 212.787562 
L 261.668571 213.373016 
L 287.177143 216.32726 
L 312.685714 220.182774 
L 338.194286 225.008132 
L 363.702857 230.167252 
L 389.211429 234.786503 
L 414.72 242.725003 
" clip-path="url(#p9b4e9faded)" style="fill: none; stroke: #215caf; stroke-width: 1.2; stroke-linecap: square"/>
   </g>
   <g id="line2d_53">
    <path d="M 57.6 307.584 
L 83.108571 296.174545 
L 108.617143 284.110131 
L 134.125714 282.198415 
L 159.634286 243.244423 
L 185.142857 232.618199 
L 210.651429 223.844599 
L 236.16 233.488315 
L 261.668571 233.488315 
L 287.177143 233.489339 
L 312.685714 233.496954 
L 338.194286 234.913314 
L 363.702857 240.679263 
L 389.211429 242.445002 
L 414.72 247.201685 
" clip-path="url(#p9b4e9faded)" style="fill: none; stroke: #215caf; stroke-width: 1.2; stroke-linecap: square"/>
   </g>
   <g id="line2d_54">
    <path d="M 57.6 307.584 
L 83.108571 306.990578 
L 108.617143 292.566987 
L 134.125714 277.898171 
L 159.634286 261.763591 
L 185.142857 252.617231 
L 210.651429 245.126852 
L 236.16 245.40188 
L 261.668571 245.410205 
L 287.177143 245.423083 
L 312.685714 246.540089 
L 338.194286 248.656778 
L 363.702857 250.212269 
L 389.211429 250.530663 
L 414.72 252.558444 
" clip-path="url(#p9b4e9faded)" style="fill: none; stroke: #215caf; stroke-width: 1.2; stroke-linecap: square"/>
   </g>
   <g id="line2d_55">
    <path d="M 57.6 307.584 
L 83.108571 273.665178 
L 108.617143 264.524136 
L 134.125714 264.355262 
L 159.634286 242.808891 
L 185.142857 231.175912 
L 210.651429 219.543208 
L 236.16 224.237828 
L 261.668571 228.317113 
L 287.177143 230.277846 
L 312.685714 234.782348 
L 338.194286 239.59784 
L 363.702857 244.02456 
L 389.211429 249.054577 
L 414.72 253.335598 
" clip-path="url(#p9b4e9faded)" style="fill: none; stroke: #215caf; stroke-width: 1.2; stroke-linecap: square"/>
   </g>
   <g id="patch_3">
    <path d="M 57.6 307.584 
L 57.6 41.472 
" style="fill: none; stroke: #000000; stroke-width: 0.8; stroke-linejoin: miter; stroke-linecap: square"/>
   </g>
   <g id="patch_4">
    <path d="M 57.6 307.584 
L 414.72 307.584 
" style="fill: none; stroke: #000000; stroke-width: 0.8; stroke-linejoin: miter; stroke-linecap: square"/>
   </g>
   <g id="text_15">
    <!-- IT -->
    <g transform="translate(421.097143 135.409559) scale(0.1 -0.1)">
     <defs>
      <path id="DejaVuSans-Bold-49" d="M 588 4666 
L 1791 4666 
L 1791 0 
L 588 0 
L 588 4666 
z
" transform="scale(0.015625)"/>
      <path id="DejaVuSans-Bold-54" d="M 31 4666 
L 4331 4666 
L 4331 3756 
L 2784 3756 
L 2784 0 
L 1581 0 
L 1581 3756 
L 31 3756 
L 31 4666 
z
" transform="scale(0.015625)"/>
     </defs>
     <use xlink:href="#DejaVuSans-Bold-49"/>
     <use xlink:href="#DejaVuSans-Bold-54" x="37.207031"/>
    </g>
   </g>
   <g id="text_16">
    <!-- FR -->
    <g transform="translate(421.097143 158.878277) scale(0.1 -0.1)">
     <defs>
      <path id="DejaVuSans-Bold-46" d="M 588 4666 
L 3834 4666 
L 3834 3756 
L 1791 3756 
L 1791 2888 
L 3713 2888 
L 3713 1978 
L 1791 1978 
L 1791 0 
L 588 0 
L 588 4666 
z
" transform="scale(0.015625)"/>
      <path id="DejaVuSans-Bold-52" d="M 2297 2597 
Q 2675 2597 2839 2737 
Q 3003 2878 3003 3200 
Q 3003 3519 2839 3656 
Q 2675 3794 2297 3794 
L 1791 3794 
L 1791 2597 
L 2297 2597 
z
M 1791 1766 
L 1791 0 
L 588 0 
L 588 4666 
L 2425 4666 
Q 3347 4666 3776 4356 
Q 4206 4047 4206 3378 
Q 4206 2916 3982 2619 
Q 3759 2322 3309 2181 
Q 3556 2125 3751 1926 
Q 3947 1728 4147 1325 
L 4800 0 
L 3519 0 
L 2950 1159 
Q 2778 1509 2601 1637 
Q 2425 1766 2131 1766 
L 1791 1766 
z
" transform="scale(0.015625)"/>
     </defs>
     <use xlink:href="#DejaVuSans-Bold-46"/>
     <use xlink:href="#DejaVuSans-Bold-52" x="68.310547"/>
    </g>
   </g>
   <g id="text_17">
    <!-- PL -->
    <g transform="translate(421.097143 220.407141) scale(0.1 -0.1)">
     <defs>
      <path id="DejaVuSans-Bold-50" d="M 588 4666 
L 2584 4666 
Q 3475 4666 3951 4270 
Q 4428 3875 4428 3144 
Q 4428 2409 3951 2014 
Q 3475 1619 2584 1619 
L 1791 1619 
L 1791 0 
L 588 0 
L 588 4666 
z
M 1791 3794 
L 1791 2491 
L 2456 2491 
Q 2806 2491 2997 2661 
Q 3188 2831 3188 3144 
Q 3188 3456 2997 3625 
Q 2806 3794 2456 3794 
L 1791 3794 
z
" transform="scale(0.015625)"/>
      <path id="DejaVuSans-Bold-4c" d="M 588 4666 
L 1791 4666 
L 1791 909 
L 3903 909 
L 3903 0 
L 588 0 
L 588 4666 
z
" transform="scale(0.015625)"/>
     </defs>
     <use xlink:href="#DejaVuSans-Bold-50"/>
     <use xlink:href="#DejaVuSans-Bold-4c" x="73.291016"/>
    </g>
   </g>
   <g id="text_18">
    <!-- DK -->
    <g transform="translate(421.097143 233.486575) scale(0.1 -0.1)">
     <defs>
      <path id="DejaVuSans-Bold-44" d="M 1791 3756 
L 1791 909 
L 2222 909 
Q 2959 909 3348 1275 
Q 3738 1641 3738 2338 
Q 3738 3031 3350 3393 
Q 2963 3756 2222 3756 
L 1791 3756 
z
M 588 4666 
L 1856 4666 
Q 2919 4666 3439 4514 
Q 3959 4363 4331 4000 
Q 4659 3684 4818 3271 
Q 4978 2859 4978 2338 
Q 4978 1809 4818 1395 
Q 4659 981 4331 666 
Q 3956 303 3431 151 
Q 2906 0 1856 0 
L 588 0 
L 588 4666 
z
" transform="scale(0.015625)"/>
      <path id="DejaVuSans-Bold-4b" d="M 588 4666 
L 1791 4666 
L 1791 2963 
L 3525 4666 
L 4922 4666 
L 2675 2456 
L 5153 0 
L 3647 0 
L 1791 1838 
L 1791 0 
L 588 0 
L 588 4666 
z
" transform="scale(0.015625)"/>
     </defs>
     <use xlink:href="#DejaVuSans-Bold-44"/>
     <use xlink:href="#DejaVuSans-Bold-4b" x="83.007812"/>
    </g>
   </g>
   <g id="text_19">
    <!-- ES -->
    <g transform="translate(421.097143 245.484378) scale(0.1 -0.1)">
     <defs>
      <path id="DejaVuSans-Bold-45" d="M 588 4666 
L 3834 4666 
L 3834 3756 
L 1791 3756 
L 1791 2888 
L 3713 2888 
L 3713 1978 
L 1791 1978 
L 1791 909 
L 3903 909 
L 3903 0 
L 588 0 
L 588 4666 
z
" transform="scale(0.015625)"/>
      <path id="DejaVuSans-Bold-53" d="M 3834 4519 
L 3834 3531 
Q 3450 3703 3084 3790 
Q 2719 3878 2394 3878 
Q 1963 3878 1756 3759 
Q 1550 3641 1550 3391 
Q 1550 3203 1689 3098 
Q 1828 2994 2194 2919 
L 2706 2816 
Q 3484 2659 3812 2340 
Q 4141 2022 4141 1434 
Q 4141 663 3683 286 
Q 3225 -91 2284 -91 
Q 1841 -91 1394 -6 
Q 947 78 500 244 
L 500 1259 
Q 947 1022 1364 901 
Q 1781 781 2169 781 
Q 2563 781 2772 912 
Q 2981 1044 2981 1288 
Q 2981 1506 2839 1625 
Q 2697 1744 2272 1838 
L 1806 1941 
Q 1106 2091 782 2419 
Q 459 2747 459 3303 
Q 459 4000 909 4375 
Q 1359 4750 2203 4750 
Q 2588 4750 2994 4692 
Q 3400 4634 3834 4519 
z
" transform="scale(0.015625)"/>
     </defs>
     <use xlink:href="#DejaVuSans-Bold-45"/>
     <use xlink:href="#DejaVuSans-Bold-53" x="68.310547"/>
    </g>
   </g>
   <g id="text_20">
    <!-- NL -->
    <g transform="translate(421.097143 249.96106) scale(0.1 -0.1)">
     <defs>
      <path id="DejaVuSans-Bold-4e" d="M 588 4666 
L 1931 4666 
L 3628 1466 
L 3628 4666 
L 4769 4666 
L 4769 0 
L 3425 0 
L 1728 3200 
L 1728 0 
L 588 0 
L 588 4666 
z
" transform="scale(0.015625)"/>
     </defs>
     <use xlink:href="#DejaVuSans-Bold-4e"/>
     <use xlink:href="#DejaVuSans-Bold-4c" x="83.691406"/>
    </g>
   </g>
   <g id="text_21">
    <!-- HU -->
    <g transform="translate(421.097143 255.317819) scale(0.1 -0.1)">
     <defs>
      <path id="DejaVuSans-Bold-48" d="M 588 4666 
L 1791 4666 
L 1791 2888 
L 3566 2888 
L 3566 4666 
L 4769 4666 
L 4769 0 
L 3566 0 
L 3566 1978 
L 1791 1978 
L 1791 0 
L 588 0 
L 588 4666 
z
" transform="scale(0.015625)"/>
      <path id="DejaVuSans-Bold-55" d="M 588 4666 
L 1791 4666 
L 1791 1869 
Q 1791 1291 1980 1042 
Q 2169 794 2597 794 
Q 3028 794 3217 1042 
Q 3406 1291 3406 1869 
L 3406 4666 
L 4609 4666 
L 4609 1869 
Q 4609 878 4112 393 
Q 3616 -91 2597 -91 
Q 1581 -91 1084 393 
Q 588 878 588 1869 
L 588 4666 
z
" transform="scale(0.015625)"/>
     </defs>
     <use xlink:href="#DejaVuSans-Bold-48"/>
     <use xlink:href="#DejaVuSans-Bold-55" x="83.691406"/>
    </g>
   </g>
   <g id="text_22">
    <!-- UK -->
    <g transform="translate(421.097143 256.094973) scale(0.1 -0.1)">
     <use xlink:href="#DejaVuSans-Bold-55"/>
     <use xlink:href="#DejaVuSans-Bold-4b" x="81.201172"/>
    </g>
   </g>
   <g id="line2d_56">
    <path d="M 57.6 307.584 
L 83.108571 290.844888 
L 108.617143 252.917974 
L 134.125714 196.437984 
L 159.634286 124.850107 
L 185.142857 90.409897 
L 210.651429 73.270949 
L 236.16 75.182998 
L 261.668571 76.443221 
L 287.177143 77.913707 
L 312.685714 81.951794 
L 338.194286 103.828726 
L 363.702857 108.596229 
L 389.211429 111.25923 
L 414.72 132.650184 
" clip-path="url(#p9b4e9faded)" style="fill: none; stroke: #a30774; stroke-width: 1.2; stroke-linecap: square"/>
   </g>
   <g id="line2d_57">
    <path d="M 57.6 307.584 
L 83.108571 284.906012 
L 108.617143 249.535066 
L 134.125714 164.430659 
L 159.634286 130.354361 
L 185.142857 98.278584 
L 210.651429 38.005404 
L 236.16 47.02641 
L 261.668571 76.078544 
L 287.177143 108.310048 
L 312.685714 126.032167 
L 338.194286 129.366824 
L 363.702857 139.924689 
L 389.211429 149.891712 
L 414.72 156.118902 
" clip-path="url(#p9b4e9faded)" style="fill: none; stroke: #a30774; stroke-width: 1.2; stroke-linecap: square"/>
   </g>
   <g id="line2d_58">
    <path d="M 57.6 307.584 
L 83.108571 276.728861 
L 108.617143 274.030682 
L 134.125714 254.841884 
L 159.634286 228.674073 
L 185.142857 211.595547 
L 210.651429 194.046647 
L 236.16 198.76515 
L 261.668571 199.290032 
L 287.177143 199.307807 
L 312.685714 203.433625 
L 338.194286 207.16778 
L 363.702857 210.519931 
L 389.211429 215.636916 
L 414.72 217.647766 
" clip-path="url(#p9b4e9faded)" style="fill: none; stroke: #a30774; stroke-width: 1.2; stroke-linecap: square"/>
   </g>
  </g>
 </g>
 <defs>
  <clipPath id="p9b4e9faded">
   <rect x="57.6" y="41.472" width="357.12" height="266.112"/>
  </clipPath>
 </defs>
</svg>
