<?xml version="1.0" encoding="utf-8" standalone="no"?>
<!DOCTYPE svg PUBLIC "-//W3C//DTD SVG 1.1//EN"
  "http://www.w3.org/Graphics/SVG/1.1/DTD/svg11.dtd">
<svg xmlns:xlink="http://www.w3.org/1999/xlink" width="1440pt" height="1440pt" viewBox="0 0 1440 1440" xmlns="http://www.w3.org/2000/svg" version="1.1">
 <metadata>
  <rdf:RDF xmlns:dc="http://purl.org/dc/elements/1.1/" xmlns:cc="http://creativecommons.org/ns#" xmlns:rdf="http://www.w3.org/1999/02/22-rdf-syntax-ns#">
   <cc:Work>
    <dc:type rdf:resource="http://purl.org/dc/dcmitype/StillImage"/>
    <dc:date>2023-08-28T09:50:15.971515</dc:date>
    <dc:format>image/svg+xml</dc:format>
    <dc:creator>
     <cc:Agent>
      <dc:title>Matplotlib v3.7.1, https://matplotlib.org/</dc:title>
     </cc:Agent>
    </dc:creator>
   </cc:Work>
  </rdf:RDF>
 </metadata>
 <defs>
  <style type="text/css">*{stroke-linejoin: round; stroke-linecap: butt}</style>
 </defs>
 <g id="figure_1">
  <g id="patch_1">
   <path d="M 0 1440 
L 1440 1440 
L 1440 0 
L 0 0 
L 0 1440 
z
" style="fill: none"/>
  </g>
  <g id="axes_1">
   <g id="patch_2">
    <path d="M 180 1281.6 
L 1296 1281.6 
L 1296 172.8 
L 180 172.8 
L 180 1281.6 
z
" style="fill: none"/>
   </g>
   <g id="matplotlib.axis_1">
    <g id="xtick_1">
     <g id="line2d_1">
      <defs>
       <path id="m54bfae12f4" d="M 0 0 
L 0 3.5 
" style="stroke: #000000; stroke-width: 0.8"/>
      </defs>
      <g>
       <use xlink:href="#m54bfae12f4" x="180" y="1281.6" style="stroke: #000000; stroke-width: 0.8"/>
      </g>
     </g>
     <g id="text_1">
      <!-- 0.0 -->
      <g transform="translate(156.145312 1311.395313) scale(0.3 -0.3)">
       <defs>
        <path id="DejaVuSans-30" d="M 2034 4250 
Q 1547 4250 1301 3770 
Q 1056 3291 1056 2328 
Q 1056 1369 1301 889 
Q 1547 409 2034 409 
Q 2525 409 2770 889 
Q 3016 1369 3016 2328 
Q 3016 3291 2770 3770 
Q 2525 4250 2034 4250 
z
M 2034 4750 
Q 2819 4750 3233 4129 
Q 3647 3509 3647 2328 
Q 3647 1150 3233 529 
Q 2819 -91 2034 -91 
Q 1250 -91 836 529 
Q 422 1150 422 2328 
Q 422 3509 836 4129 
Q 1250 4750 2034 4750 
z
" transform="scale(0.015625)"/>
        <path id="DejaVuSans-2e" d="M 684 794 
L 1344 794 
L 1344 0 
L 684 0 
L 684 794 
z
" transform="scale(0.015625)"/>
       </defs>
       <use xlink:href="#DejaVuSans-30"/>
       <use xlink:href="#DejaVuSans-2e" x="63.623047"/>
       <use xlink:href="#DejaVuSans-30" x="95.410156"/>
      </g>
     </g>
    </g>
    <g id="xtick_2">
     <g id="line2d_2">
      <g>
       <use xlink:href="#m54bfae12f4" x="403.2" y="1281.6" style="stroke: #000000; stroke-width: 0.8"/>
      </g>
     </g>
     <g id="text_2">
      <!-- 0.2 -->
      <g transform="translate(379.345313 1311.395313) scale(0.3 -0.3)">
       <defs>
        <path id="DejaVuSans-32" d="M 1228 531 
L 3431 531 
L 3431 0 
L 469 0 
L 469 531 
Q 828 903 1448 1529 
Q 2069 2156 2228 2338 
Q 2531 2678 2651 2914 
Q 2772 3150 2772 3378 
Q 2772 3750 2511 3984 
Q 2250 4219 1831 4219 
Q 1534 4219 1204 4116 
Q 875 4013 500 3803 
L 500 4441 
Q 881 4594 1212 4672 
Q 1544 4750 1819 4750 
Q 2544 4750 2975 4387 
Q 3406 4025 3406 3419 
Q 3406 3131 3298 2873 
Q 3191 2616 2906 2266 
Q 2828 2175 2409 1742 
Q 1991 1309 1228 531 
z
" transform="scale(0.015625)"/>
       </defs>
       <use xlink:href="#DejaVuSans-30"/>
       <use xlink:href="#DejaVuSans-2e" x="63.623047"/>
       <use xlink:href="#DejaVuSans-32" x="95.410156"/>
      </g>
     </g>
    </g>
    <g id="xtick_3">
     <g id="line2d_3">
      <g>
       <use xlink:href="#m54bfae12f4" x="626.4" y="1281.6" style="stroke: #000000; stroke-width: 0.8"/>
      </g>
     </g>
     <g id="text_3">
      <!-- 0.4 -->
      <g transform="translate(602.545313 1311.395313) scale(0.3 -0.3)">
       <defs>
        <path id="DejaVuSans-34" d="M 2419 4116 
L 825 1625 
L 2419 1625 
L 2419 4116 
z
M 2253 4666 
L 3047 4666 
L 3047 1625 
L 3713 1625 
L 3713 1100 
L 3047 1100 
L 3047 0 
L 2419 0 
L 2419 1100 
L 313 1100 
L 313 1709 
L 2253 4666 
z
" transform="scale(0.015625)"/>
       </defs>
       <use xlink:href="#DejaVuSans-30"/>
       <use xlink:href="#DejaVuSans-2e" x="63.623047"/>
       <use xlink:href="#DejaVuSans-34" x="95.410156"/>
      </g>
     </g>
    </g>
    <g id="xtick_4">
     <g id="line2d_4">
      <g>
       <use xlink:href="#m54bfae12f4" x="849.6" y="1281.6" style="stroke: #000000; stroke-width: 0.8"/>
      </g>
     </g>
     <g id="text_4">
      <!-- 0.6 -->
      <g transform="translate(825.745313 1311.395313) scale(0.3 -0.3)">
       <defs>
        <path id="DejaVuSans-36" d="M 2113 2584 
Q 1688 2584 1439 2293 
Q 1191 2003 1191 1497 
Q 1191 994 1439 701 
Q 1688 409 2113 409 
Q 2538 409 2786 701 
Q 3034 994 3034 1497 
Q 3034 2003 2786 2293 
Q 2538 2584 2113 2584 
z
M 3366 4563 
L 3366 3988 
Q 3128 4100 2886 4159 
Q 2644 4219 2406 4219 
Q 1781 4219 1451 3797 
Q 1122 3375 1075 2522 
Q 1259 2794 1537 2939 
Q 1816 3084 2150 3084 
Q 2853 3084 3261 2657 
Q 3669 2231 3669 1497 
Q 3669 778 3244 343 
Q 2819 -91 2113 -91 
Q 1303 -91 875 529 
Q 447 1150 447 2328 
Q 447 3434 972 4092 
Q 1497 4750 2381 4750 
Q 2619 4750 2861 4703 
Q 3103 4656 3366 4563 
z
" transform="scale(0.015625)"/>
       </defs>
       <use xlink:href="#DejaVuSans-30"/>
       <use xlink:href="#DejaVuSans-2e" x="63.623047"/>
       <use xlink:href="#DejaVuSans-36" x="95.410156"/>
      </g>
     </g>
    </g>
    <g id="xtick_5">
     <g id="line2d_5">
      <g>
       <use xlink:href="#m54bfae12f4" x="1072.8" y="1281.6" style="stroke: #000000; stroke-width: 0.8"/>
      </g>
     </g>
     <g id="text_5">
      <!-- 0.8 -->
      <g transform="translate(1048.945313 1311.395313) scale(0.3 -0.3)">
       <defs>
        <path id="DejaVuSans-38" d="M 2034 2216 
Q 1584 2216 1326 1975 
Q 1069 1734 1069 1313 
Q 1069 891 1326 650 
Q 1584 409 2034 409 
Q 2484 409 2743 651 
Q 3003 894 3003 1313 
Q 3003 1734 2745 1975 
Q 2488 2216 2034 2216 
z
M 1403 2484 
Q 997 2584 770 2862 
Q 544 3141 544 3541 
Q 544 4100 942 4425 
Q 1341 4750 2034 4750 
Q 2731 4750 3128 4425 
Q 3525 4100 3525 3541 
Q 3525 3141 3298 2862 
Q 3072 2584 2669 2484 
Q 3125 2378 3379 2068 
Q 3634 1759 3634 1313 
Q 3634 634 3220 271 
Q 2806 -91 2034 -91 
Q 1263 -91 848 271 
Q 434 634 434 1313 
Q 434 1759 690 2068 
Q 947 2378 1403 2484 
z
M 1172 3481 
Q 1172 3119 1398 2916 
Q 1625 2713 2034 2713 
Q 2441 2713 2670 2916 
Q 2900 3119 2900 3481 
Q 2900 3844 2670 4047 
Q 2441 4250 2034 4250 
Q 1625 4250 1398 4047 
Q 1172 3844 1172 3481 
z
" transform="scale(0.015625)"/>
       </defs>
       <use xlink:href="#DejaVuSans-30"/>
       <use xlink:href="#DejaVuSans-2e" x="63.623047"/>
       <use xlink:href="#DejaVuSans-38" x="95.410156"/>
      </g>
     </g>
    </g>
    <g id="xtick_6">
     <g id="line2d_6">
      <g>
       <use xlink:href="#m54bfae12f4" x="1296" y="1281.6" style="stroke: #000000; stroke-width: 0.8"/>
      </g>
     </g>
     <g id="text_6">
      <!-- 1.0 -->
      <g transform="translate(1272.145313 1311.395313) scale(0.3 -0.3)">
       <defs>
        <path id="DejaVuSans-31" d="M 794 531 
L 1825 531 
L 1825 4091 
L 703 3866 
L 703 4441 
L 1819 4666 
L 2450 4666 
L 2450 531 
L 3481 531 
L 3481 0 
L 794 0 
L 794 531 
z
" transform="scale(0.015625)"/>
       </defs>
       <use xlink:href="#DejaVuSans-31"/>
       <use xlink:href="#DejaVuSans-2e" x="63.623047"/>
       <use xlink:href="#DejaVuSans-30" x="95.410156"/>
      </g>
     </g>
    </g>
    <g id="text_7">
     <!-- Cumulative proportion of population -->
     <g transform="translate(325.71875 1352.028125) scale(0.4 -0.4)">
      <defs>
       <path id="DejaVuSans-Bold-43" d="M 4288 256 
Q 3956 84 3597 -3 
Q 3238 -91 2847 -91 
Q 1681 -91 1000 561 
Q 319 1213 319 2328 
Q 319 3447 1000 4098 
Q 1681 4750 2847 4750 
Q 3238 4750 3597 4662 
Q 3956 4575 4288 4403 
L 4288 3438 
Q 3953 3666 3628 3772 
Q 3303 3878 2944 3878 
Q 2300 3878 1931 3465 
Q 1563 3053 1563 2328 
Q 1563 1606 1931 1193 
Q 2300 781 2944 781 
Q 3303 781 3628 887 
Q 3953 994 4288 1222 
L 4288 256 
z
" transform="scale(0.015625)"/>
       <path id="DejaVuSans-Bold-75" d="M 500 1363 
L 500 3500 
L 1625 3500 
L 1625 3150 
Q 1625 2866 1622 2436 
Q 1619 2006 1619 1863 
Q 1619 1441 1641 1255 
Q 1663 1069 1716 984 
Q 1784 875 1895 815 
Q 2006 756 2150 756 
Q 2500 756 2700 1025 
Q 2900 1294 2900 1772 
L 2900 3500 
L 4019 3500 
L 4019 0 
L 2900 0 
L 2900 506 
Q 2647 200 2364 54 
Q 2081 -91 1741 -91 
Q 1134 -91 817 281 
Q 500 653 500 1363 
z
" transform="scale(0.015625)"/>
       <path id="DejaVuSans-Bold-6d" d="M 3781 2919 
Q 3994 3244 4286 3414 
Q 4578 3584 4928 3584 
Q 5531 3584 5847 3212 
Q 6163 2841 6163 2131 
L 6163 0 
L 5038 0 
L 5038 1825 
Q 5041 1866 5042 1909 
Q 5044 1953 5044 2034 
Q 5044 2406 4934 2573 
Q 4825 2741 4581 2741 
Q 4263 2741 4089 2478 
Q 3916 2216 3909 1719 
L 3909 0 
L 2784 0 
L 2784 1825 
Q 2784 2406 2684 2573 
Q 2584 2741 2328 2741 
Q 2006 2741 1831 2477 
Q 1656 2213 1656 1722 
L 1656 0 
L 531 0 
L 531 3500 
L 1656 3500 
L 1656 2988 
Q 1863 3284 2130 3434 
Q 2397 3584 2719 3584 
Q 3081 3584 3359 3409 
Q 3638 3234 3781 2919 
z
" transform="scale(0.015625)"/>
       <path id="DejaVuSans-Bold-6c" d="M 538 4863 
L 1656 4863 
L 1656 0 
L 538 0 
L 538 4863 
z
" transform="scale(0.015625)"/>
       <path id="DejaVuSans-Bold-61" d="M 2106 1575 
Q 1756 1575 1579 1456 
Q 1403 1338 1403 1106 
Q 1403 894 1545 773 
Q 1688 653 1941 653 
Q 2256 653 2472 879 
Q 2688 1106 2688 1447 
L 2688 1575 
L 2106 1575 
z
M 3816 1997 
L 3816 0 
L 2688 0 
L 2688 519 
Q 2463 200 2181 54 
Q 1900 -91 1497 -91 
Q 953 -91 614 226 
Q 275 544 275 1050 
Q 275 1666 698 1953 
Q 1122 2241 2028 2241 
L 2688 2241 
L 2688 2328 
Q 2688 2594 2478 2717 
Q 2269 2841 1825 2841 
Q 1466 2841 1156 2769 
Q 847 2697 581 2553 
L 581 3406 
Q 941 3494 1303 3539 
Q 1666 3584 2028 3584 
Q 2975 3584 3395 3211 
Q 3816 2838 3816 1997 
z
" transform="scale(0.015625)"/>
       <path id="DejaVuSans-Bold-74" d="M 1759 4494 
L 1759 3500 
L 2913 3500 
L 2913 2700 
L 1759 2700 
L 1759 1216 
Q 1759 972 1856 886 
Q 1953 800 2241 800 
L 2816 800 
L 2816 0 
L 1856 0 
Q 1194 0 917 276 
Q 641 553 641 1216 
L 641 2700 
L 84 2700 
L 84 3500 
L 641 3500 
L 641 4494 
L 1759 4494 
z
" transform="scale(0.015625)"/>
       <path id="DejaVuSans-Bold-69" d="M 538 3500 
L 1656 3500 
L 1656 0 
L 538 0 
L 538 3500 
z
M 538 4863 
L 1656 4863 
L 1656 3950 
L 538 3950 
L 538 4863 
z
" transform="scale(0.015625)"/>
       <path id="DejaVuSans-Bold-76" d="M 97 3500 
L 1216 3500 
L 2088 1081 
L 2956 3500 
L 4078 3500 
L 2700 0 
L 1472 0 
L 97 3500 
z
" transform="scale(0.015625)"/>
       <path id="DejaVuSans-Bold-65" d="M 4031 1759 
L 4031 1441 
L 1416 1441 
Q 1456 1047 1700 850 
Q 1944 653 2381 653 
Q 2734 653 3104 758 
Q 3475 863 3866 1075 
L 3866 213 
Q 3469 63 3072 -14 
Q 2675 -91 2278 -91 
Q 1328 -91 801 392 
Q 275 875 275 1747 
Q 275 2603 792 3093 
Q 1309 3584 2216 3584 
Q 3041 3584 3536 3087 
Q 4031 2591 4031 1759 
z
M 2881 2131 
Q 2881 2450 2695 2645 
Q 2509 2841 2209 2841 
Q 1884 2841 1681 2658 
Q 1478 2475 1428 2131 
L 2881 2131 
z
" transform="scale(0.015625)"/>
       <path id="DejaVuSans-Bold-20" transform="scale(0.015625)"/>
       <path id="DejaVuSans-Bold-70" d="M 1656 506 
L 1656 -1331 
L 538 -1331 
L 538 3500 
L 1656 3500 
L 1656 2988 
Q 1888 3294 2169 3439 
Q 2450 3584 2816 3584 
Q 3463 3584 3878 3070 
Q 4294 2556 4294 1747 
Q 4294 938 3878 423 
Q 3463 -91 2816 -91 
Q 2450 -91 2169 54 
Q 1888 200 1656 506 
z
M 2400 2772 
Q 2041 2772 1848 2508 
Q 1656 2244 1656 1747 
Q 1656 1250 1848 986 
Q 2041 722 2400 722 
Q 2759 722 2948 984 
Q 3138 1247 3138 1747 
Q 3138 2247 2948 2509 
Q 2759 2772 2400 2772 
z
" transform="scale(0.015625)"/>
       <path id="DejaVuSans-Bold-72" d="M 3138 2547 
Q 2991 2616 2845 2648 
Q 2700 2681 2553 2681 
Q 2122 2681 1889 2404 
Q 1656 2128 1656 1613 
L 1656 0 
L 538 0 
L 538 3500 
L 1656 3500 
L 1656 2925 
Q 1872 3269 2151 3426 
Q 2431 3584 2822 3584 
Q 2878 3584 2943 3579 
Q 3009 3575 3134 3559 
L 3138 2547 
z
" transform="scale(0.015625)"/>
       <path id="DejaVuSans-Bold-6f" d="M 2203 2784 
Q 1831 2784 1636 2517 
Q 1441 2250 1441 1747 
Q 1441 1244 1636 976 
Q 1831 709 2203 709 
Q 2569 709 2762 976 
Q 2956 1244 2956 1747 
Q 2956 2250 2762 2517 
Q 2569 2784 2203 2784 
z
M 2203 3584 
Q 3106 3584 3614 3096 
Q 4122 2609 4122 1747 
Q 4122 884 3614 396 
Q 3106 -91 2203 -91 
Q 1297 -91 786 396 
Q 275 884 275 1747 
Q 275 2609 786 3096 
Q 1297 3584 2203 3584 
z
" transform="scale(0.015625)"/>
       <path id="DejaVuSans-Bold-6e" d="M 4056 2131 
L 4056 0 
L 2931 0 
L 2931 347 
L 2931 1631 
Q 2931 2084 2911 2256 
Q 2891 2428 2841 2509 
Q 2775 2619 2662 2680 
Q 2550 2741 2406 2741 
Q 2056 2741 1856 2470 
Q 1656 2200 1656 1722 
L 1656 0 
L 538 0 
L 538 3500 
L 1656 3500 
L 1656 2988 
Q 1909 3294 2193 3439 
Q 2478 3584 2822 3584 
Q 3428 3584 3742 3212 
Q 4056 2841 4056 2131 
z
" transform="scale(0.015625)"/>
       <path id="DejaVuSans-Bold-66" d="M 2841 4863 
L 2841 4128 
L 2222 4128 
Q 1984 4128 1890 4042 
Q 1797 3956 1797 3744 
L 1797 3500 
L 2753 3500 
L 2753 2700 
L 1797 2700 
L 1797 0 
L 678 0 
L 678 2700 
L 122 2700 
L 122 3500 
L 678 3500 
L 678 3744 
Q 678 4316 997 4589 
Q 1316 4863 1984 4863 
L 2841 4863 
z
" transform="scale(0.015625)"/>
      </defs>
      <use xlink:href="#DejaVuSans-Bold-43"/>
      <use xlink:href="#DejaVuSans-Bold-75" x="73.388672"/>
      <use xlink:href="#DejaVuSans-Bold-6d" x="144.580078"/>
      <use xlink:href="#DejaVuSans-Bold-75" x="248.779297"/>
      <use xlink:href="#DejaVuSans-Bold-6c" x="319.970703"/>
      <use xlink:href="#DejaVuSans-Bold-61" x="354.248047"/>
      <use xlink:href="#DejaVuSans-Bold-74" x="421.728516"/>
      <use xlink:href="#DejaVuSans-Bold-69" x="469.53125"/>
      <use xlink:href="#DejaVuSans-Bold-76" x="503.808594"/>
      <use xlink:href="#DejaVuSans-Bold-65" x="568.994141"/>
      <use xlink:href="#DejaVuSans-Bold-20" x="636.816406"/>
      <use xlink:href="#DejaVuSans-Bold-70" x="671.630859"/>
      <use xlink:href="#DejaVuSans-Bold-72" x="743.212891"/>
      <use xlink:href="#DejaVuSans-Bold-6f" x="792.529297"/>
      <use xlink:href="#DejaVuSans-Bold-70" x="861.230469"/>
      <use xlink:href="#DejaVuSans-Bold-6f" x="932.8125"/>
      <use xlink:href="#DejaVuSans-Bold-72" x="1001.513672"/>
      <use xlink:href="#DejaVuSans-Bold-74" x="1050.830078"/>
      <use xlink:href="#DejaVuSans-Bold-69" x="1098.632812"/>
      <use xlink:href="#DejaVuSans-Bold-6f" x="1132.910156"/>
      <use xlink:href="#DejaVuSans-Bold-6e" x="1201.611328"/>
      <use xlink:href="#DejaVuSans-Bold-20" x="1272.802734"/>
      <use xlink:href="#DejaVuSans-Bold-6f" x="1307.617188"/>
      <use xlink:href="#DejaVuSans-Bold-66" x="1376.318359"/>
      <use xlink:href="#DejaVuSans-Bold-20" x="1419.824219"/>
      <use xlink:href="#DejaVuSans-Bold-70" x="1454.638672"/>
      <use xlink:href="#DejaVuSans-Bold-6f" x="1526.220703"/>
      <use xlink:href="#DejaVuSans-Bold-70" x="1594.921875"/>
      <use xlink:href="#DejaVuSans-Bold-75" x="1666.503906"/>
      <use xlink:href="#DejaVuSans-Bold-6c" x="1737.695312"/>
      <use xlink:href="#DejaVuSans-Bold-61" x="1771.972656"/>
      <use xlink:href="#DejaVuSans-Bold-74" x="1839.453125"/>
      <use xlink:href="#DejaVuSans-Bold-69" x="1887.255859"/>
      <use xlink:href="#DejaVuSans-Bold-6f" x="1921.533203"/>
      <use xlink:href="#DejaVuSans-Bold-6e" x="1990.234375"/>
     </g>
    </g>
   </g>
   <g id="matplotlib.axis_2">
    <g id="ytick_1">
     <g id="line2d_7">
      <defs>
       <path id="m9d8a247511" d="M 0 0 
L 3.5 0 
" style="stroke: #000000; stroke-width: 0.8"/>
      </defs>
      <g>
       <use xlink:href="#m9d8a247511" x="1296" y="1281.6" style="stroke: #000000; stroke-width: 0.8"/>
      </g>
     </g>
     <g id="text_8">
      <!-- 0.0 -->
      <g transform="translate(1303 1292.997656) scale(0.3 -0.3)">
       <use xlink:href="#DejaVuSans-30"/>
       <use xlink:href="#DejaVuSans-2e" x="63.623047"/>
       <use xlink:href="#DejaVuSans-30" x="95.410156"/>
      </g>
     </g>
    </g>
    <g id="ytick_2">
     <g id="line2d_8">
      <g>
       <use xlink:href="#m9d8a247511" x="1296" y="1059.84" style="stroke: #000000; stroke-width: 0.8"/>
      </g>
     </g>
     <g id="text_9">
      <!-- 0.2 -->
      <g transform="translate(1303 1071.237656) scale(0.3 -0.3)">
       <use xlink:href="#DejaVuSans-30"/>
       <use xlink:href="#DejaVuSans-2e" x="63.623047"/>
       <use xlink:href="#DejaVuSans-32" x="95.410156"/>
      </g>
     </g>
    </g>
    <g id="ytick_3">
     <g id="line2d_9">
      <g>
       <use xlink:href="#m9d8a247511" x="1296" y="838.08" style="stroke: #000000; stroke-width: 0.8"/>
      </g>
     </g>
     <g id="text_10">
      <!-- 0.4 -->
      <g transform="translate(1303 849.477656) scale(0.3 -0.3)">
       <use xlink:href="#DejaVuSans-30"/>
       <use xlink:href="#DejaVuSans-2e" x="63.623047"/>
       <use xlink:href="#DejaVuSans-34" x="95.410156"/>
      </g>
     </g>
    </g>
    <g id="ytick_4">
     <g id="line2d_10">
      <g>
       <use xlink:href="#m9d8a247511" x="1296" y="616.32" style="stroke: #000000; stroke-width: 0.8"/>
      </g>
     </g>
     <g id="text_11">
      <!-- 0.6 -->
      <g transform="translate(1303 627.717656) scale(0.3 -0.3)">
       <use xlink:href="#DejaVuSans-30"/>
       <use xlink:href="#DejaVuSans-2e" x="63.623047"/>
       <use xlink:href="#DejaVuSans-36" x="95.410156"/>
      </g>
     </g>
    </g>
    <g id="ytick_5">
     <g id="line2d_11">
      <g>
       <use xlink:href="#m9d8a247511" x="1296" y="394.56" style="stroke: #000000; stroke-width: 0.8"/>
      </g>
     </g>
     <g id="text_12">
      <!-- 0.8 -->
      <g transform="translate(1303 405.957656) scale(0.3 -0.3)">
       <use xlink:href="#DejaVuSans-30"/>
       <use xlink:href="#DejaVuSans-2e" x="63.623047"/>
       <use xlink:href="#DejaVuSans-38" x="95.410156"/>
      </g>
     </g>
    </g>
    <g id="ytick_6">
     <g id="line2d_12">
      <g>
       <use xlink:href="#m9d8a247511" x="1296" y="172.8" style="stroke: #000000; stroke-width: 0.8"/>
      </g>
     </g>
     <g id="text_13">
      <!-- 1.0 -->
      <g transform="translate(1303 184.197656) scale(0.3 -0.3)">
       <use xlink:href="#DejaVuSans-31"/>
       <use xlink:href="#DejaVuSans-2e" x="63.623047"/>
       <use xlink:href="#DejaVuSans-30" x="95.410156"/>
      </g>
     </g>
    </g>
    <g id="text_14">
     <!-- Cumulative proportion of jobs -->
     <g transform="translate(1385.103125 1064.940625) rotate(-90) scale(0.4 -0.4)">
      <defs>
       <path id="DejaVuSans-Bold-6a" d="M 538 3500 
L 1656 3500 
L 1656 63 
Q 1656 -641 1318 -1011 
Q 981 -1381 341 -1381 
L -213 -1381 
L -213 -647 
L -19 -647 
Q 300 -647 419 -503 
Q 538 -359 538 63 
L 538 3500 
z
M 538 4863 
L 1656 4863 
L 1656 3950 
L 538 3950 
L 538 4863 
z
" transform="scale(0.015625)"/>
       <path id="DejaVuSans-Bold-62" d="M 2400 722 
Q 2759 722 2948 984 
Q 3138 1247 3138 1747 
Q 3138 2247 2948 2509 
Q 2759 2772 2400 2772 
Q 2041 2772 1848 2508 
Q 1656 2244 1656 1747 
Q 1656 1250 1848 986 
Q 2041 722 2400 722 
z
M 1656 2988 
Q 1888 3294 2169 3439 
Q 2450 3584 2816 3584 
Q 3463 3584 3878 3070 
Q 4294 2556 4294 1747 
Q 4294 938 3878 423 
Q 3463 -91 2816 -91 
Q 2450 -91 2169 54 
Q 1888 200 1656 506 
L 1656 0 
L 538 0 
L 538 4863 
L 1656 4863 
L 1656 2988 
z
" transform="scale(0.015625)"/>
       <path id="DejaVuSans-Bold-73" d="M 3272 3391 
L 3272 2541 
Q 2913 2691 2578 2766 
Q 2244 2841 1947 2841 
Q 1628 2841 1473 2761 
Q 1319 2681 1319 2516 
Q 1319 2381 1436 2309 
Q 1553 2238 1856 2203 
L 2053 2175 
Q 2913 2066 3209 1816 
Q 3506 1566 3506 1031 
Q 3506 472 3093 190 
Q 2681 -91 1863 -91 
Q 1516 -91 1145 -36 
Q 775 19 384 128 
L 384 978 
Q 719 816 1070 734 
Q 1422 653 1784 653 
Q 2113 653 2278 743 
Q 2444 834 2444 1013 
Q 2444 1163 2330 1236 
Q 2216 1309 1875 1350 
L 1678 1375 
Q 931 1469 631 1722 
Q 331 1975 331 2491 
Q 331 3047 712 3315 
Q 1094 3584 1881 3584 
Q 2191 3584 2531 3537 
Q 2872 3491 3272 3391 
z
" transform="scale(0.015625)"/>
      </defs>
      <use xlink:href="#DejaVuSans-Bold-43"/>
      <use xlink:href="#DejaVuSans-Bold-75" x="73.388672"/>
      <use xlink:href="#DejaVuSans-Bold-6d" x="144.580078"/>
      <use xlink:href="#DejaVuSans-Bold-75" x="248.779297"/>
      <use xlink:href="#DejaVuSans-Bold-6c" x="319.970703"/>
      <use xlink:href="#DejaVuSans-Bold-61" x="354.248047"/>
      <use xlink:href="#DejaVuSans-Bold-74" x="421.728516"/>
      <use xlink:href="#DejaVuSans-Bold-69" x="469.53125"/>
      <use xlink:href="#DejaVuSans-Bold-76" x="503.808594"/>
      <use xlink:href="#DejaVuSans-Bold-65" x="568.994141"/>
      <use xlink:href="#DejaVuSans-Bold-20" x="636.816406"/>
      <use xlink:href="#DejaVuSans-Bold-70" x="671.630859"/>
      <use xlink:href="#DejaVuSans-Bold-72" x="743.212891"/>
      <use xlink:href="#DejaVuSans-Bold-6f" x="792.529297"/>
      <use xlink:href="#DejaVuSans-Bold-70" x="861.230469"/>
      <use xlink:href="#DejaVuSans-Bold-6f" x="932.8125"/>
      <use xlink:href="#DejaVuSans-Bold-72" x="1001.513672"/>
      <use xlink:href="#DejaVuSans-Bold-74" x="1050.830078"/>
      <use xlink:href="#DejaVuSans-Bold-69" x="1098.632812"/>
      <use xlink:href="#DejaVuSans-Bold-6f" x="1132.910156"/>
      <use xlink:href="#DejaVuSans-Bold-6e" x="1201.611328"/>
      <use xlink:href="#DejaVuSans-Bold-20" x="1272.802734"/>
      <use xlink:href="#DejaVuSans-Bold-6f" x="1307.617188"/>
      <use xlink:href="#DejaVuSans-Bold-66" x="1376.318359"/>
      <use xlink:href="#DejaVuSans-Bold-20" x="1419.824219"/>
      <use xlink:href="#DejaVuSans-Bold-6a" x="1454.638672"/>
      <use xlink:href="#DejaVuSans-Bold-6f" x="1488.916016"/>
      <use xlink:href="#DejaVuSans-Bold-62" x="1557.617188"/>
      <use xlink:href="#DejaVuSans-Bold-73" x="1629.199219"/>
     </g>
    </g>
   </g>
   <g id="line2d_13">
    <path d="M 180.000607 1281.6 
L 667.774434 1281.489047 
L 676.901623 1281.064622 
L 676.904469 1281.063198 
L 680.732117 1280.949966 
L 681.748049 1280.898877 
L 688.425746 1280.786686 
L 695.916589 1280.423016 
L 697.719976 1280.196219 
L 700.969104 1280.082808 
L 705.52036 1279.822079 
L 705.774336 1279.781687 
L 713.130285 1279.664484 
L 718.11155 1279.379166 
L 719.933062 1279.266049 
L 723.391244 1279.153552 
L 728.529382 1278.862932 
L 730.712384 1278.651535 
L 733.244687 1278.539049 
L 741.296276 1278.142442 
L 750.915862 1277.771356 
L 752.046177 1277.588801 
L 753.12157 1277.477006 
L 755.000222 1277.138578 
L 756.038215 1277.02532 
L 758.439466 1276.672962 
L 760.065918 1276.5602 
L 760.168777 1276.49102 
L 760.608006 1276.377369 
L 761.500971 1276.139759 
L 763.076456 1276.027107 
L 765.514969 1275.733852 
L 768.432698 1275.596165 
L 770.486193 1275.483019 
L 770.619772 1275.423591 
L 772.629462 1275.01126 
L 773.01222 1274.897178 
L 773.796588 1274.452072 
L 775.744954 1274.333589 
L 775.978493 1274.255058 
L 777.108553 1274.140134 
L 778.475116 1273.8408 
L 779.061151 1273.728136 
L 780.372468 1273.242656 
L 782.202808 1273.127086 
L 782.58047 1272.99693 
L 783.344767 1272.884127 
L 783.721214 1272.819049 
L 784.308466 1272.619476 
L 784.475726 1272.560906 
L 786.152379 1272.446858 
L 786.54785 1272.334813 
L 787.435905 1272.22057 
L 788.763037 1271.875647 
L 790.291054 1271.762844 
L 790.711275 1271.375148 
L 790.993952 1271.261676 
L 791.058075 1271.15766 
L 792.343184 1271.029558 
L 793.033847 1270.776156 
L 794.215084 1270.46313 
L 794.308536 1270.3886 
L 795.629177 1270.272394 
L 797.818305 1269.778066 
L 798.930808 1269.66399 
L 799.179216 1269.600615 
L 800.938848 1269.487926 
L 801.077257 1269.328882 
L 801.37416 1269.216012 
L 801.851682 1268.808142 
L 802.875858 1268.691695 
L 803.124563 1268.595822 
L 803.930849 1268.481811 
L 804.616171 1268.303022 
L 805.02215 1268.11905 
L 805.362581 1268.005039 
L 807.262858 1267.890992 
L 807.385732 1267.773938 
L 807.799755 1267.598359 
L 809.065072 1267.162027 
L 809.36719 1267.049699 
L 809.929843 1266.61376 
L 810.26105 1266.501431 
L 810.443759 1266.348986 
L 811.300047 1266.235422 
L 812.091742 1265.794018 
L 812.494177 1265.512089 
L 812.504807 1265.486459 
L 814.698447 1265.367187 
L 815.916018 1264.908129 
L 816.009906 1264.855498 
L 816.74766 1264.741465 
L 817.01319 1264.580649 
L 817.790105 1264.465628 
L 817.949695 1264.29228 
L 817.996204 1264.248155 
L 818.354301 1264.134691 
L 819.008658 1263.60204 
L 821.024045 1263.478865 
L 821.442579 1263.277055 
L 821.744736 1263.166385 
L 822.410053 1262.961319 
L 822.538646 1262.902729 
L 823.472512 1262.788804 
L 823.836114 1262.583738 
L 825.721393 1262.465689 
L 826.287201 1262.334496 
L 827.785777 1262.219702 
L 828.879054 1262.016353 
L 830.057229 1261.799884 
L 830.77389 1261.635893 
L 830.904573 1261.586696 
L 833.61987 1261.471879 
L 833.785213 1261.370181 
L 833.992401 1261.25536 
L 834.612717 1261.140539 
L 835.766449 1260.579557 
L 837.408944 1260.464003 
L 837.721265 1260.321771 
L 837.981032 1260.225846 
L 838.841729 1260.113383 
L 839.492084 1259.944689 
L 839.956992 1259.749533 
L 840.162067 1259.640377 
L 840.436013 1259.544453 
L 842.542889 1259.430219 
L 842.742856 1259.343147 
L 843.617196 1259.001826 
L 844.971852 1258.886892 
L 845.544034 1258.67792 
L 845.736026 1258.583882 
L 846.084883 1258.475913 
L 848.105732 1258.362214 
L 848.428229 1258.123069 
L 848.450639 1258.101653 
L 849.058182 1257.987435 
L 849.468395 1257.830385 
L 849.939528 1257.609087 
L 850.283158 1257.369942 
L 851.859597 1257.254696 
L 852.262444 1257.023822 
L 854.048339 1256.259052 
L 856.412435 1256.143676 
L 856.79369 1255.884978 
L 857.666548 1255.513803 
L 858.012856 1255.303845 
L 858.135689 1255.22886 
L 858.911558 1255.112634 
L 858.91718 1255.101386 
L 860.601659 1254.987102 
L 861.136163 1254.329285 
L 861.340575 1253.931535 
L 863.033763 1253.786541 
L 863.602763 1253.528537 
L 864.877904 1253.045292 
L 865.751805 1252.930624 
L 866.182698 1252.639858 
L 870.562343 1252.502373 
L 871.249056 1252.26881 
L 873.868536 1251.613999 
L 874.467921 1251.372094 
L 875.823965 1251.255809 
L 875.939523 1251.051148 
L 876.781562 1250.040907 
L 877.890584 1249.921047 
L 877.987762 1249.705567 
L 878.205631 1249.588849 
L 878.512633 1249.036681 
L 878.827885 1248.591942 
L 879.554393 1248.477761 
L 879.729893 1248.240264 
L 880.4302 1247.555177 
L 880.852271 1247.440995 
L 880.973072 1247.230902 
L 881.824034 1247.11032 
L 882.094571 1246.72789 
L 882.205742 1246.601968 
L 883.311418 1245.734273 
L 884.83507 1245.621221 
L 885.174302 1245.508168 
L 887.375962 1244.947617 
L 888.752058 1244.664985 
L 889.492405 1244.43417 
L 889.773084 1244.34467 
L 895.255024 1244.226457 
L 895.71861 1243.83315 
L 895.82487 1243.724161 
L 896.411178 1243.326114 
L 896.839451 1242.875943 
L 897.842199 1242.757357 
L 898.347169 1242.377704 
L 899.011655 1242.263808 
L 899.416611 1242.036016 
L 900.230331 1241.561449 
L 900.489052 1241.395351 
L 902.133111 1241.280642 
L 902.273059 1241.123953 
L 902.708827 1240.734758 
L 903.048068 1240.542688 
L 904.021515 1239.850224 
L 906.432899 1239.731355 
L 906.535618 1239.673838 
L 906.742802 1239.459456 
L 907.277765 1239.062065 
L 907.641287 1238.758793 
L 907.668746 1238.72742 
L 908.238674 1238.612386 
L 908.558213 1238.246368 
L 909.654513 1238.122967 
L 909.769498 1238.013562 
L 910.042698 1237.647057 
L 910.16219 1237.510301 
L 910.689326 1236.952338 
L 910.922305 1236.558481 
L 911.858775 1236.436422 
L 912.874689 1234.803012 
L 915.554702 1234.667746 
L 915.667568 1234.633884 
L 916.136113 1234.425067 
L 916.258383 1234.329124 
L 916.521566 1234.171101 
L 916.639185 1234.103376 
L 917.926912 1233.663168 
L 918.802515 1233.251178 
L 919.794879 1233.138304 
L 919.889744 1233.064935 
L 921.097445 1232.949973 
L 921.558318 1231.748475 
L 921.722936 1231.307345 
L 921.727269 1231.272519 
L 922.333969 1231.153694 
L 922.450043 1230.57626 
L 922.685655 1229.421391 
L 923.360088 1229.264961 
L 924.179276 1228.440596 
L 924.958587 1228.326268 
L 925.669213 1227.760646 
L 925.867235 1227.640301 
L 925.915006 1227.556059 
L 927.835206 1227.439896 
L 927.860068 1227.378195 
L 928.394486 1227.260962 
L 928.855209 1226.699476 
L 929.29535 1226.304586 
L 929.729729 1225.644378 
L 931.170827 1225.511985 
L 932.636383 1224.68543 
L 933.497934 1224.45018 
L 934.026877 1224.234004 
L 934.632981 1223.884308 
L 934.746842 1223.839801 
L 935.021589 1223.693564 
L 941.046337 1223.563984 
L 941.126431 1223.504947 
L 941.923394 1223.242561 
L 942.102241 1223.137607 
L 942.709221 1222.908019 
L 943.08038 1222.829303 
L 944.124863 1222.645633 
L 944.769419 1222.429165 
L 946.42112 1221.668246 
L 949.507455 1221.543613 
L 950.21139 1220.402234 
L 950.414191 1220.087372 
L 950.619567 1219.726591 
L 950.647029 1219.634756 
L 952.01227 1219.508677 
L 952.122987 1219.321634 
L 952.33052 1218.740463 
L 952.5633 1218.332976 
L 952.833637 1217.571442 
L 954.527535 1217.409014 
L 954.671708 1217.279738 
L 955.403787 1216.925931 
L 957.179181 1216.299964 
L 957.98392 1216.034609 
L 958.604958 1215.735233 
L 959.097298 1215.483486 
L 963.539665 1215.361163 
L 963.644878 1215.193173 
L 963.967227 1214.651026 
L 964.07902 1214.498308 
L 964.551703 1214.047791 
L 964.669769 1213.833986 
L 965.129764 1213.719448 
L 965.434048 1213.131485 
L 965.81306 1213.016902 
L 965.818142 1212.932826 
L 966.381517 1212.818176 
L 966.631399 1212.25257 
L 966.799572 1212.007983 
L 967.026442 1211.572314 
L 967.055511 1211.480594 
L 967.345009 1211.365944 
L 967.531179 1210.800338 
L 967.785368 1210.68537 
L 967.789146 1210.646359 
L 968.131776 1210.529326 
L 968.443314 1209.819329 
L 968.950091 1209.078122 
L 969.353119 1208.961089 
L 969.675203 1208.329113 
L 971.329399 1208.199878 
L 971.438146 1208.046497 
L 971.65525 1207.75778 
L 971.78922 1207.523197 
L 972.603627 1206.666068 
L 972.749668 1206.413441 
L 973.307279 1206.29615 
L 973.715333 1205.574357 
L 974.567702 1205.448043 
L 974.678238 1204.996922 
L 974.96706 1204.166861 
L 975.633992 1202.632134 
L 975.929476 1202.513519 
L 976.173636 1201.829202 
L 976.49594 1201.710587 
L 976.748981 1201.190506 
L 977.083936 1200.643052 
L 977.320867 1199.940486 
L 977.895186 1199.820239 
L 977.896626 1199.773597 
L 978.039746 1199.65233 
L 978.135082 1198.96204 
L 978.284905 1198.840773 
L 978.547385 1197.85198 
L 978.639608 1197.394896 
L 978.935675 1197.273629 
L 978.962774 1196.970883 
L 979.990801 1196.856606 
L 980.871985 1195.921613 
L 981.540567 1195.391784 
L 982.458655 1194.986621 
L 982.725774 1194.737289 
L 983.010492 1194.487958 
L 983.158314 1194.332126 
L 983.610158 1194.051628 
L 983.638655 1193.926963 
L 986.61955 1193.802297 
L 986.62278 1193.770266 
L 986.790692 1193.652821 
L 986.916727 1192.47837 
L 987.163397 1191.090381 
L 987.314486 1190.449511 
L 988.402885 1190.331493 
L 988.82564 1189.698486 
L 989.024308 1189.46245 
L 989.028851 1189.451721 
L 989.593282 1189.333703 
L 989.742394 1189.172769 
L 990.512067 1188.346642 
L 991.072992 1187.252291 
L 992.127166 1187.121588 
L 992.233045 1186.800993 
L 992.312634 1186.403012 
L 992.527477 1185.761822 
L 992.841794 1184.932697 
L 992.915864 1184.623157 
L 993.191729 1184.501552 
L 993.329517 1183.849307 
L 994.301734 1183.694446 
L 994.408251 1183.473086 
L 994.575559 1183.052502 
L 994.839797 1182.410558 
L 995.313047 1181.602594 
L 995.363292 1181.45871 
L 995.774136 1181.336962 
L 996.086281 1180.362979 
L 997.055156 1180.228379 
L 997.16612 1180.003776 
L 997.271158 1179.62195 
L 997.388137 1179.262585 
L 997.701943 1179.150283 
L 997.830171 1178.92568 
L 998.152357 1178.2631 
L 998.525957 1176.949171 
L 998.827305 1176.836119 
L 998.922824 1176.721939 
L 1000.319584 1176.60776 
L 1000.847846 1176.185297 
L 1001.415687 1175.797088 
L 1002.909127 1175.682909 
L 1003.771908 1175.112013 
L 1005.188968 1174.586789 
L 1005.317447 1174.438356 
L 1005.859253 1174.061564 
L 1006.285229 1173.75328 
L 1006.805552 1173.444997 
L 1009.63912 1173.330675 
L 1009.650385 1173.296207 
L 1010.899225 1173.181314 
L 1011.948814 1172.2277 
L 1013.238616 1172.112807 
L 1014.041451 1171.526852 
L 1015.158791 1171.078768 
L 1015.245926 1170.906429 
L 1015.5642 1170.734089 
L 1016.08553 1170.228559 
L 1016.185917 1170.171112 
L 1016.608563 1169.883879 
L 1019.080971 1169.765731 
L 1019.080971 1169.753157 
L 1019.727526 1169.639988 
L 1020.008695 1168.784937 
L 1020.305639 1168.118499 
L 1020.56083 1167.577805 
L 1020.990597 1166.043741 
L 1021.647698 1165.917998 
L 1021.650134 1165.866352 
L 1021.891668 1165.750148 
L 1022.223967 1163.955437 
L 1022.485774 1163.839233 
L 1022.776356 1162.922511 
L 1022.959562 1162.057434 
L 1023.432976 1161.94123 
L 1023.459851 1161.834866 
L 1023.942051 1161.714714 
L 1024.138651 1160.833593 
L 1024.422655 1159.965824 
L 1024.561916 1159.485213 
L 1024.769141 1158.537341 
L 1025.043853 1158.417188 
L 1025.119336 1157.869826 
L 1025.355174 1157.759223 
L 1025.410649 1157.583821 
L 1026.051457 1157.466887 
L 1026.324146 1156.867596 
L 1026.589008 1156.370624 
L 1027.270604 1156.253689 
L 1027.769046 1155.405912 
L 1028.338451 1154.821238 
L 1028.445417 1154.572752 
L 1028.60459 1154.236565 
L 1028.767067 1153.812676 
L 1029.056036 1153.374171 
L 1030.690993 1153.256395 
L 1030.699251 1153.211283 
L 1031.05744 1153.090985 
L 1032.32735 1148.820378 
L 1033.047139 1148.70008 
L 1033.099853 1148.53227 
L 1033.864897 1148.409229 
L 1033.96625 1148.224669 
L 1034.101416 1147.855548 
L 1034.265507 1147.086545 
L 1034.369085 1146.748184 
L 1034.776949 1145.979181 
L 1034.921827 1145.410119 
L 1035.340031 1145.287079 
L 1035.697642 1143.979774 
L 1035.697642 1143.964394 
L 1037.105828 1143.807122 
L 1037.215447 1143.710676 
L 1039.15619 1143.598155 
L 1039.24978 1143.501709 
L 1039.732853 1143.0677 
L 1040.202073 1142.167534 
L 1040.320676 1141.990716 
L 1041.299482 1141.299517 
L 1042.598754 1139.450961 
L 1042.751322 1139.097325 
L 1042.807456 1139.000878 
L 1043.793696 1138.886599 
L 1043.801572 1138.835737 
L 1044.805121 1138.71706 
L 1045.682923 1137.242077 
L 1046.766112 1137.1234 
L 1047.166628 1136.54697 
L 1047.889543 1135.953585 
L 1048.519726 1135.512786 
L 1048.710806 1135.207617 
L 1049.088991 1134.749863 
L 1049.272247 1134.42774 
L 1049.687974 1133.817402 
L 1051.757898 1133.698726 
L 1051.790811 1133.60812 
L 1052.559436 1133.479231 
L 1053.236179 1131.969379 
L 1054.128243 1130.551591 
L 1054.622471 1129.980793 
L 1054.643315 1129.833491 
L 1055.46852 1129.704601 
L 1056.24505 1128.176336 
L 1057.851049 1128.047446 
L 1057.929266 1127.763814 
L 1057.957213 1127.668649 
L 1058.451903 1127.554452 
L 1058.590949 1126.964434 
L 1059.112836 1126.850237 
L 1059.985987 1124.528229 
L 1060.173035 1124.052408 
L 1060.281736 1123.728849 
L 1060.717519 1122.320418 
L 1061.744439 1122.206221 
L 1061.780302 1121.937239 
L 1062.388738 1121.821361 
L 1062.881953 1120.218373 
L 1063.502916 1120.102495 
L 1063.814717 1119.233405 
L 1064.178098 1118.789204 
L 1064.547234 1118.229124 
L 1065.361761 1116.220561 
L 1065.361781 1116.201248 
L 1066.558222 1116.084272 
L 1066.560924 1116.025235 
L 1066.828127 1115.907162 
L 1066.996791 1114.667389 
L 1067.274995 1114.549315 
L 1067.651826 1112.679816 
L 1067.807031 1112.010733 
L 1068.101137 1110.160913 
L 1068.635874 1110.04155 
L 1068.649076 1109.999616 
L 1069.862533 1109.873811 
L 1069.968152 1109.601235 
L 1070.19444 1109.16092 
L 1070.533377 1107.923844 
L 1070.649344 1107.588365 
L 1071.360223 1106.519028 
L 1071.630318 1105.7013 
L 1072.292673 1105.575496 
L 1072.794807 1104.212615 
L 1072.883518 1103.7723 
L 1073.48115 1103.646495 
L 1073.593155 1103.444327 
L 1073.595132 1103.397905 
L 1073.799244 1103.281849 
L 1073.910909 1101.378542 
L 1074.190998 1096.504217 
L 1074.308574 1096.364881 
L 1074.33997 1096.08593 
L 1075.246956 1095.969701 
L 1075.461786 1095.202586 
L 1075.88079 1093.505636 
L 1076.291657 1092.5758 
L 1076.636586 1090.995079 
L 1076.933488 1089.391113 
L 1077.827226 1089.251637 
L 1077.898022 1089.041349 
L 1078.907345 1088.924447 
L 1079.017345 1088.643883 
L 1079.181255 1088.106135 
L 1079.450501 1086.913738 
L 1079.965233 1086.796837 
L 1080.081394 1086.422752 
L 1080.569319 1085.417397 
L 1080.991717 1083.734013 
L 1081.334 1082.144151 
L 1081.834951 1082.027249 
L 1081.853512 1081.816955 
L 1082.303098 1081.683445 
L 1082.731319 1079.387071 
L 1083.203832 1079.253561 
L 1083.53069 1077.731546 
L 1084.010444 1076.423147 
L 1084.122219 1075.862404 
L 1084.435708 1074.340389 
L 1084.504567 1073.966561 
L 1084.508581 1073.913157 
L 1085.430679 1073.779647 
L 1085.437465 1073.613853 
L 1086.156152 1073.474761 
L 1086.6433 1071.63875 
L 1086.824596 1071.054564 
L 1087.58988 1070.915473 
L 1087.938338 1069.747102 
L 1088.350182 1068.996006 
L 1088.885047 1068.161456 
L 1089.049644 1067.660725 
L 1089.310561 1066.90963 
L 1089.51161 1066.186353 
L 1089.754712 1065.323984 
L 1091.226409 1065.184892 
L 1091.22706 1065.127745 
L 1092.032293 1064.951774 
L 1092.415666 1061.520342 
L 1092.658171 1060.405859 
L 1093.068407 1056.358529 
L 1093.323485 1056.241215 
L 1093.333912 1056.062855 
L 1093.947394 1055.935986 
L 1093.947394 1055.904268 
L 1095.081304 1055.777399 
L 1095.183574 1055.301639 
L 1095.372218 1054.730726 
L 1095.963452 1051.971317 
L 1096.391702 1050.956361 
L 1097.285437 1046.547649 
L 1097.837685 1046.42078 
L 1097.849075 1046.229106 
L 1098.693934 1046.099498 
L 1098.803324 1045.451456 
L 1099.005542 1044.414589 
L 1099.129155 1043.410124 
L 1099.651332 1041.303987 
L 1100.08942 1041.174379 
L 1100.767326 1036.540878 
L 1101.189537 1036.41127 
L 1101.198236 1036.181557 
L 1101.499833 1036.048085 
L 1102.088595 1030.70918 
L 1102.32197 1029.441191 
L 1102.628301 1029.307718 
L 1102.819879 1027.272261 
L 1102.949076 1026.337953 
L 1103.55801 1026.20448 
L 1103.622853 1025.790658 
L 1104.489495 1025.646461 
L 1104.59658 1025.069676 
L 1104.737202 1024.384744 
L 1104.94017 1022.510192 
L 1105.388447 1022.365996 
L 1105.500469 1021.572917 
L 1105.880867 1020.203052 
L 1106.578132 1015.120133 
L 1107.006283 1014.975937 
L 1107.04372 1014.649888 
L 1107.588075 1014.504405 
L 1107.699036 1013.376917 
L 1107.786634 1012.103946 
L 1108.082907 1011.958463 
L 1108.785143 1005.920944 
L 1108.924233 1003.811449 
L 1109.192999 1003.665967 
L 1109.201546 1003.51451 
L 1109.786284 1003.396436 
L 1109.903492 1002.136984 
L 1110.128722 999.185144 
L 1110.276656 998.397987 
L 1110.57356 996.430093 
L 1110.653574 995.36743 
L 1110.949965 995.249357 
L 1111.226929 991.707148 
L 1111.520056 991.589075 
L 1111.527706 991.191885 
L 1111.927764 991.072006 
L 1112.197001 988.434665 
L 1112.606918 988.314786 
L 1113.220693 984.278856 
L 1113.394734 983.199944 
L 1113.506022 982.44071 
L 1113.872841 979.363812 
L 1114.674448 979.243933 
L 1114.740005 978.884023 
L 1116.069149 978.763979 
L 1116.167257 978.163764 
L 1116.335134 977.403491 
L 1116.589535 975.922959 
L 1116.795117 975.282729 
L 1117.475166 975.162685 
L 1117.571868 974.442427 
L 1118.309242 972.761823 
L 1118.631732 971.36132 
L 1118.884365 969.760745 
L 1119.267522 967.439911 
L 1119.318429 967.039767 
L 1119.978004 966.919724 
L 1119.991197 966.719652 
L 1121.376781 966.587902 
L 1121.400711 966.500068 
L 1124.040357 966.368318 
L 1124.124168 965.841318 
L 1124.560087 965.006901 
L 1124.89972 963.733317 
L 1125.109666 963.1624 
L 1125.418728 962.503649 
L 1125.753097 961.449648 
L 1126.644397 960.395648 
L 1127.265733 959.341647 
L 1127.606283 958.37548 
L 1129.190487 953.500726 
L 1130.499818 953.368976 
L 1130.501589 953.10492 
L 1131.553926 952.9715 
L 1131.659795 952.170984 
L 1131.856313 951.237048 
L 1132.473505 947.367887 
L 1132.890648 945.544488 
L 1133.101924 943.898983 
L 1133.642503 943.765563 
L 1134.160783 939.58509 
L 1134.161929 939.45167 
L 1134.70187 939.316206 
L 1134.828626 939.134222 
L 1138.794844 938.997735 
L 1138.890506 938.451785 
L 1139.616816 937.450877 
L 1140.671073 935.267077 
L 1140.955998 934.766623 
L 1141.07269 934.357161 
L 1141.244904 933.993194 
L 1142.936714 932.628319 
L 1143.412217 932.08237 
L 1144.332266 930.353528 
L 1144.540653 929.807578 
L 1146.590723 929.671091 
L 1146.979456 929.034149 
L 1147.918974 927.305308 
L 1148.15516 926.85035 
L 1148.367793 926.076921 
L 1148.537804 925.439979 
L 1148.539261 925.394484 
L 1150.472144 925.255798 
L 1150.475415 925.116013 
L 1150.829691 924.976229 
L 1151.487256 917.660836 
L 1151.808305 915.610662 
L 1152.170389 915.470877 
L 1152.549629 911.27734 
L 1153.258306 911.137555 
L 1153.286417 910.849299 
L 1153.596176 910.696484 
L 1153.596176 910.645546 
L 1154.193221 910.492731 
L 1154.30014 909.168336 
L 1154.417108 907.436434 
L 1154.623181 904.838581 
L 1155.025651 901.374777 
L 1155.331149 896.331886 
L 1155.360391 895.61875 
L 1155.657769 895.465935 
L 1155.660372 895.211244 
L 1156.037421 895.053179 
L 1156.051593 894.895114 
L 1156.770913 894.737049 
L 1156.877103 893.683281 
L 1157.005247 892.313383 
L 1157.271564 888.625196 
L 1157.589163 886.728414 
L 1158.123665 879.931612 
L 1158.1596 879.35204 
L 1158.512336 879.193974 
L 1158.523162 878.930533 
L 1162.031541 878.763875 
L 1162.031541 878.708323 
L 1168.533301 878.541666 
L 1168.628934 877.930589 
L 1170.233655 876.708436 
L 1171.407018 874.541891 
L 1171.584483 874.319681 
L 1172.382775 872.764213 
L 1172.596799 872.430899 
L 1175.467423 870.542116 
L 1175.889401 870.15325 
L 1177.084785 868.375572 
L 1178.510912 866.431237 
L 1179.205624 865.486846 
L 1180.538396 863.709168 
L 1180.725356 862.986987 
L 1181.008394 862.431463 
L 1181.097552 862.264805 
L 1181.139228 862.209253 
L 1184.301044 862.042596 
L 1184.348865 861.447051 
L 1184.88663 861.319938 
L 1185.424121 855.726966 
L 1185.990477 855.599853 
L 1186.417962 851.659351 
L 1186.974127 848.926422 
L 1187.09438 847.464622 
L 1187.182327 846.384162 
L 1187.346674 844.477467 
L 1187.601668 842.507216 
L 1188.700156 842.380103 
L 1188.745129 841.530377 
L 1189.223475 841.398044 
L 1189.683707 835.64155 
L 1190.195478 835.509217 
L 1190.686296 831.076055 
L 1191.068429 828.561724 
L 1191.194248 827.370726 
L 1191.685442 822.011231 
L 1192.67556 821.878898 
L 1192.702652 821.182347 
L 1193.094264 821.040047 
L 1193.963708 809.08682 
L 1194.188195 807.308066 
L 1194.316927 805.244711 
L 1194.362434 804.177459 
L 1194.437586 802.541005 
L 1194.827807 802.398704 
L 1194.9409 801.402602 
L 1195.005875 800.193049 
L 1195.787106 800.050749 
L 1195.954143 799.40532 
L 1196.049612 799.188062 
L 1200.526626 799.043223 
L 1200.550195 798.608706 
L 1200.648718 798.246609 
L 1201.567639 796.653381 
L 1202.371141 793.829021 
L 1202.993912 791.801276 
L 1203.160693 791.221921 
L 1203.490292 790.859823 
L 1204.662728 789.556273 
L 1205.484246 788.469981 
L 1207.778262 788.325142 
L 1209.129669 784.631749 
L 1209.535186 783.617877 
L 1210.161305 781.952229 
L 1210.83724 780.43142 
L 1211.072037 779.779645 
L 1211.245802 778.620933 
L 1211.472449 777.7519 
L 1213.686508 777.607061 
L 1213.753077 777.023735 
L 1214.60721 776.87691 
L 1214.717346 775.261844 
L 1215.589478 766.232155 
L 1215.708798 764.837325 
L 1216.205542 757.34929 
L 1216.283837 755.293751 
L 1216.706337 755.146927 
L 1216.714556 754.706454 
L 1217.146174 754.554434 
L 1217.157317 754.397219 
L 1218.267113 754.240003 
L 1219.052527 745.200105 
L 1219.632411 741.662754 
L 1220.017957 737.182109 
L 1220.080081 736.396031 
L 1220.683686 736.238816 
L 1221.072137 730.500446 
L 1221.585118 730.34323 
L 1221.585118 730.262485 
L 1222.365907 730.100993 
L 1222.725067 723.883577 
L 1222.860003 722.187918 
L 1222.99753 720.492258 
L 1223.112082 719.52331 
L 1223.522131 719.361819 
L 1223.777765 717.020194 
L 1224.269886 707.249968 
L 1224.303142 706.361766 
L 1224.686571 706.200274 
L 1224.756374 705.051495 
L 1227.359571 704.880834 
L 1227.836753 702.747569 
L 1228.025598 701.894263 
L 1228.717308 700.358313 
L 1229.601433 697.798395 
L 1229.994874 696.689098 
L 1230.551387 695.067816 
L 1231.890539 691.995915 
L 1232.685088 690.971948 
L 1233.502389 690.033312 
L 1234.566836 688.838683 
L 1234.99336 687.046741 
L 1235.933919 685.254799 
L 1236.048792 684.572154 
L 1236.194923 683.889509 
L 1237.358812 681.15893 
L 1237.66594 680.476286 
L 1237.693153 679.878971 
L 1243.024878 679.70831 
L 1243.306577 679.110996 
L 1246.528292 678.921745 
L 1246.532821 678.609982 
L 1246.999723 678.40214 
L 1247.775956 663.541454 
L 1248.105299 660.527748 
L 1248.329793 658.241489 
L 1248.447495 655.747388 
L 1248.860471 647.953321 
L 1249.820559 647.745479 
L 1249.983392 645.859085 
L 1251.299159 645.74186 
L 1251.407738 644.100706 
L 1251.614264 641.873427 
L 1251.93168 636.246615 
L 1251.991513 634.371011 
L 1252.104013 633.081533 
L 1252.391697 631.323155 
L 1252.901883 626.399694 
L 1253.344062 619.60063 
L 1253.65604 614.677169 
L 1253.682441 613.387692 
L 1254.328001 613.270466 
L 1254.453896 611.043187 
L 1255.124102 610.925962 
L 1255.226368 609.716218 
L 1256.619041 609.594307 
L 1256.717984 607.887545 
L 1256.988188 605.20549 
L 1257.56444 596.184034 
L 1258.148154 592.03904 
L 1259.150058 576.55627 
L 1259.173486 575.946712 
L 1259.859418 575.824801 
L 1259.977335 573.752304 
L 1260.684076 573.630393 
L 1260.72769 572.508426 
L 1261.358662 572.380323 
L 1261.467036 569.177767 
L 1261.575257 565.206598 
L 1261.615971 563.413166 
L 1261.934504 563.285064 
L 1262.071568 558.929588 
L 1262.23671 555.855134 
L 1262.494727 550.731044 
L 1262.882743 535.999286 
L 1262.912467 534.590161 
L 1263.224907 534.462059 
L 1263.243613 532.144765 
L 1263.668641 532.001156 
L 1263.778582 526.97486 
L 1264.051564 519.076395 
L 1264.485486 518.932786 
L 1264.596294 515.342575 
L 1264.878575 509.885453 
L 1265.162948 506.295242 
L 1265.276918 502.848639 
L 1265.80287 489.63666 
L 1266.66182 489.493052 
L 1266.742912 487.914082 
L 1268.074065 487.750061 
L 1268.173931 485.289751 
L 1268.476107 481.025214 
L 1268.830626 472.332119 
L 1268.941441 469.707788 
L 1269.57329 463.803044 
L 1269.812886 459.210466 
L 1270.016838 454.781908 
L 1270.682272 454.617887 
L 1271.31455 439.527986 
L 1271.980268 439.363965 
L 1272.002505 437.833974 
L 1272.978547 437.652018 
L 1273.086445 434.012903 
L 1273.250951 429.645965 
L 1273.510471 420.00231 
L 1273.618105 416.909062 
L 1274.092801 410.54061 
L 1274.403354 400.896955 
L 1274.90247 400.715 
L 1275.010754 397.621752 
L 1275.364969 385.612672 
L 1275.405149 382.70138 
L 1275.882075 382.519424 
L 1275.912836 380.777507 
L 1276.485593 380.580649 
L 1276.592525 374.871769 
L 1276.971487 364.044584 
L 1277.449266 351.051961 
L 1277.871229 345.933654 
L 1278.049298 341.209064 
L 1278.280734 337.271906 
L 1278.3889 334.712753 
L 1278.557539 329.397589 
L 1279.141182 329.200731 
L 1279.25886 326.44472 
L 1279.341772 323.885567 
L 1279.34772 322.704419 
L 1280.50412 322.507561 
L 1280.561948 320.460119 
L 1282.084864 320.243546 
L 1282.185141 316.561794 
L 1282.480681 311.5806 
L 1283.358056 292.955266 
L 1284.212583 280.827142 
L 1284.37496 276.062522 
L 1285.152346 275.845948 
L 1285.862443 255.921173 
L 1286.607973 255.704599 
L 1286.694723 253.084686 
L 1289.040987 252.820591 
L 1289.134643 249.12327 
L 1289.719573 239.879968 
L 1290.223201 230.636665 
L 1290.363225 227.995721 
L 1290.471962 224.562495 
L 1290.876325 221.393362 
L 1291.788565 213.206437 
L 1292.535543 199.47353 
L 1292.637514 197.096681 
L 1293.437556 180.986925 
L 1293.633498 174.648661 
L 1294.769216 174.384566 
L 1294.789454 173.064094 
L 1296 172.8 
L 1296 172.8 
" clip-path="url(#pca18ff2c99)" style="fill: none; stroke: #627313; stroke-width: 5; stroke-linecap: square"/>
   </g>
   <g id="line2d_14">
    <path d="M 181.807692 1281.6 
L 182.767486 1281.6 
L 186.963158 1281.6 
L 188.191093 1281.6 
L 190.995252 1281.6 
L 208.739615 1281.440675 
L 220.901258 1280.915961 
L 242.937709 1279.840694 
L 251.867651 1278.60284 
L 263.560615 1276.318106 
L 274.664196 1274.00577 
L 293.204124 1271.331529 
L 308.448199 1267.505852 
L 318.519493 1256.487805 
L 341.498698 1244.610641 
L 363.987996 1229.298666 
L 384.935882 1212.282238 
L 524.252792 1194.141735 
L 545.24443 1175.917056 
L 549.643031 1157.674682 
L 555.79829 1131.320713 
L 697.798756 1084.097222 
L 778.703491 1023.284084 
L 802.806472 955.728315 
L 844.914516 880.680767 
L 881.095506 797.472701 
L 892.658365 713.098024 
L 991.618072 612.042869 
L 1120.890949 484.189646 
L 1296 172.8 
" clip-path="url(#pca18ff2c99)" style="fill: none; stroke: #215caf; stroke-width: 5; stroke-linecap: square"/>
   </g>
   <g id="line2d_15">
    <path d="M 180 1281.6 
L 1296 172.8 
" clip-path="url(#pca18ff2c99)" style="fill: none; stroke-dasharray: 18.5,8; stroke-dashoffset: 0; stroke: #a9a9a9; stroke-width: 5"/>
   </g>
   <g id="patch_3">
    <path d="M 1296 1281.6 
L 1296 172.8 
" style="fill: none; stroke: #000000; stroke-width: 0.8; stroke-linejoin: miter; stroke-linecap: square"/>
   </g>
   <g id="patch_4">
    <path d="M 180 1281.6 
L 1296 1281.6 
" style="fill: none; stroke: #000000; stroke-width: 0.8; stroke-linejoin: miter; stroke-linecap: square"/>
   </g>
   <g id="text_15">
    <g id="patch_5">
     <path d="M 849.120551 938.105423 
L 936.704366 758.53199 
L 894.719449 738.054577 
L 807.135634 917.62801 
z
" style="fill: #ffffff; stroke: #ffffff; stroke-linejoin: miter"/>
    </g>
    <!-- Countries -->
    <g style="fill: #215caf" transform="translate(839.802016 929.110062) rotate(-64) scale(0.4 -0.4)">
     <defs>
      <path id="DejaVuSans-43" d="M 4122 4306 
L 4122 3641 
Q 3803 3938 3442 4084 
Q 3081 4231 2675 4231 
Q 1875 4231 1450 3742 
Q 1025 3253 1025 2328 
Q 1025 1406 1450 917 
Q 1875 428 2675 428 
Q 3081 428 3442 575 
Q 3803 722 4122 1019 
L 4122 359 
Q 3791 134 3420 21 
Q 3050 -91 2638 -91 
Q 1578 -91 968 557 
Q 359 1206 359 2328 
Q 359 3453 968 4101 
Q 1578 4750 2638 4750 
Q 3056 4750 3426 4639 
Q 3797 4528 4122 4306 
z
" transform="scale(0.015625)"/>
      <path id="DejaVuSans-6f" d="M 1959 3097 
Q 1497 3097 1228 2736 
Q 959 2375 959 1747 
Q 959 1119 1226 758 
Q 1494 397 1959 397 
Q 2419 397 2687 759 
Q 2956 1122 2956 1747 
Q 2956 2369 2687 2733 
Q 2419 3097 1959 3097 
z
M 1959 3584 
Q 2709 3584 3137 3096 
Q 3566 2609 3566 1747 
Q 3566 888 3137 398 
Q 2709 -91 1959 -91 
Q 1206 -91 779 398 
Q 353 888 353 1747 
Q 353 2609 779 3096 
Q 1206 3584 1959 3584 
z
" transform="scale(0.015625)"/>
      <path id="DejaVuSans-75" d="M 544 1381 
L 544 3500 
L 1119 3500 
L 1119 1403 
Q 1119 906 1312 657 
Q 1506 409 1894 409 
Q 2359 409 2629 706 
Q 2900 1003 2900 1516 
L 2900 3500 
L 3475 3500 
L 3475 0 
L 2900 0 
L 2900 538 
Q 2691 219 2414 64 
Q 2138 -91 1772 -91 
Q 1169 -91 856 284 
Q 544 659 544 1381 
z
M 1991 3584 
L 1991 3584 
z
" transform="scale(0.015625)"/>
      <path id="DejaVuSans-6e" d="M 3513 2113 
L 3513 0 
L 2938 0 
L 2938 2094 
Q 2938 2591 2744 2837 
Q 2550 3084 2163 3084 
Q 1697 3084 1428 2787 
Q 1159 2491 1159 1978 
L 1159 0 
L 581 0 
L 581 3500 
L 1159 3500 
L 1159 2956 
Q 1366 3272 1645 3428 
Q 1925 3584 2291 3584 
Q 2894 3584 3203 3211 
Q 3513 2838 3513 2113 
z
" transform="scale(0.015625)"/>
      <path id="DejaVuSans-74" d="M 1172 4494 
L 1172 3500 
L 2356 3500 
L 2356 3053 
L 1172 3053 
L 1172 1153 
Q 1172 725 1289 603 
Q 1406 481 1766 481 
L 2356 481 
L 2356 0 
L 1766 0 
Q 1100 0 847 248 
Q 594 497 594 1153 
L 594 3053 
L 172 3053 
L 172 3500 
L 594 3500 
L 594 4494 
L 1172 4494 
z
" transform="scale(0.015625)"/>
      <path id="DejaVuSans-72" d="M 2631 2963 
Q 2534 3019 2420 3045 
Q 2306 3072 2169 3072 
Q 1681 3072 1420 2755 
Q 1159 2438 1159 1844 
L 1159 0 
L 581 0 
L 581 3500 
L 1159 3500 
L 1159 2956 
Q 1341 3275 1631 3429 
Q 1922 3584 2338 3584 
Q 2397 3584 2469 3576 
Q 2541 3569 2628 3553 
L 2631 2963 
z
" transform="scale(0.015625)"/>
      <path id="DejaVuSans-69" d="M 603 3500 
L 1178 3500 
L 1178 0 
L 603 0 
L 603 3500 
z
M 603 4863 
L 1178 4863 
L 1178 4134 
L 603 4134 
L 603 4863 
z
" transform="scale(0.015625)"/>
      <path id="DejaVuSans-65" d="M 3597 1894 
L 3597 1613 
L 953 1613 
Q 991 1019 1311 708 
Q 1631 397 2203 397 
Q 2534 397 2845 478 
Q 3156 559 3463 722 
L 3463 178 
Q 3153 47 2828 -22 
Q 2503 -91 2169 -91 
Q 1331 -91 842 396 
Q 353 884 353 1716 
Q 353 2575 817 3079 
Q 1281 3584 2069 3584 
Q 2775 3584 3186 3129 
Q 3597 2675 3597 1894 
z
M 3022 2063 
Q 3016 2534 2758 2815 
Q 2500 3097 2075 3097 
Q 1594 3097 1305 2825 
Q 1016 2553 972 2059 
L 3022 2063 
z
" transform="scale(0.015625)"/>
      <path id="DejaVuSans-73" d="M 2834 3397 
L 2834 2853 
Q 2591 2978 2328 3040 
Q 2066 3103 1784 3103 
Q 1356 3103 1142 2972 
Q 928 2841 928 2578 
Q 928 2378 1081 2264 
Q 1234 2150 1697 2047 
L 1894 2003 
Q 2506 1872 2764 1633 
Q 3022 1394 3022 966 
Q 3022 478 2636 193 
Q 2250 -91 1575 -91 
Q 1294 -91 989 -36 
Q 684 19 347 128 
L 347 722 
Q 666 556 975 473 
Q 1284 391 1588 391 
Q 1994 391 2212 530 
Q 2431 669 2431 922 
Q 2431 1156 2273 1281 
Q 2116 1406 1581 1522 
L 1381 1569 
Q 847 1681 609 1914 
Q 372 2147 372 2553 
Q 372 3047 722 3315 
Q 1072 3584 1716 3584 
Q 2034 3584 2315 3537 
Q 2597 3491 2834 3397 
z
" transform="scale(0.015625)"/>
     </defs>
     <use xlink:href="#DejaVuSans-43"/>
     <use xlink:href="#DejaVuSans-6f" x="69.824219"/>
     <use xlink:href="#DejaVuSans-75" x="131.005859"/>
     <use xlink:href="#DejaVuSans-6e" x="194.384766"/>
     <use xlink:href="#DejaVuSans-74" x="257.763672"/>
     <use xlink:href="#DejaVuSans-72" x="296.972656"/>
     <use xlink:href="#DejaVuSans-69" x="338.085938"/>
     <use xlink:href="#DejaVuSans-65" x="365.869141"/>
     <use xlink:href="#DejaVuSans-73" x="427.392578"/>
    </g>
   </g>
   <g id="text_16">
    <g id="patch_6">
     <path d="M 1152.027541 924.188219 
L 1194.933269 764.061865 
L 1149.812459 751.971781 
L 1106.906731 912.098135 
z
" style="fill: #ffffff; stroke: #ffffff; stroke-linejoin: miter"/>
    </g>
    <!-- Regions -->
    <g style="fill: #627313" transform="translate(1141.163819 917.136189) rotate(-75) scale(0.4 -0.4)">
     <defs>
      <path id="DejaVuSans-52" d="M 2841 2188 
Q 3044 2119 3236 1894 
Q 3428 1669 3622 1275 
L 4263 0 
L 3584 0 
L 2988 1197 
Q 2756 1666 2539 1819 
Q 2322 1972 1947 1972 
L 1259 1972 
L 1259 0 
L 628 0 
L 628 4666 
L 2053 4666 
Q 2853 4666 3247 4331 
Q 3641 3997 3641 3322 
Q 3641 2881 3436 2590 
Q 3231 2300 2841 2188 
z
M 1259 4147 
L 1259 2491 
L 2053 2491 
Q 2509 2491 2742 2702 
Q 2975 2913 2975 3322 
Q 2975 3731 2742 3939 
Q 2509 4147 2053 4147 
L 1259 4147 
z
" transform="scale(0.015625)"/>
      <path id="DejaVuSans-67" d="M 2906 1791 
Q 2906 2416 2648 2759 
Q 2391 3103 1925 3103 
Q 1463 3103 1205 2759 
Q 947 2416 947 1791 
Q 947 1169 1205 825 
Q 1463 481 1925 481 
Q 2391 481 2648 825 
Q 2906 1169 2906 1791 
z
M 3481 434 
Q 3481 -459 3084 -895 
Q 2688 -1331 1869 -1331 
Q 1566 -1331 1297 -1286 
Q 1028 -1241 775 -1147 
L 775 -588 
Q 1028 -725 1275 -790 
Q 1522 -856 1778 -856 
Q 2344 -856 2625 -561 
Q 2906 -266 2906 331 
L 2906 616 
Q 2728 306 2450 153 
Q 2172 0 1784 0 
Q 1141 0 747 490 
Q 353 981 353 1791 
Q 353 2603 747 3093 
Q 1141 3584 1784 3584 
Q 2172 3584 2450 3431 
Q 2728 3278 2906 2969 
L 2906 3500 
L 3481 3500 
L 3481 434 
z
" transform="scale(0.015625)"/>
     </defs>
     <use xlink:href="#DejaVuSans-52"/>
     <use xlink:href="#DejaVuSans-65" x="64.982422"/>
     <use xlink:href="#DejaVuSans-67" x="126.505859"/>
     <use xlink:href="#DejaVuSans-69" x="189.982422"/>
     <use xlink:href="#DejaVuSans-6f" x="217.765625"/>
     <use xlink:href="#DejaVuSans-6e" x="278.947266"/>
     <use xlink:href="#DejaVuSans-73" x="342.326172"/>
    </g>
   </g>
  </g>
 </g>
 <defs>
  <clipPath id="pca18ff2c99">
   <rect x="180" y="172.8" width="1116" height="1108.8"/>
  </clipPath>
 </defs>
</svg>
