<?xml version="1.0" encoding="utf-8" standalone="no"?>
<!DOCTYPE svg PUBLIC "-//W3C//DTD SVG 1.1//EN"
  "http://www.w3.org/Graphics/SVG/1.1/DTD/svg11.dtd">
<svg xmlns:xlink="http://www.w3.org/1999/xlink" width="460.8pt" height="345.6pt" viewBox="0 0 460.8 345.6" xmlns="http://www.w3.org/2000/svg" version="1.1">
 <metadata>
  <rdf:RDF xmlns:dc="http://purl.org/dc/elements/1.1/" xmlns:cc="http://creativecommons.org/ns#" xmlns:rdf="http://www.w3.org/1999/02/22-rdf-syntax-ns#">
   <cc:Work>
    <dc:type rdf:resource="http://purl.org/dc/dcmitype/StillImage"/>
    <dc:date>2023-08-28T09:49:20.588744</dc:date>
    <dc:format>image/svg+xml</dc:format>
    <dc:creator>
     <cc:Agent>
      <dc:title>Matplotlib v3.7.1, https://matplotlib.org/</dc:title>
     </cc:Agent>
    </dc:creator>
   </cc:Work>
  </rdf:RDF>
 </metadata>
 <defs>
  <style type="text/css">*{stroke-linejoin: round; stroke-linecap: butt}</style>
 </defs>
 <g id="figure_1">
  <g id="patch_1">
   <path d="M 0 345.6 
L 460.8 345.6 
L 460.8 0 
L 0 0 
L 0 345.6 
z
" style="fill: none"/>
  </g>
  <g id="axes_1">
   <g id="patch_2">
    <path d="M 57.6 307.584 
L 414.72 307.584 
L 414.72 41.472 
L 57.6 41.472 
L 57.6 307.584 
z
" style="fill: none"/>
   </g>
   <g id="PolyCollection_1">
    <defs>
     <path id="m7adc2720f0" d="M 57.6 -44.37368 
L 57.6 -44.37368 
L 83.108571 -45.523516 
L 108.617143 -45.24156 
L 134.125714 -66.760466 
L 159.634286 -66.234143 
L 185.142857 -79.166939 
L 210.651429 -78.681488 
L 236.16 -128.527686 
L 261.668571 -128.961245 
L 287.177143 -128.478418 
L 312.685714 -128.009943 
L 338.194286 -127.676793 
L 363.702857 -127.199638 
L 389.211429 -126.713815 
L 414.72 -109.371066 
L 414.72 -109.371066 
L 414.72 -297.951217 
L 389.211429 -302.990922 
L 363.702857 -282.720963 
L 338.194286 -281.800495 
L 312.685714 -270.585704 
L 287.177143 -266.572665 
L 261.668571 -191.660472 
L 236.16 -170.121198 
L 210.651429 -136.662694 
L 185.142857 -137.12076 
L 159.634286 -117.84289 
L 134.125714 -56.79141 
L 108.617143 -51.839518 
L 83.108571 -51.80394 
L 57.6 -49.983257 
z
" style="stroke: #a30774; stroke-opacity: 0.2"/>
    </defs>
    <g clip-path="url(#pe98b5fc102)">
     <use xlink:href="#m7adc2720f0" x="0" y="345.6" style="fill: #a30774; fill-opacity: 0.2; stroke: #a30774; stroke-opacity: 0.2"/>
    </g>
   </g>
   <g id="PolyCollection_2">
    <defs>
     <path id="m5b320315cc" d="M 57.6 -44.37368 
L 57.6 -44.37368 
L 83.108571 -45.523516 
L 108.617143 -45.24156 
L 134.125714 -66.760466 
L 159.634286 -66.234143 
L 185.142857 -79.166939 
L 210.651429 -78.681488 
L 236.16 -128.527686 
L 261.668571 -128.961245 
L 287.177143 -128.478418 
L 307.972963 -128.096494 
L 287.177143 -105.250679 
L 261.668571 -105.628129 
L 236.16 -55.113898 
L 210.651429 -48.29776 
L 185.142857 -48.725709 
L 159.634286 -49.153646 
L 134.125714 -49.628854 
L 108.617143 -44.266711 
L 83.108571 -44.371034 
L 57.6 -43.599989 
z
" style="stroke: #a30774; stroke-opacity: 0.2"/>
    </defs>
    <g clip-path="url(#pe98b5fc102)">
     <use xlink:href="#m5b320315cc" x="0" y="345.6" style="fill: #a30774; fill-opacity: 0.2; stroke: #a30774; stroke-opacity: 0.2"/>
    </g>
   </g>
   <g id="PolyCollection_3"/>
   <g id="PolyCollection_4">
    <defs>
     <path id="mb0bc596d2f" d="M 57.6 -45.78164 
L 57.6 -45.78164 
L 83.108571 -46.986118 
L 108.617143 -47.120434 
L 134.125714 -51.560729 
L 159.634286 -50.914245 
L 185.142857 -50.570171 
L 210.651429 -55.009763 
L 236.16 -54.665703 
L 261.668571 -67.375972 
L 287.177143 -73.293662 
L 312.685714 -80.619196 
L 338.194286 -87.069397 
L 363.702857 -86.747103 
L 389.211429 -88.034833 
L 402.058203 -90.974581 
L 389.211429 -83.703947 
L 363.702857 -83.162828 
L 338.194286 -39.775716 
L 312.685714 -39.865958 
L 287.177143 -39.956231 
L 261.668571 -40.019046 
L 236.16 -40.122555 
L 210.651429 -40.205717 
L 185.142857 -40.28888 
L 159.634286 -40.372042 
L 134.125714 -40.570083 
L 108.617143 -40.719647 
L 83.108571 -40.353404 
L 57.6 -40.392665 
z
" style="stroke: #a30774; stroke-opacity: 0.2"/>
    </defs>
    <g clip-path="url(#pe98b5fc102)">
     <use xlink:href="#mb0bc596d2f" x="0" y="345.6" style="fill: #a30774; fill-opacity: 0.2; stroke: #a30774; stroke-opacity: 0.2"/>
    </g>
   </g>
   <g id="PolyCollection_5">
    <path d="M 57.6 299.81836 
L 57.6 299.81836 
L 83.108571 298.613882 
L 108.617143 298.479566 
L 119.347931 296.61165 
L 108.617143 296.379896 
L 83.108571 296.044854 
L 57.6 297.60777 
z
" clip-path="url(#pe98b5fc102)" style="fill: #a30774; fill-opacity: 0.2; stroke: #a30774; stroke-opacity: 0.2"/>
    <path d="M 333.578511 259.697767 
L 338.194286 258.530603 
L 363.702857 258.852897 
L 389.211429 257.565167 
L 414.72 251.728 
L 414.72 251.728 
L 414.72 166.783859 
L 389.211429 166.227572 
L 363.702857 194.583967 
L 338.194286 253.476734 
z
" clip-path="url(#pe98b5fc102)" style="fill: #a30774; fill-opacity: 0.2; stroke: #a30774; stroke-opacity: 0.2"/>
   </g>
   <g id="matplotlib.axis_1">
    <g id="xtick_1">
     <g id="line2d_1">
      <defs>
       <path id="m9992f5bc15" d="M 0 0 
L 0 3.5 
" style="stroke: #000000; stroke-width: 0.8"/>
      </defs>
      <g>
       <use xlink:href="#m9992f5bc15" x="95.862857" y="307.584" style="stroke: #000000; stroke-width: 0.8"/>
      </g>
     </g>
     <g id="text_1">
      <!-- 2025 -->
      <g transform="translate(83.137857 322.182437) scale(0.1 -0.1)">
       <defs>
        <path id="DejaVuSans-32" d="M 1228 531 
L 3431 531 
L 3431 0 
L 469 0 
L 469 531 
Q 828 903 1448 1529 
Q 2069 2156 2228 2338 
Q 2531 2678 2651 2914 
Q 2772 3150 2772 3378 
Q 2772 3750 2511 3984 
Q 2250 4219 1831 4219 
Q 1534 4219 1204 4116 
Q 875 4013 500 3803 
L 500 4441 
Q 881 4594 1212 4672 
Q 1544 4750 1819 4750 
Q 2544 4750 2975 4387 
Q 3406 4025 3406 3419 
Q 3406 3131 3298 2873 
Q 3191 2616 2906 2266 
Q 2828 2175 2409 1742 
Q 1991 1309 1228 531 
z
" transform="scale(0.015625)"/>
        <path id="DejaVuSans-30" d="M 2034 4250 
Q 1547 4250 1301 3770 
Q 1056 3291 1056 2328 
Q 1056 1369 1301 889 
Q 1547 409 2034 409 
Q 2525 409 2770 889 
Q 3016 1369 3016 2328 
Q 3016 3291 2770 3770 
Q 2525 4250 2034 4250 
z
M 2034 4750 
Q 2819 4750 3233 4129 
Q 3647 3509 3647 2328 
Q 3647 1150 3233 529 
Q 2819 -91 2034 -91 
Q 1250 -91 836 529 
Q 422 1150 422 2328 
Q 422 3509 836 4129 
Q 1250 4750 2034 4750 
z
" transform="scale(0.015625)"/>
        <path id="DejaVuSans-35" d="M 691 4666 
L 3169 4666 
L 3169 4134 
L 1269 4134 
L 1269 2991 
Q 1406 3038 1543 3061 
Q 1681 3084 1819 3084 
Q 2600 3084 3056 2656 
Q 3513 2228 3513 1497 
Q 3513 744 3044 326 
Q 2575 -91 1722 -91 
Q 1428 -91 1123 -41 
Q 819 9 494 109 
L 494 744 
Q 775 591 1075 516 
Q 1375 441 1709 441 
Q 2250 441 2565 725 
Q 2881 1009 2881 1497 
Q 2881 1984 2565 2268 
Q 2250 2553 1709 2553 
Q 1456 2553 1204 2497 
Q 953 2441 691 2322 
L 691 4666 
z
" transform="scale(0.015625)"/>
       </defs>
       <use xlink:href="#DejaVuSans-32"/>
       <use xlink:href="#DejaVuSans-30" x="63.623047"/>
       <use xlink:href="#DejaVuSans-32" x="127.246094"/>
       <use xlink:href="#DejaVuSans-35" x="190.869141"/>
      </g>
     </g>
    </g>
    <g id="xtick_2">
     <g id="line2d_2">
      <g>
       <use xlink:href="#m9992f5bc15" x="159.634286" y="307.584" style="stroke: #000000; stroke-width: 0.8"/>
      </g>
     </g>
     <g id="text_2">
      <!-- 2030 -->
      <g transform="translate(146.909286 322.182437) scale(0.1 -0.1)">
       <defs>
        <path id="DejaVuSans-33" d="M 2597 2516 
Q 3050 2419 3304 2112 
Q 3559 1806 3559 1356 
Q 3559 666 3084 287 
Q 2609 -91 1734 -91 
Q 1441 -91 1130 -33 
Q 819 25 488 141 
L 488 750 
Q 750 597 1062 519 
Q 1375 441 1716 441 
Q 2309 441 2620 675 
Q 2931 909 2931 1356 
Q 2931 1769 2642 2001 
Q 2353 2234 1838 2234 
L 1294 2234 
L 1294 2753 
L 1863 2753 
Q 2328 2753 2575 2939 
Q 2822 3125 2822 3475 
Q 2822 3834 2567 4026 
Q 2313 4219 1838 4219 
Q 1578 4219 1281 4162 
Q 984 4106 628 3988 
L 628 4550 
Q 988 4650 1302 4700 
Q 1616 4750 1894 4750 
Q 2613 4750 3031 4423 
Q 3450 4097 3450 3541 
Q 3450 3153 3228 2886 
Q 3006 2619 2597 2516 
z
" transform="scale(0.015625)"/>
       </defs>
       <use xlink:href="#DejaVuSans-32"/>
       <use xlink:href="#DejaVuSans-30" x="63.623047"/>
       <use xlink:href="#DejaVuSans-33" x="127.246094"/>
       <use xlink:href="#DejaVuSans-30" x="190.869141"/>
      </g>
     </g>
    </g>
    <g id="xtick_3">
     <g id="line2d_3">
      <g>
       <use xlink:href="#m9992f5bc15" x="223.405714" y="307.584" style="stroke: #000000; stroke-width: 0.8"/>
      </g>
     </g>
     <g id="text_3">
      <!-- 2035 -->
      <g transform="translate(210.680714 322.182437) scale(0.1 -0.1)">
       <use xlink:href="#DejaVuSans-32"/>
       <use xlink:href="#DejaVuSans-30" x="63.623047"/>
       <use xlink:href="#DejaVuSans-33" x="127.246094"/>
       <use xlink:href="#DejaVuSans-35" x="190.869141"/>
      </g>
     </g>
    </g>
    <g id="xtick_4">
     <g id="line2d_4">
      <g>
       <use xlink:href="#m9992f5bc15" x="287.177143" y="307.584" style="stroke: #000000; stroke-width: 0.8"/>
      </g>
     </g>
     <g id="text_4">
      <!-- 2040 -->
      <g transform="translate(274.452143 322.182437) scale(0.1 -0.1)">
       <defs>
        <path id="DejaVuSans-34" d="M 2419 4116 
L 825 1625 
L 2419 1625 
L 2419 4116 
z
M 2253 4666 
L 3047 4666 
L 3047 1625 
L 3713 1625 
L 3713 1100 
L 3047 1100 
L 3047 0 
L 2419 0 
L 2419 1100 
L 313 1100 
L 313 1709 
L 2253 4666 
z
" transform="scale(0.015625)"/>
       </defs>
       <use xlink:href="#DejaVuSans-32"/>
       <use xlink:href="#DejaVuSans-30" x="63.623047"/>
       <use xlink:href="#DejaVuSans-34" x="127.246094"/>
       <use xlink:href="#DejaVuSans-30" x="190.869141"/>
      </g>
     </g>
    </g>
    <g id="xtick_5">
     <g id="line2d_5">
      <g>
       <use xlink:href="#m9992f5bc15" x="350.948571" y="307.584" style="stroke: #000000; stroke-width: 0.8"/>
      </g>
     </g>
     <g id="text_5">
      <!-- 2045 -->
      <g transform="translate(338.223571 322.182437) scale(0.1 -0.1)">
       <use xlink:href="#DejaVuSans-32"/>
       <use xlink:href="#DejaVuSans-30" x="63.623047"/>
       <use xlink:href="#DejaVuSans-34" x="127.246094"/>
       <use xlink:href="#DejaVuSans-35" x="190.869141"/>
      </g>
     </g>
    </g>
    <g id="xtick_6">
     <g id="line2d_6">
      <g>
       <use xlink:href="#m9992f5bc15" x="414.72" y="307.584" style="stroke: #000000; stroke-width: 0.8"/>
      </g>
     </g>
     <g id="text_6">
      <!-- 2050 -->
      <g transform="translate(401.995 322.182437) scale(0.1 -0.1)">
       <use xlink:href="#DejaVuSans-32"/>
       <use xlink:href="#DejaVuSans-30" x="63.623047"/>
       <use xlink:href="#DejaVuSans-35" x="127.246094"/>
       <use xlink:href="#DejaVuSans-30" x="190.869141"/>
      </g>
     </g>
    </g>
    <g id="text_7">
     <!-- Time -->
     <g transform="translate(223.926406 335.860562) scale(0.1 -0.1)">
      <defs>
       <path id="DejaVuSans-54" d="M -19 4666 
L 3928 4666 
L 3928 4134 
L 2272 4134 
L 2272 0 
L 1638 0 
L 1638 4134 
L -19 4134 
L -19 4666 
z
" transform="scale(0.015625)"/>
       <path id="DejaVuSans-69" d="M 603 3500 
L 1178 3500 
L 1178 0 
L 603 0 
L 603 3500 
z
M 603 4863 
L 1178 4863 
L 1178 4134 
L 603 4134 
L 603 4863 
z
" transform="scale(0.015625)"/>
       <path id="DejaVuSans-6d" d="M 3328 2828 
Q 3544 3216 3844 3400 
Q 4144 3584 4550 3584 
Q 5097 3584 5394 3201 
Q 5691 2819 5691 2113 
L 5691 0 
L 5113 0 
L 5113 2094 
Q 5113 2597 4934 2840 
Q 4756 3084 4391 3084 
Q 3944 3084 3684 2787 
Q 3425 2491 3425 1978 
L 3425 0 
L 2847 0 
L 2847 2094 
Q 2847 2600 2669 2842 
Q 2491 3084 2119 3084 
Q 1678 3084 1418 2786 
Q 1159 2488 1159 1978 
L 1159 0 
L 581 0 
L 581 3500 
L 1159 3500 
L 1159 2956 
Q 1356 3278 1631 3431 
Q 1906 3584 2284 3584 
Q 2666 3584 2933 3390 
Q 3200 3197 3328 2828 
z
" transform="scale(0.015625)"/>
       <path id="DejaVuSans-65" d="M 3597 1894 
L 3597 1613 
L 953 1613 
Q 991 1019 1311 708 
Q 1631 397 2203 397 
Q 2534 397 2845 478 
Q 3156 559 3463 722 
L 3463 178 
Q 3153 47 2828 -22 
Q 2503 -91 2169 -91 
Q 1331 -91 842 396 
Q 353 884 353 1716 
Q 353 2575 817 3079 
Q 1281 3584 2069 3584 
Q 2775 3584 3186 3129 
Q 3597 2675 3597 1894 
z
M 3022 2063 
Q 3016 2534 2758 2815 
Q 2500 3097 2075 3097 
Q 1594 3097 1305 2825 
Q 1016 2553 972 2059 
L 3022 2063 
z
" transform="scale(0.015625)"/>
      </defs>
      <use xlink:href="#DejaVuSans-54"/>
      <use xlink:href="#DejaVuSans-69" x="57.958984"/>
      <use xlink:href="#DejaVuSans-6d" x="85.742188"/>
      <use xlink:href="#DejaVuSans-65" x="183.154297"/>
     </g>
    </g>
   </g>
   <g id="matplotlib.axis_2">
    <g id="ytick_1">
     <g id="line2d_7">
      <defs>
       <path id="m7643d166cb" d="M 0 0 
L -3.5 0 
" style="stroke: #000000; stroke-width: 0.8"/>
      </defs>
      <g>
       <use xlink:href="#m7643d166cb" x="57.6" y="307.584" style="stroke: #000000; stroke-width: 0.8"/>
      </g>
     </g>
     <g id="text_8">
      <!-- 0 -->
      <g transform="translate(44.2375 311.383219) scale(0.1 -0.1)">
       <use xlink:href="#DejaVuSans-30"/>
      </g>
     </g>
    </g>
    <g id="ytick_2">
     <g id="line2d_8">
      <g>
       <use xlink:href="#m7643d166cb" x="57.6" y="269.568" style="stroke: #000000; stroke-width: 0.8"/>
      </g>
     </g>
     <g id="text_9">
      <!-- 1000 -->
      <g transform="translate(25.15 273.367219) scale(0.1 -0.1)">
       <defs>
        <path id="DejaVuSans-31" d="M 794 531 
L 1825 531 
L 1825 4091 
L 703 3866 
L 703 4441 
L 1819 4666 
L 2450 4666 
L 2450 531 
L 3481 531 
L 3481 0 
L 794 0 
L 794 531 
z
" transform="scale(0.015625)"/>
       </defs>
       <use xlink:href="#DejaVuSans-31"/>
       <use xlink:href="#DejaVuSans-30" x="63.623047"/>
       <use xlink:href="#DejaVuSans-30" x="127.246094"/>
       <use xlink:href="#DejaVuSans-30" x="190.869141"/>
      </g>
     </g>
    </g>
    <g id="ytick_3">
     <g id="line2d_9">
      <g>
       <use xlink:href="#m7643d166cb" x="57.6" y="231.552" style="stroke: #000000; stroke-width: 0.8"/>
      </g>
     </g>
     <g id="text_10">
      <!-- 2000 -->
      <g transform="translate(25.15 235.351219) scale(0.1 -0.1)">
       <use xlink:href="#DejaVuSans-32"/>
       <use xlink:href="#DejaVuSans-30" x="63.623047"/>
       <use xlink:href="#DejaVuSans-30" x="127.246094"/>
       <use xlink:href="#DejaVuSans-30" x="190.869141"/>
      </g>
     </g>
    </g>
    <g id="ytick_4">
     <g id="line2d_10">
      <g>
       <use xlink:href="#m7643d166cb" x="57.6" y="193.536" style="stroke: #000000; stroke-width: 0.8"/>
      </g>
     </g>
     <g id="text_11">
      <!-- 3000 -->
      <g transform="translate(25.15 197.335219) scale(0.1 -0.1)">
       <use xlink:href="#DejaVuSans-33"/>
       <use xlink:href="#DejaVuSans-30" x="63.623047"/>
       <use xlink:href="#DejaVuSans-30" x="127.246094"/>
       <use xlink:href="#DejaVuSans-30" x="190.869141"/>
      </g>
     </g>
    </g>
    <g id="ytick_5">
     <g id="line2d_11">
      <g>
       <use xlink:href="#m7643d166cb" x="57.6" y="155.52" style="stroke: #000000; stroke-width: 0.8"/>
      </g>
     </g>
     <g id="text_12">
      <!-- 4000 -->
      <g transform="translate(25.15 159.319219) scale(0.1 -0.1)">
       <use xlink:href="#DejaVuSans-34"/>
       <use xlink:href="#DejaVuSans-30" x="63.623047"/>
       <use xlink:href="#DejaVuSans-30" x="127.246094"/>
       <use xlink:href="#DejaVuSans-30" x="190.869141"/>
      </g>
     </g>
    </g>
    <g id="ytick_6">
     <g id="line2d_12">
      <g>
       <use xlink:href="#m7643d166cb" x="57.6" y="117.504" style="stroke: #000000; stroke-width: 0.8"/>
      </g>
     </g>
     <g id="text_13">
      <!-- 5000 -->
      <g transform="translate(25.15 121.303219) scale(0.1 -0.1)">
       <use xlink:href="#DejaVuSans-35"/>
       <use xlink:href="#DejaVuSans-30" x="63.623047"/>
       <use xlink:href="#DejaVuSans-30" x="127.246094"/>
       <use xlink:href="#DejaVuSans-30" x="190.869141"/>
      </g>
     </g>
    </g>
    <g id="ytick_7">
     <g id="line2d_13">
      <g>
       <use xlink:href="#m7643d166cb" x="57.6" y="79.488" style="stroke: #000000; stroke-width: 0.8"/>
      </g>
     </g>
     <g id="text_14">
      <!-- 6000 -->
      <g transform="translate(25.15 83.287219) scale(0.1 -0.1)">
       <defs>
        <path id="DejaVuSans-36" d="M 2113 2584 
Q 1688 2584 1439 2293 
Q 1191 2003 1191 1497 
Q 1191 994 1439 701 
Q 1688 409 2113 409 
Q 2538 409 2786 701 
Q 3034 994 3034 1497 
Q 3034 2003 2786 2293 
Q 2538 2584 2113 2584 
z
M 3366 4563 
L 3366 3988 
Q 3128 4100 2886 4159 
Q 2644 4219 2406 4219 
Q 1781 4219 1451 3797 
Q 1122 3375 1075 2522 
Q 1259 2794 1537 2939 
Q 1816 3084 2150 3084 
Q 2853 3084 3261 2657 
Q 3669 2231 3669 1497 
Q 3669 778 3244 343 
Q 2819 -91 2113 -91 
Q 1303 -91 875 529 
Q 447 1150 447 2328 
Q 447 3434 972 4092 
Q 1497 4750 2381 4750 
Q 2619 4750 2861 4703 
Q 3103 4656 3366 4563 
z
" transform="scale(0.015625)"/>
       </defs>
       <use xlink:href="#DejaVuSans-36"/>
       <use xlink:href="#DejaVuSans-30" x="63.623047"/>
       <use xlink:href="#DejaVuSans-30" x="127.246094"/>
       <use xlink:href="#DejaVuSans-30" x="190.869141"/>
      </g>
     </g>
    </g>
    <g id="ytick_8">
     <g id="line2d_14">
      <g>
       <use xlink:href="#m7643d166cb" x="57.6" y="41.472" style="stroke: #000000; stroke-width: 0.8"/>
      </g>
     </g>
     <g id="text_15">
      <!-- 7000 -->
      <g transform="translate(25.15 45.271219) scale(0.1 -0.1)">
       <defs>
        <path id="DejaVuSans-37" d="M 525 4666 
L 3525 4666 
L 3525 4397 
L 1831 0 
L 1172 0 
L 2766 4134 
L 525 4134 
L 525 4666 
z
" transform="scale(0.015625)"/>
       </defs>
       <use xlink:href="#DejaVuSans-37"/>
       <use xlink:href="#DejaVuSans-30" x="63.623047"/>
       <use xlink:href="#DejaVuSans-30" x="127.246094"/>
       <use xlink:href="#DejaVuSans-30" x="190.869141"/>
      </g>
     </g>
    </g>
    <g id="text_16">
     <!-- Jobs [FTE] -->
     <g transform="translate(19.070312 199.333469) rotate(-90) scale(0.1 -0.1)">
      <defs>
       <path id="DejaVuSans-4a" d="M 628 4666 
L 1259 4666 
L 1259 325 
Q 1259 -519 939 -900 
Q 619 -1281 -91 -1281 
L -331 -1281 
L -331 -750 
L -134 -750 
Q 284 -750 456 -515 
Q 628 -281 628 325 
L 628 4666 
z
" transform="scale(0.015625)"/>
       <path id="DejaVuSans-6f" d="M 1959 3097 
Q 1497 3097 1228 2736 
Q 959 2375 959 1747 
Q 959 1119 1226 758 
Q 1494 397 1959 397 
Q 2419 397 2687 759 
Q 2956 1122 2956 1747 
Q 2956 2369 2687 2733 
Q 2419 3097 1959 3097 
z
M 1959 3584 
Q 2709 3584 3137 3096 
Q 3566 2609 3566 1747 
Q 3566 888 3137 398 
Q 2709 -91 1959 -91 
Q 1206 -91 779 398 
Q 353 888 353 1747 
Q 353 2609 779 3096 
Q 1206 3584 1959 3584 
z
" transform="scale(0.015625)"/>
       <path id="DejaVuSans-62" d="M 3116 1747 
Q 3116 2381 2855 2742 
Q 2594 3103 2138 3103 
Q 1681 3103 1420 2742 
Q 1159 2381 1159 1747 
Q 1159 1113 1420 752 
Q 1681 391 2138 391 
Q 2594 391 2855 752 
Q 3116 1113 3116 1747 
z
M 1159 2969 
Q 1341 3281 1617 3432 
Q 1894 3584 2278 3584 
Q 2916 3584 3314 3078 
Q 3713 2572 3713 1747 
Q 3713 922 3314 415 
Q 2916 -91 2278 -91 
Q 1894 -91 1617 61 
Q 1341 213 1159 525 
L 1159 0 
L 581 0 
L 581 4863 
L 1159 4863 
L 1159 2969 
z
" transform="scale(0.015625)"/>
       <path id="DejaVuSans-73" d="M 2834 3397 
L 2834 2853 
Q 2591 2978 2328 3040 
Q 2066 3103 1784 3103 
Q 1356 3103 1142 2972 
Q 928 2841 928 2578 
Q 928 2378 1081 2264 
Q 1234 2150 1697 2047 
L 1894 2003 
Q 2506 1872 2764 1633 
Q 3022 1394 3022 966 
Q 3022 478 2636 193 
Q 2250 -91 1575 -91 
Q 1294 -91 989 -36 
Q 684 19 347 128 
L 347 722 
Q 666 556 975 473 
Q 1284 391 1588 391 
Q 1994 391 2212 530 
Q 2431 669 2431 922 
Q 2431 1156 2273 1281 
Q 2116 1406 1581 1522 
L 1381 1569 
Q 847 1681 609 1914 
Q 372 2147 372 2553 
Q 372 3047 722 3315 
Q 1072 3584 1716 3584 
Q 2034 3584 2315 3537 
Q 2597 3491 2834 3397 
z
" transform="scale(0.015625)"/>
       <path id="DejaVuSans-20" transform="scale(0.015625)"/>
       <path id="DejaVuSans-5b" d="M 550 4863 
L 1875 4863 
L 1875 4416 
L 1125 4416 
L 1125 -397 
L 1875 -397 
L 1875 -844 
L 550 -844 
L 550 4863 
z
" transform="scale(0.015625)"/>
       <path id="DejaVuSans-46" d="M 628 4666 
L 3309 4666 
L 3309 4134 
L 1259 4134 
L 1259 2759 
L 3109 2759 
L 3109 2228 
L 1259 2228 
L 1259 0 
L 628 0 
L 628 4666 
z
" transform="scale(0.015625)"/>
       <path id="DejaVuSans-45" d="M 628 4666 
L 3578 4666 
L 3578 4134 
L 1259 4134 
L 1259 2753 
L 3481 2753 
L 3481 2222 
L 1259 2222 
L 1259 531 
L 3634 531 
L 3634 0 
L 628 0 
L 628 4666 
z
" transform="scale(0.015625)"/>
       <path id="DejaVuSans-5d" d="M 1947 4863 
L 1947 -844 
L 622 -844 
L 622 -397 
L 1369 -397 
L 1369 4416 
L 622 4416 
L 622 4863 
L 1947 4863 
z
" transform="scale(0.015625)"/>
      </defs>
      <use xlink:href="#DejaVuSans-4a"/>
      <use xlink:href="#DejaVuSans-6f" x="29.492188"/>
      <use xlink:href="#DejaVuSans-62" x="90.673828"/>
      <use xlink:href="#DejaVuSans-73" x="154.150391"/>
      <use xlink:href="#DejaVuSans-20" x="206.25"/>
      <use xlink:href="#DejaVuSans-5b" x="238.037109"/>
      <use xlink:href="#DejaVuSans-46" x="277.050781"/>
      <use xlink:href="#DejaVuSans-54" x="332.820312"/>
      <use xlink:href="#DejaVuSans-45" x="393.904297"/>
      <use xlink:href="#DejaVuSans-5d" x="457.087891"/>
     </g>
    </g>
   </g>
   <g id="line2d_15">
    <path d="M 57.6 306.173183 
L 83.108571 305.940306 
L 108.617143 305.98074 
L 134.125714 306.070014 
L 159.634286 306.18821 
L 185.142857 306.251262 
L 210.651429 306.314302 
L 236.16 306.377354 
L 261.668571 306.455825 
L 287.177143 306.503451 
L 312.685714 306.570369 
L 338.194286 306.635977 
L 363.702857 306.700305 
L 389.211429 306.76335 
L 414.72 306.83294 
" clip-path="url(#pe98b5fc102)" style="fill: none; stroke: #6f6f6f; stroke-width: 1.5; stroke-linecap: square"/>
   </g>
   <g id="line2d_16">
    <path d="M 57.6 303.52526 
L 83.108571 303.265266 
L 108.617143 302.963618 
L 134.125714 303.212422 
L 159.634286 303.544235 
L 185.142857 303.748546 
L 210.651429 303.461062 
L 236.16 300.82952 
L 261.668571 301.09488 
L 287.177143 301.255911 
L 312.685714 257.059338 
L 338.194286 219.524895 
L 363.702857 219.743803 
L 389.211429 217.751068 
L 414.72 218.009277 
" clip-path="url(#pe98b5fc102)" style="fill: none; stroke: #6f6f6f; stroke-width: 1.5; stroke-linecap: square"/>
   </g>
   <g id="line2d_17">
    <path d="M 57.6 306.647274 
L 83.108571 306.634751 
L 108.617143 306.524033 
L 134.125714 306.519859 
L 159.634286 306.531029 
L 185.142857 306.562679 
L 210.651429 306.594318 
L 236.16 306.625967 
L 261.668571 306.662762 
L 287.177143 306.689264 
L 312.685714 306.730574 
L 338.194286 306.803431 
L 363.702857 306.832179 
L 389.211429 306.926624 
L 414.72 294.72162 
" clip-path="url(#pe98b5fc102)" style="fill: none; stroke: #6f6f6f; stroke-width: 1.5; stroke-linecap: square"/>
   </g>
   <g id="line2d_18">
    <path d="M 57.6 307.478167 
L 83.108571 307.464796 
L 108.617143 307.467171 
L 134.125714 307.47172 
L 159.634286 307.480808 
L 185.142857 307.490275 
L 210.651429 307.499743 
L 236.16 307.50921 
L 261.668571 307.518676 
L 287.177143 307.528144 
L 312.685714 307.537233 
L 338.194286 307.546321 
L 363.702857 307.555599 
L 389.211429 307.565065 
L 414.72 307.574533 
" clip-path="url(#pe98b5fc102)" style="fill: none; stroke: #6f6f6f; stroke-width: 1.5; stroke-linecap: square"/>
   </g>
   <g id="line2d_19">
    <path d="M 57.6 307.584 
L 83.108571 307.584 
L 108.617143 307.584 
L 134.125714 307.584 
L 159.634286 307.584 
L 185.142857 307.584 
L 210.651429 307.584 
L 236.16 307.584 
L 261.668571 307.584 
L 287.177143 307.584 
L 312.685714 307.584 
L 338.194286 307.584 
L 363.702857 307.584 
L 389.211429 307.584 
L 414.72 307.584 
" clip-path="url(#pe98b5fc102)" style="fill: none; stroke: #6f6f6f; stroke-width: 1.5; stroke-linecap: square"/>
   </g>
   <g id="line2d_20">
    <path d="M 57.6 306.260052 
L 83.108571 306.021569 
L 108.617143 306.088296 
L 134.125714 306.172942 
L 159.634286 306.285006 
L 185.142857 306.571932 
L 210.651429 306.938988 
L 236.16 307.022966 
L 261.668571 298.494053 
L 287.177143 297.952091 
L 312.685714 298.035207 
L 338.194286 298.11834 
L 363.702857 298.147985 
L 389.211429 286.59356 
L 414.72 281.980093 
" clip-path="url(#pe98b5fc102)" style="fill: none; stroke: #6f6f6f; stroke-width: 1.5; stroke-linecap: square"/>
   </g>
   <g id="line2d_21">
    <path d="M 57.6 295.616743 
L 83.108571 293.79606 
L 108.617143 293.760482 
L 134.125714 288.80859 
L 159.634286 227.75711 
L 185.142857 208.47924 
L 210.651429 208.937306 
L 236.16 175.478802 
L 261.668571 153.939528 
L 287.177143 79.027335 
L 312.685714 75.014296 
L 338.194286 63.799505 
L 363.702857 62.879037 
L 389.211429 42.609078 
L 414.72 47.648783 
" clip-path="url(#pe98b5fc102)" style="fill: none; stroke: #6f6f6f; stroke-width: 1.5; stroke-linecap: square"/>
   </g>
   <g id="line2d_22">
    <path d="M 57.6 307.373348 
L 83.108571 307.348757 
L 108.617143 307.351923 
L 134.125714 307.362999 
L 159.634286 307.378603 
L 185.142857 307.397447 
L 210.651429 307.421363 
L 236.16 307.440207 
L 261.668571 307.461071 
L 287.177143 307.477893 
L 312.685714 307.495985 
L 338.194286 307.514073 
L 363.702857 307.532541 
L 389.211429 306.826573 
L 414.72 306.844955 
" clip-path="url(#pe98b5fc102)" style="fill: none; stroke: #6f6f6f; stroke-width: 1.5; stroke-linecap: square"/>
   </g>
   <g id="line2d_23">
    <path d="M 57.6 307.584 
L 83.108571 307.584 
L 108.617143 307.584 
L 134.125714 307.584 
L 159.634286 307.584 
L 185.142857 307.584 
L 210.651429 307.584 
L 236.16 307.584 
L 261.668571 307.584 
L 287.177143 307.584 
L 312.685714 307.584 
L 338.194286 307.584 
L 363.702857 307.584 
L 389.211429 307.584 
L 414.72 307.584 
" clip-path="url(#pe98b5fc102)" style="fill: none; stroke: #6f6f6f; stroke-width: 1.5; stroke-linecap: square"/>
   </g>
   <g id="line2d_24">
    <path d="M 57.6 304.948365 
L 83.108571 304.562465 
L 108.617143 304.661294 
L 134.125714 304.78298 
L 159.634286 305.008407 
L 185.142857 305.225064 
L 210.651429 304.26912 
L 236.16 304.485776 
L 261.668571 304.7037 
L 287.177143 301.788005 
L 312.685714 301.992941 
L 338.194286 299.069896 
L 363.702857 299.278491 
L 389.211429 294.589358 
L 414.72 294.439622 
" clip-path="url(#pe98b5fc102)" style="fill: none; stroke: #6f6f6f; stroke-width: 1.5; stroke-linecap: square"/>
   </g>
   <g id="line2d_25">
    <path d="M 57.6 302.000011 
L 83.108571 301.228966 
L 108.617143 301.333289 
L 134.125714 295.971146 
L 159.634286 296.446354 
L 185.142857 296.874291 
L 210.651429 297.30224 
L 236.16 290.486102 
L 261.668571 239.971871 
L 287.177143 240.349321 
L 312.685714 212.326184 
L 338.194286 212.742626 
L 363.702857 213.164929 
L 389.211429 213.593049 
L 414.72 219.688062 
" clip-path="url(#pe98b5fc102)" style="fill: none; stroke: #6f6f6f; stroke-width: 1.5; stroke-linecap: square"/>
   </g>
   <g id="line2d_26">
    <path d="M 57.6 306.437479 
L 83.108571 306.341805 
L 108.617143 306.337098 
L 134.125714 306.391719 
L 159.634286 306.466082 
L 185.142857 306.568647 
L 210.651429 306.671211 
L 236.16 306.773776 
L 261.668571 306.881665 
L 287.177143 306.978889 
L 312.685714 307.077356 
L 338.194286 307.175806 
L 363.702857 307.276322 
L 389.211429 307.378871 
L 414.72 303.622932 
" clip-path="url(#pe98b5fc102)" style="fill: none; stroke: #6f6f6f; stroke-width: 1.5; stroke-linecap: square"/>
   </g>
   <g id="line2d_27">
    <path d="M 57.6 301.551118 
L 83.108571 300.62621 
L 108.617143 300.331563 
L 134.125714 296.869731 
L 159.634286 295.842781 
L 185.142857 285.10336 
L 210.651429 279.828323 
L 236.16 281.169897 
L 261.668571 277.788667 
L 287.177143 278.097467 
L 312.685714 278.40506 
L 338.194286 278.712661 
L 363.702857 279.046606 
L 389.211429 279.86564 
L 414.72 282.622535 
" clip-path="url(#pe98b5fc102)" style="fill: none; stroke: #6f6f6f; stroke-width: 1.5; stroke-linecap: square"/>
   </g>
   <g id="line2d_28">
    <path d="M 57.6 306.531933 
L 83.108571 306.371199 
L 108.617143 306.43616 
L 134.125714 306.614041 
L 159.634286 306.855063 
L 185.142857 307.101932 
L 210.651429 307.122838 
L 236.16 307.204763 
L 261.668571 307.246727 
L 287.177143 307.288694 
L 312.685714 307.333182 
L 338.194286 307.333179 
L 363.702857 307.325004 
L 389.211429 307.331161 
L 414.72 307.331161 
" clip-path="url(#pe98b5fc102)" style="fill: none; stroke: #6f6f6f; stroke-width: 1.5; stroke-linecap: square"/>
   </g>
   <g id="line2d_29">
    <path d="M 57.6 306.186223 
L 83.108571 305.955307 
L 108.617143 305.97837 
L 134.125714 305.791517 
L 159.634286 305.622947 
L 185.142857 305.476266 
L 210.651429 305.538345 
L 236.16 305.60365 
L 261.668571 305.684926 
L 287.177143 305.734253 
L 312.685714 305.8154 
L 338.194286 294.829016 
L 363.702857 290.566451 
L 389.211429 279.239114 
L 414.72 271.187283 
" clip-path="url(#pe98b5fc102)" style="fill: none; stroke: #6f6f6f; stroke-width: 1.5; stroke-linecap: square"/>
   </g>
   <g id="line2d_30">
    <path d="M 57.6 307.510379 
L 83.108571 307.499467 
L 108.617143 307.501119 
L 134.125714 307.505894 
L 159.634286 307.512216 
L 185.142857 307.518802 
L 210.651429 307.528932 
L 236.16 307.535518 
L 261.668571 307.543714 
L 287.177143 302.343261 
L 312.685714 298.34471 
L 338.194286 298.351031 
L 363.702857 298.357486 
L 389.211429 290.653582 
L 414.72 283.88277 
" clip-path="url(#pe98b5fc102)" style="fill: none; stroke: #6f6f6f; stroke-width: 1.5; stroke-linecap: square"/>
   </g>
   <g id="line2d_31">
    <path d="M 57.6 301.22632 
L 83.108571 300.076484 
L 108.617143 300.35844 
L 134.125714 278.839534 
L 159.634286 279.365857 
L 185.142857 266.433061 
L 210.651429 266.918512 
L 236.16 217.072314 
L 261.668571 216.638755 
L 287.177143 217.121582 
L 312.685714 217.590057 
L 338.194286 217.923207 
L 363.702857 218.400362 
L 389.211429 218.886185 
L 414.72 236.228934 
" clip-path="url(#pe98b5fc102)" style="fill: none; stroke: #6f6f6f; stroke-width: 1.5; stroke-linecap: square"/>
   </g>
   <g id="line2d_32">
    <path d="M 57.6 305.207335 
L 83.108571 305.246596 
L 108.617143 304.880353 
L 134.125714 305.029917 
L 159.634286 305.227958 
L 185.142857 305.31112 
L 210.651429 305.394283 
L 236.16 305.477445 
L 261.668571 305.580954 
L 287.177143 305.643769 
L 312.685714 305.734042 
L 338.194286 305.824284 
L 363.702857 262.437172 
L 389.211429 261.896053 
L 414.72 247.459474 
" clip-path="url(#pe98b5fc102)" style="fill: none; stroke: #6f6f6f; stroke-width: 1.5; stroke-linecap: square"/>
   </g>
   <g id="line2d_33">
    <path d="M 57.6 307.584 
L 83.108571 307.584 
L 108.617143 307.584 
L 134.125714 307.584 
L 159.634286 307.584 
L 185.142857 307.584 
L 210.651429 307.584 
L 236.16 307.584 
L 261.668571 307.584 
L 287.177143 307.584 
L 312.685714 307.584 
L 338.194286 307.584 
L 363.702857 307.584 
L 389.211429 307.584 
L 414.72 307.584 
" clip-path="url(#pe98b5fc102)" style="fill: none; stroke: #6f6f6f; stroke-width: 1.5; stroke-linecap: square"/>
   </g>
   <g id="line2d_34">
    <path d="M 57.6 307.584 
L 83.108571 307.584 
L 108.617143 307.584 
L 134.125714 307.584 
L 159.634286 307.584 
L 185.142857 307.584 
L 210.651429 307.584 
L 236.16 307.584 
L 261.668571 307.584 
L 287.177143 307.584 
L 312.685714 307.584 
L 338.194286 307.584 
L 363.702857 307.584 
L 389.211429 307.584 
L 414.72 307.584 
" clip-path="url(#pe98b5fc102)" style="fill: none; stroke: #6f6f6f; stroke-width: 1.5; stroke-linecap: square"/>
   </g>
   <g id="line2d_35">
    <path d="M 57.6 307.584 
L 83.108571 307.584 
L 108.617143 307.584 
L 134.125714 307.584 
L 159.634286 307.584 
L 185.142857 307.584 
L 210.651429 307.584 
L 236.16 307.584 
L 261.668571 307.584 
L 287.177143 307.584 
L 312.685714 307.584 
L 338.194286 307.584 
L 363.702857 307.584 
L 389.211429 307.584 
L 414.72 307.584 
" clip-path="url(#pe98b5fc102)" style="fill: none; stroke: #6f6f6f; stroke-width: 1.5; stroke-linecap: square"/>
   </g>
   <g id="line2d_36">
    <path d="M 57.6 297.60777 
L 83.108571 296.044854 
L 108.617143 296.379896 
L 134.125714 296.930807 
L 159.634286 297.771198 
L 185.142857 298.315538 
L 210.651429 299.580443 
L 236.16 300.124755 
L 261.668571 300.719406 
L 287.177143 301.217824 
L 312.685714 287.856582 
L 338.194286 253.476734 
L 363.702857 194.583967 
L 389.211429 166.227572 
L 414.72 166.783859 
" clip-path="url(#pe98b5fc102)" style="fill: none; stroke: #6f6f6f; stroke-width: 1.5; stroke-linecap: square"/>
   </g>
   <g id="line2d_37">
    <path d="M 57.6 306.184743 
L 83.108571 305.981068 
L 108.617143 306.004764 
L 134.125714 306.084897 
L 159.634286 306.202344 
L 185.142857 306.269567 
L 210.651429 306.519812 
L 236.16 306.587035 
L 261.668571 306.662135 
L 287.177143 306.721503 
L 312.685714 306.790698 
L 338.194286 306.859901 
L 363.702857 306.94196 
L 389.211429 307.106696 
L 414.72 307.276732 
" clip-path="url(#pe98b5fc102)" style="fill: none; stroke: #6f6f6f; stroke-width: 1.5; stroke-linecap: square"/>
   </g>
   <g id="line2d_38">
    <path d="M 57.6 299.81836 
L 83.108571 298.613882 
L 108.617143 298.479566 
L 134.125714 294.039271 
L 159.634286 294.685755 
L 185.142857 295.029829 
L 210.651429 290.590237 
L 236.16 290.934297 
L 261.668571 278.224028 
L 287.177143 272.306338 
L 312.685714 264.980804 
L 338.194286 258.530603 
L 363.702857 258.852897 
L 389.211429 257.565167 
L 414.72 251.728 
" clip-path="url(#pe98b5fc102)" style="fill: none; stroke: #6f6f6f; stroke-width: 1.5; stroke-linecap: square"/>
   </g>
   <g id="line2d_39">
    <path d="M 57.6 306.874344 
L 83.108571 306.753619 
L 108.617143 306.785075 
L 134.125714 306.831111 
L 159.634286 306.892049 
L 185.142857 306.955532 
L 210.651429 307.019016 
L 236.16 307.0825 
L 261.668571 307.145974 
L 287.177143 307.209458 
L 312.685714 307.270405 
L 338.194286 307.331343 
L 363.702857 307.393558 
L 389.211429 307.457032 
L 414.72 307.520516 
" clip-path="url(#pe98b5fc102)" style="fill: none; stroke: #6f6f6f; stroke-width: 1.5; stroke-linecap: square"/>
   </g>
   <g id="line2d_40">
    <path d="M 57.6 305.844774 
L 83.108571 305.513895 
L 108.617143 297.295672 
L 134.125714 275.256611 
L 159.634286 275.463369 
L 185.142857 275.529323 
L 210.651429 275.595262 
L 236.16 260.848242 
L 261.668571 260.917246 
L 287.177143 260.980149 
L 312.685714 261.048917 
L 338.194286 261.068557 
L 363.702857 263.893823 
L 389.211429 263.791859 
L 414.72 265.508351 
" clip-path="url(#pe98b5fc102)" style="fill: none; stroke: #6f6f6f; stroke-width: 1.5; stroke-linecap: square"/>
   </g>
   <g id="line2d_41">
    <path d="M 57.6 306.392407 
L 83.108571 306.166933 
L 108.617143 306.245828 
L 134.125714 306.26494 
L 159.634286 306.367261 
L 185.142857 303.856446 
L 210.651429 298.189811 
L 236.16 298.576317 
L 261.668571 298.656821 
L 287.177143 298.737337 
L 312.685714 295.670301 
L 338.194286 295.76212 
L 363.702857 295.845098 
L 389.211429 287.14665 
L 414.72 287.19711 
" clip-path="url(#pe98b5fc102)" style="fill: none; stroke: #6f6f6f; stroke-width: 1.5; stroke-linecap: square"/>
   </g>
   <g id="line2d_42">
    <path d="M 57.6 307.584 
L 83.108571 307.584 
L 108.617143 307.584 
L 134.125714 297.350355 
L 159.634286 297.350355 
L 185.142857 297.350355 
L 210.651429 297.350355 
L 236.16 297.350355 
L 261.668571 297.350355 
L 287.177143 297.350355 
L 312.685714 297.350355 
L 338.194286 297.350355 
L 363.702857 297.350355 
L 389.211429 297.350355 
L 414.72 297.350355 
" clip-path="url(#pe98b5fc102)" style="fill: none; stroke: #6f6f6f; stroke-width: 1.5; stroke-linecap: square"/>
   </g>
   <g id="line2d_43">
    <path d="M 57.6 305.797962 
L 83.108571 305.509504 
L 108.617143 305.609256 
L 134.125714 305.04909 
L 159.634286 272.989937 
L 185.142857 273.1199 
L 210.651429 270.501082 
L 236.16 270.593646 
L 261.668571 261.314414 
L 287.177143 247.207654 
L 312.685714 246.664675 
L 338.194286 246.062442 
L 363.702857 245.458147 
L 389.211429 244.850877 
L 414.72 245.03924 
" clip-path="url(#pe98b5fc102)" style="fill: none; stroke: #6f6f6f; stroke-width: 1.5; stroke-linecap: square"/>
   </g>
   <g id="line2d_44">
    <path d="M 57.6 302.61064 
L 83.108571 301.945675 
L 108.617143 301.995346 
L 134.125714 302.156223 
L 159.634286 302.576954 
L 185.142857 302.97256 
L 210.651429 299.565876 
L 236.16 299.875181 
L 261.668571 300.230186 
L 287.177143 300.493788 
L 312.685714 300.801667 
L 338.194286 301.096499 
L 363.702857 301.405964 
L 389.211429 297.715922 
L 414.72 276.199551 
" clip-path="url(#pe98b5fc102)" style="fill: none; stroke: #6f6f6f; stroke-width: 1.5; stroke-linecap: square"/>
   </g>
   <g id="line2d_45">
    <path d="M 414.72 47.648783 
L 417.270857 47.648783 
L 419.821714 47.648783 
" clip-path="url(#pe98b5fc102)" style="fill: none; stroke-dasharray: 5.55,2.4; stroke-dashoffset: 0; stroke: #a30774; stroke-width: 1.5"/>
   </g>
   <g id="line2d_46">
    <path d="M 414.72 166.783859 
L 417.270857 166.783859 
L 419.821714 166.783859 
" clip-path="url(#pe98b5fc102)" style="fill: none; stroke-dasharray: 5.55,2.4; stroke-dashoffset: 0; stroke: #a30774; stroke-width: 1.5"/>
   </g>
   <g id="line2d_47">
    <path d="M 414.72 218.009277 
L 417.270857 218.009277 
L 419.821714 218.009277 
" clip-path="url(#pe98b5fc102)" style="fill: none; stroke-dasharray: 5.55,2.4; stroke-dashoffset: 0; stroke: #a30774; stroke-width: 1.5"/>
   </g>
   <g id="line2d_48">
    <path d="M 414.72 219.688062 
L 417.270857 219.688062 
L 419.821714 219.688062 
" clip-path="url(#pe98b5fc102)" style="fill: none; stroke-dasharray: 5.55,2.4; stroke-dashoffset: 0; stroke: #215caf; stroke-width: 1.5"/>
   </g>
   <g id="line2d_49">
    <path d="M 414.72 236.228934 
L 417.270857 236.228934 
L 419.821714 236.228934 
" clip-path="url(#pe98b5fc102)" style="fill: none; stroke-dasharray: 5.55,2.4; stroke-dashoffset: 0; stroke: #215caf; stroke-width: 1.5"/>
   </g>
   <g id="line2d_50">
    <path d="M 414.72 245.03924 
L 417.270857 245.03924 
L 419.821714 245.03924 
" clip-path="url(#pe98b5fc102)" style="fill: none; stroke-dasharray: 5.55,2.4; stroke-dashoffset: 0; stroke: #215caf; stroke-width: 1.5"/>
   </g>
   <g id="line2d_51">
    <path d="M 414.72 247.459474 
L 417.270857 247.459474 
L 419.821714 247.459474 
" clip-path="url(#pe98b5fc102)" style="fill: none; stroke-dasharray: 5.55,2.4; stroke-dashoffset: 0; stroke: #215caf; stroke-width: 1.5"/>
   </g>
   <g id="line2d_52">
    <path d="M 414.72 251.728 
L 417.270857 251.728 
L 419.821714 251.728 
" clip-path="url(#pe98b5fc102)" style="fill: none; stroke-dasharray: 5.55,2.4; stroke-dashoffset: 0; stroke: #215caf; stroke-width: 1.5"/>
   </g>
   <g id="line2d_53">
    <path d="M 414.72 265.508351 
L 417.270857 265.508351 
L 419.821714 265.508351 
" clip-path="url(#pe98b5fc102)" style="fill: none; stroke-dasharray: 5.55,2.4; stroke-dashoffset: 0; stroke: #215caf; stroke-width: 1.5"/>
   </g>
   <g id="line2d_54">
    <path d="M 414.72 271.187283 
L 417.270857 271.187283 
L 419.821714 271.187283 
" clip-path="url(#pe98b5fc102)" style="fill: none; stroke-dasharray: 5.55,2.4; stroke-dashoffset: 0; stroke: #215caf; stroke-width: 1.5"/>
   </g>
   <g id="line2d_55">
    <path d="M 414.72 276.199551 
L 417.270857 276.199551 
L 419.821714 276.199551 
" clip-path="url(#pe98b5fc102)" style="fill: none; stroke-dasharray: 5.55,2.4; stroke-dashoffset: 0; stroke: #215caf; stroke-width: 1.5"/>
   </g>
   <g id="line2d_56">
    <path d="M 414.72 281.980093 
L 417.270857 281.980093 
L 419.821714 281.980093 
" clip-path="url(#pe98b5fc102)" style="fill: none; stroke-dasharray: 5.55,2.4; stroke-dashoffset: 0; stroke: #215caf; stroke-width: 1.5"/>
   </g>
   <g id="line2d_57">
    <path d="M 57.6 302.000011 
L 83.108571 301.228966 
L 108.617143 301.333289 
L 134.125714 295.971146 
L 159.634286 296.446354 
L 185.142857 296.874291 
L 210.651429 297.30224 
L 236.16 290.486102 
L 261.668571 239.971871 
L 287.177143 240.349321 
L 312.685714 212.326184 
L 338.194286 212.742626 
L 363.702857 213.164929 
L 389.211429 213.593049 
L 414.72 219.688062 
" clip-path="url(#pe98b5fc102)" style="fill: none; stroke: #215caf; stroke-width: 1.2; stroke-linecap: square"/>
   </g>
   <g id="line2d_58">
    <path d="M 57.6 301.22632 
L 83.108571 300.076484 
L 108.617143 300.35844 
L 134.125714 278.839534 
L 159.634286 279.365857 
L 185.142857 266.433061 
L 210.651429 266.918512 
L 236.16 217.072314 
L 261.668571 216.638755 
L 287.177143 217.121582 
L 312.685714 217.590057 
L 338.194286 217.923207 
L 363.702857 218.400362 
L 389.211429 218.886185 
L 414.72 236.228934 
" clip-path="url(#pe98b5fc102)" style="fill: none; stroke: #215caf; stroke-width: 1.2; stroke-linecap: square"/>
   </g>
   <g id="line2d_59">
    <path d="M 57.6 305.797962 
L 83.108571 305.509504 
L 108.617143 305.609256 
L 134.125714 305.04909 
L 159.634286 272.989937 
L 185.142857 273.1199 
L 210.651429 270.501082 
L 236.16 270.593646 
L 261.668571 261.314414 
L 287.177143 247.207654 
L 312.685714 246.664675 
L 338.194286 246.062442 
L 363.702857 245.458147 
L 389.211429 244.850877 
L 414.72 245.03924 
" clip-path="url(#pe98b5fc102)" style="fill: none; stroke: #215caf; stroke-width: 1.2; stroke-linecap: square"/>
   </g>
   <g id="line2d_60">
    <path d="M 57.6 305.207335 
L 83.108571 305.246596 
L 108.617143 304.880353 
L 134.125714 305.029917 
L 159.634286 305.227958 
L 185.142857 305.31112 
L 210.651429 305.394283 
L 236.16 305.477445 
L 261.668571 305.580954 
L 287.177143 305.643769 
L 312.685714 305.734042 
L 338.194286 305.824284 
L 363.702857 262.437172 
L 389.211429 261.896053 
L 414.72 247.459474 
" clip-path="url(#pe98b5fc102)" style="fill: none; stroke: #215caf; stroke-width: 1.2; stroke-linecap: square"/>
   </g>
   <g id="line2d_61">
    <path d="M 57.6 299.81836 
L 83.108571 298.613882 
L 108.617143 298.479566 
L 134.125714 294.039271 
L 159.634286 294.685755 
L 185.142857 295.029829 
L 210.651429 290.590237 
L 236.16 290.934297 
L 261.668571 278.224028 
L 287.177143 272.306338 
L 312.685714 264.980804 
L 338.194286 258.530603 
L 363.702857 258.852897 
L 389.211429 257.565167 
L 414.72 251.728 
" clip-path="url(#pe98b5fc102)" style="fill: none; stroke: #215caf; stroke-width: 1.2; stroke-linecap: square"/>
   </g>
   <g id="line2d_62">
    <path d="M 57.6 305.844774 
L 83.108571 305.513895 
L 108.617143 297.295672 
L 134.125714 275.256611 
L 159.634286 275.463369 
L 185.142857 275.529323 
L 210.651429 275.595262 
L 236.16 260.848242 
L 261.668571 260.917246 
L 287.177143 260.980149 
L 312.685714 261.048917 
L 338.194286 261.068557 
L 363.702857 263.893823 
L 389.211429 263.791859 
L 414.72 265.508351 
" clip-path="url(#pe98b5fc102)" style="fill: none; stroke: #215caf; stroke-width: 1.2; stroke-linecap: square"/>
   </g>
   <g id="line2d_63">
    <path d="M 57.6 306.186223 
L 83.108571 305.955307 
L 108.617143 305.97837 
L 134.125714 305.791517 
L 159.634286 305.622947 
L 185.142857 305.476266 
L 210.651429 305.538345 
L 236.16 305.60365 
L 261.668571 305.684926 
L 287.177143 305.734253 
L 312.685714 305.8154 
L 338.194286 294.829016 
L 363.702857 290.566451 
L 389.211429 279.239114 
L 414.72 271.187283 
" clip-path="url(#pe98b5fc102)" style="fill: none; stroke: #215caf; stroke-width: 1.2; stroke-linecap: square"/>
   </g>
   <g id="line2d_64">
    <path d="M 57.6 302.61064 
L 83.108571 301.945675 
L 108.617143 301.995346 
L 134.125714 302.156223 
L 159.634286 302.576954 
L 185.142857 302.97256 
L 210.651429 299.565876 
L 236.16 299.875181 
L 261.668571 300.230186 
L 287.177143 300.493788 
L 312.685714 300.801667 
L 338.194286 301.096499 
L 363.702857 301.405964 
L 389.211429 297.715922 
L 414.72 276.199551 
" clip-path="url(#pe98b5fc102)" style="fill: none; stroke: #215caf; stroke-width: 1.2; stroke-linecap: square"/>
   </g>
   <g id="line2d_65">
    <path d="M 57.6 306.260052 
L 83.108571 306.021569 
L 108.617143 306.088296 
L 134.125714 306.172942 
L 159.634286 306.285006 
L 185.142857 306.571932 
L 210.651429 306.938988 
L 236.16 307.022966 
L 261.668571 298.494053 
L 287.177143 297.952091 
L 312.685714 298.035207 
L 338.194286 298.11834 
L 363.702857 298.147985 
L 389.211429 286.59356 
L 414.72 281.980093 
" clip-path="url(#pe98b5fc102)" style="fill: none; stroke: #215caf; stroke-width: 1.2; stroke-linecap: square"/>
   </g>
   <g id="patch_3">
    <path d="M 57.6 307.584 
L 57.6 41.472 
" style="fill: none; stroke: #000000; stroke-width: 0.8; stroke-linejoin: miter; stroke-linecap: square"/>
   </g>
   <g id="patch_4">
    <path d="M 57.6 307.584 
L 414.72 307.584 
" style="fill: none; stroke: #000000; stroke-width: 0.8; stroke-linejoin: miter; stroke-linecap: square"/>
   </g>
   <g id="text_17">
    <!-- DE -->
    <g transform="translate(421.097143 50.408158) scale(0.1 -0.1)">
     <defs>
      <path id="DejaVuSans-Bold-44" d="M 1791 3756 
L 1791 909 
L 2222 909 
Q 2959 909 3348 1275 
Q 3738 1641 3738 2338 
Q 3738 3031 3350 3393 
Q 2963 3756 2222 3756 
L 1791 3756 
z
M 588 4666 
L 1856 4666 
Q 2919 4666 3439 4514 
Q 3959 4363 4331 4000 
Q 4659 3684 4818 3271 
Q 4978 2859 4978 2338 
Q 4978 1809 4818 1395 
Q 4659 981 4331 666 
Q 3956 303 3431 151 
Q 2906 0 1856 0 
L 588 0 
L 588 4666 
z
" transform="scale(0.015625)"/>
      <path id="DejaVuSans-Bold-45" d="M 588 4666 
L 3834 4666 
L 3834 3756 
L 1791 3756 
L 1791 2888 
L 3713 2888 
L 3713 1978 
L 1791 1978 
L 1791 909 
L 3903 909 
L 3903 0 
L 588 0 
L 588 4666 
z
" transform="scale(0.015625)"/>
     </defs>
     <use xlink:href="#DejaVuSans-Bold-44"/>
     <use xlink:href="#DejaVuSans-Bold-45" x="83.007812"/>
    </g>
   </g>
   <g id="text_18">
    <!-- NL -->
    <g transform="translate(421.097143 169.543234) scale(0.1 -0.1)">
     <defs>
      <path id="DejaVuSans-Bold-4e" d="M 588 4666 
L 1931 4666 
L 3628 1466 
L 3628 4666 
L 4769 4666 
L 4769 0 
L 3425 0 
L 1728 3200 
L 1728 0 
L 588 0 
L 588 4666 
z
" transform="scale(0.015625)"/>
      <path id="DejaVuSans-Bold-4c" d="M 588 4666 
L 1791 4666 
L 1791 909 
L 3903 909 
L 3903 0 
L 588 0 
L 588 4666 
z
" transform="scale(0.015625)"/>
     </defs>
     <use xlink:href="#DejaVuSans-Bold-4e"/>
     <use xlink:href="#DejaVuSans-Bold-4c" x="83.691406"/>
    </g>
   </g>
   <g id="text_19">
    <!-- BE -->
    <g transform="translate(421.097143 220.768652) scale(0.1 -0.1)">
     <defs>
      <path id="DejaVuSans-Bold-42" d="M 2456 2859 
Q 2741 2859 2887 2984 
Q 3034 3109 3034 3353 
Q 3034 3594 2887 3720 
Q 2741 3847 2456 3847 
L 1791 3847 
L 1791 2859 
L 2456 2859 
z
M 2497 819 
Q 2859 819 3042 972 
Q 3225 1125 3225 1434 
Q 3225 1738 3044 1889 
Q 2863 2041 2497 2041 
L 1791 2041 
L 1791 819 
L 2497 819 
z
M 3616 2497 
Q 4003 2384 4215 2081 
Q 4428 1778 4428 1338 
Q 4428 663 3972 331 
Q 3516 0 2584 0 
L 588 0 
L 588 4666 
L 2394 4666 
Q 3366 4666 3802 4372 
Q 4238 4078 4238 3431 
Q 4238 3091 4078 2852 
Q 3919 2613 3616 2497 
z
" transform="scale(0.015625)"/>
     </defs>
     <use xlink:href="#DejaVuSans-Bold-42"/>
     <use xlink:href="#DejaVuSans-Bold-45" x="76.220703"/>
    </g>
   </g>
   <g id="text_20">
    <!-- ES -->
    <g transform="translate(421.097143 222.447437) scale(0.1 -0.1)">
     <defs>
      <path id="DejaVuSans-Bold-53" d="M 3834 4519 
L 3834 3531 
Q 3450 3703 3084 3790 
Q 2719 3878 2394 3878 
Q 1963 3878 1756 3759 
Q 1550 3641 1550 3391 
Q 1550 3203 1689 3098 
Q 1828 2994 2194 2919 
L 2706 2816 
Q 3484 2659 3812 2340 
Q 4141 2022 4141 1434 
Q 4141 663 3683 286 
Q 3225 -91 2284 -91 
Q 1841 -91 1394 -6 
Q 947 78 500 244 
L 500 1259 
Q 947 1022 1364 901 
Q 1781 781 2169 781 
Q 2563 781 2772 912 
Q 2981 1044 2981 1288 
Q 2981 1506 2839 1625 
Q 2697 1744 2272 1838 
L 1806 1941 
Q 1106 2091 782 2419 
Q 459 2747 459 3303 
Q 459 4000 909 4375 
Q 1359 4750 2203 4750 
Q 2588 4750 2994 4692 
Q 3400 4634 3834 4519 
z
" transform="scale(0.015625)"/>
     </defs>
     <use xlink:href="#DejaVuSans-Bold-45"/>
     <use xlink:href="#DejaVuSans-Bold-53" x="68.310547"/>
    </g>
   </g>
   <g id="text_21">
    <!-- IT -->
    <g transform="translate(421.097143 238.988309) scale(0.1 -0.1)">
     <defs>
      <path id="DejaVuSans-Bold-49" d="M 588 4666 
L 1791 4666 
L 1791 0 
L 588 0 
L 588 4666 
z
" transform="scale(0.015625)"/>
      <path id="DejaVuSans-Bold-54" d="M 31 4666 
L 4331 4666 
L 4331 3756 
L 2784 3756 
L 2784 0 
L 1581 0 
L 1581 3756 
L 31 3756 
L 31 4666 
z
" transform="scale(0.015625)"/>
     </defs>
     <use xlink:href="#DejaVuSans-Bold-49"/>
     <use xlink:href="#DejaVuSans-Bold-54" x="37.207031"/>
    </g>
   </g>
   <g id="text_22">
    <!-- SK -->
    <g transform="translate(421.097143 247.798615) scale(0.1 -0.1)">
     <defs>
      <path id="DejaVuSans-Bold-4b" d="M 588 4666 
L 1791 4666 
L 1791 2963 
L 3525 4666 
L 4922 4666 
L 2675 2456 
L 5153 0 
L 3647 0 
L 1791 1838 
L 1791 0 
L 588 0 
L 588 4666 
z
" transform="scale(0.015625)"/>
     </defs>
     <use xlink:href="#DejaVuSans-Bold-53"/>
     <use xlink:href="#DejaVuSans-Bold-4b" x="72.021484"/>
    </g>
   </g>
   <g id="text_23">
    <!-- LT -->
    <g transform="translate(421.097143 250.218849) scale(0.1 -0.1)">
     <use xlink:href="#DejaVuSans-Bold-4c"/>
     <use xlink:href="#DejaVuSans-Bold-54" x="47.220703"/>
    </g>
   </g>
   <g id="text_24">
    <!-- PL -->
    <g transform="translate(421.097143 254.487375) scale(0.1 -0.1)">
     <defs>
      <path id="DejaVuSans-Bold-50" d="M 588 4666 
L 2584 4666 
Q 3475 4666 3951 4270 
Q 4428 3875 4428 3144 
Q 4428 2409 3951 2014 
Q 3475 1619 2584 1619 
L 1791 1619 
L 1791 0 
L 588 0 
L 588 4666 
z
M 1791 3794 
L 1791 2491 
L 2456 2491 
Q 2806 2491 2997 2661 
Q 3188 2831 3188 3144 
Q 3188 3456 2997 3625 
Q 2806 3794 2456 3794 
L 1791 3794 
z
" transform="scale(0.015625)"/>
     </defs>
     <use xlink:href="#DejaVuSans-Bold-50"/>
     <use xlink:href="#DejaVuSans-Bold-4c" x="73.291016"/>
    </g>
   </g>
   <g id="text_25">
    <!-- RO -->
    <g transform="translate(421.097143 268.267726) scale(0.1 -0.1)">
     <defs>
      <path id="DejaVuSans-Bold-52" d="M 2297 2597 
Q 2675 2597 2839 2737 
Q 3003 2878 3003 3200 
Q 3003 3519 2839 3656 
Q 2675 3794 2297 3794 
L 1791 3794 
L 1791 2597 
L 2297 2597 
z
M 1791 1766 
L 1791 0 
L 588 0 
L 588 4666 
L 2425 4666 
Q 3347 4666 3776 4356 
Q 4206 4047 4206 3378 
Q 4206 2916 3982 2619 
Q 3759 2322 3309 2181 
Q 3556 2125 3751 1926 
Q 3947 1728 4147 1325 
L 4800 0 
L 3519 0 
L 2950 1159 
Q 2778 1509 2601 1637 
Q 2425 1766 2131 1766 
L 1791 1766 
z
" transform="scale(0.015625)"/>
      <path id="DejaVuSans-Bold-4f" d="M 2719 3878 
Q 2169 3878 1866 3472 
Q 1563 3066 1563 2328 
Q 1563 1594 1866 1187 
Q 2169 781 2719 781 
Q 3272 781 3575 1187 
Q 3878 1594 3878 2328 
Q 3878 3066 3575 3472 
Q 3272 3878 2719 3878 
z
M 2719 4750 
Q 3844 4750 4481 4106 
Q 5119 3463 5119 2328 
Q 5119 1197 4481 553 
Q 3844 -91 2719 -91 
Q 1597 -91 958 553 
Q 319 1197 319 2328 
Q 319 3463 958 4106 
Q 1597 4750 2719 4750 
z
" transform="scale(0.015625)"/>
     </defs>
     <use xlink:href="#DejaVuSans-Bold-52"/>
     <use xlink:href="#DejaVuSans-Bold-4f" x="77.001953"/>
    </g>
   </g>
   <g id="text_26">
    <!-- HU -->
    <g transform="translate(421.097143 273.946658) scale(0.1 -0.1)">
     <defs>
      <path id="DejaVuSans-Bold-48" d="M 588 4666 
L 1791 4666 
L 1791 2888 
L 3566 2888 
L 3566 4666 
L 4769 4666 
L 4769 0 
L 3566 0 
L 3566 1978 
L 1791 1978 
L 1791 0 
L 588 0 
L 588 4666 
z
" transform="scale(0.015625)"/>
      <path id="DejaVuSans-Bold-55" d="M 588 4666 
L 1791 4666 
L 1791 1869 
Q 1791 1291 1980 1042 
Q 2169 794 2597 794 
Q 3028 794 3217 1042 
Q 3406 1291 3406 1869 
L 3406 4666 
L 4609 4666 
L 4609 1869 
Q 4609 878 4112 393 
Q 3616 -91 2597 -91 
Q 1581 -91 1084 393 
Q 588 878 588 1869 
L 588 4666 
z
" transform="scale(0.015625)"/>
     </defs>
     <use xlink:href="#DejaVuSans-Bold-48"/>
     <use xlink:href="#DejaVuSans-Bold-55" x="83.691406"/>
    </g>
   </g>
   <g id="text_27">
    <!-- UK -->
    <g transform="translate(421.097143 278.958926) scale(0.1 -0.1)">
     <use xlink:href="#DejaVuSans-Bold-55"/>
     <use xlink:href="#DejaVuSans-Bold-4b" x="81.201172"/>
    </g>
   </g>
   <g id="text_28">
    <!-- CZ -->
    <g transform="translate(421.097143 284.739468) scale(0.1 -0.1)">
     <defs>
      <path id="DejaVuSans-Bold-43" d="M 4288 256 
Q 3956 84 3597 -3 
Q 3238 -91 2847 -91 
Q 1681 -91 1000 561 
Q 319 1213 319 2328 
Q 319 3447 1000 4098 
Q 1681 4750 2847 4750 
Q 3238 4750 3597 4662 
Q 3956 4575 4288 4403 
L 4288 3438 
Q 3953 3666 3628 3772 
Q 3303 3878 2944 3878 
Q 2300 3878 1931 3465 
Q 1563 3053 1563 2328 
Q 1563 1606 1931 1193 
Q 2300 781 2944 781 
Q 3303 781 3628 887 
Q 3953 994 4288 1222 
L 4288 256 
z
" transform="scale(0.015625)"/>
      <path id="DejaVuSans-Bold-5a" d="M 359 4666 
L 4281 4666 
L 4281 3938 
L 1778 909 
L 4353 909 
L 4353 0 
L 288 0 
L 288 728 
L 2791 3756 
L 359 3756 
L 359 4666 
z
" transform="scale(0.015625)"/>
     </defs>
     <use xlink:href="#DejaVuSans-Bold-43"/>
     <use xlink:href="#DejaVuSans-Bold-5a" x="73.388672"/>
    </g>
   </g>
   <g id="line2d_66">
    <path d="M 57.6 295.616743 
L 83.108571 293.79606 
L 108.617143 293.760482 
L 134.125714 288.80859 
L 159.634286 227.75711 
L 185.142857 208.47924 
L 210.651429 208.937306 
L 236.16 175.478802 
L 261.668571 153.939528 
L 287.177143 79.027335 
L 312.685714 75.014296 
L 338.194286 63.799505 
L 363.702857 62.879037 
L 389.211429 42.609078 
L 414.72 47.648783 
" clip-path="url(#pe98b5fc102)" style="fill: none; stroke: #a30774; stroke-width: 1.2; stroke-linecap: square"/>
   </g>
   <g id="line2d_67">
    <path d="M 57.6 297.60777 
L 83.108571 296.044854 
L 108.617143 296.379896 
L 134.125714 296.930807 
L 159.634286 297.771198 
L 185.142857 298.315538 
L 210.651429 299.580443 
L 236.16 300.124755 
L 261.668571 300.719406 
L 287.177143 301.217824 
L 312.685714 287.856582 
L 338.194286 253.476734 
L 363.702857 194.583967 
L 389.211429 166.227572 
L 414.72 166.783859 
" clip-path="url(#pe98b5fc102)" style="fill: none; stroke: #a30774; stroke-width: 1.2; stroke-linecap: square"/>
   </g>
   <g id="line2d_68">
    <path d="M 57.6 303.52526 
L 83.108571 303.265266 
L 108.617143 302.963618 
L 134.125714 303.212422 
L 159.634286 303.544235 
L 185.142857 303.748546 
L 210.651429 303.461062 
L 236.16 300.82952 
L 261.668571 301.09488 
L 287.177143 301.255911 
L 312.685714 257.059338 
L 338.194286 219.524895 
L 363.702857 219.743803 
L 389.211429 217.751068 
L 414.72 218.009277 
" clip-path="url(#pe98b5fc102)" style="fill: none; stroke: #a30774; stroke-width: 1.2; stroke-linecap: square"/>
   </g>
  </g>
 </g>
 <defs>
  <clipPath id="pe98b5fc102">
   <rect x="57.6" y="41.472" width="357.12" height="266.112"/>
  </clipPath>
 </defs>
</svg>
